<svg viewBox="0 0 736 745" fill="none" xmlns="http://www.w3.org/2000/svg">
    <path d="M739.351 519.864C640.869 628.6 415.221 634.073 283.215 572.848C150.077 511.097 76.1118 366.925 173.602 257.301C284.393 132.72 502.832 140.228 639 195C787.459 254.716 828.928 420.962 739.351 519.864Z" fill="url(#paint0_linear_11801_129126)"/>
    <g opacity="0.1">
        <path d="M245.035 25.9841L309.458 127.399C312.199 131.713 319.004 133.982 326.845 133.196L511.14 114.708" stroke="url(#paint1_linear_11801_129126)" stroke-width="16.0315"/>
        <rect x="1.93694" y="8.20409" width="276.67" height="188.042" rx="25.7348" transform="matrix(0.94866 0.316299 -0.707019 0.707195 269.191 1.78961)" stroke="url(#paint2_linear_11801_129126)" stroke-width="16.0315"/>
    </g>
    <g opacity="0.2" filter="url(#filter0_f_11801_129126)">
        <path fill-rule="evenodd" clip-rule="evenodd" d="M423.126 240.999L183.998 477.956L526.928 666.999L845.998 380.309L423.126 240.999Z" fill="url(#paint3_linear_11801_129126)"/>
    </g>
    <rect width="286.686" height="356.41" rx="30" transform="matrix(0.94242 0.334432 -0.684648 0.728874 387.168 159.941)" fill="white"/>
    <path d="M342.918 325.055L347.017 323.081L348.861 323.736L342.601 326.599L340.318 329.029L338.618 328.426L340.86 326.038L341.804 321.232L343.66 321.89L342.918 325.055ZM354.281 329.81C353.31 330.844 352.232 331.52 351.048 331.84C349.864 332.161 348.654 332.101 347.417 331.662C346.18 331.223 345.491 330.609 345.35 329.818C345.208 329.028 345.626 328.113 346.602 327.074C347.578 326.035 348.654 325.359 349.831 325.048C351.013 324.735 352.225 324.798 353.465 325.239C354.706 325.679 355.394 326.291 355.531 327.076C355.671 327.862 355.254 328.774 354.281 329.81ZM348.389 327.719C347.734 328.417 347.411 329.003 347.422 329.477C347.433 329.952 347.779 330.31 348.46 330.552C349.826 331.036 351.168 330.577 352.486 329.173C353.807 327.767 353.789 326.822 352.43 326.34C351.749 326.099 351.068 326.094 350.388 326.328C349.71 326.558 349.044 327.022 348.389 327.719ZM365.45 329.622L361.655 333.663C361.221 334.124 360.707 334.48 360.112 334.732C359.521 334.986 358.886 335.115 358.208 335.121C357.53 335.128 356.846 335.008 356.158 334.764C355.12 334.396 354.506 333.905 354.317 333.291C354.131 332.674 354.373 332.009 355.044 331.294L358.823 327.271L360.529 327.876L356.939 331.699C356.487 332.18 356.281 332.577 356.32 332.891C356.359 333.205 356.667 333.464 357.245 333.669C357.805 333.868 358.315 333.899 358.777 333.763C359.245 333.625 359.706 333.315 360.161 332.831L363.743 329.017L365.45 329.622ZM366.535 333.703L367.087 333.899C367.628 334.091 368.093 334.163 368.482 334.115C368.87 334.067 369.205 333.893 369.486 333.594C369.764 333.298 369.83 333.041 369.682 332.821C369.539 332.603 369.191 332.396 368.638 332.2L368.119 332.016L366.535 333.703ZM365.524 334.779L363.273 337.175L361.561 336.568L367.426 330.324L369.779 331.159C370.876 331.548 371.542 331.991 371.777 332.488C372.014 332.983 371.838 333.544 371.247 334.174C370.902 334.541 370.463 334.822 369.932 335.017C369.403 335.209 368.823 335.301 368.192 335.293C368.088 337.128 368.028 338.316 368.011 338.857L366.112 338.182L366.435 335.103L365.524 334.779ZM376.907 342.013L377.718 340.319L374.775 339.275L372.793 340.553L370.949 339.899L379.687 334.641L381.78 335.383L378.751 342.668L376.907 342.013ZM378.352 339.064C379.076 337.525 379.486 336.655 379.582 336.454C379.681 336.254 379.764 336.097 379.831 335.984C379.367 336.306 378.173 337.083 376.248 338.317L378.352 339.064ZM388.116 339.016C387.472 338.787 386.797 338.798 386.09 339.048C385.387 339.296 384.72 339.754 384.092 340.423C382.784 341.816 382.806 342.751 384.157 343.231C384.724 343.432 385.513 343.566 386.526 343.633L385.482 344.743C384.619 344.722 383.779 344.566 382.962 344.276C381.787 343.859 381.147 343.266 381.041 342.495C380.938 341.722 381.37 340.82 382.339 339.79C382.948 339.14 383.635 338.627 384.397 338.248C385.163 337.867 385.953 337.648 386.767 337.591C387.587 337.533 388.382 337.641 389.151 337.914C389.935 338.192 390.586 338.618 391.102 339.192L389.538 340.073C389.341 339.854 389.128 339.65 388.9 339.459C388.672 339.268 388.411 339.12 388.116 339.016ZM395.328 341.575C394.684 341.346 394.009 341.357 393.302 341.607C392.598 341.855 391.932 342.313 391.304 342.982C389.996 344.375 390.018 345.311 391.369 345.79C391.936 345.991 392.725 346.125 393.737 346.192L392.694 347.302C391.831 347.281 390.991 347.125 390.173 346.835C388.999 346.418 388.359 345.825 388.253 345.055C388.15 344.281 388.582 343.379 389.55 342.349C390.16 341.7 390.846 341.186 391.609 340.807C392.375 340.426 393.165 340.207 393.978 340.151C394.799 340.092 395.594 340.2 396.363 340.473C397.147 340.751 397.797 341.177 398.313 341.752L396.75 342.632C396.553 342.414 396.34 342.209 396.112 342.018C395.884 341.827 395.623 341.679 395.328 341.575ZM404.465 347.619C403.494 348.652 402.416 349.329 401.232 349.649C400.048 349.969 398.837 349.91 397.601 349.471C396.364 349.032 395.675 348.417 395.533 347.627C395.392 346.836 395.81 345.922 396.786 344.882C397.762 343.843 398.838 343.168 400.014 342.856C401.197 342.543 402.408 342.607 403.649 343.047C404.89 343.487 405.578 344.1 405.715 344.885C405.855 345.671 405.438 346.582 404.465 347.619ZM398.573 345.528C397.917 346.225 397.595 346.811 397.606 347.286C397.617 347.76 397.963 348.119 398.644 348.36C400.009 348.845 401.351 348.385 402.67 346.982C403.991 345.575 403.973 344.631 402.614 344.149C401.933 343.907 401.252 343.903 400.572 344.136C399.894 344.366 399.228 344.83 398.573 345.528ZM415.633 347.431L411.838 351.471C411.405 351.932 410.891 352.289 410.296 352.541C409.705 352.794 409.07 352.924 408.392 352.93C407.714 352.936 407.03 352.817 406.342 352.573C405.304 352.204 404.69 351.713 404.501 351.099C404.314 350.483 404.557 349.817 405.228 349.102L409.007 345.079L410.713 345.685L407.123 349.507C406.671 349.988 406.464 350.386 406.504 350.7C406.543 351.013 406.851 351.273 407.429 351.478C407.989 351.676 408.499 351.708 408.961 351.572C409.429 351.434 409.89 351.123 410.345 350.639L413.927 346.825L415.633 347.431ZM418.907 356.918L416.732 356.146L417.657 350.176L417.607 350.158C416.893 351.017 416.369 351.625 416.035 351.981L413.275 354.919L411.745 354.376L417.61 348.132L419.769 348.899L418.883 354.819L418.922 354.833C419.629 354.002 420.14 353.419 420.456 353.083L423.232 350.127L424.772 350.674L418.907 356.918ZM424.059 358.746L422.348 358.139L427.178 352.997L424.985 352.219L426.02 351.117L432.117 353.28L431.082 354.382L428.889 353.604L424.059 358.746Z" fill="#677897"/>
    <g opacity="0.2" filter="url(#filter1_f_11801_129126)">
        <path fill-rule="evenodd" clip-rule="evenodd" d="M404.639 470.723C411.694 473.118 419.497 471.332 424.81 466.108V466.108C440.061 451.109 434.849 425.382 414.963 417.501L377.265 402.563L242.021 353.484C234.989 360.148 234.989 360.148 234.989 360.148L195.317 396.595L195.319 396.595L353.489 453.366L404.639 470.723Z" fill="url(#paint4_linear_11801_129126)"/>
    </g>
    <g filter="url(#filter2_d_11801_129126)">
        <rect width="237.864" height="82.1588" rx="15" transform="matrix(0.94242 0.334432 -0.684648 0.728874 235.25 296)" fill="white"/>
    </g>
    <rect width="165.107" height="28.6286" rx="14.3143" transform="matrix(0.94242 0.334432 -0.684648 0.728874 245.596 329.999)" fill="#EAF1FC"/>
    <path d="M253.847 344.81L251.232 347.593C250.904 347.943 250.761 348.24 250.805 348.486C250.849 348.731 251.091 348.931 251.529 349.087C252.11 349.293 252.649 349.321 253.146 349.17C253.646 349.02 254.157 348.668 254.68 348.112L256.798 345.857L257.638 346.155L253.608 350.446L252.914 350.2L253.333 349.581L253.288 349.565C252.917 349.715 252.525 349.792 252.113 349.795C251.704 349.8 251.303 349.732 250.912 349.594C250.237 349.354 249.847 349.05 249.743 348.683C249.642 348.316 249.847 347.86 250.36 347.315L252.996 344.508L253.847 344.81ZM260.073 351.179C259.698 351.579 259.216 351.818 258.628 351.898C258.04 351.978 257.398 351.895 256.703 351.648C255.967 351.387 255.478 351.094 255.235 350.768L255.802 350.165C255.97 350.364 256.178 350.547 256.426 350.715C256.676 350.884 256.943 351.019 257.227 351.119C257.666 351.275 258.053 351.341 258.39 351.318C258.729 351.292 259.003 351.168 259.211 350.947C259.368 350.78 259.407 350.604 259.329 350.419C259.256 350.233 259.024 349.963 258.632 349.609C258.256 349.277 258.009 349.017 257.893 348.829C257.782 348.64 257.739 348.456 257.764 348.277C257.792 348.099 257.897 347.912 258.081 347.716C258.41 347.367 258.852 347.157 259.409 347.086C259.968 347.013 260.568 347.09 261.209 347.318C261.807 347.53 262.302 347.831 262.696 348.221L261.901 348.644C261.511 348.269 261.09 348.001 260.637 347.841C260.239 347.699 259.893 347.641 259.6 347.666C259.307 347.69 259.081 347.788 258.921 347.957C258.814 348.072 258.759 348.183 258.757 348.29C258.759 348.399 258.809 348.519 258.91 348.652C259.01 348.785 259.234 349.006 259.584 349.314C260.068 349.733 260.336 350.077 260.389 350.347C260.445 350.617 260.34 350.895 260.073 351.179ZM262.615 353.747C261.795 353.456 261.328 353.032 261.215 352.477C261.106 351.923 261.373 351.303 262.018 350.617C262.668 349.925 263.403 349.454 264.224 349.202C265.049 348.952 265.832 348.959 266.575 349.222C267.27 349.469 267.653 349.841 267.725 350.34C267.799 350.836 267.564 351.374 267.019 351.953L266.633 352.364L262.812 351.008C262.355 351.518 262.16 351.958 262.225 352.329C262.294 352.702 262.612 352.988 263.179 353.19C263.776 353.402 264.457 353.515 265.222 353.529L264.678 354.108C264.288 354.102 263.94 354.072 263.634 354.019C263.329 353.97 262.99 353.879 262.615 353.747ZM266.053 349.763C265.608 349.604 265.147 349.59 264.669 349.72C264.195 349.851 263.748 350.107 263.328 350.487L266.229 351.516C266.614 351.106 266.79 350.751 266.757 350.451C266.727 350.148 266.492 349.918 266.053 349.763ZM272.801 351.431C273.047 351.519 273.253 351.613 273.42 351.714L272.737 352.275C272.544 352.155 272.36 352.063 272.185 352.001C271.736 351.842 271.219 351.846 270.634 352.014C270.052 352.184 269.563 352.478 269.169 352.898L267.006 355.2L266.166 354.902L270.196 350.612L270.89 350.858L270.239 351.686L270.28 351.701C270.748 351.495 271.198 351.367 271.631 351.319C272.063 351.271 272.453 351.308 272.801 351.431ZM274.194 357.751L276.801 354.975C277.13 354.626 277.272 354.328 277.228 354.083C277.184 353.838 276.943 353.637 276.504 353.481C275.923 353.276 275.384 353.246 274.886 353.393C274.388 353.54 273.877 353.893 273.352 354.451L271.238 356.702L270.398 356.404L274.428 352.113L275.111 352.356L274.696 352.991L274.737 353.006C275.108 352.856 275.502 352.778 275.92 352.773C276.341 352.766 276.742 352.83 277.124 352.965C277.792 353.203 278.177 353.506 278.279 353.877C278.384 354.244 278.178 354.702 277.664 355.25L275.034 358.049L274.194 357.751ZM280.177 359.874L280.584 359.204L280.543 359.19C280.014 359.361 279.566 359.445 279.198 359.443C278.837 359.44 278.45 359.366 278.038 359.22C277.488 359.025 277.159 358.762 277.051 358.431C276.947 358.102 277.085 357.735 277.465 357.33C278.279 356.464 279.601 356.327 281.432 356.922L282.396 357.232L282.646 356.966C282.962 356.629 283.1 356.348 283.061 356.122C283.027 355.894 282.805 355.707 282.393 355.561C281.931 355.397 281.305 355.321 280.515 355.333L280.724 354.744C281.105 354.726 281.488 354.742 281.874 354.792C282.262 354.843 282.62 354.926 282.947 355.043C283.609 355.277 283.992 355.564 284.095 355.904C284.203 356.245 284.021 356.666 283.55 357.167L280.8 360.095L280.177 359.874ZM278.709 358.743C279.232 358.928 279.746 358.963 280.252 358.846C280.761 358.731 281.202 358.474 281.577 358.075L281.942 357.687L281.076 357.416C280.39 357.197 279.832 357.107 279.4 357.145C278.974 357.182 278.62 357.35 278.338 357.651C278.117 357.885 278.041 358.097 278.108 358.284C278.178 358.472 278.378 358.625 278.709 358.743ZM289.607 363.221L292.229 360.429C292.55 360.088 292.696 359.798 292.667 359.562C292.639 359.322 292.427 359.132 292.028 358.991C291.505 358.805 291.01 358.784 290.542 358.928C290.074 359.071 289.613 359.385 289.16 359.867L286.909 362.263L286.069 361.965L288.691 359.174C289.012 358.832 289.158 358.543 289.128 358.306C289.101 358.067 288.887 357.876 288.485 357.733C287.959 357.546 287.457 357.532 286.98 357.69C286.509 357.846 286.013 358.203 285.491 358.759L283.376 361.01L282.536 360.711L286.566 356.421L287.25 356.663L286.835 357.299L286.875 357.313C287.23 357.161 287.606 357.077 288.003 357.061C288.404 357.047 288.783 357.103 289.14 357.23C290.008 357.538 290.347 357.981 290.157 358.561L290.198 358.576C290.574 358.41 290.98 358.318 291.417 358.298C291.853 358.279 292.272 358.341 292.674 358.484C293.301 358.706 293.653 358.998 293.728 359.359C293.809 359.718 293.592 360.172 293.077 360.72L290.448 363.519L289.607 363.221ZM294.454 365.045C293.634 364.754 293.167 364.331 293.054 363.776C292.945 363.222 293.212 362.602 293.857 361.915C294.507 361.224 295.242 360.752 296.063 360.501C296.888 360.25 297.671 360.257 298.414 360.521C299.109 360.767 299.492 361.14 299.564 361.639C299.638 362.135 299.403 362.672 298.858 363.252L298.472 363.663L294.65 362.307C294.194 362.816 293.999 363.257 294.064 363.628C294.133 364 294.451 364.287 295.017 364.488C295.615 364.7 296.296 364.813 297.061 364.827L296.517 365.407C296.127 365.4 295.779 365.371 295.473 365.318C295.168 365.269 294.828 365.178 294.454 365.045ZM297.892 361.061C297.447 360.903 296.985 360.889 296.508 361.019C296.034 361.15 295.587 361.405 295.167 361.785L298.068 362.814C298.452 362.405 298.629 362.05 298.596 361.749C298.566 361.446 298.331 361.217 297.892 361.061ZM308.501 366.12C308.153 366.491 307.76 366.804 307.322 367.059C306.885 367.314 306.451 367.479 306.022 367.553C305.592 367.627 305.202 367.601 304.851 367.477C304.561 367.374 304.38 367.219 304.309 367.013C304.237 366.806 304.282 366.591 304.443 366.366L304.403 366.352C304.055 366.531 303.694 366.64 303.321 366.678C302.951 366.717 302.594 366.676 302.249 366.553C301.743 366.374 301.472 366.1 301.435 365.732C301.404 365.363 301.604 364.948 302.036 364.489C302.536 363.956 303.141 363.595 303.85 363.405C304.562 363.212 305.242 363.231 305.89 363.461C306.12 363.542 306.364 363.651 306.622 363.788C306.883 363.923 307.103 364.06 307.281 364.2L305.427 365.995L305.346 366.081C304.909 366.546 304.916 366.857 305.364 367.017C305.671 367.126 306.052 367.075 306.507 366.864C306.964 366.65 307.403 366.319 307.825 365.87C308.269 365.398 308.533 364.94 308.616 364.496C308.7 364.052 308.6 363.653 308.317 363.299C308.039 362.943 307.602 362.659 307.005 362.447C306.252 362.18 305.483 362.069 304.699 362.114C303.916 362.157 303.167 362.35 302.452 362.695C301.739 363.037 301.107 363.502 300.556 364.089C299.808 364.885 299.505 365.593 299.646 366.214C299.787 366.835 300.369 367.327 301.391 367.69C302.1 367.941 302.941 368.09 303.915 368.136L303.426 368.657C302.572 368.646 301.733 368.495 300.91 368.202C299.685 367.768 298.977 367.17 298.787 366.41C298.602 365.649 298.949 364.801 299.826 363.867C300.464 363.188 301.212 362.648 302.07 362.246C302.929 361.845 303.829 361.617 304.769 361.565C305.712 361.51 306.615 361.635 307.479 361.942C308.204 362.199 308.737 362.547 309.078 362.984C309.424 363.42 309.546 363.911 309.444 364.456C309.347 364.999 309.033 365.554 308.501 366.12ZM302.785 364.776C302.163 365.439 302.18 365.887 302.838 366.12C303.537 366.368 304.3 366.095 305.128 365.299L306.159 364.303C305.965 364.164 305.725 364.044 305.438 363.942C304.999 363.787 304.545 363.782 304.074 363.928C303.607 364.076 303.178 364.358 302.785 364.776ZM309.599 370.419C308.779 370.128 308.312 369.705 308.199 369.15C308.09 368.596 308.357 367.976 309.002 367.29C309.652 366.598 310.387 366.127 311.208 365.875C312.033 365.625 312.816 365.631 313.559 365.895C314.254 366.142 314.637 366.514 314.709 367.013C314.783 367.509 314.548 368.047 314.003 368.626L313.617 369.037L309.795 367.681C309.339 368.191 309.144 368.631 309.209 369.002C309.278 369.375 309.596 369.661 310.162 369.863C310.76 370.075 311.441 370.188 312.206 370.202L311.662 370.781C311.272 370.775 310.924 370.745 310.618 370.692C310.313 370.643 309.973 370.552 309.599 370.419ZM313.037 366.436C312.592 366.277 312.13 366.263 311.653 366.393C311.179 366.524 310.732 366.78 310.312 367.16L313.213 368.189C313.597 367.779 313.774 367.424 313.741 367.124C313.711 366.821 313.476 366.591 313.037 366.436ZM320.221 374.085L322.843 371.293C323.164 370.951 323.31 370.662 323.28 370.425C323.253 370.186 323.041 369.996 322.642 369.854C322.119 369.669 321.624 369.648 321.156 369.792C320.688 369.935 320.227 370.248 319.774 370.731L317.523 373.127L316.683 372.829L319.305 370.038C319.626 369.696 319.772 369.406 319.742 369.17C319.715 368.93 319.501 368.74 319.099 368.597C318.573 368.41 318.071 368.396 317.594 368.554C317.123 368.71 316.627 369.066 316.105 369.622L313.99 371.873L313.15 371.575L317.18 367.285L317.864 367.527L317.449 368.163L317.489 368.177C317.844 368.025 318.22 367.941 318.617 367.925C319.017 367.91 319.397 367.967 319.754 368.094C320.622 368.401 320.96 368.845 320.771 369.425L320.812 369.44C321.188 369.274 321.594 369.181 322.03 369.162C322.467 369.143 322.886 369.205 323.287 369.347C323.915 369.57 324.266 369.862 324.342 370.223C324.423 370.582 324.206 371.036 323.691 371.584L321.062 374.383L320.221 374.085ZM326.209 376.21L326.616 375.54L326.576 375.525C326.046 375.696 325.598 375.78 325.231 375.779C324.869 375.776 324.482 375.701 324.071 375.555C323.521 375.36 323.192 375.097 323.084 374.766C322.979 374.437 323.117 374.07 323.497 373.665C324.311 372.799 325.633 372.663 327.464 373.257L328.428 373.567L328.678 373.301C328.994 372.965 329.133 372.683 329.093 372.457C329.06 372.229 328.837 372.042 328.425 371.896C327.963 371.732 327.337 371.656 326.547 371.668L326.756 371.079C327.137 371.062 327.521 371.077 327.906 371.127C328.294 371.178 328.652 371.262 328.98 371.378C329.641 371.613 330.024 371.9 330.128 372.239C330.235 372.58 330.053 373.001 329.583 373.502L326.832 376.43L326.209 376.21ZM324.741 375.078C325.264 375.264 325.779 375.298 326.284 375.182C326.793 375.066 327.235 374.809 327.61 374.41L327.974 374.022L327.108 373.751C326.422 373.533 325.864 373.442 325.432 373.48C325.006 373.517 324.652 373.686 324.37 373.986C324.15 374.221 324.073 374.432 324.14 374.619C324.21 374.808 324.411 374.961 324.741 375.078ZM329.408 377.345L328.568 377.047L332.599 372.756L333.439 373.054L329.408 377.345ZM333.62 371.568C333.76 371.419 333.909 371.328 334.067 371.293C334.227 371.257 334.379 371.263 334.52 371.313C334.655 371.361 334.739 371.438 334.77 371.543C334.802 371.648 334.749 371.774 334.612 371.92C334.475 372.066 334.323 372.159 334.156 372.197C333.992 372.233 333.843 372.227 333.708 372.179C333.566 372.128 333.481 372.051 333.453 371.947C333.427 371.841 333.483 371.714 333.62 371.568ZM332.03 378.275L331.19 377.977L336.912 371.886L337.752 372.184L332.03 378.275ZM334.081 378.449C334.245 378.275 334.419 378.161 334.604 378.108C334.794 378.054 334.986 378.061 335.178 378.129C335.374 378.198 335.483 378.298 335.505 378.428C335.533 378.556 335.465 378.708 335.3 378.882C335.141 379.052 334.963 379.163 334.766 379.215C334.569 379.266 334.374 379.258 334.181 379.19C334.009 379.129 333.904 379.038 333.865 378.916C333.832 378.793 333.904 378.637 334.081 378.449ZM338.72 380.753C337.916 380.468 337.473 380.057 337.389 379.519C337.31 378.98 337.6 378.36 338.257 377.661C338.931 376.943 339.674 376.468 340.488 376.234C341.304 376.002 342.126 376.032 342.953 376.326C343.219 376.42 343.465 376.537 343.69 376.676C343.915 376.815 344.075 376.942 344.17 377.056L343.394 377.516C343.262 377.393 343.104 377.274 342.919 377.159C342.736 377.042 342.561 376.954 342.392 376.894C341.265 376.494 340.179 376.85 339.135 377.962C338.639 378.489 338.396 378.942 338.405 379.321C338.417 379.701 338.693 379.987 339.232 380.179C339.695 380.343 340.241 380.434 340.872 380.452L340.331 381.028C339.82 381.045 339.283 380.953 338.72 380.753ZM348.324 381.191C347.667 381.891 346.925 382.357 346.1 382.589C345.276 382.819 344.463 382.792 343.66 382.507C343.164 382.33 342.808 382.084 342.592 381.768C342.377 381.451 342.323 381.087 342.43 380.676C342.537 380.265 342.802 379.834 343.226 379.383C343.883 378.683 344.621 378.219 345.438 377.991C346.258 377.76 347.07 377.787 347.873 378.072C348.649 378.347 349.077 378.765 349.158 379.326C349.242 379.889 348.964 380.51 348.324 381.191ZM344.097 379.692C343.582 380.24 343.332 380.708 343.345 381.095C343.359 381.483 343.641 381.774 344.191 381.97C344.741 382.165 345.292 382.17 345.842 381.987C346.399 381.801 346.936 381.433 347.453 380.883C347.965 380.337 348.211 379.872 348.188 379.489C348.172 379.104 347.886 378.812 347.329 378.615C346.779 378.42 346.233 378.412 345.69 378.592C345.148 378.772 344.617 379.138 344.097 379.692ZM354.854 386.375L357.476 383.583C357.797 383.241 357.943 382.952 357.913 382.715C357.886 382.476 357.674 382.286 357.275 382.145C356.752 381.959 356.257 381.938 355.789 382.082C355.321 382.225 354.86 382.538 354.407 383.021L352.156 385.417L351.316 385.119L353.938 382.328C354.259 381.986 354.405 381.697 354.375 381.46C354.348 381.221 354.134 381.03 353.732 380.887C353.206 380.7 352.704 380.686 352.227 380.844C351.756 381 351.26 381.356 350.738 381.912L348.623 384.163L347.783 383.865L351.813 379.575L352.497 379.817L352.082 380.453L352.122 380.467C352.477 380.315 352.853 380.231 353.25 380.215C353.65 380.2 354.03 380.257 354.387 380.384C355.255 380.691 355.593 381.135 355.404 381.715L355.445 381.73C355.821 381.564 356.227 381.471 356.663 381.452C357.1 381.433 357.519 381.495 357.92 381.637C358.548 381.86 358.9 382.152 358.975 382.513C359.056 382.872 358.839 383.326 358.324 383.874L355.695 386.673L354.854 386.375Z" fill="#677897" fill-opacity="0.47"/>
    <path d="M268.677 331.469L264.111 329.848L269.976 323.605L274.542 325.225L273.732 326.088L270.485 324.936L268.888 326.635L271.931 327.715L271.129 328.569L268.086 327.49L266.245 329.45L269.492 330.602L268.677 331.469ZM275.436 333.867L274.133 333.405L276.869 330.492C277.209 330.131 277.373 329.83 277.362 329.591C277.354 329.349 277.162 329.161 276.787 329.028C276.286 328.85 275.799 328.847 275.325 329.016C274.858 329.185 274.349 329.562 273.798 330.148L271.587 332.502L270.29 332.041L274.727 327.318L275.743 327.678L275.343 328.362L275.409 328.386C275.79 328.221 276.198 328.134 276.633 328.125C277.072 328.118 277.485 328.183 277.872 328.32C278.81 328.653 279.2 329.121 279.04 329.725L279.128 329.757C279.528 329.587 279.953 329.495 280.404 329.48C280.854 329.466 281.291 329.533 281.715 329.684C282.444 329.942 282.84 330.273 282.904 330.675C282.972 331.079 282.731 331.572 282.183 332.156L279.291 335.235L277.993 334.775L280.729 331.862C281.068 331.501 281.231 331.199 281.216 330.959C281.208 330.717 281.016 330.529 280.641 330.396C280.137 330.217 279.652 330.208 279.186 330.369C278.727 330.529 278.26 330.861 277.787 331.365L275.436 333.867ZM284.923 337.234L285.281 336.484L285.237 336.469C284.672 336.652 284.192 336.743 283.794 336.742C283.4 336.739 282.969 336.654 282.501 336.489C281.901 336.276 281.55 335.984 281.446 335.613C281.347 335.244 281.512 334.83 281.943 334.371C282.4 333.884 282.979 333.6 283.679 333.518C284.379 333.437 285.219 333.554 286.197 333.871L287.276 334.22L287.513 333.968C287.796 333.666 287.915 333.408 287.87 333.195C287.832 332.98 287.621 332.805 287.238 332.669C286.925 332.558 286.592 332.487 286.238 332.456C285.884 332.425 285.529 332.411 285.173 332.414L285.427 331.548C285.884 331.531 286.342 331.559 286.8 331.631C287.26 331.699 287.666 331.795 288.015 331.92C288.792 332.195 289.254 332.534 289.402 332.936C289.554 333.339 289.366 333.821 288.839 334.381L285.851 337.563L284.923 337.234ZM283.632 335.865C284.103 336.032 284.576 336.065 285.049 335.963C285.529 335.86 285.941 335.625 286.286 335.258L286.671 334.848L285.863 334.595C285.236 334.395 284.716 334.317 284.302 334.36C283.895 334.402 283.555 334.568 283.282 334.858C283.084 335.069 283.011 335.261 283.064 335.435C283.119 335.607 283.308 335.75 283.632 335.865ZM288.96 338.666L287.662 338.206L292.099 333.482L293.396 333.943L288.96 338.666ZM293.197 332.204C293.365 332.024 293.558 331.908 293.774 331.856C293.994 331.805 294.221 331.821 294.457 331.905C294.685 331.986 294.816 332.097 294.851 332.238C294.888 332.381 294.823 332.542 294.655 332.721C294.494 332.892 294.303 333.004 294.08 333.058C293.864 333.111 293.642 333.096 293.414 333.015C293.178 332.932 293.041 332.819 293.004 332.676C292.972 332.532 293.036 332.375 293.197 332.204ZM292.118 339.787L290.821 339.327L297.063 332.682L298.36 333.142L292.118 339.787ZM300.738 342.846L301.096 342.096L301.052 342.081C300.487 342.264 300.007 342.355 299.609 342.355C299.215 342.351 298.784 342.267 298.316 342.101C297.716 341.888 297.365 341.596 297.261 341.225C297.162 340.856 297.327 340.442 297.758 339.983C298.215 339.497 298.794 339.212 299.494 339.131C300.194 339.049 301.034 339.166 302.012 339.483L303.091 339.832L303.328 339.58C303.611 339.278 303.73 339.02 303.685 338.807C303.647 338.592 303.436 338.417 303.053 338.281C302.74 338.17 302.407 338.099 302.053 338.068C301.699 338.038 301.344 338.024 300.988 338.026L301.242 337.16C301.699 337.144 302.157 337.171 302.615 337.243C303.075 337.311 303.481 337.408 303.83 337.532C304.607 337.807 305.069 338.146 305.217 338.548C305.369 338.951 305.181 339.433 304.654 339.994L301.666 343.175L300.738 342.846ZM299.447 341.477C299.918 341.644 300.391 341.677 300.864 341.576C301.344 341.472 301.756 341.237 302.101 340.87L302.486 340.46L301.678 340.207C301.051 340.008 300.53 339.929 300.117 339.972C299.71 340.014 299.37 340.18 299.097 340.47C298.899 340.681 298.826 340.873 298.879 341.048C298.934 341.219 299.123 341.362 299.447 341.477ZM305.456 344.634C304.694 344.364 304.3 343.94 304.275 343.361C304.249 342.782 304.598 342.107 305.323 341.336C306.05 340.561 306.831 340.035 307.666 339.758C308.507 339.48 309.31 339.476 310.076 339.748C310.878 340.033 311.274 340.479 311.263 341.086L311.329 341.11C311.585 340.749 311.805 340.47 311.99 340.273L313.606 338.552L314.91 339.015L308.668 345.66L307.652 345.3L308.007 344.6L307.946 344.578C307.089 344.901 306.259 344.919 305.456 344.634ZM306.566 343.946C307.1 344.136 307.597 344.158 308.057 344.014C308.519 343.867 308.998 343.534 309.495 343.016L309.628 342.875C310.186 342.28 310.458 341.812 310.443 341.473C310.428 341.134 310.154 340.869 309.62 340.68C309.164 340.518 308.677 340.537 308.16 340.737C307.646 340.934 307.141 341.297 306.643 341.827C306.151 342.351 305.895 342.793 305.875 343.154C305.857 343.513 306.088 343.777 306.566 343.946ZM318.138 342.609C318.399 342.702 318.601 342.792 318.744 342.881L317.738 343.771C317.586 343.672 317.411 343.587 317.212 343.516C316.693 343.332 316.149 343.313 315.579 343.46C315.012 343.609 314.532 343.892 314.139 344.311L311.821 346.779L310.523 346.319L314.96 341.595L315.976 341.956L315.365 342.849L315.431 342.873C315.898 342.663 316.371 342.533 316.851 342.482C317.333 342.434 317.762 342.476 318.138 342.609ZM317.991 349.083C317.042 348.746 316.498 348.268 316.362 347.65C316.232 347.031 316.52 346.346 317.226 345.594C317.951 344.822 318.769 344.304 319.681 344.039C320.592 343.774 321.482 343.796 322.351 344.104C323.157 344.39 323.616 344.806 323.728 345.35C323.84 345.895 323.584 346.499 322.961 347.162L322.452 347.704L318.382 346.26C317.97 346.725 317.798 347.135 317.868 347.49C317.939 347.842 318.25 348.115 318.798 348.31C319.159 348.438 319.518 348.531 319.875 348.59C320.239 348.647 320.657 348.677 321.129 348.681L320.363 349.497C319.937 349.502 319.539 349.47 319.169 349.404C318.8 349.337 318.407 349.23 317.991 349.083ZM321.637 344.864C321.225 344.718 320.799 344.702 320.358 344.815C319.922 344.929 319.498 345.172 319.086 345.542L321.858 346.526C322.217 346.133 322.373 345.795 322.324 345.512C322.278 345.227 322.049 345.011 321.637 344.864ZM327.287 350.474C326.854 350.935 326.303 351.212 325.636 351.306C324.972 351.397 324.235 351.298 323.425 351.011C322.611 350.722 322.048 350.395 321.733 350.029L322.548 349.162C323.025 349.673 323.573 350.038 324.191 350.258C324.99 350.541 325.565 350.497 325.915 350.124C326.027 350.004 326.077 349.889 326.063 349.778C326.05 349.667 325.982 349.532 325.86 349.375C325.737 349.218 325.547 349.021 325.288 348.785C324.782 348.325 324.504 347.945 324.451 347.645C324.402 347.347 324.536 347.03 324.851 346.694C325.231 346.29 325.735 346.051 326.363 345.978C326.998 345.903 327.678 345.994 328.403 346.252C329.121 346.507 329.695 346.86 330.124 347.312L328.994 347.919C328.533 347.475 328.078 347.173 327.629 347.013C326.944 346.77 326.46 346.8 326.177 347.102C326.038 347.25 326.008 347.406 326.089 347.572C326.173 347.738 326.431 348.017 326.862 348.41C327.225 348.74 327.461 349.008 327.572 349.214C327.683 349.42 327.715 349.626 327.671 349.83C327.629 350.031 327.501 350.246 327.287 350.474ZM332.798 352.429C332.365 352.891 331.814 353.168 331.147 353.262C330.483 353.352 329.746 353.254 328.936 352.967C328.122 352.678 327.558 352.351 327.244 351.985L328.059 351.118C328.536 351.629 329.084 351.994 329.702 352.213C330.501 352.497 331.076 352.452 331.426 352.079C331.538 351.96 331.588 351.844 331.574 351.733C331.561 351.622 331.493 351.488 331.371 351.331C331.248 351.173 331.058 350.977 330.799 350.741C330.293 350.28 330.015 349.9 329.962 349.601C329.913 349.303 330.047 348.986 330.362 348.65C330.742 348.245 331.246 348.007 331.874 347.933C332.509 347.859 333.189 347.95 333.914 348.207C334.632 348.462 335.206 348.816 335.635 349.268L334.505 349.875C334.044 349.43 333.589 349.128 333.14 348.969C332.455 348.726 331.971 348.755 331.688 349.057C331.549 349.205 331.519 349.362 331.6 349.527C331.684 349.694 331.942 349.973 332.373 350.365C332.736 350.695 332.972 350.963 333.083 351.17C333.193 351.376 333.226 351.581 333.182 351.786C333.14 351.987 333.012 352.202 332.798 352.429Z" fill="#677897"/>
    <g opacity="0.2" filter="url(#filter3_f_11801_129126)">
        <rect width="124.581" height="119.346" rx="40" transform="matrix(-0.94242 -0.334432 0.684648 -0.728874 483.047 344.652)" fill="url(#paint5_linear_11801_129126)"/>
    </g>
    <g filter="url(#filter4_d_11801_129126)">
        <rect width="124.581" height="119.346" rx="40" transform="matrix(0.94242 0.334432 -0.684648 0.728874 438.887 195)" fill="white"/>
    </g>
    <path fill-rule="evenodd" clip-rule="evenodd" d="M411.416 258.259C409.385 259.545 405.688 264.482 405.88 273.685C406.29 276.071 410.174 278.827 413.636 279.06C423.84 279.948 427.417 280.059 433.867 282.109C439.851 284.395 443.605 288.175 448.174 291.103C452.743 294.032 458.472 292.931 462.098 291.953C475.391 287.452 478.282 283.569 479.11 281.864C484.362 271.818 423.195 250.489 411.416 258.259Z" fill="url(#paint6_linear_11801_129126)"/>
    <path fill-rule="evenodd" clip-rule="evenodd" d="M492.813 260.483C495.615 257.432 499.698 253.042 500.108 252.313C509.02 235.614 485.602 229.476 484.587 229.122C483.596 228.776 462.902 219.532 443.414 232.543C442.574 233.122 438.319 237.453 435.346 240.444C432.371 243.436 429.486 245.835 417.707 253.605C415.676 254.89 410.155 257.002 409.501 260.262C408.011 263.748 409.284 268.197 409.697 271.618C411.24 273.859 414.502 273.891 417.04 273.572C426.665 273.123 436.031 271.047 442.533 273.115C449.847 275.865 450.173 281.32 454.341 286.579C455.153 288.066 456.571 290.026 460.814 289.442C467.922 287.724 473.655 286.301 477.196 283.867C480.736 281.434 482.09 277.251 482.514 276.376C487.766 266.33 490.011 263.534 492.813 260.483Z" fill="white" stroke="url(#paint7_linear_11801_129126)"/>
    <path fill-rule="evenodd" clip-rule="evenodd" d="M489.212 262.045C487.85 261.612 486.049 261.69 485.387 262.082C484.726 262.474 481.592 263.956 479.972 264.513C478.352 265.069 477.653 266.279 478.231 267.352C478.808 268.426 480.698 270.402 478.783 272.405C476.869 274.407 461.466 281.052 458.703 280.089C455.94 279.125 454.293 275.287 452.861 272.711C451.615 270.469 449.25 268.782 447.239 268.081C445.228 267.38 441.502 266.943 437.664 267.412C433.256 267.951 426.928 269.009 424.165 268.045C421.402 267.082 423.352 255.746 425.267 253.743C427.181 251.741 430.96 251.741 432.787 251.506C434.615 251.272 436.001 250.301 435.989 249.176C435.977 248.05 436.535 245.67 436.766 245.128C436.998 244.586 436.209 243.604 434.907 243.109C434.319 242.945 433.744 242.828 434.634 242.017C435.524 241.206 437.201 240.171 437.201 240.171C437.201 240.171 448.303 242.508 465.841 248.621C483.375 254.738 492.278 259.377 492.278 259.377C492.278 259.377 491.632 260.771 490.914 261.642C490.196 262.513 489.74 262.271 489.212 262.045Z" fill="url(#paint8_linear_11801_129126)"/>
    <mask id="path-17-inside-1_11801_129126" fill="white">
        <path fill-rule="evenodd" clip-rule="evenodd" d="M475.699 277.338L477.135 279.174L475.615 279.8L474.18 277.964L475.699 277.338Z"/>
    </mask>
    <path d="M475.699 277.338L477.862 276.446L476.868 275.175L474.705 276.067L475.699 277.338ZM477.135 279.174L478.129 280.445L480.292 279.553L479.298 278.282L477.135 279.174ZM475.615 279.8L473.452 280.691L474.446 281.963L476.609 281.071L475.615 279.8ZM474.18 277.964L473.185 276.693L471.022 277.584L472.016 278.856L474.18 277.964ZM473.536 278.229L474.972 280.065L479.298 278.282L477.862 276.446L473.536 278.229ZM476.141 277.902L474.621 278.529L476.609 281.071L478.129 280.445L476.141 277.902ZM477.778 278.908L476.343 277.073L472.016 278.856L473.452 280.691L477.778 278.908ZM475.174 279.235L476.693 278.609L474.705 276.067L473.185 276.693L475.174 279.235Z" fill="#0075FF" mask="url(#path-17-inside-1_11801_129126)"/>
    <mask id="path-19-inside-2_11801_129126" fill="white">
        <path fill-rule="evenodd" clip-rule="evenodd" d="M472.469 278.214L473.904 280.05L472.385 280.676L470.949 278.84L472.469 278.214Z"/>
    </mask>
    <path d="M472.469 278.214L474.632 277.323L473.638 276.051L471.475 276.943L472.469 278.214ZM473.904 280.05L474.899 281.321L477.062 280.43L476.068 279.158L473.904 280.05ZM472.385 280.676L470.222 281.568L471.216 282.839L473.379 281.947L472.385 280.676ZM470.949 278.84L469.955 277.569L467.792 278.461L468.786 279.732L470.949 278.84ZM470.306 279.106L471.741 280.941L476.068 279.158L474.632 277.323L470.306 279.106ZM472.91 278.779L471.391 279.405L473.379 281.947L474.899 281.321L472.91 278.779ZM474.548 279.785L473.112 277.949L468.786 279.732L470.222 281.568L474.548 279.785ZM471.943 280.112L473.463 279.485L471.475 276.943L469.955 277.569L471.943 280.112Z" fill="#0075FF" mask="url(#path-19-inside-2_11801_129126)"/>
    <rect x="-0.205305" y="0.379852" width="2.18552" height="0.70255" transform="matrix(0.497111 0.635622 -1.08157 0.445731 469.267 279.334)" stroke="#0075FF" stroke-width="0.70255"/>
    <mask id="path-22-inside-3_11801_129126" fill="white">
        <path fill-rule="evenodd" clip-rule="evenodd" d="M478.793 276.414L480.229 278.25L478.709 278.876L477.273 277.04L478.793 276.414Z"/>
    </mask>
    <path d="M478.793 276.414L480.956 275.522L479.962 274.251L477.799 275.143L478.793 276.414ZM480.229 278.25L481.223 279.521L483.386 278.629L482.392 277.358L480.229 278.25ZM478.709 278.876L476.546 279.767L477.54 281.039L479.703 280.147L478.709 278.876ZM477.273 277.04L476.279 275.769L474.116 276.66L475.11 277.932L477.273 277.04ZM476.63 277.305L478.066 279.141L482.392 277.358L480.956 275.522L476.63 277.305ZM479.234 276.978L477.715 277.605L479.703 280.147L481.223 279.521L479.234 276.978ZM480.872 277.984L479.436 276.149L475.11 277.932L476.546 279.767L480.872 277.984ZM478.267 278.311L479.787 277.685L477.799 275.143L476.279 275.769L478.267 278.311Z" fill="#0075FF" mask="url(#path-22-inside-3_11801_129126)"/>
    <mask id="path-24-inside-4_11801_129126" fill="white">
        <path fill-rule="evenodd" clip-rule="evenodd" d="M419.611 257.78L416.261 257.947L416.123 259.055L419.473 258.888L419.611 257.78Z"/>
    </mask>
    <path d="M419.611 257.78L419.808 256.202L422.128 256.087L421.931 257.664L419.611 257.78ZM416.261 257.947L413.941 258.062L414.138 256.485L416.458 256.369L416.261 257.947ZM416.123 259.055L415.926 260.632L413.606 260.747L413.803 259.17L416.123 259.055ZM419.473 258.888L421.793 258.772L421.596 260.349L419.276 260.465L419.473 258.888ZM419.415 259.357L416.065 259.524L416.458 256.369L419.808 256.202L419.415 259.357ZM418.581 257.831L418.443 258.939L413.803 259.17L413.941 258.062L418.581 257.831ZM416.32 257.477L419.67 257.31L419.276 260.465L415.926 260.632L416.32 257.477ZM417.153 259.003L417.291 257.895L421.931 257.664L421.793 258.772L417.153 259.003Z" fill="#0075FF" mask="url(#path-24-inside-4_11801_129126)"/>
    <mask id="path-26-inside-5_11801_129126" fill="white">
        <path fill-rule="evenodd" clip-rule="evenodd" d="M419.969 259.907L416.619 260.074L416.481 261.182L419.831 261.015L419.969 259.907Z"/>
    </mask>
    <path d="M419.969 259.907L420.165 258.33L422.485 258.215L422.289 259.792L419.969 259.907ZM416.619 260.074L414.299 260.19L414.495 258.613L416.815 258.497L416.619 260.074ZM416.481 261.182L416.284 262.76L413.964 262.875L414.161 261.298L416.481 261.182ZM419.831 261.015L422.151 260.9L421.954 262.477L419.634 262.593L419.831 261.015ZM419.772 261.485L416.422 261.651L416.815 258.497L420.165 258.33L419.772 261.485ZM418.939 259.959L418.8 261.067L414.161 261.298L414.299 260.19L418.939 259.959ZM416.677 259.605L420.027 259.438L419.634 262.593L416.284 262.76L416.677 259.605ZM417.511 261.131L417.649 260.023L422.289 259.792L422.151 260.9L417.511 261.131Z" fill="#0075FF" mask="url(#path-26-inside-5_11801_129126)"/>
    <rect x="-0.442014" y="0.297312" width="2.18552" height="0.70255" transform="matrix(-1.15997 0.0577958 -0.0983448 0.788583 419.682 262.221)" stroke="#0075FF" stroke-width="0.70255"/>
    <mask id="path-29-inside-6_11801_129126" fill="white">
        <path fill-rule="evenodd" clip-rule="evenodd" d="M419.389 255.7L416.039 255.867L415.9 256.975L419.25 256.808L419.389 255.7Z"/>
    </mask>
    <path d="M419.389 255.7L419.585 254.122L421.905 254.007L421.709 255.584L419.389 255.7ZM416.039 255.867L413.719 255.982L413.915 254.405L416.235 254.289L416.039 255.867ZM415.9 256.975L415.704 258.552L413.384 258.667L413.58 257.09L415.9 256.975ZM419.25 256.808L421.57 256.692L421.374 258.269L419.054 258.385L419.25 256.808ZM419.192 257.277L415.842 257.444L416.235 254.289L419.585 254.122L419.192 257.277ZM418.359 255.751L418.22 256.859L413.58 257.09L413.719 255.982L418.359 255.751ZM416.097 255.397L419.447 255.23L419.054 258.385L415.704 258.552L416.097 255.397ZM416.931 256.923L417.069 255.815L421.709 255.584L421.57 256.692L416.931 256.923Z" fill="#0075FF" mask="url(#path-29-inside-6_11801_129126)"/>
    <path fill-rule="evenodd" clip-rule="evenodd" d="M453.117 287.861C451.591 287.329 451.271 285.938 452.402 284.755C453.534 283.571 455.688 283.043 457.214 283.575C458.74 284.107 459.06 285.498 457.929 286.682C456.797 287.865 454.643 288.393 453.117 287.861Z" fill="#44CDFF"/>
    <path fill-rule="evenodd" clip-rule="evenodd" d="M469.875 262.623C469.337 261.688 467.22 257.692 466.796 256.209C466.371 254.726 464.547 252.78 462.636 252.088C460.403 251.335 456.701 251.354 454.362 251.873C452.023 252.393 445.235 253.284 443.626 253.47C442.016 253.656 436.041 253.495 433.846 254.065C432.492 254.417 429.593 256.587 429.061 259.072C428.528 261.556 428.952 263.039 429.376 264.522C429.801 266.005 432.139 265.486 435.285 265.247C438.431 265.009 447.345 261.442 452.072 263.091C456.8 264.739 456.228 270.164 457.964 273.156C459.716 276.175 460.998 275.549 461.152 275.602C461.305 275.656 465.834 274.561 469.125 273.042C472.421 271.521 474.335 269.519 473.911 268.036C473.911 268.036 470.412 263.558 469.875 262.623Z" fill="white"/>
    <path fill-rule="evenodd" clip-rule="evenodd" d="M446.928 234.596L445.438 238.081C445.438 238.081 457.812 241.052 469.253 245.05C480.693 249.049 491.029 253.979 491.029 253.979L495.282 251.457L496.155 252.049L491.453 255.462C491.011 255.24 480.088 250.147 468.295 246.052C456.503 241.956 443.1 238.601 443.1 238.601C443.1 238.601 445.274 235.222 445.766 234.478L446.928 234.596Z" fill="#0075FF"/>
    <defs>
        <filter id="filter0_f_11801_129126" x="0.618134" y="57.619" width="1028.76" height="792.76" filterUnits="userSpaceOnUse" color-interpolation-filters="sRGB">
            <feFlood flood-opacity="0" result="BackgroundImageFix"/>
            <feBlend mode="normal" in="SourceGraphic" in2="BackgroundImageFix" result="shape"/>
            <feGaussianBlur stdDeviation="91.69" result="effect1_foregroundBlur_11801_129126"/>
        </filter>
        <filter id="filter1_f_11801_129126" x="169.643" y="327.811" width="289.69" height="169.633" filterUnits="userSpaceOnUse" color-interpolation-filters="sRGB">
            <feFlood flood-opacity="0" result="BackgroundImageFix"/>
            <feBlend mode="normal" in="SourceGraphic" in2="BackgroundImageFix" result="shape"/>
            <feGaussianBlur stdDeviation="12.8366" result="effect1_foregroundBlur_11801_129126"/>
        </filter>
        <filter id="filter2_d_11801_129126" x="183.932" y="299.917" width="270.555" height="137.598" filterUnits="userSpaceOnUse" color-interpolation-filters="sRGB">
            <feFlood flood-opacity="0" result="BackgroundImageFix"/>
            <feColorMatrix in="SourceAlpha" type="matrix" values="0 0 0 0 0 0 0 0 0 0 0 0 0 0 0 0 0 0 127 0" result="hardAlpha"/>
            <feOffset dy="4"/>
            <feGaussianBlur stdDeviation="1"/>
            <feComposite in2="hardAlpha" operator="out"/>
            <feColorMatrix type="matrix" values="0 0 0 0 0.403922 0 0 0 0 0.470588 0 0 0 0 0.592157 0 0 0 0.04 0"/>
            <feBlend mode="normal" in2="BackgroundImageFix" result="effect1_dropShadow_11801_129126"/>
            <feBlend mode="normal" in="SourceGraphic" in2="effect1_dropShadow_11801_129126" result="shape"/>
        </filter>
        <filter id="filter3_f_11801_129126" x="358.455" y="200.777" width="213.486" height="159.098" filterUnits="userSpaceOnUse" color-interpolation-filters="sRGB">
            <feFlood flood-opacity="0" result="BackgroundImageFix"/>
            <feBlend mode="normal" in="SourceGraphic" in2="BackgroundImageFix" result="shape"/>
            <feGaussianBlur stdDeviation="12.835" result="effect1_foregroundBlur_11801_129126"/>
        </filter>
        <filter id="filter4_d_11801_129126" x="364.662" y="198.447" width="184.146" height="129.758" filterUnits="userSpaceOnUse" color-interpolation-filters="sRGB">
            <feFlood flood-opacity="0" result="BackgroundImageFix"/>
            <feColorMatrix in="SourceAlpha" type="matrix" values="0 0 0 0 0 0 0 0 0 0 0 0 0 0 0 0 0 0 127 0" result="hardAlpha"/>
            <feOffset dy="4"/>
            <feGaussianBlur stdDeviation="5.5"/>
            <feComposite in2="hardAlpha" operator="out"/>
            <feColorMatrix type="matrix" values="0 0 0 0 0.403922 0 0 0 0 0.470588 0 0 0 0 0.592157 0 0 0 0.06 0"/>
            <feBlend mode="normal" in2="BackgroundImageFix" result="effect1_dropShadow_11801_129126"/>
            <feBlend mode="normal" in="SourceGraphic" in2="effect1_dropShadow_11801_129126" result="shape"/>
        </filter>
        <linearGradient id="paint0_linear_11801_129126" x1="479" y1="187" x2="482.932" y2="561.001" gradientUnits="userSpaceOnUse">
            <stop stop-color="#EAF1FC"/>
            <stop offset="1" stop-color="#EAF1FC" stop-opacity="0"/>
        </linearGradient>
        <linearGradient id="paint1_linear_11801_129126" x1="378.087" y1="70.3459" x2="353.705" y2="143.474" gradientUnits="userSpaceOnUse">
            <stop stop-color="#0075FF" stop-opacity="0.4"/>
            <stop offset="1" stop-color="#0075FF"/>
        </linearGradient>
        <linearGradient id="paint2_linear_11801_129126" x1="146.351" y1="0" x2="146.351" y2="204.073" gradientUnits="userSpaceOnUse">
            <stop stop-color="#0075FF" stop-opacity="0.4"/>
            <stop offset="1" stop-color="#0075FF"/>
        </linearGradient>
        <linearGradient id="paint3_linear_11801_129126" x1="509.866" y1="89.4542" x2="-62.6385" y2="648.835" gradientUnits="userSpaceOnUse">
            <stop stop-color="#311097"/>
            <stop offset="0.411714" stop-color="#187ADF"/>
            <stop offset="1" stop-color="#04D5E1"/>
        </linearGradient>
        <linearGradient id="paint4_linear_11801_129126" x1="398.251" y1="379.876" x2="224.162" y2="416.035" gradientUnits="userSpaceOnUse">
            <stop stop-color="#102397"/>
            <stop offset="0.411714" stop-color="#187ADF"/>
            <stop offset="1" stop-color="#04D5E1"/>
        </linearGradient>
        <linearGradient id="paint5_linear_11801_129126" x1="48.9838" y1="138.046" x2="109.797" y2="74.0535" gradientUnits="userSpaceOnUse">
            <stop stop-color="#102397"/>
            <stop offset="0.481294" stop-color="#187ADF"/>
            <stop offset="1" stop-color="#04D5E1"/>
        </linearGradient>
        <linearGradient id="paint6_linear_11801_129126" x1="417.637" y1="251.52" x2="408.541" y2="277.606" gradientUnits="userSpaceOnUse">
            <stop stop-color="#00D5FF"/>
            <stop offset="1" stop-color="#0058DE"/>
        </linearGradient>
        <linearGradient id="paint7_linear_11801_129126" x1="440.444" y1="213.671" x2="412.74" y2="293.121" gradientUnits="userSpaceOnUse">
            <stop stop-color="#00C3FF"/>
            <stop offset="1" stop-color="#006EE4"/>
        </linearGradient>
        <linearGradient id="paint8_linear_11801_129126" x1="468.769" y1="275.78" x2="476.895" y2="252.476" gradientUnits="userSpaceOnUse">
            <stop stop-color="#00C2FF"/>
            <stop offset="1" stop-color="#006BFF"/>
        </linearGradient>
    </defs>
</svg>
