<svg viewBox="0 28 736 801" fill="none" xmlns="http://www.w3.org/2000/svg">
    <path d="M739.351 575.864C640.869 684.599 415.221 690.073 283.215 628.847C150.077 567.097 76.1118 422.925 173.602 313.301C284.393 188.72 502.832 196.228 639 251C787.459 310.715 828.928 476.961 739.351 575.864Z" fill="url(#paint0_linear_9918_35797)"/>
    <g opacity="0.1">
        <path fill-rule="evenodd" clip-rule="evenodd" d="M449.128 59.0428C484.309 70.7726 491.189 98.5296 469.558 120.166L453.535 136.193L331.228 95.4143L347.252 79.3866C368.882 57.7505 413.948 47.313 449.128 59.0428ZM316.021 90.3441L332.044 74.3163C360.864 45.4894 418.187 33.6113 460.462 47.7065C502.736 61.8016 513.585 96.409 484.765 125.236L468.742 141.264L497.123 150.727C514.806 156.622 518.457 172.088 505.278 185.27L421.537 269.032C408.358 282.215 383.34 288.121 365.657 282.225L152.018 210.995C134.335 205.099 130.684 189.633 143.863 176.451L227.604 92.6888C240.783 79.5068 265.801 73.6001 283.484 79.4959L316.021 90.3441ZM304.686 101.681L272.15 90.8333C262.866 87.738 249.731 90.839 242.813 97.7596L159.071 181.522C152.152 188.443 154.069 196.562 163.353 199.657L376.991 270.888C386.275 273.983 399.41 270.882 406.329 263.962L490.07 180.199C496.989 173.279 495.072 165.159 485.788 162.064L457.407 152.601L457.406 152.602L442.199 147.532L319.892 106.753L304.685 101.682L304.686 101.681ZM250.731 143.618C243.057 141.059 232.614 143.223 227.382 148.456C222.151 153.689 224.127 159.994 231.801 162.552C239.475 165.111 249.918 162.947 255.15 157.714C260.381 152.481 258.405 146.177 250.731 143.618ZM306.278 162.139C298.604 159.58 288.161 161.744 282.929 166.977C277.698 172.21 279.674 178.514 287.348 181.073C295.022 183.632 305.465 181.468 310.697 176.235C315.928 171.002 313.952 164.697 306.278 162.139ZM338.445 185.486C343.676 180.253 354.119 178.089 361.793 180.648C369.467 183.207 371.444 189.512 366.212 194.744C360.981 199.977 350.538 202.141 342.864 199.583C335.19 197.024 333.213 190.719 338.445 185.486ZM417.34 199.169C409.666 196.61 399.223 198.774 393.992 204.007C388.76 209.24 390.737 215.545 398.411 218.103C406.085 220.662 416.528 218.498 421.759 213.265C426.991 208.032 425.014 201.728 417.34 199.169Z" fill="url(#paint1_linear_9918_35797)"/>
    </g>
    <g opacity="0.2" filter="url(#filter0_f_9918_35797)">
        <path fill-rule="evenodd" clip-rule="evenodd" d="M423.126 296.999L183.998 533.956L526.928 722.999L845.998 436.309L423.126 296.999Z" fill="url(#paint2_linear_9918_35797)"/>
    </g>
    <rect width="286.686" height="356.41" rx="30" transform="matrix(0.94242 0.334432 -0.684648 0.728874 387.168 215.941)" fill="white"/>
    <path d="M323.299 369.821C322.655 369.593 321.979 369.603 321.273 369.854C320.569 370.101 319.903 370.56 319.274 371.229C317.967 372.621 317.988 373.557 319.339 374.036C319.906 374.238 320.696 374.372 321.708 374.438L320.665 375.549C319.802 375.527 318.962 375.371 318.144 375.081C316.97 374.665 316.33 374.071 316.224 373.301C316.12 372.528 316.553 371.626 317.521 370.595C318.131 369.946 318.817 369.432 319.58 369.054C320.346 368.673 321.135 368.454 321.949 368.397C322.77 368.339 323.564 368.446 324.334 368.719C325.118 368.998 325.768 369.424 326.284 369.998L324.721 370.878C324.523 370.66 324.311 370.455 324.083 370.264C323.855 370.073 323.593 369.926 323.299 369.821ZM327.14 373.53L327.693 373.726C328.234 373.918 328.699 373.99 329.087 373.942C329.476 373.894 329.811 373.721 330.092 373.422C330.37 373.126 330.435 372.868 330.288 372.649C330.144 372.431 329.796 372.224 329.244 372.028L328.725 371.844L327.14 373.53ZM326.13 374.607L323.879 377.003L322.167 376.395L328.032 370.151L330.385 370.986C331.482 371.375 332.148 371.819 332.382 372.316C332.62 372.81 332.443 373.372 331.852 374.001C331.507 374.368 331.069 374.649 330.538 374.844C330.009 375.036 329.429 375.128 328.798 375.121C328.694 376.956 328.634 378.143 328.617 378.684L326.717 378.01L327.041 374.93L326.13 374.607ZM334.282 380.694L329.633 379.044L335.498 372.801L340.147 374.451L339.128 375.535L336.191 374.493L334.903 375.864L337.636 376.834L336.617 377.919L333.884 376.949L332.372 378.559L335.309 379.601L334.282 380.694ZM340.914 383.048L341.725 381.354L338.782 380.309L336.8 381.588L334.956 380.933L343.695 375.675L345.787 376.418L342.759 383.702L340.914 383.048ZM342.359 380.098C343.083 378.56 343.493 377.69 343.589 377.488C343.689 377.288 343.772 377.132 343.839 377.019C343.375 377.34 342.18 378.118 340.256 379.352L342.359 380.098ZM346.895 385.17L345.183 384.563L350.013 379.421L347.821 378.643L348.856 377.541L354.952 379.704L353.917 380.806L351.725 380.028L346.895 385.17ZM354.979 388.039L350.329 386.389L356.194 380.145L360.844 381.795L359.825 382.88L356.887 381.837L355.599 383.208L358.333 384.178L357.314 385.263L354.581 384.293L353.068 385.903L356.006 386.946L354.979 388.039ZM364.548 391.435L365.359 389.741L362.416 388.696L360.435 389.975L358.59 389.32L367.329 384.062L369.421 384.805L366.393 392.089L364.548 391.435ZM365.994 388.485C366.717 386.947 367.127 386.077 367.223 385.875C367.323 385.675 367.406 385.519 367.473 385.406C367.009 385.727 365.815 386.505 363.89 387.739L365.994 388.485ZM377.514 396.036L375.338 395.264L376.263 389.294L376.214 389.276C375.5 390.135 374.976 390.743 374.642 391.099L371.882 394.037L370.352 393.494L376.217 387.25L378.376 388.017L377.49 393.937L377.529 393.951C378.236 393.12 378.747 392.537 379.062 392.201L381.838 389.245L383.379 389.792L377.514 396.036ZM384.201 398.409L379.552 396.759L385.417 390.515L390.066 392.165L389.047 393.25L386.11 392.207L384.822 393.578L387.555 394.548L386.536 395.633L383.803 394.663L382.291 396.273L385.228 397.316L384.201 398.409ZM393.754 401.799L391.805 401.107L393.793 397.439C393.862 397.308 394.018 397.043 394.261 396.643C394.51 396.242 394.686 395.976 394.789 395.845C394.623 395.991 394.335 396.219 393.925 396.53C393.519 396.837 393.223 397.055 393.039 397.183L388.878 400.069L386.935 399.379L390.74 392.404L392.424 393.002L390.255 396.776C389.845 397.469 389.463 398.061 389.111 398.551C389.286 398.397 389.571 398.164 389.966 397.852C390.368 397.539 390.692 397.301 390.939 397.138L395.4 394.058L397.018 394.632L394.909 398.547C394.814 398.722 394.653 398.984 394.428 399.333C394.203 399.682 394.003 399.98 393.827 400.225C394.072 400.016 394.391 399.76 394.782 399.459C395.176 399.154 395.502 398.911 395.761 398.73L399.989 395.686L401.673 396.284L393.754 401.799ZM404.579 401.233L405.142 401.433C405.669 401.619 406.137 401.68 406.549 401.613C406.962 401.543 407.314 401.355 407.603 401.047C407.894 400.737 407.999 400.469 407.917 400.242C407.839 400.017 407.566 399.822 407.099 399.656L406.32 399.379L404.579 401.233ZM409.375 401.614C408.744 402.286 407.989 402.703 407.11 402.865C406.234 403.029 405.296 402.934 404.294 402.578L403.56 402.318L401.474 404.538L399.762 403.931L405.627 397.687L408.206 398.602C409.185 398.95 409.775 399.377 409.975 399.885C410.182 400.391 409.982 400.967 409.375 401.614ZM411.806 408.205L412.616 406.511L409.673 405.466L407.692 406.745L405.847 406.09L414.586 400.832L416.679 401.575L413.65 408.859L411.806 408.205ZM413.251 405.255C413.975 403.717 414.384 402.847 414.48 402.645C414.58 402.445 414.663 402.289 414.73 402.176C414.266 402.497 413.072 403.275 411.147 404.509L413.251 405.255ZM421.066 409.179C420.536 409.743 419.856 410.093 419.025 410.231C418.197 410.37 417.316 410.274 416.38 409.942C415.519 409.636 414.875 409.241 414.447 408.755L415.603 407.525C415.971 407.906 416.307 408.202 416.61 408.412C416.917 408.623 417.227 408.785 417.54 408.896C417.915 409.029 418.255 409.075 418.558 409.035C418.865 408.996 419.121 408.866 419.327 408.647C419.442 408.525 419.499 408.401 419.499 408.276C419.502 408.147 419.458 408.009 419.368 407.859C419.282 407.711 419.066 407.446 418.721 407.066C418.397 406.711 418.188 406.408 418.097 406.155C418.005 405.902 417.989 405.64 418.048 405.369C418.106 405.097 418.273 404.815 418.549 404.522C419.068 403.969 419.717 403.621 420.496 403.476C421.279 403.332 422.097 403.412 422.951 403.715C423.371 403.864 423.734 404.044 424.041 404.256C424.352 404.468 424.649 404.718 424.934 405.005L423.415 405.839C423.113 405.549 422.846 405.327 422.613 405.172C422.384 405.019 422.133 404.894 421.861 404.797C421.537 404.682 421.234 404.653 420.951 404.708C420.668 404.763 420.439 404.885 420.262 405.073C420.152 405.19 420.091 405.304 420.078 405.418C420.068 405.528 420.099 405.651 420.173 405.787C420.253 405.922 420.479 406.196 420.852 406.609C421.344 407.156 421.598 407.62 421.613 408.001C421.631 408.379 421.448 408.772 421.066 409.179ZM427.295 411.389C426.765 411.953 426.085 412.304 425.253 412.442C424.426 412.581 423.544 412.484 422.609 412.152C421.748 411.847 421.103 411.451 420.676 410.965L421.832 409.735C422.2 410.117 422.536 410.412 422.839 410.622C423.146 410.834 423.456 410.995 423.769 411.106C424.144 411.239 424.484 411.286 424.787 411.245C425.093 411.206 425.35 411.077 425.556 410.858C425.671 410.735 425.728 410.611 425.728 410.486C425.731 410.358 425.687 410.219 425.597 410.069C425.51 409.921 425.295 409.657 424.95 409.276C424.625 408.922 424.417 408.618 424.326 408.366C424.234 408.113 424.218 407.851 424.276 407.579C424.335 407.308 424.502 407.025 424.778 406.732C425.297 406.18 425.945 405.831 426.725 405.686C427.507 405.543 428.326 405.622 429.18 405.926C429.6 406.074 429.963 406.255 430.27 406.466C430.58 406.679 430.878 406.929 431.163 407.216L429.644 408.049C429.342 407.76 429.074 407.538 428.842 407.383C428.613 407.229 428.362 407.104 428.09 407.008C427.766 406.893 427.462 406.863 427.18 406.918C426.897 406.974 426.667 407.095 426.491 407.283C426.381 407.4 426.32 407.515 426.307 407.628C426.297 407.738 426.328 407.861 426.402 407.997C426.481 408.132 426.708 408.406 427.08 408.819C427.573 409.366 427.827 409.83 427.842 410.211C427.859 410.589 427.677 410.982 427.295 411.389ZM434.993 416.433L433.043 415.741L435.031 412.073C435.1 411.942 435.256 411.677 435.499 411.277C435.748 410.876 435.924 410.61 436.027 410.479C435.861 410.625 435.573 410.853 435.164 411.164C434.757 411.471 434.462 411.689 434.277 411.817L430.117 414.703L428.173 414.013L431.978 407.038L433.662 407.636L431.494 411.41C431.083 412.104 430.702 412.695 430.349 413.185C430.524 413.031 430.809 412.798 431.204 412.486C431.606 412.173 431.931 411.935 432.177 411.772L436.639 408.692L438.257 409.266L436.147 413.181C436.052 413.356 435.892 413.618 435.667 413.967C435.442 414.316 435.241 414.614 435.065 414.859C435.31 414.65 435.629 414.394 436.02 414.093C436.414 413.788 436.74 413.545 436.999 413.364L441.227 410.32L442.912 410.918L434.993 416.433ZM448.331 416.992C447.36 418.026 446.283 418.703 445.098 419.023C443.914 419.343 442.704 419.283 441.467 418.844C440.23 418.405 439.541 417.791 439.4 417C439.259 416.21 439.676 415.295 440.652 414.256C441.628 413.217 442.705 412.541 443.881 412.23C445.063 411.917 446.275 411.981 447.515 412.421C448.756 412.861 449.445 413.474 449.581 414.258C449.721 415.045 449.304 415.956 448.331 416.992ZM442.439 414.901C441.784 415.599 441.461 416.185 441.472 416.66C441.483 417.134 441.829 417.492 442.51 417.734C443.876 418.219 445.218 417.759 446.536 416.355C447.857 414.949 447.839 414.005 446.48 413.523C445.799 413.281 445.119 413.277 444.438 413.51C443.761 413.74 443.094 414.204 442.439 414.901ZM452.037 417.852L452.589 418.048C453.13 418.24 453.595 418.312 453.984 418.264C454.373 418.216 454.707 418.042 454.988 417.743C455.266 417.447 455.332 417.189 455.184 416.97C455.041 416.752 454.693 416.545 454.14 416.349L453.621 416.165L452.037 417.852ZM451.026 418.928L448.775 421.324L447.064 420.717L452.929 414.473L455.281 415.307C456.378 415.697 457.044 416.14 457.279 416.637C457.516 417.131 457.34 417.693 456.749 418.322C456.404 418.69 455.965 418.971 455.434 419.166C454.905 419.358 454.325 419.45 453.694 419.442C453.591 421.277 453.53 422.465 453.513 423.005L451.614 422.331L451.937 419.251L451.026 418.928ZM464.216 422.561C463.251 423.589 462.132 424.242 460.86 424.519C459.592 424.798 458.244 424.684 456.815 424.177L454.529 423.366L460.394 417.122L462.929 418.021C464.247 418.489 465.017 419.121 465.241 419.918C465.464 420.715 465.123 421.596 464.216 422.561ZM462.406 421.964C463.666 420.623 463.53 419.681 461.998 419.138L461.087 418.814L457.268 422.88L458.003 423.141C459.652 423.726 461.12 423.334 462.406 421.964Z" fill="#677897"/>
    <g opacity="0.2" filter="url(#filter1_f_9918_35797)">
        <path fill-rule="evenodd" clip-rule="evenodd" d="M404.639 526.723C411.694 529.118 419.497 527.332 424.81 522.108C440.061 507.109 434.849 481.382 414.963 473.502L377.265 458.564L242.021 409.484C234.989 416.148 234.989 416.148 234.989 416.148L195.317 452.595L195.319 452.595L353.489 509.366L404.639 526.723Z" fill="url(#paint3_linear_9918_35797)"/>
    </g>
    <g filter="url(#filter2_d_9918_35797)">
        <rect width="237.864" height="82.1588" rx="15" transform="matrix(0.94242 0.334432 -0.684648 0.728874 235.25 352)" fill="white"/>
    </g>
    <rect width="165.107" height="28.6286" rx="14.3143" transform="matrix(0.94242 0.334432 -0.684648 0.728874 245.596 386)" fill="#EAF1FC"/>
    <path d="M257.597 404.233C258.135 403.66 258.706 403.288 259.31 403.115C259.933 402.938 260.559 402.96 261.189 403.184C261.829 403.411 262.186 403.737 262.259 404.161C262.35 404.581 262.127 405.077 261.59 405.649C261.068 406.205 260.485 406.567 259.84 406.737C259.194 406.906 258.557 406.879 257.927 406.656C257.364 406.456 257.019 406.157 256.892 405.759C256.785 405.356 257.02 404.848 257.597 404.233ZM267.585 407.777C268.122 407.205 268.693 406.832 269.297 406.659C269.921 406.482 270.547 406.505 271.176 406.728C271.817 406.955 272.173 407.281 272.246 407.706C272.338 408.125 272.115 408.621 271.577 409.194C271.056 409.749 270.472 410.111 269.827 410.281C269.182 410.45 268.544 410.424 267.915 410.2C267.352 410 267.007 409.701 266.88 409.303C266.772 408.901 267.007 408.392 267.585 407.777ZM277.572 411.321C278.11 410.749 278.681 410.376 279.285 410.203C279.908 410.026 280.534 410.049 281.164 410.272C281.804 410.5 282.161 410.825 282.234 411.25C282.325 411.67 282.102 412.166 281.565 412.738C281.043 413.293 280.46 413.655 279.815 413.825C279.169 413.995 278.532 413.968 277.902 413.744C277.339 413.545 276.994 413.246 276.867 412.848C276.76 412.445 276.995 411.936 277.572 411.321ZM287.56 414.865C288.097 414.293 288.668 413.92 289.272 413.748C289.895 413.57 290.522 413.593 291.151 413.816C291.792 414.044 292.148 414.37 292.221 414.794C292.313 415.214 292.09 415.71 291.552 416.282C291.031 416.837 290.447 417.2 289.802 417.369C289.157 417.539 288.519 417.512 287.89 417.289C287.327 417.089 286.982 416.79 286.855 416.392C286.747 415.989 286.982 415.48 287.56 414.865ZM297.547 418.409C298.085 417.837 298.656 417.465 299.26 417.292C299.883 417.114 300.509 417.137 301.139 417.361C301.779 417.588 302.136 417.914 302.208 418.338C302.3 418.758 302.077 419.254 301.54 419.826C301.018 420.381 300.435 420.744 299.789 420.913C299.144 421.083 298.507 421.056 297.877 420.833C297.314 420.633 296.969 420.334 296.842 419.936C296.735 419.533 296.969 419.024 297.547 418.409ZM307.535 421.954C308.072 421.381 308.643 421.009 309.247 420.836C309.87 420.659 310.497 420.681 311.126 420.905C311.767 421.132 312.123 421.458 312.196 421.882C312.288 422.302 312.065 422.798 311.527 423.37C311.005 423.926 310.422 424.288 309.777 424.458C309.132 424.627 308.494 424.6 307.865 424.377C307.301 424.177 306.956 423.878 306.83 423.48C306.722 423.077 306.957 422.569 307.535 421.954Z" fill="#677897" fill-opacity="0.47"/>
    <path d="M270.836 388.235L269.218 387.661L269.922 381.277L269.878 381.261L269.644 381.549C269.198 382.097 268.77 382.59 268.358 383.028L265.309 386.274L264.111 385.849L269.976 379.605L271.577 380.173L270.887 386.528L270.92 386.54C270.974 386.472 271.183 386.229 271.546 385.811C271.911 385.39 272.203 385.064 272.419 384.834L275.492 381.562L276.701 381.992L270.836 388.235ZM275.417 389.975C274.467 389.638 273.924 389.16 273.788 388.542C273.658 387.923 273.946 387.238 274.652 386.486C275.376 385.714 276.195 385.196 277.106 384.931C278.018 384.666 278.908 384.688 279.777 384.996C280.583 385.282 281.042 385.698 281.154 386.242C281.266 386.787 281.01 387.391 280.387 388.054L279.877 388.597L275.808 387.152C275.395 387.617 275.224 388.027 275.293 388.382C275.365 388.734 275.675 389.007 276.224 389.202C276.584 389.33 276.943 389.423 277.301 389.482C277.665 389.539 278.082 389.569 278.555 389.574L277.788 390.389C277.362 390.394 276.964 390.363 276.595 390.296C276.225 390.229 275.833 390.122 275.417 389.975ZM279.063 385.756C278.65 385.61 278.224 385.594 277.784 385.707C277.347 385.821 276.923 386.064 276.512 386.434L279.284 387.418C279.643 387.025 279.798 386.687 279.75 386.404C279.704 386.119 279.475 385.903 279.063 385.756ZM284.354 393.032L285.635 390.549C285.758 390.281 286.095 389.677 286.644 388.737L286.594 388.72C285.659 389.412 284.977 389.898 284.55 390.175L281.676 392.082L280.24 391.573L282.965 386.242L284.291 386.712L282.883 389.316C282.519 389.954 282.182 390.491 281.87 390.927L281.904 390.938C282.136 390.744 282.414 390.526 282.739 390.284C283.071 390.041 283.327 389.862 283.508 389.748L286.77 387.592L288.195 388.097L286.76 390.902C286.684 391.061 286.552 391.299 286.363 391.615C286.177 391.933 286.017 392.174 285.882 392.339L285.926 392.355C286.31 392.024 286.899 391.58 287.693 391.023L290.669 388.975L291.972 389.438L285.812 393.55L284.354 393.032ZM301.102 393.168C300.49 393.82 299.745 394.221 298.866 394.373C297.988 394.524 297.039 394.419 296.019 394.057L295.179 393.759L292.985 396.095L291.665 395.627L297.53 389.383L299.855 390.208C300.864 390.566 301.469 390.993 301.67 391.49C301.875 391.988 301.686 392.547 301.102 393.168ZM295.986 392.901L296.687 393.15C297.364 393.39 297.947 393.475 298.435 393.405C298.923 393.335 299.348 393.107 299.712 392.72C300.049 392.361 300.159 392.043 300.041 391.766C299.923 391.489 299.564 391.244 298.964 391.031L298.048 390.706L295.986 392.901ZM302.306 399.403L302.664 398.653L302.62 398.638C302.056 398.821 301.575 398.912 301.178 398.911C300.783 398.908 300.352 398.823 299.885 398.658C299.285 398.445 298.933 398.153 298.83 397.782C298.73 397.413 298.895 396.999 299.326 396.54C299.783 396.053 300.362 395.769 301.062 395.687C301.762 395.606 302.602 395.723 303.58 396.04L304.659 396.389L304.896 396.137C305.179 395.835 305.299 395.577 305.254 395.364C305.215 395.149 305.004 394.974 304.621 394.838C304.308 394.727 303.975 394.656 303.621 394.625C303.267 394.594 302.912 394.58 302.556 394.583L302.81 393.717C303.267 393.7 303.725 393.728 304.183 393.799C304.644 393.868 305.049 393.964 305.399 394.089C306.175 394.364 306.638 394.703 306.786 395.105C306.937 395.508 306.749 395.99 306.223 396.55L303.234 399.732L302.306 399.403ZM301.015 398.034C301.487 398.201 301.959 398.234 302.432 398.132C302.912 398.029 303.324 397.794 303.669 397.427L304.054 397.017L303.246 396.764C302.619 396.564 302.099 396.486 301.685 396.529C301.278 396.571 300.938 396.737 300.665 397.027C300.467 397.238 300.395 397.43 300.447 397.604C300.502 397.776 300.691 397.919 301.015 398.034ZM310.412 400.486C309.978 400.947 309.428 401.224 308.761 401.318C308.097 401.408 307.36 401.31 306.55 401.023C305.736 400.734 305.172 400.407 304.858 400.041L305.673 399.174C306.15 399.685 306.698 400.05 307.316 400.27C308.115 400.553 308.689 400.508 309.04 400.135C309.152 400.016 309.202 399.901 309.188 399.789C309.175 399.678 309.107 399.544 308.985 399.387C308.862 399.23 308.672 399.033 308.412 398.797C307.907 398.337 307.628 397.957 307.576 397.657C307.527 397.359 307.661 397.042 307.976 396.706C308.356 396.302 308.86 396.063 309.488 395.99C310.123 395.915 310.803 396.006 311.528 396.264C312.246 396.518 312.819 396.872 313.249 397.324L312.119 397.931C311.658 397.487 311.203 397.185 310.754 397.025C310.069 396.782 309.585 396.812 309.301 397.113C309.162 397.262 309.133 397.418 309.213 397.583C309.298 397.75 309.555 398.029 309.987 398.422C310.35 398.751 310.586 399.02 310.697 399.226C310.807 399.432 310.84 399.637 310.796 399.842C310.754 400.043 310.626 400.258 310.412 400.486ZM315.923 402.441C315.489 402.902 314.939 403.18 314.272 403.273C313.608 403.364 312.871 403.266 312.061 402.978C311.247 402.69 310.683 402.362 310.369 401.997L311.184 401.13C311.661 401.641 312.208 402.006 312.827 402.225C313.626 402.509 314.2 402.464 314.551 402.091C314.663 401.971 314.712 401.856 314.699 401.745C314.686 401.634 314.618 401.5 314.495 401.343C314.373 401.185 314.183 400.989 313.923 400.752C313.418 400.292 313.139 399.912 313.087 399.613C313.038 399.315 313.172 398.997 313.487 398.661C313.867 398.257 314.371 398.018 314.999 397.945C315.634 397.871 316.314 397.962 317.039 398.219C317.757 398.474 318.33 398.828 318.76 399.28L317.63 399.887C317.169 399.442 316.714 399.14 316.265 398.981C315.58 398.738 315.096 398.767 314.812 399.069C314.673 399.217 314.644 399.374 314.724 399.539C314.809 399.706 315.066 399.985 315.498 400.377C315.861 400.707 316.097 400.975 316.208 401.181C316.318 401.388 316.351 401.593 316.307 401.797C316.265 401.999 316.137 402.213 315.923 402.441ZM321.075 406.064L322.356 403.58C322.479 403.312 322.816 402.708 323.365 401.768L323.315 401.751C322.38 402.444 321.698 402.929 321.271 403.206L318.397 405.113L316.962 404.604L319.687 399.273L321.012 399.743L319.604 402.347C319.241 402.985 318.903 403.522 318.592 403.958L318.625 403.97C318.857 403.775 319.135 403.557 319.46 403.315C319.792 403.072 320.048 402.893 320.229 402.779L323.491 400.623L324.916 401.128L323.481 403.933C323.405 404.093 323.273 404.33 323.084 404.647C322.898 404.964 322.738 405.205 322.603 405.37L322.647 405.386C323.031 405.055 323.62 404.611 324.414 404.054L327.39 402.006L328.693 402.469L322.533 406.581L321.075 406.064ZM332.954 407.119C332.23 407.89 331.408 408.402 330.49 408.653C329.572 408.904 328.656 408.868 327.743 408.544C327.173 408.341 326.762 408.062 326.511 407.708C326.26 407.353 326.192 406.947 326.307 406.491C326.421 406.034 326.71 405.559 327.173 405.067C327.892 404.301 328.708 403.793 329.62 403.544C330.532 403.294 331.45 403.333 332.374 403.661C333.257 403.975 333.749 404.443 333.85 405.068C333.954 405.689 333.655 406.373 332.954 407.119ZM328.509 405.541C327.485 406.632 327.494 407.362 328.535 407.731C329.566 408.097 330.594 407.735 331.618 406.644C332.632 405.565 332.619 404.842 331.581 404.473C331.036 404.28 330.51 404.279 330.001 404.47C329.496 404.663 328.999 405.02 328.509 405.541ZM339.839 406.31C340.101 406.403 340.303 406.494 340.445 406.582L339.44 407.473C339.288 407.373 339.112 407.288 338.914 407.218C338.394 407.033 337.85 407.015 337.28 407.162C336.714 407.31 336.234 407.593 335.841 408.012L333.522 410.48L332.224 410.02L336.661 405.296L337.677 405.657L337.066 406.551L337.132 406.574C337.6 406.364 338.073 406.234 338.552 406.184C339.035 406.135 339.464 406.177 339.839 406.31ZM339.085 412.568C338.323 412.298 337.929 411.874 337.903 411.295C337.878 410.716 338.227 410.041 338.952 409.27C339.679 408.495 340.46 407.969 341.295 407.692C342.136 407.414 342.939 407.41 343.705 407.682C344.507 407.967 344.903 408.413 344.892 409.02L344.958 409.044C345.214 408.683 345.434 408.404 345.619 408.208L347.235 406.486L348.539 406.949L342.297 413.594L341.28 413.234L341.636 412.534L341.575 412.512C340.718 412.835 339.888 412.853 339.085 412.568ZM340.195 411.88C340.729 412.07 341.226 412.092 341.685 411.948C342.148 411.801 342.627 411.468 343.124 410.95L343.256 410.809C343.815 410.214 344.087 409.746 344.072 409.407C344.057 409.068 343.783 408.803 343.249 408.614C342.793 408.452 342.306 408.471 341.789 408.671C341.275 408.868 340.769 409.231 340.272 409.761C339.78 410.285 339.524 410.727 339.504 411.088C339.486 411.447 339.717 411.711 340.195 411.88Z" fill="#677897"/>
    <g opacity="0.2" filter="url(#filter3_f_9918_35797)">
        <rect width="124.581" height="119.346" rx="40" transform="matrix(-0.94242 -0.334432 0.684648 -0.728874 483.047 400.652)" fill="url(#paint4_linear_9918_35797)"/>
    </g>
    <g filter="url(#filter4_d_9918_35797)">
        <rect width="124.581" height="119.346" rx="40" transform="matrix(0.94242 0.334432 -0.684648 0.728874 440.885 251)" fill="white"/>
    </g>
    <path fill-rule="evenodd" clip-rule="evenodd" d="M413.414 314.259C411.383 315.545 407.686 320.482 407.878 329.685C408.288 332.071 412.172 334.827 415.634 335.06C425.838 335.948 429.415 336.059 435.865 338.109C441.849 340.395 445.603 344.175 450.172 347.103C454.741 350.032 460.47 348.932 464.096 347.953C477.389 343.452 480.281 339.569 481.108 337.865C486.36 327.818 425.193 306.489 413.414 314.259Z" fill="url(#paint5_linear_9918_35797)"/>
    <path fill-rule="evenodd" clip-rule="evenodd" d="M494.811 316.483C497.613 313.432 501.696 309.042 502.106 308.313C511.018 291.614 487.6 285.476 486.585 285.122C485.595 284.776 464.9 275.532 445.412 288.543C444.572 289.122 440.318 293.453 437.344 296.444C434.37 299.436 431.484 301.835 419.705 309.605C417.674 310.89 412.153 313.002 411.499 316.262C410.009 319.748 411.282 324.197 411.695 327.618C413.238 329.859 416.5 329.891 419.038 329.572C428.663 329.123 438.029 327.047 444.531 329.115C451.845 331.865 452.171 337.32 456.339 342.579C457.151 344.066 458.57 346.026 462.812 345.442C469.92 343.724 475.653 342.301 479.194 339.867C482.734 337.434 484.088 333.251 484.512 332.376C489.764 322.33 492.009 319.534 494.811 316.483Z" fill="white" stroke="url(#paint6_linear_9918_35797)"/>
    <path fill-rule="evenodd" clip-rule="evenodd" d="M491.21 318.045C489.849 317.612 488.047 317.69 487.385 318.082C486.724 318.474 483.59 319.956 481.97 320.513C480.35 321.069 479.651 322.279 480.229 323.352C480.806 324.426 482.696 326.402 480.781 328.405C478.867 330.407 463.464 337.052 460.701 336.089C457.938 335.125 456.291 331.287 454.859 328.711C453.613 326.469 451.248 324.782 449.237 324.081C447.227 323.38 443.501 322.943 439.663 323.412C435.254 323.951 428.926 325.009 426.163 324.045C423.4 323.082 425.35 311.746 427.265 309.743C429.179 307.741 432.958 307.741 434.785 307.506C436.613 307.272 437.999 306.301 437.987 305.176C437.975 304.05 438.533 301.67 438.764 301.128C438.996 300.586 438.207 299.604 436.905 299.109C436.317 298.946 435.742 298.828 436.632 298.017C437.522 297.206 439.199 296.171 439.199 296.171C439.199 296.171 450.301 298.508 467.839 304.621C485.373 310.738 494.276 315.377 494.276 315.377C494.276 315.377 493.63 316.771 492.912 317.642C492.194 318.513 491.738 318.271 491.21 318.045Z" fill="url(#paint7_linear_9918_35797)"/>
    <mask id="path-16-inside-1_9918_35797" fill="white">
        <path fill-rule="evenodd" clip-rule="evenodd" d="M477.697 333.338L479.133 335.174L477.613 335.8L476.178 333.964L477.697 333.338Z"/>
    </mask>
    <path d="M477.697 333.338L479.86 332.446L478.866 331.175L476.703 332.067L477.697 333.338ZM479.133 335.174L480.127 336.445L482.29 335.553L481.296 334.282L479.133 335.174ZM477.613 335.8L475.45 336.691L476.444 337.963L478.607 337.071L477.613 335.8ZM476.178 333.964L475.183 332.693L473.02 333.584L474.014 334.856L476.178 333.964ZM475.534 334.229L476.97 336.065L481.296 334.282L479.86 332.446L475.534 334.229ZM478.139 333.902L476.619 334.529L478.607 337.071L480.127 336.445L478.139 333.902ZM479.776 334.908L478.341 333.073L474.014 334.856L475.45 336.691L479.776 334.908ZM477.172 335.235L478.691 334.609L476.703 332.067L475.183 332.693L477.172 335.235Z" fill="#0075FF" mask="url(#path-16-inside-1_9918_35797)"/>
    <mask id="path-18-inside-2_9918_35797" fill="white">
        <path fill-rule="evenodd" clip-rule="evenodd" d="M474.467 334.214L475.902 336.05L474.383 336.676L472.947 334.84L474.467 334.214Z"/>
    </mask>
    <path d="M474.467 334.214L476.63 333.322L475.636 332.051L473.473 332.943L474.467 334.214ZM475.902 336.05L476.897 337.321L479.06 336.429L478.066 335.158L475.902 336.05ZM474.383 336.676L472.22 337.567L473.214 338.839L475.377 337.947L474.383 336.676ZM472.947 334.84L471.953 333.569L469.79 334.46L470.784 335.732L472.947 334.84ZM472.304 335.105L473.739 336.941L478.066 335.158L476.63 333.322L472.304 335.105ZM474.908 334.778L473.389 335.405L475.377 337.947L476.897 337.321L474.908 334.778ZM476.546 335.784L475.11 333.949L470.784 335.732L472.22 337.567L476.546 335.784ZM473.941 336.111L475.461 335.485L473.473 332.943L471.953 333.569L473.941 336.111Z" fill="#0075FF" mask="url(#path-18-inside-2_9918_35797)"/>
    <rect x="-0.205305" y="0.379852" width="2.18552" height="0.70255" transform="matrix(0.497111 0.635622 -1.08157 0.445731 471.265 335.334)" stroke="#0075FF" stroke-width="0.70255"/>
    <mask id="path-21-inside-3_9918_35797" fill="white">
        <path fill-rule="evenodd" clip-rule="evenodd" d="M480.791 332.414L482.227 334.25L480.707 334.876L479.271 333.04L480.791 332.414Z"/>
    </mask>
    <path d="M480.791 332.414L482.954 331.523L481.96 330.251L479.797 331.143L480.791 332.414ZM482.227 334.25L483.221 335.521L485.384 334.63L484.39 333.358L482.227 334.25ZM480.707 334.876L478.544 335.768L479.538 337.039L481.701 336.147L480.707 334.876ZM479.271 333.04L478.277 331.769L476.114 332.661L477.108 333.932L479.271 333.04ZM478.628 333.306L480.064 335.141L484.39 333.358L482.954 331.523L478.628 333.306ZM481.232 332.979L479.713 333.605L481.701 336.147L483.221 335.521L481.232 332.979ZM482.87 333.985L481.434 332.149L477.108 333.932L478.544 335.768L482.87 333.985ZM480.266 334.312L481.785 333.685L479.797 331.143L478.277 331.769L480.266 334.312Z" fill="#0075FF" mask="url(#path-21-inside-3_9918_35797)"/>
    <mask id="path-23-inside-4_9918_35797" fill="white">
        <path fill-rule="evenodd" clip-rule="evenodd" d="M421.609 313.78L418.259 313.947L418.121 315.055L421.471 314.888L421.609 313.78Z"/>
    </mask>
    <path d="M421.609 313.78L421.806 312.203L424.126 312.087L423.929 313.664L421.609 313.78ZM418.259 313.947L415.939 314.062L416.136 312.485L418.456 312.37L418.259 313.947ZM418.121 315.055L417.924 316.632L415.605 316.747L415.801 315.17L418.121 315.055ZM421.471 314.888L423.791 314.772L423.594 316.349L421.275 316.465L421.471 314.888ZM421.413 315.357L418.063 315.524L418.456 312.37L421.806 312.203L421.413 315.357ZM420.579 313.831L420.441 314.939L415.801 315.17L415.939 314.062L420.579 313.831ZM418.318 313.478L421.668 313.311L421.275 316.465L417.924 316.632L418.318 313.478ZM419.151 315.003L419.289 313.895L423.929 313.664L423.791 314.772L419.151 315.003Z" fill="#0075FF" mask="url(#path-23-inside-4_9918_35797)"/>
    <mask id="path-25-inside-5_9918_35797" fill="white">
        <path fill-rule="evenodd" clip-rule="evenodd" d="M421.967 315.908L418.617 316.075L418.479 317.183L421.829 317.016L421.967 315.908Z"/>
    </mask>
    <path d="M421.967 315.908L422.163 314.331L424.483 314.215L424.287 315.792L421.967 315.908ZM418.617 316.075L416.297 316.19L416.493 314.613L418.813 314.497L418.617 316.075ZM418.479 317.183L418.282 318.76L415.962 318.875L416.159 317.298L418.479 317.183ZM421.829 317.016L424.149 316.9L423.952 318.477L421.632 318.593L421.829 317.016ZM421.77 317.485L418.42 317.652L418.813 314.497L422.163 314.331L421.77 317.485ZM420.937 315.959L420.798 317.067L416.159 317.298L416.297 316.19L420.937 315.959ZM418.675 315.606L422.025 315.439L421.632 318.593L418.282 318.76L418.675 315.606ZM419.509 317.131L419.647 316.023L424.287 315.792L424.149 316.9L419.509 317.131Z" fill="#0075FF" mask="url(#path-25-inside-5_9918_35797)"/>
    <rect x="-0.442014" y="0.297312" width="2.18552" height="0.70255" transform="matrix(-1.15997 0.0577958 -0.0983448 0.788583 421.68 318.221)" stroke="#0075FF" stroke-width="0.70255"/>
    <mask id="path-28-inside-6_9918_35797" fill="white">
        <path fill-rule="evenodd" clip-rule="evenodd" d="M421.387 311.7L418.037 311.867L417.898 312.975L421.249 312.808L421.387 311.7Z"/>
    </mask>
    <path d="M421.387 311.7L421.583 310.123L423.903 310.007L423.707 311.584L421.387 311.7ZM418.037 311.867L415.717 311.982L415.913 310.405L418.233 310.289L418.037 311.867ZM417.898 312.975L417.702 314.552L415.382 314.667L415.579 313.09L417.898 312.975ZM421.249 312.808L423.568 312.692L423.372 314.269L421.052 314.385L421.249 312.808ZM421.19 313.277L417.84 313.444L418.233 310.289L421.583 310.123L421.19 313.277ZM420.357 311.751L420.218 312.859L415.579 313.09L415.717 311.982L420.357 311.751ZM418.095 311.397L421.445 311.231L421.052 314.385L417.702 314.552L418.095 311.397ZM418.929 312.923L419.067 311.815L423.707 311.584L423.568 312.692L418.929 312.923Z" fill="#0075FF" mask="url(#path-28-inside-6_9918_35797)"/>
    <path fill-rule="evenodd" clip-rule="evenodd" d="M455.115 343.861C453.589 343.329 453.269 341.938 454.401 340.755C455.532 339.571 457.686 339.043 459.212 339.575C460.738 340.107 461.058 341.498 459.927 342.681C458.795 343.865 456.641 344.393 455.115 343.861Z" fill="#44CDFF"/>
    <path fill-rule="evenodd" clip-rule="evenodd" d="M471.873 318.623C471.335 317.688 469.218 313.692 468.794 312.209C468.37 310.726 466.545 308.78 464.634 308.088C462.401 307.335 458.699 307.354 456.36 307.873C454.021 308.393 447.233 309.284 445.624 309.47C444.014 309.656 438.039 309.495 435.845 310.065C434.49 310.417 431.591 312.587 431.059 315.072C430.526 317.556 430.95 319.039 431.374 320.522C431.799 322.005 434.137 321.486 437.283 321.247C440.429 321.009 449.343 317.442 454.07 319.091C458.798 320.739 458.226 326.164 459.962 329.156C461.714 332.175 462.996 331.549 463.15 331.602C463.303 331.656 467.832 330.561 471.123 329.042C474.419 327.521 476.333 325.519 475.909 324.036C475.909 324.036 472.41 319.558 471.873 318.623Z" fill="white"/>
    <path fill-rule="evenodd" clip-rule="evenodd" d="M448.927 290.596L447.436 294.081C447.436 294.081 459.81 297.052 471.251 301.05C482.691 305.049 493.027 309.979 493.027 309.979L497.28 307.456L498.153 308.049L493.451 311.462C493.009 311.24 482.086 306.147 470.293 302.051C458.501 297.956 445.098 294.601 445.098 294.601C445.098 294.601 447.272 291.221 447.764 290.478L448.927 290.596Z" fill="#0075FF"/>
    <defs>
        <filter id="filter0_f_9918_35797" x="0.618134" y="113.619" width="1028.76" height="792.76" filterUnits="userSpaceOnUse" color-interpolation-filters="sRGB">
            <feFlood flood-opacity="0" result="BackgroundImageFix"/>
            <feBlend mode="normal" in="SourceGraphic" in2="BackgroundImageFix" result="shape"/>
            <feGaussianBlur stdDeviation="91.69" result="effect1_foregroundBlur_9918_35797"/>
        </filter>
        <filter id="filter1_f_9918_35797" x="169.643" y="383.811" width="289.69" height="169.633" filterUnits="userSpaceOnUse" color-interpolation-filters="sRGB">
            <feFlood flood-opacity="0" result="BackgroundImageFix"/>
            <feBlend mode="normal" in="SourceGraphic" in2="BackgroundImageFix" result="shape"/>
            <feGaussianBlur stdDeviation="12.8366" result="effect1_foregroundBlur_9918_35797"/>
        </filter>
        <filter id="filter2_d_9918_35797" x="183.932" y="355.917" width="270.555" height="137.598" filterUnits="userSpaceOnUse" color-interpolation-filters="sRGB">
            <feFlood flood-opacity="0" result="BackgroundImageFix"/>
            <feColorMatrix in="SourceAlpha" type="matrix" values="0 0 0 0 0 0 0 0 0 0 0 0 0 0 0 0 0 0 127 0" result="hardAlpha"/>
            <feOffset dy="4"/>
            <feGaussianBlur stdDeviation="1"/>
            <feComposite in2="hardAlpha" operator="out"/>
            <feColorMatrix type="matrix" values="0 0 0 0 0.403922 0 0 0 0 0.470588 0 0 0 0 0.592157 0 0 0 0.04 0"/>
            <feBlend mode="normal" in2="BackgroundImageFix" result="effect1_dropShadow_9918_35797"/>
            <feBlend mode="normal" in="SourceGraphic" in2="effect1_dropShadow_9918_35797" result="shape"/>
        </filter>
        <filter id="filter3_f_9918_35797" x="358.455" y="256.777" width="213.486" height="159.098" filterUnits="userSpaceOnUse" color-interpolation-filters="sRGB">
            <feFlood flood-opacity="0" result="BackgroundImageFix"/>
            <feBlend mode="normal" in="SourceGraphic" in2="BackgroundImageFix" result="shape"/>
            <feGaussianBlur stdDeviation="12.835" result="effect1_foregroundBlur_9918_35797"/>
        </filter>
        <filter id="filter4_d_9918_35797" x="366.66" y="254.447" width="184.146" height="129.758" filterUnits="userSpaceOnUse" color-interpolation-filters="sRGB">
            <feFlood flood-opacity="0" result="BackgroundImageFix"/>
            <feColorMatrix in="SourceAlpha" type="matrix" values="0 0 0 0 0 0 0 0 0 0 0 0 0 0 0 0 0 0 127 0" result="hardAlpha"/>
            <feOffset dy="4"/>
            <feGaussianBlur stdDeviation="5.5"/>
            <feComposite in2="hardAlpha" operator="out"/>
            <feColorMatrix type="matrix" values="0 0 0 0 0.403922 0 0 0 0 0.470588 0 0 0 0 0.592157 0 0 0 0.06 0"/>
            <feBlend mode="normal" in2="BackgroundImageFix" result="effect1_dropShadow_9918_35797"/>
            <feBlend mode="normal" in="SourceGraphic" in2="effect1_dropShadow_9918_35797" result="shape"/>
        </filter>
        <linearGradient id="paint0_linear_9918_35797" x1="479" y1="243" x2="482.932" y2="617.001" gradientUnits="userSpaceOnUse">
            <stop stop-color="#EAF1FC"/>
            <stop offset="1" stop-color="#EAF1FC" stop-opacity="0"/>
        </linearGradient>
        <linearGradient id="paint1_linear_9918_35797" x1="458.384" y1="47.0138" x2="378.53" y2="286.517" gradientUnits="userSpaceOnUse">
            <stop stop-color="#0075FF" stop-opacity="0.4"/>
            <stop offset="1" stop-color="#0075FF"/>
        </linearGradient>
        <linearGradient id="paint2_linear_9918_35797" x1="509.866" y1="145.454" x2="-62.6385" y2="704.836" gradientUnits="userSpaceOnUse">
            <stop stop-color="#311097"/>
            <stop offset="0.411714" stop-color="#187ADF"/>
            <stop offset="1" stop-color="#04D5E1"/>
        </linearGradient>
        <linearGradient id="paint3_linear_9918_35797" x1="398.251" y1="435.876" x2="224.162" y2="472.035" gradientUnits="userSpaceOnUse">
            <stop stop-color="#102397"/>
            <stop offset="0.411714" stop-color="#187ADF"/>
            <stop offset="1" stop-color="#04D5E1"/>
        </linearGradient>
        <linearGradient id="paint4_linear_9918_35797" x1="48.9838" y1="138.046" x2="109.797" y2="74.0535" gradientUnits="userSpaceOnUse">
            <stop stop-color="#102397"/>
            <stop offset="0.481294" stop-color="#187ADF"/>
            <stop offset="1" stop-color="#04D5E1"/>
        </linearGradient>
        <linearGradient id="paint5_linear_9918_35797" x1="419.635" y1="307.521" x2="410.539" y2="333.606" gradientUnits="userSpaceOnUse">
            <stop stop-color="#00D5FF"/>
            <stop offset="1" stop-color="#0058DE"/>
        </linearGradient>
        <linearGradient id="paint6_linear_9918_35797" x1="442.442" y1="269.671" x2="414.738" y2="349.121" gradientUnits="userSpaceOnUse">
            <stop stop-color="#00C3FF"/>
            <stop offset="1" stop-color="#006EE4"/>
        </linearGradient>
        <linearGradient id="paint7_linear_9918_35797" x1="470.767" y1="331.78" x2="478.893" y2="308.476" gradientUnits="userSpaceOnUse">
            <stop stop-color="#00C2FF"/>
            <stop offset="1" stop-color="#006BFF"/>
        </linearGradient>
    </defs>
</svg>
