<svg width="11" height="6" viewBox="0 0 11 6" fill="none" xmlns="http://www.w3.org/2000/svg">
    <path d="M0.0620203 2.62189C0.114909 2.49867 0.24242 2.36248 0.367288 2.23256L2.65626 0.209495C2.97231 -0.0698318 3.48471 -0.0698318 3.80075 0.209495C4.11679 0.488822 4.11679 0.941701 3.80075 1.22103L2.6386 2.24817L10.2245 2.24817C10.6528 2.24817 11 2.58368 11 2.99756C11 3.41144 10.6528 3.74695 10.2245 3.74695L2.6386 3.74695L3.73396 4.77897C4.05 5.0583 4.05 5.51118 3.73396 5.7905C3.41791 6.06983 2.90551 6.06983 2.58947 5.7905L0.367288 3.84111C0.262239 3.71374 0.0877571 3.48236 0.0620203 3.38848C0.0362835 3.29459 0 3.07167 0 3.00452C0 2.93737 0.00913143 2.74511 0.0620203 2.62189Z" fill="#47536A"/>
</svg>
