<svg width="160" height="61" viewBox="0 0 160 61" fill="none" xmlns="http://www.w3.org/2000/svg">
    <path d="M65.9778 18.056C65.9778 16.3411 67.3681 14.9509 69.083 14.9509H91.8192C93.5342 14.9509 94.9244 16.3411 94.9244 18.056V29.6539C94.9244 37.6472 88.4445 44.1272 80.4511 44.1272C72.4577 44.1272 65.9778 37.6472 65.9778 29.6539V18.056Z" fill="#FFC421" stroke="#CF9800" stroke-width="0.690036"/>
    <path d="M69.6497 56.3083C69.6497 57.0672 70.2649 57.6824 71.0238 57.6824H89.9853C90.7442 57.6824 91.3594 57.0672 91.3594 56.3083C91.3594 53.1693 89.2967 50.3945 86.3016 49.434C85.47 49.1673 85.0708 49.0529 84.5886 48.9813C84.1893 48.9221 83.7344 48.8922 82.9418 48.84C82.7518 48.8275 82.5424 48.8137 82.3098 48.798C80.8554 48.6994 80.0387 48.6974 78.5855 48.7979C78.3652 48.8132 78.1663 48.8266 77.9855 48.8387C77.1943 48.892 76.7487 48.922 76.3604 48.9811C75.8962 49.0518 75.5161 49.1641 74.7062 49.4273C71.7134 50.3999 69.6497 53.1698 69.6497 56.3083Z" fill="#FFC421" stroke="#CF9800" stroke-width="0.690036"/>
    <path d="M65.9743 21.6142V21.2692H65.6292H63.1887C61.6815 21.2692 60.4597 22.491 60.4597 23.9982V25.3776C60.4597 28.5243 62.1747 31.392 64.8837 32.8955C65.0439 32.9844 65.2262 32.9968 65.3916 32.9195C65.5387 32.8507 65.6337 32.7292 65.6917 32.6235C65.8063 32.4147 65.8511 32.1323 65.7977 31.8892C65.7582 31.7094 65.6877 31.4698 65.5865 31.2452C65.4912 31.034 65.3431 30.7766 65.1199 30.6286C63.4029 29.4896 62.4133 27.611 62.4133 25.4701V24.1205C62.4133 23.5613 62.8666 23.1079 63.4259 23.1079H65.6292H65.9743V22.7629V21.6142Z" fill="#FFC421" stroke="#CF9800" stroke-width="0.690036"/>
    <path d="M94.9164 21.6141V21.2691H95.2614H97.7019C99.2091 21.2691 100.431 22.491 100.431 23.9982V25.3776C100.431 28.5242 98.7159 31.3919 96.0069 32.8954C95.8467 32.9843 95.6644 32.9968 95.4991 32.9194C95.352 32.8506 95.2569 32.7292 95.1989 32.6234C95.0843 32.4146 95.0395 32.1323 95.0929 31.8892C95.1324 31.7093 95.2029 31.4698 95.3042 31.2451C95.3994 31.0339 95.5475 30.7765 95.7707 30.6285C97.4877 29.4895 98.4773 27.6109 98.4773 25.47V24.1205C98.4773 23.5612 98.024 23.1079 97.4647 23.1079H95.2614H94.9164V22.7628V21.6141Z" fill="#FFC421" stroke="#CF9800" stroke-width="0.690036"/>
    <rect x="78.9544" y="44.1287" width="3.10069" height="4.70888" fill="#FFC421" stroke="#CF9800" stroke-width="0.690036"/>
    <g opacity="0.5" filter="url(#filter0_f_12789_168280)">
        <path d="M72.4548 18.1062C72.4548 17.2778 71.7832 16.6062 70.9548 16.6062C70.1264 16.6062 69.4548 17.2734 69.4548 18.1019C69.4548 21.0735 69.4548 27.8346 69.4548 32.4827C69.4548 37.7663 73.6751 40.8973 74.8188 41.6489C74.9807 41.7552 75.1904 41.7131 75.31 41.5607C75.4399 41.3952 75.4188 41.1545 75.2747 41.0012C74.5236 40.2023 72.4548 37.5426 72.4548 32.4827V18.1062Z" fill="white"/>
    </g>
    <g opacity="0.4" filter="url(#filter1_f_12789_168280)">
        <path d="M91.3482 18.0845C91.3482 17.268 92.01 16.6062 92.8264 16.6062C93.6428 16.6062 94.3047 17.2652 94.3047 18.0817C94.3047 20.9358 94.3047 27.3185 94.3047 31.7148C94.3047 36.7614 90.1147 39.7444 89.006 40.4455C88.8524 40.5426 88.6561 40.5036 88.5415 40.3626C88.4107 40.2018 88.432 39.9627 88.5763 39.8139C89.3224 39.0447 91.3482 36.5144 91.3482 31.7148V18.0845Z" fill="#CF9800"/>
    </g>
    <g opacity="0.5" filter="url(#filter2_f_12789_168280)">
        <path d="M73.6286 55.3742C73.6138 55.9153 73.1632 56.342 72.6221 56.3273C72.081 56.3125 71.6507 55.9946 71.6654 55.4535C71.6731 55.1732 71.683 54.8104 71.6957 54.3421C71.7593 52.0096 74.8068 50.7524 75.3943 50.5314C75.4548 50.5087 75.5217 50.5222 75.5705 50.5646C75.6676 50.6491 75.6516 50.8089 75.5448 50.8808C75.0087 51.2419 73.7116 52.3263 73.6552 54.3955L73.6286 55.3742Z" fill="white"/>
    </g>
    <g opacity="0.4" filter="url(#filter3_f_12789_168280)">
        <path d="M88.3998 56.4199C88.4121 56.8711 88.7879 57.2269 89.2391 57.2146C89.6903 57.2023 90.0503 56.9803 90.038 56.5291C90.0283 56.174 90.0142 55.6564 89.9938 54.9078C89.9221 52.2775 87.5336 50.7938 86.9301 50.4604C86.8501 50.4162 86.7518 50.4376 86.6938 50.5083C86.6213 50.5966 86.6369 50.7298 86.7209 50.8072C87.1499 51.2021 88.2925 52.4813 88.3598 54.9523L88.3998 56.4199Z" fill="#CF9800"/>
    </g>
    <path fill-rule="evenodd" clip-rule="evenodd" d="M85.0019 24.248C85.0019 25.7068 83.8193 26.8895 82.3604 26.8895C80.9015 26.8895 79.7189 25.7068 79.7189 24.248C79.7189 22.7891 80.9015 21.6064 82.3604 21.6064C83.8193 21.6064 85.0019 22.7891 85.0019 24.248ZM76.0217 26.8899C76.9699 26.8899 77.7386 26.1212 77.7386 25.1729C77.7386 24.2247 76.9699 23.456 76.0217 23.456C75.0734 23.456 74.3047 24.2247 74.3047 25.1729C74.3047 26.1212 75.0734 26.8899 76.0217 26.8899ZM77.5849 29.519L78.7522 26.4845C78.7775 26.4175 78.8358 26.3705 78.904 26.3621C78.9891 26.3502 79.071 26.4007 79.1024 26.4845L80.2698 29.519L83.3808 29.7454C83.4551 29.7527 83.5181 29.8058 83.541 29.8804C83.5639 29.9549 83.5422 30.0366 83.4858 30.088L81.0928 32.1864L81.8515 35.3617C81.8703 35.4392 81.8422 35.5209 81.7805 35.5681C81.7189 35.6152 81.6361 35.6183 81.5714 35.5758L78.9273 33.8383L76.2833 35.5758C76.2186 35.6183 76.1358 35.6152 76.0741 35.5681C76.0125 35.5209 75.9844 35.4392 76.0031 35.3617L76.7619 32.1864L74.3688 30.088C74.3125 30.0366 74.2908 29.9549 74.3137 29.8804C74.3365 29.8058 74.3995 29.7527 74.4739 29.7454L77.5849 29.519ZM85.177 29.3272C84.9841 29.4775 84.8712 29.7084 84.8712 29.953V31.2234C84.8712 31.468 84.9841 31.6989 85.177 31.8492L87.4512 33.621C87.7986 33.8916 88.3052 33.6441 88.3052 33.2037V27.9727C88.3052 27.5323 87.7986 27.2848 87.4512 27.5554L85.177 29.3272Z" fill="#FFEBB2"/>
    <path d="M78.7522 26.4845L78.9858 26.5743L78.9864 26.5729L78.7522 26.4845ZM77.5849 29.519L77.603 29.7686L77.7615 29.7571L77.8185 29.6089L77.5849 29.519ZM78.904 26.3621L78.9348 26.6105L78.9386 26.61L78.904 26.3621ZM79.1024 26.4845L78.8681 26.5725L78.8688 26.5743L79.1024 26.4845ZM80.2698 29.519L80.0362 29.6089L80.0932 29.7571L80.2516 29.7686L80.2698 29.519ZM83.3808 29.7454L83.4054 29.4962L83.3989 29.4957L83.3808 29.7454ZM83.541 29.8804L83.7803 29.807L83.7803 29.807L83.541 29.8804ZM83.4858 30.088L83.6509 30.2762L83.6545 30.2729L83.4858 30.088ZM81.0928 32.1864L80.9277 31.9983L80.8142 32.0978L80.8493 32.2446L81.0928 32.1864ZM81.8515 35.3617L81.6081 35.4199L81.6083 35.4206L81.8515 35.3617ZM81.7805 35.5681L81.6285 35.3692L81.6285 35.3692L81.7805 35.5681ZM81.5714 35.5758L81.4339 35.785L81.4341 35.7851L81.5714 35.5758ZM78.9273 33.8383L79.0648 33.6291L78.9273 33.5388L78.7899 33.6291L78.9273 33.8383ZM76.2833 35.5758L76.4206 35.7851L76.4207 35.785L76.2833 35.5758ZM76.0741 35.5681L76.2261 35.3692L76.2261 35.3692L76.0741 35.5681ZM76.0031 35.3617L76.2464 35.4206L76.2466 35.4199L76.0031 35.3617ZM76.7619 32.1864L77.0053 32.2446L77.0404 32.0978L76.9269 31.9983L76.7619 32.1864ZM74.3688 30.088L74.2001 30.2729L74.2038 30.2762L74.3688 30.088ZM74.4739 29.7454L74.4557 29.4956L74.4492 29.4963L74.4739 29.7454ZM85.177 29.3272L85.0232 29.1297L85.177 29.3272ZM85.177 31.8492L85.0232 32.0467V32.0467L85.177 31.8492ZM87.4512 33.621L87.605 33.4235L87.4512 33.621ZM87.4512 27.5554L87.605 27.7529L87.4512 27.5554ZM82.3604 27.1398C83.9575 27.1398 85.2522 25.8451 85.2522 24.248H84.7516C84.7516 25.5686 83.681 26.6392 82.3604 26.6392V27.1398ZM79.4686 24.248C79.4686 25.8451 80.7633 27.1398 82.3604 27.1398V26.6392C81.0398 26.6392 79.9692 25.5686 79.9692 24.248H79.4686ZM82.3604 21.3562C80.7633 21.3562 79.4686 22.6509 79.4686 24.248H79.9692C79.9692 22.9273 81.0398 21.8567 82.3604 21.8567V21.3562ZM85.2522 24.248C85.2522 22.6509 83.9575 21.3562 82.3604 21.3562V21.8567C83.681 21.8567 84.7516 22.9273 84.7516 24.248H85.2522ZM77.4884 25.1729C77.4884 25.983 76.8317 26.6396 76.0217 26.6396V27.1402C77.1082 27.1402 77.9889 26.2594 77.9889 25.1729H77.4884ZM76.0217 23.7063C76.8317 23.7063 77.4884 24.3629 77.4884 25.1729H77.9889C77.9889 24.0864 77.1082 23.2057 76.0217 23.2057V23.7063ZM74.555 25.1729C74.555 24.3629 75.2116 23.7063 76.0217 23.7063V23.2057C74.9352 23.2057 74.0544 24.0864 74.0544 25.1729H74.555ZM76.0217 26.6396C75.2116 26.6396 74.555 25.983 74.555 25.1729H74.0544C74.0544 26.2594 74.9352 27.1402 76.0217 27.1402V26.6396ZM78.5186 26.3946L77.3513 29.4291L77.8185 29.6089L78.9858 26.5743L78.5186 26.3946ZM78.8732 26.1137C78.7081 26.1341 78.5745 26.2466 78.5181 26.396L78.9864 26.5729C78.9805 26.5884 78.9634 26.6069 78.9347 26.6105L78.8732 26.1137ZM79.3367 26.3965C79.2665 26.2096 79.0773 26.0852 78.8694 26.1142L78.9386 26.61C78.9009 26.6152 78.8754 26.5919 78.8681 26.5725L79.3367 26.3965ZM80.5034 29.4291L79.336 26.3946L78.8688 26.5743L80.0362 29.6089L80.5034 29.4291ZM83.3989 29.4957L80.2879 29.2694L80.2516 29.7686L83.3626 29.995L83.3989 29.4957ZM83.7803 29.807C83.7295 29.6414 83.5858 29.5142 83.4054 29.4963L83.3561 29.9944C83.3244 29.9913 83.3068 29.9702 83.3017 29.9538L83.7803 29.807ZM83.6545 30.2729C83.7844 30.1544 83.8307 29.9714 83.7803 29.807L83.3017 29.9538C83.297 29.9384 83.3 29.9187 83.3171 29.9031L83.6545 30.2729ZM81.2578 32.3746L83.6508 30.2762L83.3208 29.8998L80.9277 31.9983L81.2578 32.3746ZM82.095 35.3035L81.3362 32.1283L80.8493 32.2446L81.6081 35.4199L82.095 35.3035ZM81.9325 35.7669C82.0758 35.6574 82.1361 35.4733 82.0948 35.3028L81.6083 35.4206C81.6045 35.4052 81.6086 35.3845 81.6285 35.3692L81.9325 35.7669ZM81.4341 35.7851C81.588 35.8861 81.7868 35.8783 81.9325 35.7669L81.6285 35.3692C81.651 35.3521 81.6841 35.3504 81.7087 35.3666L81.4341 35.7851ZM78.7899 34.0475L81.4339 35.785L81.7088 35.3667L79.0648 33.6291L78.7899 34.0475ZM76.4207 35.785L79.0648 34.0475L78.7899 33.6291L76.1458 35.3667L76.4207 35.785ZM75.9221 35.7669C76.0679 35.8783 76.2667 35.8861 76.4206 35.7851L76.146 35.3666C76.1705 35.3504 76.2037 35.3521 76.2261 35.3692L75.9221 35.7669ZM75.7599 35.3028C75.7186 35.4733 75.7788 35.6574 75.9221 35.7669L76.2261 35.3692C76.2461 35.3845 76.2501 35.4052 76.2464 35.4206L75.7599 35.3028ZM76.5185 32.1283L75.7597 35.3035L76.2466 35.4199L77.0053 32.2446L76.5185 32.1283ZM74.2038 30.2762L76.5969 32.3746L76.9269 31.9983L74.5339 29.8998L74.2038 30.2762ZM74.0744 29.807C74.0239 29.9714 74.0703 30.1544 74.2001 30.2729L74.5375 29.9031C74.5547 29.9187 74.5576 29.9384 74.553 29.9538L74.0744 29.807ZM74.4492 29.4963C74.2689 29.5142 74.1251 29.6414 74.0744 29.807L74.553 29.9538C74.5479 29.9702 74.5302 29.9913 74.4986 29.9944L74.4492 29.4963ZM77.5667 29.2694L74.4557 29.4957L74.4921 29.995L77.603 29.7686L77.5667 29.2694ZM85.1215 29.953C85.1215 29.7856 85.1988 29.6275 85.3308 29.5246L85.0232 29.1297C84.7694 29.3275 84.6209 29.6313 84.6209 29.953H85.1215ZM85.1215 31.2234V29.953H84.6209V31.2234H85.1215ZM85.3308 31.6518C85.1988 31.5489 85.1215 31.3908 85.1215 31.2234H84.6209C84.6209 31.5451 84.7694 31.8489 85.0232 32.0467L85.3308 31.6518ZM87.605 33.4235L85.3308 31.6518L85.0232 32.0467L87.2974 33.8184L87.605 33.4235ZM88.0549 33.2037C88.0549 33.4357 87.788 33.5661 87.605 33.4235L87.2974 33.8184C87.8091 34.2171 88.5555 33.8525 88.5555 33.2037H88.0549ZM88.0549 27.9727V33.2037H88.5555V27.9727H88.0549ZM87.605 27.7529C87.788 27.6103 88.0549 27.7407 88.0549 27.9727H88.5555C88.5555 27.3239 87.8091 26.9593 87.2974 27.358L87.605 27.7529ZM85.3308 29.5246L87.605 27.7529L87.2974 27.358L85.0232 29.1297L85.3308 29.5246Z" fill="#CF9800"/>
    <path d="M137.213 23.8209C137.213 23.5374 137.443 23.3076 137.726 23.3076C138.01 23.3076 138.239 23.5374 138.239 23.8209V29.9809C138.239 30.2644 138.01 30.4942 137.726 30.4942C137.443 30.4942 137.213 30.2644 137.213 29.9809V23.8209Z" fill="#FFD765"/>
    <path d="M140.806 26.3876C141.09 26.3876 141.319 26.6174 141.319 26.9009C141.319 27.1844 141.09 27.4142 140.806 27.4142L134.646 27.4142C134.363 27.4142 134.133 27.1844 134.133 26.9009C134.133 26.6174 134.363 26.3876 134.646 26.3876L140.806 26.3876Z" fill="#FFD765"/>
    <path d="M139.135 24.9293C139.29 24.7737 139.542 24.7737 139.698 24.9293C139.853 25.0848 139.853 25.3371 139.698 25.4926L136.318 28.8725C136.162 29.0281 135.91 29.0281 135.755 28.8725C135.599 28.717 135.599 28.4648 135.755 28.3092L139.135 24.9293Z" fill="#FFD765"/>
    <path d="M139.698 28.3092C139.853 28.4648 139.853 28.717 139.698 28.8725C139.542 29.0281 139.29 29.0281 139.135 28.8725L135.755 25.4926C135.599 25.3371 135.599 25.0848 135.755 24.9293C135.91 24.7737 136.162 24.7737 136.318 24.9293L139.698 28.3092Z" fill="#FFD765"/>
    <path d="M100.569 54.8068C100.569 54.7056 100.651 54.6235 100.752 54.6235C100.853 54.6235 100.935 54.7056 100.935 54.8068V57.0068C100.935 57.108 100.853 57.1901 100.752 57.1901C100.651 57.1901 100.569 57.108 100.569 57.0068V54.8068Z" fill="#FFE8A8"/>
    <path d="M101.852 55.7235C101.953 55.7235 102.035 55.8055 102.035 55.9068C102.035 56.008 101.953 56.0901 101.852 56.0901L99.6521 56.0901C99.5508 56.0901 99.4687 56.008 99.4688 55.9068C99.4688 55.8055 99.5508 55.7235 99.6521 55.7235H101.852Z" fill="#FFE8A8"/>
    <path d="M52.389 24.1325C52.389 24.0313 52.4711 23.9492 52.5724 23.9492C52.6736 23.9492 52.7557 24.0313 52.7557 24.1325V26.3325C52.7557 26.4338 52.6736 26.5159 52.5724 26.5159C52.4711 26.5159 52.389 26.4338 52.389 26.3325V24.1325Z" fill="#FFBC00"/>
    <path d="M53.6724 25.0492C53.7736 25.0492 53.8557 25.1313 53.8557 25.2325C53.8557 25.3338 53.7736 25.4159 53.6724 25.4159L51.4724 25.4159C51.3711 25.4159 51.2891 25.3338 51.2891 25.2325C51.2891 25.1313 51.3711 25.0492 51.4724 25.0492L53.6724 25.0492Z" fill="#FFBC00"/>
    <path d="M53.0767 24.5435C53.1324 24.4878 53.2226 24.4878 53.2783 24.5435C53.334 24.5992 53.334 24.6894 53.2783 24.7451L52.0685 25.9549C52.0128 26.0106 51.9225 26.0106 51.8669 25.9549C51.8112 25.8993 51.8112 25.809 51.8669 25.7533L53.0767 24.5435Z" fill="#FFBC00"/>
    <path d="M53.2783 25.7533C53.334 25.809 53.334 25.8993 53.2783 25.9549C53.2226 26.0106 53.1324 26.0106 53.0767 25.9549L51.8669 24.7451C51.8112 24.6894 51.8112 24.5992 51.8669 24.5435C51.9225 24.4878 52.0128 24.4878 52.0685 24.5435L53.2783 25.7533Z" fill="#FFBC00"/>
    <path d="M110.131 26.7136C110.131 26.6124 110.213 26.5303 110.315 26.5303C110.416 26.5303 110.498 26.6124 110.498 26.7136V28.9136C110.498 29.0148 110.416 29.0969 110.315 29.0969C110.213 29.0969 110.131 29.0148 110.131 28.9136V26.7136Z" fill="#FFBC00"/>
    <path d="M111.415 27.6303C111.516 27.6303 111.598 27.7123 111.598 27.8136C111.598 27.9148 111.516 27.9969 111.415 27.9969L109.215 27.9969C109.113 27.9969 109.031 27.9148 109.031 27.8136C109.031 27.7123 109.113 27.6303 109.215 27.6303L111.415 27.6303Z" fill="#FFBC00"/>
    <path d="M110.819 27.1079C110.875 27.0522 110.965 27.0522 111.021 27.1079C111.076 27.1635 111.076 27.2538 111.021 27.3095L109.811 28.5193C109.755 28.575 109.665 28.575 109.609 28.5193C109.553 28.4636 109.553 28.3734 109.609 28.3177L110.819 27.1079Z" fill="#FFBC00"/>
    <path d="M111.021 28.3177C111.076 28.3734 111.076 28.4636 111.021 28.5193C110.965 28.575 110.875 28.575 110.819 28.5193L109.609 27.3095C109.553 27.2538 109.553 27.1635 109.609 27.1079C109.665 27.0522 109.755 27.0522 109.811 27.1079L111.021 28.3177Z" fill="#FFBC00"/>
    <path d="M69.0922 2.29173C69.0922 2.19048 69.1743 2.1084 69.2755 2.1084C69.3768 2.1084 69.4588 2.19048 69.4588 2.29173V4.4917C69.4588 4.59295 69.3768 4.67503 69.2755 4.67503C69.1743 4.67503 69.0922 4.59295 69.0922 4.4917V2.29173Z" fill="#FFBC00"/>
    <path d="M70.3755 3.20838C70.4767 3.20838 70.5588 3.29046 70.5588 3.39172C70.5588 3.49297 70.4767 3.57505 70.3755 3.57505L68.1755 3.57505C68.0743 3.57505 67.9922 3.49297 67.9922 3.39172C67.9922 3.29046 68.0743 3.20838 68.1755 3.20838L70.3755 3.20838Z" fill="#FFBC00"/>
    <path d="M69.7798 2.68598C69.8355 2.6303 69.9258 2.6303 69.9814 2.68598C70.0371 2.74166 70.0371 2.83194 69.9814 2.88762L68.7716 4.09743C68.7159 4.15312 68.6257 4.15312 68.57 4.09743C68.5143 4.04175 68.5143 3.95148 68.57 3.8958L69.7798 2.68598Z" fill="#FFBC00"/>
    <path d="M69.9814 3.8958C70.0371 3.95148 70.0371 4.04175 69.9814 4.09743C69.9258 4.15312 69.8355 4.15312 69.7798 4.09743L68.57 2.88762C68.5143 2.83194 68.5143 2.74166 68.57 2.68598C68.6257 2.6303 68.7159 2.6303 68.7716 2.68598L69.9814 3.8958Z" fill="#FFBC00"/>
    <path d="M147.537 2.40989C147.537 2.30864 147.62 2.22656 147.721 2.22656C147.822 2.22656 147.904 2.30864 147.904 2.40989V4.60987C147.904 4.71112 147.822 4.7932 147.721 4.7932C147.62 4.7932 147.537 4.71112 147.537 4.60987V2.40989Z" fill="#FFE8A8"/>
    <path d="M148.821 3.32655C148.922 3.32655 149.004 3.40863 149.004 3.50988C149.004 3.61113 148.922 3.69321 148.821 3.69321L146.621 3.69321C146.52 3.69321 146.437 3.61113 146.438 3.50988C146.438 3.40863 146.52 3.32655 146.621 3.32655L148.821 3.32655Z" fill="#FFE8A8"/>
    <path d="M148.225 2.80415C148.281 2.74847 148.371 2.74847 148.427 2.80415C148.482 2.85983 148.482 2.9501 148.427 3.00578L147.217 4.2156C147.161 4.27128 147.071 4.27128 147.015 4.2156C146.96 4.15992 146.96 4.06964 147.015 4.01396L148.225 2.80415Z" fill="#FFE8A8"/>
    <path d="M148.427 4.01396C148.482 4.06964 148.482 4.15992 148.427 4.2156C148.371 4.27128 148.281 4.27128 148.225 4.2156L147.015 3.00578C146.96 2.9501 146.96 2.85983 147.015 2.80415C147.071 2.74847 147.161 2.74847 147.217 2.80415L148.427 4.01396Z" fill="#FFE8A8"/>
    <path d="M33.5672 10.4843C33.5672 10.2818 33.7313 10.1177 33.9338 10.1177C34.1363 10.1177 34.3005 10.2818 34.3005 10.4843V14.8843C34.3005 15.0868 34.1363 15.2509 33.9338 15.2509C33.7313 15.2509 33.5672 15.0868 33.5672 14.8843V10.4843Z" fill="#FFBC00"/>
    <path d="M36.1338 12.3176C36.3363 12.3176 36.5005 12.4818 36.5005 12.6843C36.5005 12.8868 36.3363 13.051 36.1338 13.051L31.7338 13.051C31.5313 13.051 31.3672 12.8868 31.3672 12.6843C31.3672 12.4818 31.5313 12.3176 31.7338 12.3176L36.1338 12.3176Z" fill="#FFBC00"/>
    <path d="M34.9273 11.2499C35.0369 11.1402 35.2148 11.1402 35.3245 11.2499C35.4342 11.3596 35.4342 11.5375 35.3245 11.6471L32.9412 14.0304C32.8315 14.1401 32.6537 14.1401 32.544 14.0304C32.4343 13.9207 32.4343 13.7429 32.544 13.6332L34.9273 11.2499Z" fill="#FFBC00"/>
    <path d="M35.3245 13.6332C35.4342 13.7429 35.4342 13.9207 35.3245 14.0304C35.2148 14.1401 35.0369 14.1401 34.9273 14.0304L32.544 11.6471C32.4343 11.5375 32.4343 11.3596 32.544 11.2499C32.6537 11.1402 32.8315 11.1402 32.9412 11.2499L35.3245 13.6332Z" fill="#FFBC00"/>
    <path d="M20.2 26.8667C20.2 26.6642 20.3641 26.5 20.5666 26.5C20.7691 26.5 20.9333 26.6642 20.9333 26.8667V31.2666C20.9333 31.4691 20.7691 31.6333 20.5666 31.6333C20.3641 31.6333 20.2 31.4691 20.2 31.2666V26.8667Z" fill="#FFF0C7"/>
    <path d="M22.7666 28.7C22.9691 28.7 23.1333 28.8641 23.1333 29.0666C23.1333 29.2691 22.9691 29.4333 22.7666 29.4333L18.3667 29.4333C18.1642 29.4333 18 29.2691 18 29.0666C18 28.8641 18.1642 28.7 18.3667 28.7L22.7666 28.7Z" fill="#FFF0C7"/>
    <path d="M21.5587 27.6764C21.6684 27.5668 21.8462 27.5668 21.9559 27.6764C22.0656 27.7861 22.0656 27.964 21.9559 28.0736L19.5726 30.4569C19.463 30.5666 19.2851 30.5666 19.1754 30.4569C19.0658 30.3472 19.0658 30.1694 19.1754 30.0597L21.5587 27.6764Z" fill="#FFF0C7"/>
    <path d="M21.9559 30.0597C22.0656 30.1694 22.0656 30.3472 21.9559 30.4569C21.8462 30.5666 21.6684 30.5666 21.5587 30.4569L19.1754 28.0736C19.0658 27.964 19.0658 27.7861 19.1754 27.6764C19.2851 27.5668 19.463 27.5668 19.5726 27.6764L21.9559 30.0597Z" fill="#FFF0C7"/>
    <path d="M126.059 9.58248C126.059 9.37998 126.224 9.21582 126.426 9.21582C126.629 9.21582 126.793 9.37998 126.793 9.58248V13.9824C126.793 14.1849 126.629 14.3491 126.426 14.3491C126.224 14.3491 126.059 14.1849 126.059 13.9824V9.58248Z" fill="#FFF0C7"/>
    <path d="M128.626 11.4158C128.828 11.4158 128.993 11.58 128.993 11.7825C128.993 11.985 128.828 12.1491 128.626 12.1491L124.226 12.1491C124.024 12.1491 123.859 11.985 123.859 11.7825C123.859 11.58 124.024 11.4158 124.226 11.4158L128.626 11.4158Z" fill="#FFF0C7"/>
    <path d="M127.419 10.3923C127.529 10.2826 127.707 10.2826 127.817 10.3923C127.926 10.5019 127.926 10.6798 127.817 10.7895L125.433 13.1727C125.324 13.2824 125.146 13.2824 125.036 13.1727C124.927 13.063 124.927 12.8852 125.036 12.7755L127.419 10.3923Z" fill="#FFF0C7"/>
    <path d="M127.817 12.7755C127.926 12.8852 127.926 13.063 127.817 13.1727C127.707 13.2824 127.529 13.2824 127.419 13.1727L125.036 10.7895C124.927 10.6798 124.927 10.5019 125.036 10.3923C125.146 10.2826 125.324 10.2826 125.433 10.3923L127.817 12.7755Z" fill="#FFF0C7"/>
    <path d="M118.38 44.2138C118.38 44.0113 118.544 43.8472 118.746 43.8472C118.949 43.8472 119.113 44.0113 119.113 44.2138V48.6138C119.113 48.8163 118.949 48.9804 118.746 48.9804C118.544 48.9804 118.38 48.8163 118.38 48.6138V44.2138Z" fill="#FFBC00"/>
    <path d="M120.946 46.0471C121.149 46.0471 121.313 46.2113 121.313 46.4138C121.313 46.6163 121.149 46.7805 120.946 46.7805L116.546 46.7805C116.344 46.7805 116.18 46.6163 116.18 46.4138C116.18 46.2113 116.344 46.0471 116.546 46.0471L120.946 46.0471Z" fill="#FFBC00"/>
    <path d="M119.739 45.0236C119.849 44.9139 120.027 44.9139 120.136 45.0236C120.246 45.1333 120.246 45.3111 120.136 45.4208L117.753 47.804C117.643 47.9137 117.466 47.9137 117.356 47.804C117.246 47.6944 117.246 47.5165 117.356 47.4068L119.739 45.0236Z" fill="#FFBC00"/>
    <path d="M120.136 47.4068C120.246 47.5165 120.246 47.6944 120.136 47.804C120.027 47.9137 119.849 47.9137 119.739 47.804L117.356 45.4208C117.246 45.3111 117.246 45.1333 117.356 45.0236C117.466 44.9139 117.643 44.9139 117.753 45.0236L120.136 47.4068Z" fill="#FFBC00"/>
    <path d="M43.08 39.0133C43.08 38.7298 43.3098 38.5 43.5933 38.5C43.8768 38.5 44.1066 38.7298 44.1066 39.0133V45.1732C44.1066 45.4568 43.8768 45.6866 43.5933 45.6866C43.3098 45.6866 43.08 45.4568 43.08 45.1732V39.0133Z" fill="#FFD765"/>
    <path d="M46.6732 41.58C46.9568 41.58 47.1866 41.8098 47.1866 42.0933C47.1866 42.3768 46.9568 42.6066 46.6732 42.6066L40.5133 42.6066C40.2298 42.6066 40 42.3768 40 42.0933C40 41.8098 40.2298 41.58 40.5133 41.58L46.6732 41.58Z" fill="#FFD765"/>
    <path d="M45.0018 40.1217C45.1573 39.9661 45.4095 39.9661 45.5651 40.1217C45.7206 40.2772 45.7206 40.5294 45.5651 40.685L42.1852 44.0649C42.0296 44.2205 41.7774 44.2205 41.6218 44.0649C41.4663 43.9094 41.4663 43.6572 41.6218 43.5016L45.0018 40.1217Z" fill="#FFD765"/>
    <path d="M45.5651 43.5016C45.7206 43.6572 45.7206 43.9094 45.5651 44.0649C45.4095 44.2205 45.1573 44.2205 45.0018 44.0649L41.6218 40.685C41.4663 40.5294 41.4663 40.2772 41.6218 40.1217C41.7774 39.9661 42.0296 39.9661 42.1852 40.1217L45.5651 43.5016Z" fill="#FFD765"/>
    <path d="M63.7562 47.3357C63.7562 47.2344 63.8383 47.1523 63.9396 47.1523C64.0408 47.1523 64.1229 47.2344 64.1229 47.3357V49.5356C64.1229 49.6369 64.0408 49.719 63.9396 49.719C63.8383 49.719 63.7562 49.6369 63.7562 49.5356V47.3357Z" fill="#FFE8A8"/>
    <path d="M65.0396 48.2523C65.1408 48.2523 65.2229 48.3344 65.2229 48.4357C65.2229 48.5369 65.1408 48.619 65.0396 48.619L62.8396 48.619C62.7383 48.619 62.6562 48.5369 62.6562 48.4357C62.6563 48.3344 62.7383 48.2523 62.8396 48.2523L65.0396 48.2523Z" fill="#FFE8A8"/>
    <path d="M64.4269 47.7543C64.4806 47.7006 64.5678 47.7006 64.6215 47.7543C64.6753 47.8081 64.6753 47.8952 64.6215 47.949L63.4535 49.117C63.3998 49.1708 63.3126 49.1708 63.2588 49.117C63.2051 49.0633 63.2051 48.9761 63.2588 48.9223L64.4269 47.7543Z" fill="#FFE8A8"/>
    <path d="M64.6215 48.9223C64.6753 48.9761 64.6753 49.0633 64.6215 49.117C64.5678 49.1708 64.4806 49.1708 64.4269 49.117L63.2588 47.949C63.2051 47.8952 63.2051 47.8081 63.2588 47.7543C63.3126 47.7006 63.3998 47.7006 63.4535 47.7543L64.6215 48.9223Z" fill="#FFE8A8"/>
    <path d="M96.5096 2.64077C96.5096 2.35727 96.7395 2.12744 97.023 2.12744C97.3065 2.12744 97.5363 2.35727 97.5363 2.64077V8.80069C97.5363 9.08419 97.3065 9.31402 97.023 9.31402C96.7395 9.31402 96.5096 9.08419 96.5096 8.80069V2.64077Z" fill="#FFD765"/>
    <path d="M100.103 5.2074C100.386 5.2074 100.616 5.43723 100.616 5.72073C100.616 6.00423 100.386 6.23406 100.103 6.23406L93.943 6.23406C93.6595 6.23406 93.4297 6.00423 93.4297 5.72073C93.4297 5.43723 93.6595 5.2074 93.943 5.2074L100.103 5.2074Z" fill="#FFD765"/>
    <path d="M98.4519 3.69187C98.6021 3.53632 98.8457 3.53632 98.9959 3.69187C99.1461 3.84743 99.1461 4.09964 98.9959 4.25519L95.7318 7.63511C95.5816 7.79067 95.338 7.79067 95.1878 7.63511C95.0375 7.47956 95.0375 7.22735 95.1878 7.07179L98.4519 3.69187Z" fill="#FFD765"/>
    <path d="M98.9959 7.07179C99.1461 7.22735 99.1461 7.47956 98.9959 7.63511C98.8457 7.79067 98.6021 7.79067 98.4519 7.63511L95.1878 4.25519C95.0375 4.09964 95.0375 3.84743 95.1878 3.69187C95.338 3.53632 95.5816 3.53632 95.7318 3.69187L98.9959 7.07179Z" fill="#FFD765"/>
    <path d="M155.434 38.978C155.434 38.7755 155.599 38.6113 155.801 38.6113C156.004 38.6113 156.168 38.7755 156.168 38.978V43.3779C156.168 43.5804 156.004 43.7446 155.801 43.7446C155.599 43.7446 155.434 43.5804 155.434 43.3779V38.978Z" fill="#FFF0C7"/>
    <path d="M158.001 40.8113C158.203 40.8113 158.368 40.9755 158.368 41.178C158.368 41.3805 158.203 41.5446 158.001 41.5446L153.601 41.5446C153.399 41.5446 153.234 41.3805 153.234 41.178C153.234 40.9755 153.399 40.8113 153.601 40.8113L158.001 40.8113Z" fill="#FFF0C7"/>
    <path d="M156.793 39.7878C156.902 39.6781 157.08 39.6781 157.19 39.7878C157.299 39.8975 157.299 40.0753 157.19 40.185L154.806 42.5682C154.697 42.6779 154.519 42.6779 154.409 42.5682C154.3 42.4586 154.3 42.2807 154.409 42.171L156.793 39.7878Z" fill="#FFF0C7"/>
    <path d="M157.19 42.171C157.299 42.2807 157.299 42.4586 157.19 42.5682C157.08 42.6779 156.902 42.6779 156.793 42.5682L154.409 40.185C154.3 40.0753 154.3 39.8975 154.409 39.7878C154.519 39.6781 154.697 39.6781 154.806 39.7878L157.19 42.171Z" fill="#FFF0C7"/>
    <path d="M10.2 46.8667C10.2 46.6642 10.3641 46.5 10.5666 46.5C10.7691 46.5 10.9333 46.6642 10.9333 46.8667V51.2666C10.9333 51.4691 10.7691 51.6333 10.5666 51.6333C10.3641 51.6333 10.2 51.4691 10.2 51.2666V46.8667Z" fill="#FFF0C7"/>
    <path d="M12.7666 48.7C12.9691 48.7 13.1333 48.8641 13.1333 49.0666C13.1333 49.2691 12.9691 49.4333 12.7666 49.4333L8.36666 49.4333C8.16416 49.4333 8 49.2691 8 49.0666C8 48.8641 8.16416 48.7 8.36666 48.7L12.7666 48.7Z" fill="#FFF0C7"/>
    <path d="M11.559 47.6764C11.6687 47.5667 11.8465 47.5667 11.9562 47.6764C12.0659 47.7861 12.0659 47.9639 11.9562 48.0736L9.57293 50.4569C9.46324 50.5665 9.28541 50.5665 9.17572 50.4569C9.06604 50.3472 9.06604 50.1693 9.17572 50.0596L11.559 47.6764Z" fill="#FFF0C7"/>
    <path d="M11.9562 50.0596C12.0659 50.1693 12.0659 50.3472 11.9562 50.4569C11.8465 50.5665 11.6687 50.5665 11.559 50.4569L9.17572 48.0736C9.06604 47.9639 9.06604 47.7861 9.17572 47.6764C9.28541 47.5667 9.46324 47.5667 9.57293 47.6764L11.9562 50.0596Z" fill="#FFF0C7"/>
    <path d="M12.6531 2.55612C12.6531 2.35361 12.8173 2.18945 13.0198 2.18945C13.2223 2.18945 13.3864 2.35361 13.3864 2.55612V6.95606C13.3864 7.15856 13.2223 7.32272 13.0198 7.32272C12.8173 7.32272 12.6531 7.15856 12.6531 6.95606V2.55612Z" fill="#FFF0C7"/>
    <path d="M15.2197 4.38943C15.4222 4.38943 15.5864 4.55359 15.5864 4.75609C15.5864 4.95859 15.4222 5.12275 15.2197 5.12275L10.8198 5.12275C10.6173 5.12275 10.4531 4.95859 10.4531 4.75609C10.4531 4.55359 10.6173 4.38943 10.8198 4.38943L15.2197 4.38943Z" fill="#FFF0C7"/>
    <path d="M14.0121 3.36585C14.1218 3.25616 14.2996 3.25616 14.4093 3.36585C14.519 3.47553 14.519 3.65337 14.4093 3.76305L12.0261 6.1463C11.9164 6.25599 11.7385 6.25599 11.6288 6.1463C11.5192 6.03662 11.5192 5.85878 11.6288 5.7491L14.0121 3.36585Z" fill="#FFF0C7"/>
    <path d="M14.4093 5.7491C14.519 5.85878 14.519 6.03662 14.4093 6.1463C14.2996 6.25599 14.1218 6.25599 14.0121 6.1463L11.6288 3.76305C11.5192 3.65337 11.5192 3.47553 11.6288 3.36585C11.7385 3.25616 11.9164 3.25616 12.0261 3.36585L14.4093 5.7491Z" fill="#FFF0C7"/>
    <defs>
        <filter id="filter0_f_12789_168280" x="67.4527" y="14.6038" width="9.94613" height="29.1064" filterUnits="userSpaceOnUse" color-interpolation-filters="sRGB">
            <feFlood flood-opacity="0" result="BackgroundImageFix"/>
            <feBlend mode="normal" in="SourceGraphic" in2="BackgroundImageFix" result="shape"/>
            <feGaussianBlur stdDeviation="1.00118" result="effect1_foregroundBlur_12789_168280"/>
        </filter>
        <filter id="filter1_f_12789_168280" x="85.4515" y="13.6027" width="11.8567" height="29.9" filterUnits="userSpaceOnUse" color-interpolation-filters="sRGB">
            <feFlood flood-opacity="0" result="BackgroundImageFix"/>
            <feBlend mode="normal" in="SourceGraphic" in2="BackgroundImageFix" result="shape"/>
            <feGaussianBlur stdDeviation="1.50177" result="effect1_foregroundBlur_12789_168280"/>
        </filter>
        <filter id="filter2_f_12789_168280" x="69.6637" y="48.5181" width="7.97347" height="9.81185" filterUnits="userSpaceOnUse" color-interpolation-filters="sRGB">
            <feFlood flood-opacity="0" result="BackgroundImageFix"/>
            <feBlend mode="normal" in="SourceGraphic" in2="BackgroundImageFix" result="shape"/>
            <feGaussianBlur stdDeviation="1.00118" result="effect1_foregroundBlur_12789_168280"/>
        </filter>
        <filter id="filter3_f_12789_168280" x="83.6449" y="47.4338" width="9.3977" height="12.7847" filterUnits="userSpaceOnUse" color-interpolation-filters="sRGB">
            <feFlood flood-opacity="0" result="BackgroundImageFix"/>
            <feBlend mode="normal" in="SourceGraphic" in2="BackgroundImageFix" result="shape"/>
            <feGaussianBlur stdDeviation="1.50177" result="effect1_foregroundBlur_12789_168280"/>
        </filter>
    </defs>
</svg>
