<svg viewBox="0 0 126 40" fill="none" xmlns="http://www.w3.org/2000/svg">
    <rect y="-0.000732422" width="126" height="40" rx="6.66667" fill="black"/>
    <path d="M24.8369 20.2998C24.8477 19.4652 25.07 18.6468 25.4832 17.9208C25.8964 17.1949 26.487 16.585 27.2001 16.1478C26.7471 15.5026 26.1495 14.9717 25.4547 14.5971C24.7599 14.2226 23.9871 14.0147 23.1977 13.9901C21.5138 13.8138 19.8812 14.9949 19.0231 14.9949C18.1484 14.9949 16.8272 14.0076 15.4045 14.0368C14.4842 14.0664 13.5874 14.3333 12.8013 14.8114C12.0152 15.2894 11.3667 15.9624 10.919 16.7647C8.97959 20.1131 10.4262 25.0341 12.284 27.7407C13.2135 29.0661 14.2999 30.5465 15.7213 30.494C17.1122 30.4365 17.6317 29.6096 19.3107 29.6096C20.9742 29.6096 21.4616 30.494 22.9118 30.4607C24.4044 30.4365 25.3448 29.1294 26.2417 27.7915C26.9095 26.8472 27.4234 25.8034 27.7643 24.699C26.8972 24.3333 26.1572 23.7211 25.6366 22.9388C25.116 22.1565 24.8379 21.2387 24.8369 20.2998Z" fill="white"/>
    <path d="M22.0975 12.2099C22.9113 11.2356 23.3122 9.98347 23.2151 8.71924C21.9718 8.84946 20.8233 9.44202 19.9985 10.3788C19.5953 10.8365 19.2864 11.3689 19.0896 11.9457C18.8928 12.5225 18.8119 13.1323 18.8516 13.7402C19.4735 13.7466 20.0887 13.6122 20.651 13.3471C21.2132 13.082 21.7078 12.6932 22.0975 12.2099Z" fill="white"/>
    <path d="M42.4205 27.1387H37.6739L36.5339 30.4951H34.5234L39.0194 18.0771H41.1083L45.6043 30.4951H43.5595L42.4205 27.1387ZM38.1655 25.5899H41.928L40.0732 20.1426H40.0213L38.1655 25.5899Z" fill="white"/>
    <path d="M55.314 25.969C55.314 28.7824 53.8039 30.5901 51.5251 30.5901C50.9478 30.6202 50.3737 30.4876 49.8685 30.2074C49.3633 29.9273 48.9474 29.5109 48.6685 29.0061H48.6253V33.4904H46.7617V21.4416H48.5656V22.9475H48.5999C48.8917 22.445 49.3146 22.0308 49.8236 21.749C50.3327 21.4671 50.9089 21.3282 51.4908 21.3469C53.7951 21.3469 55.314 23.1633 55.314 25.969ZM53.3985 25.969C53.3985 24.136 52.4486 22.9309 50.9992 22.9309C49.5753 22.9309 48.6175 24.1613 48.6175 25.969C48.6175 27.7932 49.5753 29.0149 50.9992 29.0149C52.4486 29.0149 53.3985 27.8186 53.3985 25.969Z" fill="white"/>
    <path d="M65.3062 25.969C65.3062 28.7824 63.7961 30.59 61.5173 30.59C60.94 30.6202 60.3659 30.4876 59.8607 30.2074C59.3555 29.9273 58.9396 29.5109 58.6606 29.006H58.6175V33.4904H56.7539V21.4416H58.5578V22.9475H58.5921C58.8838 22.445 59.3067 22.0308 59.8158 21.749C60.3249 21.4671 60.901 21.3282 61.483 21.3469C63.7873 21.3469 65.3062 23.1633 65.3062 25.969ZM63.3907 25.969C63.3907 24.136 62.4407 22.9309 60.9914 22.9309C59.5675 22.9309 58.6097 24.1613 58.6097 25.969C58.6097 27.7932 59.5675 29.0149 60.9914 29.0149C62.4408 29.0149 63.3907 27.8186 63.3907 25.969H63.3907Z" fill="white"/>
    <path d="M71.9116 27.0357C72.0497 28.2671 73.2494 29.0757 74.8887 29.0757C76.4595 29.0757 77.5896 28.2671 77.5896 27.1567C77.5896 26.1929 76.908 25.6157 75.2941 25.2202L73.6803 24.8325C71.3936 24.2817 70.332 23.2153 70.332 21.4849C70.332 19.3423 72.2044 17.8706 74.8632 17.8706C77.4946 17.8706 79.2985 19.3423 79.3592 21.4849H77.478C77.3653 20.2456 76.3381 19.4976 74.8368 19.4976C73.3355 19.4976 72.3082 20.2544 72.3082 21.356C72.3082 22.2339 72.9644 22.7505 74.5694 23.146L75.9414 23.4819C78.4964 24.0844 79.558 25.1079 79.558 26.9243C79.558 29.2475 77.7022 30.7026 74.7506 30.7026C71.989 30.7026 70.1244 29.2817 70.0039 27.0356L71.9116 27.0357Z" fill="white"/>
    <path d="M83.5792 19.2988V21.4414H85.3058V22.9131H83.5792V27.9043C83.5792 28.6797 83.9249 29.041 84.6839 29.041C84.8889 29.0375 85.0935 29.0231 85.2969 28.998V30.4609C84.9557 30.5245 84.6089 30.5533 84.2618 30.5468C82.4237 30.5468 81.7068 29.8584 81.7068 28.1025V22.9131H80.3867V21.4414H81.7068V19.2988H83.5792Z" fill="white"/>
    <path d="M86.3047 25.9692C86.3047 23.1206 87.9871 21.3306 90.6107 21.3306C93.2431 21.3306 94.9177 23.1206 94.9177 25.9692C94.9177 28.8257 93.2519 30.6079 90.6107 30.6079C87.9704 30.6079 86.3047 28.8257 86.3047 25.9692ZM93.0188 25.9692C93.0188 24.0151 92.1208 22.8618 90.6107 22.8618C89.1006 22.8618 88.2036 24.0239 88.2036 25.9692C88.2036 27.9311 89.1006 29.0757 90.6107 29.0757C92.1208 29.0757 93.0188 27.9311 93.0188 25.9692H93.0188Z" fill="white"/>
    <path d="M96.4551 21.4415H98.2325V22.9825H98.2756C98.3959 22.5012 98.6786 22.0759 99.0763 21.778C99.474 21.4801 99.9625 21.3279 100.459 21.3468C100.674 21.346 100.888 21.3693 101.098 21.4161V23.1544C100.827 23.0718 100.544 23.0339 100.261 23.0421C99.9899 23.0312 99.72 23.0788 99.4695 23.1816C99.2189 23.2845 98.9937 23.4403 98.8092 23.6382C98.6247 23.836 98.4853 24.0714 98.4007 24.3281C98.316 24.5847 98.288 24.8566 98.3187 25.1251V30.4952H96.4551L96.4551 21.4415Z" fill="white"/>
    <path d="M109.69 27.8364C109.439 29.48 107.834 30.6079 105.781 30.6079C103.139 30.6079 101.5 28.8433 101.5 26.0122C101.5 23.1724 103.148 21.3306 105.702 21.3306C108.214 21.3306 109.794 23.0513 109.794 25.7964V26.4331H103.381V26.5454C103.352 26.8786 103.393 27.2143 103.504 27.5301C103.614 27.846 103.791 28.1347 104.022 28.3773C104.253 28.6198 104.533 28.8106 104.844 28.9369C105.154 29.0632 105.488 29.1222 105.824 29.1099C106.264 29.151 106.706 29.0493 107.084 28.8199C107.462 28.5904 107.755 28.2455 107.92 27.8364L109.69 27.8364ZM103.39 25.1343H107.929C107.946 24.8347 107.9 24.5349 107.795 24.2537C107.69 23.9725 107.528 23.7159 107.319 23.5001C107.11 23.2844 106.858 23.114 106.58 22.9998C106.302 22.8856 106.003 22.83 105.702 22.8364C105.399 22.8346 105.098 22.8928 104.817 23.0075C104.536 23.1222 104.281 23.2913 104.066 23.5049C103.851 23.7186 103.681 23.9726 103.565 24.2522C103.449 24.5319 103.389 24.8316 103.39 25.1343V25.1343Z" fill="white"/>
    <path d="M37.9328 8.7304C38.3235 8.70244 38.7156 8.7613 39.0807 8.90274C39.4458 9.04417 39.7749 9.26465 40.0443 9.54828C40.3136 9.8319 40.5165 10.1716 40.6382 10.5429C40.76 10.9141 40.7976 11.3077 40.7483 11.6952C40.7483 13.6015 39.7151 14.6972 37.9328 14.6972H35.7715V8.7304H37.9328ZM36.7008 13.8534H37.829C38.1082 13.87 38.3876 13.8244 38.6468 13.7198C38.9061 13.6152 39.1387 13.4542 39.3277 13.2487C39.5168 13.0431 39.6574 12.7981 39.7395 12.5315C39.8216 12.2648 39.8431 11.9833 39.8023 11.7074C39.8401 11.4326 39.8165 11.1528 39.7331 10.8881C39.6498 10.6235 39.5088 10.3805 39.3202 10.1765C39.1316 9.97261 38.9001 9.8128 38.6423 9.70856C38.3845 9.60433 38.1068 9.55824 37.829 9.57361H36.7008V13.8534Z" fill="white"/>
    <path d="M41.7991 12.4431C41.7707 12.1471 41.8047 11.8486 41.8988 11.5665C41.9929 11.2844 42.1451 11.0251 42.3456 10.8051C42.5461 10.5851 42.7905 10.4094 43.0631 10.2891C43.3357 10.1688 43.6305 10.1067 43.9286 10.1067C44.2267 10.1067 44.5216 10.1688 44.7942 10.2891C45.0668 10.4094 45.3112 10.5851 45.5117 10.8051C45.7122 11.0251 45.8644 11.2844 45.9585 11.5665C46.0526 11.8486 46.0865 12.1471 46.0581 12.4431C46.0871 12.7393 46.0535 13.0383 45.9597 13.3208C45.8658 13.6033 45.7137 13.8631 45.5132 14.0836C45.3126 14.304 45.068 14.4801 44.7951 14.6006C44.5222 14.7212 44.2271 14.7834 43.9286 14.7834C43.6302 14.7834 43.335 14.7212 43.0621 14.6006C42.7892 14.4801 42.5447 14.304 42.3441 14.0836C42.1436 13.8631 41.9915 13.6033 41.8976 13.3208C41.8038 13.0383 41.7702 12.7393 41.7991 12.4431ZM45.1415 12.4431C45.1415 11.467 44.7018 10.8962 43.9301 10.8962C43.1555 10.8962 42.7197 11.467 42.7197 12.4431C42.7197 13.427 43.1555 13.9934 43.9301 13.9934C44.7018 13.9934 45.1415 13.423 45.1415 12.4431H45.1415Z" fill="white"/>
    <path d="M51.7191 14.697H50.7947L49.8614 11.3806H49.7909L48.8615 14.697H47.9459L46.7012 10.1941H47.6051L48.414 13.6301H48.4806L49.409 10.1941H50.2639L51.1923 13.6301H51.2628L52.0678 10.1941H52.9589L51.7191 14.697Z" fill="white"/>
    <path d="M54.0059 10.1941H54.8637V10.9095H54.9303C55.0433 10.6525 55.2338 10.4372 55.4754 10.2934C55.7169 10.1496 55.9975 10.0845 56.2778 10.1072C56.4976 10.0907 56.7182 10.1238 56.9234 10.2039C57.1285 10.284 57.313 10.4091 57.4631 10.5699C57.6132 10.7308 57.7251 10.9232 57.7905 11.133C57.8559 11.3429 57.8731 11.5647 57.8408 11.782V14.697H56.9497V12.0052C56.9497 11.2815 56.6343 10.9217 55.9752 10.9217C55.8261 10.9147 55.6772 10.9401 55.5387 10.9959C55.4003 11.0517 55.2756 11.1367 55.1732 11.2451C55.0707 11.3535 54.993 11.4827 54.9454 11.6238C54.8977 11.765 54.8812 11.9147 54.897 12.0628V14.6971H54.0059L54.0059 10.1941Z" fill="white"/>
    <path d="M59.2598 8.43628H60.1509V14.697H59.2598V8.43628Z" fill="white"/>
    <path d="M61.3909 12.4432C61.3625 12.1472 61.3965 11.8486 61.4906 11.5665C61.5848 11.2845 61.737 11.0251 61.9375 10.8051C62.138 10.5851 62.3824 10.4094 62.6551 10.2891C62.9277 10.1688 63.2225 10.1067 63.5207 10.1067C63.8188 10.1067 64.1136 10.1688 64.3862 10.2891C64.6589 10.4094 64.9033 10.5851 65.1038 10.8051C65.3043 11.0251 65.4565 11.2845 65.5507 11.5665C65.6448 11.8486 65.6788 12.1472 65.6504 12.4432C65.6793 12.7394 65.6457 13.0384 65.5518 13.3209C65.4579 13.6034 65.3058 13.8632 65.1052 14.0836C64.9047 14.304 64.6601 14.4802 64.3872 14.6007C64.1143 14.7212 63.8191 14.7835 63.5207 14.7835C63.2222 14.7835 62.927 14.7212 62.6541 14.6007C62.3812 14.4802 62.1366 14.304 61.9361 14.0836C61.7355 13.8632 61.5834 13.6034 61.4895 13.3209C61.3956 13.0384 61.362 12.7394 61.3909 12.4432ZM64.7333 12.4432C64.7333 11.4671 64.2936 10.8963 63.5219 10.8963C62.7472 10.8963 62.3115 11.4671 62.3115 12.4432C62.3115 13.4271 62.7473 13.9935 63.5219 13.9935C64.2936 13.9934 64.7333 13.4231 64.7333 12.4432H64.7333Z" fill="white"/>
    <path d="M66.5879 13.4231C66.5879 12.6125 67.1931 12.1453 68.2674 12.0788L69.4905 12.0085V11.6199C69.4905 11.1443 69.1752 10.8757 68.5661 10.8757C68.0686 10.8757 67.7239 11.0579 67.625 11.3762H66.7622C66.8533 10.6028 67.5829 10.1067 68.6072 10.1067C69.7393 10.1067 70.3778 10.6687 70.3778 11.6199V14.6965H69.5199V14.0637H69.4494C69.3063 14.2907 69.1053 14.4758 68.867 14.6C68.6288 14.7242 68.3617 14.7831 68.0931 14.7707C67.9035 14.7904 67.7119 14.7702 67.5307 14.7115C67.3494 14.6528 67.1825 14.5569 67.0407 14.4299C66.8988 14.303 66.7853 14.1478 66.7073 13.9743C66.6293 13.8009 66.5886 13.6131 66.5879 13.4231ZM69.4905 13.0383V12.6619L68.3879 12.7322C67.766 12.7737 67.4839 12.9846 67.4839 13.3816C67.4839 13.7868 67.8365 14.0227 68.3213 14.0227C68.4633 14.037 68.6068 14.0227 68.7432 13.9806C68.8796 13.9385 69.0061 13.8695 69.1152 13.7777C69.2243 13.6858 69.3137 13.5731 69.3782 13.446C69.4427 13.319 69.4809 13.1804 69.4905 13.0383Z" fill="white"/>
    <path d="M71.5508 12.4436C71.5508 11.0208 72.2843 10.1194 73.4252 10.1194C73.7074 10.1064 73.9875 10.1738 74.2327 10.3137C74.4779 10.4536 74.6781 10.6602 74.8099 10.9094H74.8765V8.43628H75.7677V14.697H74.9137V13.9856H74.8432C74.7012 14.2331 74.494 14.4371 74.2441 14.5756C73.9941 14.7141 73.7109 14.7817 73.4252 14.7712C72.2765 14.7713 71.5508 13.8699 71.5508 12.4436ZM72.4714 12.4436C72.4714 13.3987 72.9228 13.9734 73.6779 13.9734C74.429 13.9734 74.8932 13.3904 74.8932 12.4475C74.8932 11.509 74.4241 10.9177 73.6779 10.9177C72.9277 10.9177 72.4713 11.4963 72.4713 12.4436H72.4714Z" fill="white"/>
    <path d="M79.4534 12.4431C79.425 12.1471 79.459 11.8486 79.5531 11.5665C79.6472 11.2844 79.7994 11.0251 79.9999 10.8051C80.2004 10.5851 80.4448 10.4094 80.7174 10.2891C80.99 10.1688 81.2848 10.1067 81.5829 10.1067C81.881 10.1067 82.1758 10.1688 82.4485 10.2891C82.7211 10.4094 82.9655 10.5851 83.166 10.8051C83.3665 11.0251 83.5187 11.2844 83.6128 11.5665C83.7069 11.8486 83.7408 12.1471 83.7124 12.4431C83.7414 12.7393 83.7078 13.0383 83.614 13.3208C83.5201 13.6033 83.368 13.8631 83.1675 14.0836C82.9669 14.304 82.7223 14.4801 82.4494 14.6006C82.1765 14.7212 81.8814 14.7834 81.5829 14.7834C81.2845 14.7834 80.9893 14.7212 80.7164 14.6006C80.4435 14.4801 80.199 14.304 79.9984 14.0836C79.7978 13.8631 79.6458 13.6033 79.5519 13.3208C79.458 13.0383 79.4245 12.7393 79.4534 12.4431ZM82.7958 12.4431C82.7958 11.467 82.3561 10.8962 81.5844 10.8962C80.8098 10.8962 80.374 11.467 80.374 12.4431C80.374 13.427 80.8098 13.9934 81.5844 13.9934C82.3561 13.9934 82.7958 13.423 82.7958 12.4431Z" fill="white"/>
    <path d="M84.9082 10.1941H85.7661V10.9095H85.8327C85.9456 10.6525 86.1362 10.4372 86.3777 10.2934C86.6193 10.1496 86.8998 10.0845 87.1802 10.1072C87.3999 10.0907 87.6205 10.1238 87.8257 10.2039C88.0309 10.284 88.2153 10.4091 88.3654 10.5699C88.5155 10.7308 88.6274 10.9232 88.6928 11.133C88.7582 11.3429 88.7754 11.5647 88.7432 11.782V14.697H87.852V12.0052C87.852 11.2815 87.5367 10.9217 86.8776 10.9217C86.7284 10.9147 86.5795 10.9401 86.4411 10.9959C86.3026 11.0517 86.1779 11.1367 86.0755 11.2451C85.9731 11.3535 85.8954 11.4827 85.8477 11.6238C85.8001 11.765 85.7836 11.9147 85.7994 12.0628V14.6971H84.9082V10.1941Z" fill="white"/>
    <path d="M93.777 9.07324V10.2148H94.7553V10.9634H93.777V13.2788C93.777 13.7505 93.9718 13.957 94.4155 13.957C94.529 13.9567 94.6425 13.9498 94.7553 13.9365V14.6768C94.5953 14.7053 94.4331 14.7205 94.2705 14.7222C93.2795 14.7222 92.8848 14.3745 92.8848 13.5063V10.9633H92.168V10.2148H92.8848V9.07324H93.777Z" fill="white"/>
    <path d="M95.9746 8.43628H96.8579V10.9177H96.9284C97.0469 10.6584 97.2427 10.4418 97.4891 10.2975C97.7355 10.1531 98.0205 10.088 98.3053 10.1111C98.5239 10.0992 98.7424 10.1356 98.9452 10.2177C99.1481 10.2997 99.3303 10.4254 99.4788 10.5857C99.6273 10.7461 99.7386 10.9371 99.8045 11.1452C99.8705 11.3534 99.8896 11.5735 99.8604 11.7898V14.697H98.9684V12.009C98.9684 11.2898 98.6324 10.9255 98.0028 10.9255C97.8496 10.913 97.6956 10.934 97.5514 10.9871C97.4072 11.0401 97.2764 11.1239 97.1681 11.2327C97.0598 11.3414 96.9766 11.4724 96.9244 11.6166C96.8722 11.7607 96.8522 11.9145 96.8658 12.0671V14.697H95.9746L95.9746 8.43628Z" fill="white"/>
    <path d="M105.056 13.4808C104.935 13.8923 104.673 14.2483 104.315 14.4865C103.957 14.7246 103.527 14.8298 103.099 14.7835C102.802 14.7913 102.506 14.7345 102.233 14.617C101.96 14.4995 101.715 14.324 101.517 14.1029C101.318 13.8818 101.171 13.6202 101.084 13.3364C100.997 13.0526 100.973 12.7533 101.013 12.4593C100.974 12.1644 100.998 11.8645 101.085 11.5798C101.172 11.2951 101.319 11.0324 101.516 10.8093C101.714 10.5862 101.957 10.4081 102.229 10.2868C102.502 10.1656 102.797 10.1042 103.095 10.1068C104.352 10.1068 105.11 10.9628 105.11 12.3768V12.6869H101.921V12.7367C101.907 12.9019 101.928 13.0682 101.982 13.225C102.037 13.3817 102.123 13.5254 102.236 13.6469C102.35 13.7684 102.487 13.8649 102.64 13.9303C102.793 13.9957 102.958 14.0285 103.124 14.0267C103.337 14.0522 103.553 14.0139 103.744 13.9167C103.936 13.8195 104.094 13.6677 104.198 13.4808L105.056 13.4808ZM101.921 12.0296H104.202C104.213 11.8785 104.193 11.7267 104.142 11.584C104.09 11.4413 104.01 11.3108 103.905 11.2009C103.801 11.0911 103.674 11.0043 103.534 10.9461C103.393 10.8879 103.242 10.8596 103.09 10.8631C102.936 10.8612 102.783 10.89 102.641 10.948C102.498 11.0059 102.368 11.0918 102.259 11.2005C102.15 11.3092 102.064 11.4386 102.006 11.581C101.948 11.7234 101.919 11.8759 101.921 12.0296H101.921Z" fill="white"/>
</svg>
