<svg width="887" height="1180" viewBox="-500 0 1387 1180" preserveAspectRatio="xMidYMin slice" fill="none" xmlns="http://www.w3.org/2000/svg">
    <path d="M887 3C336.92 3 152.191 2.99999 78.9196 2.99999C64.9235 2.99999 52.0345 10.3154 44.7878 22.2893L9.57274 80.4763C1.84698 93.2418 1.86878 109.246 9.62927 121.991L44.7726 179.704C52.0317 191.625 64.899 198.9 78.8563 198.907C137.252 198.936 256.578 199.047 308.625 199.086C323.093 199.097 336.379 206.912 343.457 219.53L376.022 277.58C382.841 289.736 382.841 304.564 376.022 316.72L343.457 374.77C336.379 387.388 323.141 395.197 308.673 395.18C254.164 395.116 130.169 394.919 79.0937 394.837C65.0455 394.814 52.0264 402.162 44.777 414.196L9.53116 472.7C1.83098 485.482 1.88538 501.487 9.67226 514.215L44.7781 571.601C52.0373 583.468 64.9024 590.71 78.813 590.729C129.862 590.797 254.778 590.978 308.958 591.177C323.276 591.23 336.315 598.999 343.321 611.487L376.022 669.78C382.841 681.936 382.841 696.765 376.022 708.92L343.457 766.97C336.379 779.588 323.079 787.393 308.611 787.35C256.163 787.197 141.851 786.733 79.0624 786.624C65.0089 786.599 52.0388 793.975 44.8109 806.028L9.49018 864.924C1.81525 877.721 1.90225 893.727 9.71585 906.44L44.7503 963.445C52.0277 975.286 64.924 982.497 78.8225 982.537C145.097 982.728 257.316 983.593 308.621 983.615C323.073 983.621 336.531 991.21 343.859 1003.67L376.1 1058.1C388.1 1072.8 397.35 1079 414 1079.6L892.6 1080.5" stroke="#0075FF" stroke-width="6" stroke-linecap="round"/>
</svg>
