<svg width="3440" height="403" viewBox="-1000 0 3440 403" preserveAspectRatio="xMidYMin slice" fill="none" xmlns="http://www.w3.org/2000/svg">
    <path d="M-1010 3.5002C-110 3.5002 -23.898 3.25089 26.9047 3.25078C54.7557 3.25073 81.8749 3.25073 101.518 3.25074C118.086 3.25075 131.498 16.6676 131.498 33.2361C131.498 107.814 131.498 259.056 131.498 323.41C131.498 337.186 138.587 349.883 150.261 357.198L208.446 393.653C221.469 401.812 238.015 401.789 251.015 393.594L308.73 357.211C320.35 349.885 327.399 337.198 327.405 323.462C327.434 263.022 327.547 136.812 327.586 83.2163C327.596 68.9621 335.184 55.7884 347.511 48.6299L405.561 14.9171C417.982 7.70366 433.316 7.70366 445.737 14.9171L503.787 48.6299C516.114 55.7884 523.696 68.8895 523.68 83.1437C523.617 139.387 523.415 270.859 523.334 323.286C523.312 337.114 530.434 349.892 542.166 357.209L600.669 393.696C613.709 401.829 630.255 401.772 643.238 393.549L700.627 357.204C712.193 349.879 719.209 337.245 719.227 323.555C719.294 271.16 719.478 138.742 719.681 82.8659C719.732 68.7551 727.278 55.8503 739.481 48.7638L797.761 14.9171C810.182 7.70366 825.517 7.70366 837.938 14.9171L895.988 48.6299C908.314 55.7884 915.893 68.8898 915.853 83.1439C915.703 137.175 915.228 257.982 915.121 323.224C915.099 337.058 922.248 349.88 934.001 357.177L992.891 393.739C1005.95 401.846 1022.49 401.754 1035.46 393.504L1092.47 357.23C1104.01 349.888 1111 337.195 1111.03 323.518C1111.22 254.527 1112.11 135.952 1112.11 83.1274C1112.12 68.9029 1119.47 55.6444 1131.62 48.2455L1195.92 9.08773C1202.18 5.27012 1209.34 3.25079 1216.68 3.25081C1283.37 3.25092 1450.5 3.25078 2450.5 3.25078" stroke="#0075FF" stroke-width="6" stroke-linecap="round"/>
</svg>
