<svg width="2035" height="13968" viewBox="0 0 2035 13968" fill="none" xmlns="http://www.w3.org/2000/svg">
    <path opacity="0.2" d="M812.828 13409.9L1111.05 13724.7C1135.6 13750.6 1172.1 13761.4 1206.82 13753.2L1631.48 13652C1666.3 13643.7 1694.03 13617.4 1704.19 13583.1L1828.13 13164.5C1838.26 13130.3 1829.38 13093.3 1804.83 13067.4L1506.61 12752.6C1482.06 12726.7 1445.56 12715.8 1410.84 12724.1L986.182 12825.2C951.362 12833.5 923.631 12859.8 913.469 12894.1L789.536 13312.7C779.403 13346.9 788.28 13384 812.828 13409.9Z" fill="url(#paint0_linear_12504_54013)"/>
    <path d="M932.438 13010.3L826.387 13260.8C812.478 13293.7 817.137 13331.5 838.613 13360L1003.48 13578.8C1025.03 13607.4 1060.22 13622.3 1095.75 13617.8L1367.61 13583.9C1403.02 13579.4 1433.39 13556.5 1447.3 13523.6L1553.35 13273.1C1567.26 13240.2 1562.6 13202.4 1541.12 13173.9L1376.25 12955.1C1354.71 12926.5 1319.52 12911.6 1283.99 12916L1012.13 12950C976.718 12954.4 946.348 12977.4 932.438 13010.3Z" fill="#D2E4FF"/>
    <path d="M211.314 12170L100.911 12430.8C87.0016 12463.7 91.6605 12501.5 113.137 12530L284.763 12757.8C306.309 12786.4 341.5 12801.2 377.028 12796.8L660.025 12761.4C695.437 12757 725.807 12734.1 739.717 12701.2L850.12 12440.3C864.03 12407.5 859.371 12369.7 837.894 12341.2L666.268 12113.4C644.722 12084.8 609.531 12069.9 574.003 12074.4L291.006 12109.7C255.594 12114.1 225.224 12137.1 211.314 12170Z" fill="#D2E4FF"/>
    <path opacity="0.4" d="M1065.18 11052.3L1078.37 11102.8C1081.93 11116.4 1092.41 11127.2 1105.94 11131.1L1153.46 11144.9C1167.57 11148.9 1182.79 11145 1193.1 11134.5L1227.81 11099.2C1237.7 11089.2 1241.57 11074.7 1238.01 11061.1L1224.82 11010.6C1221.26 10996.9 1210.78 10986.2 1197.25 10982.3L1149.72 10968.5C1135.61 10964.4 1120.4 10968.4 1110.09 10978.8L1075.38 11014.1C1065.49 11024.1 1061.61 11038.6 1065.18 11052.3Z" fill="url(#paint1_linear_12504_54013)"/>
    <path opacity="0.2" d="M217.894 11428L159.463 11646.1C150.226 11680.5 160.06 11717.3 185.268 11742.6L345.882 11903.5C371.172 11928.9 408.083 11938.8 442.657 11929.5L662.235 11870.4C696.697 11861.1 723.604 11834.2 732.841 11799.7L791.271 11581.6C800.508 11547.1 790.674 11510.4 765.466 11485.1L604.852 11324.1C579.562 11298.8 542.652 11288.9 508.077 11298.2L288.499 11357.3C254.037 11366.6 227.13 11393.5 217.894 11428Z" fill="url(#paint2_linear_12504_54013)"/>
    <path opacity="0.2" d="M617.658 10445.3L514.855 10456.3C479.369 10460.1 448.588 10482.5 434.087 10515.1L391.682 10610.4C377.133 10643.1 381.185 10681.1 402.306 10710L463.864 10794.3C484.916 10823.1 519.729 10838.5 555.216 10834.8L658.019 10823.8C693.505 10820 724.285 10797.6 738.787 10765L781.191 10669.6C795.74 10636.9 791.688 10598.9 770.568 10570L709.01 10485.8C687.958 10456.9 653.144 10441.5 617.658 10445.3Z" fill="url(#paint3_linear_12504_54013)"/>
    <path opacity="0.2" d="M1116.71 8966.48L1183.18 8987.45C1217.21 8998.19 1254.39 8989.98 1280.73 8965.91L1332.77 8918.36C1359.2 8894.21 1370.7 8857.76 1362.92 8822.82L1347.61 8754.01C1339.85 8719.18 1314.12 8691.12 1280.09 8680.38L1213.62 8659.4C1179.59 8648.66 1142.41 8656.87 1116.07 8680.94L1064.04 8728.49C1037.61 8752.65 1026.11 8789.09 1033.88 8824.04L1049.2 8892.84C1056.95 8927.67 1082.68 8955.73 1116.71 8966.48Z" fill="url(#paint4_linear_12504_54013)"/>
    <path opacity="0.2" d="M1044.75 7924.03L1033.94 7992.89C1028.41 8028.14 1042.08 8063.68 1069.82 8086.13L1124.61 8130.47C1152.45 8152.99 1190.2 8158.92 1223.59 8146L1289.33 8120.58C1322.62 8107.71 1346.52 8078.08 1352.05 8042.82L1362.86 7973.96C1368.4 7938.71 1354.72 7903.18 1326.98 7880.72L1272.19 7836.38C1244.36 7813.86 1206.61 7807.93 1173.21 7820.85L1107.47 7846.27C1074.19 7859.14 1050.29 7888.78 1044.75 7924.03Z" fill="url(#paint5_linear_12504_54013)"/>
    <path opacity="0.2" d="M526.713 8536.48L593.18 8557.45C627.213 8568.19 664.39 8559.98 690.734 8535.91L742.765 8488.36C769.196 8464.21 780.696 8427.76 772.918 8392.82L757.605 8324.01C749.852 8289.18 724.123 8261.12 690.09 8250.38L623.623 8229.4C589.59 8218.66 552.412 8226.87 526.068 8250.94L474.037 8298.49C447.607 8322.65 436.106 8359.09 443.884 8394.04L459.197 8462.84C466.95 8497.67 492.68 8525.73 526.713 8536.48Z" fill="url(#paint6_linear_12504_54013)"/>
    <path opacity="0.2" d="M358.878 9986.92L548.779 10046.8C582.812 10057.6 619.99 10049.4 646.334 10025.3L794.432 9889.96C820.863 9865.81 832.363 9829.37 824.585 9794.42L781 9598.59C773.247 9563.76 747.518 9535.69 713.485 9524.95L523.583 9465.02C489.55 9454.28 452.372 9462.49 426.028 9486.56L277.93 9621.9C251.5 9646.06 239.999 9682.5 247.778 9717.45L291.362 9913.28C299.115 9948.11 324.845 9976.18 358.878 9986.92Z" fill="url(#paint7_linear_12504_54013)"/>
    <path opacity="0.2" d="M265.494 6927.82L559.593 7020.63C593.626 7031.37 630.803 7023.16 657.147 6999.09L886.339 6789.64C912.77 6765.49 924.271 6729.05 916.492 6694.1L849.042 6391.04C841.289 6356.2 815.559 6328.14 781.526 6317.4L487.428 6224.58C453.395 6213.84 416.218 6222.05 389.873 6246.13L160.681 6455.57C134.251 6479.72 122.75 6516.17 130.529 6551.11L197.979 6854.18C205.732 6889.01 231.461 6917.08 265.494 6927.82Z" fill="url(#paint8_linear_12504_54013)"/>
    <path opacity="0.2" d="M1385.7 1664.41L1108.74 1824.32C1077.83 1842.16 1058.78 1875.12 1058.74 1910.81L1058.39 2232.76C1058.35 2268.57 1077.45 2301.66 1108.48 2319.53L1387.48 2480.2C1418.4 2498.01 1456.47 2497.99 1487.38 2480.15L1764.34 2320.24C1795.25 2302.4 1814.31 2269.44 1814.34 2233.75L1814.7 1911.8C1814.73 1875.99 1795.63 1842.9 1764.6 1825.03L1485.61 1664.36C1454.68 1646.55 1416.61 1646.57 1385.7 1664.41Z" fill="url(#paint9_linear_12504_54013)"/>
    <path opacity="0.2" d="M532.248 2309.48L357.032 2410.65C338.488 2421.35 327.056 2441.13 327.032 2462.54L326.81 2666.21C326.787 2687.69 338.25 2707.54 356.867 2718.26L533.356 2819.9C551.912 2830.59 574.755 2830.58 593.299 2819.87L768.515 2718.71C787.059 2708 798.492 2688.23 798.515 2666.81L798.737 2463.15C798.761 2441.67 787.297 2421.81 768.681 2411.09L592.191 2309.45C573.636 2298.77 550.792 2298.78 532.248 2309.48Z" fill="url(#paint10_linear_12504_54013)"/>
    <path opacity="0.2" d="M673.471 1587.04L566.119 1649.02C559.938 1652.59 556.127 1659.18 556.119 1666.32L555.983 1791.03C555.975 1798.2 559.796 1804.81 566.002 1808.39L674.075 1870.63C680.26 1874.19 687.875 1874.18 694.056 1870.62L801.408 1808.64C807.589 1805.07 811.4 1798.48 811.408 1791.34L811.544 1666.62C811.552 1659.46 807.73 1652.84 801.525 1649.27L693.452 1587.03C687.267 1583.47 679.652 1583.47 673.471 1587.04Z" fill="url(#paint11_linear_12504_54013)"/>
    <path opacity="0.2" d="M1024.62 1148.53L992.027 1239.54C989.62 1246.26 990.977 1253.75 995.588 1259.2L1058.42 1333.46C1063.04 1338.93 1070.24 1341.51 1077.28 1340.22L1172.97 1322.73C1179.99 1321.44 1185.8 1316.52 1188.2 1309.8L1220.79 1218.79C1223.2 1212.07 1221.84 1204.58 1217.23 1199.13L1154.4 1124.87C1149.78 1119.4 1142.58 1116.82 1135.54 1118.11L1039.85 1135.6C1032.83 1136.89 1027.03 1141.81 1024.62 1148.53Z" fill="url(#paint12_linear_12504_54013)"/>
    <path opacity="0.6" d="M238.505 3324.96L325.135 3475.01C342.979 3505.91 375.941 3524.97 411.628 3525.01L586.235 3525.2C622.04 3525.23 655.133 3506.13 673.002 3475.1L760.14 3323.79C777.95 3292.87 777.929 3254.79 760.086 3223.89L673.456 3073.84C655.612 3042.93 622.65 3023.88 586.963 3023.84L412.355 3023.65C376.551 3023.61 343.458 3042.72 325.589 3073.74L238.451 3225.05C220.641 3255.98 220.661 3294.05 238.505 3324.96Z" fill="#D2E4FF"/>
    <path opacity="0.2" d="M269.757 3485.67L356.387 3635.71C374.231 3666.62 407.193 3685.67 442.88 3685.71L617.487 3685.9C653.292 3685.94 686.385 3666.84 704.254 3635.81L791.392 3484.5C809.202 3453.57 809.181 3415.5 791.338 3384.59L704.708 3234.55C686.864 3203.64 653.902 3184.59 618.214 3184.55L443.607 3184.36C407.803 3184.32 374.71 3203.42 356.841 3234.45L269.703 3385.76C251.892 3416.69 251.913 3454.76 269.757 3485.67Z" fill="url(#paint13_linear_12504_54013)"/>
    <path opacity="0.6" d="M770.843 822.549L846.227 953.117C864.071 984.023 897.033 1003.08 932.72 1003.12L1084.71 1003.28C1120.52 1003.32 1153.61 984.215 1171.48 953.188L1247.33 821.476C1265.14 790.55 1265.12 752.476 1247.28 721.57L1171.89 591.002C1154.05 560.095 1121.09 541.041 1085.4 541.002L933.408 540.836C897.603 540.797 864.51 559.903 846.642 590.931L770.789 722.643C752.979 753.569 752.999 791.642 770.843 822.549Z" fill="#D2E4FF"/>
    <path d="M825.054 123.789L598.409 254.642C567.498 272.489 548.443 305.458 548.409 341.15L548.16 604.809C548.126 640.603 567.226 673.685 598.242 691.553L826.701 823.166C857.629 840.983 895.709 840.965 926.619 823.119L1153.26 692.266C1184.17 674.419 1203.23 641.45 1203.26 605.758L1203.51 342.099C1203.55 306.305 1184.45 273.223 1153.43 255.355L924.972 123.742C894.044 105.925 855.965 105.943 825.054 123.789Z" fill="url(#paint14_linear_12504_54013)"/>
    <defs>
        <linearGradient id="paint0_linear_12504_54013" x1="723.051" y1="13697.9" x2="1991.65" y2="13648.7" gradientUnits="userSpaceOnUse">
            <stop stop-color="#17F2FF"/>
            <stop offset="0.529852" stop-color="#2D6FD3"/>
            <stop offset="1" stop-color="#9844B2"/>
        </linearGradient>
        <linearGradient id="paint1_linear_12504_54013" x1="1024.68" y1="11077.1" x2="1224.63" y2="11173.5" gradientUnits="userSpaceOnUse">
            <stop stop-color="#17F2FF"/>
            <stop offset="0.529852" stop-color="#2D6FD3"/>
            <stop offset="1" stop-color="#9844B2"/>
        </linearGradient>
        <linearGradient id="paint2_linear_12504_54013" x1="41.9117" y1="11453" x2="480.356" y2="12108.6" gradientUnits="userSpaceOnUse">
            <stop stop-color="#17F2FF"/>
            <stop offset="0.529852" stop-color="#2D6FD3"/>
            <stop offset="1" stop-color="#9844B2"/>
        </linearGradient>
        <linearGradient id="paint3_linear_12504_54013" x1="582.663" y1="10343.6" x2="291.608" y2="10757.1" gradientUnits="userSpaceOnUse">
            <stop stop-color="#17F2FF"/>
            <stop offset="0.529852" stop-color="#2D6FD3"/>
            <stop offset="1" stop-color="#9844B2"/>
        </linearGradient>
        <linearGradient id="paint4_linear_12504_54013" x1="1100.92" y1="9054.5" x2="1466.62" y2="8832.5" gradientUnits="userSpaceOnUse">
            <stop stop-color="#17F2FF"/>
            <stop offset="0.529852" stop-color="#2D6FD3"/>
            <stop offset="1" stop-color="#9844B2"/>
        </linearGradient>
        <linearGradient id="paint5_linear_12504_54013" x1="955.354" y1="7921.57" x2="1229.51" y2="8249.99" gradientUnits="userSpaceOnUse">
            <stop stop-color="#17F2FF"/>
            <stop offset="0.529852" stop-color="#2D6FD3"/>
            <stop offset="1" stop-color="#9844B2"/>
        </linearGradient>
        <linearGradient id="paint6_linear_12504_54013" x1="510.921" y1="8624.5" x2="876.623" y2="8402.5" gradientUnits="userSpaceOnUse">
            <stop stop-color="#17F2FF"/>
            <stop offset="0.529852" stop-color="#2D6FD3"/>
            <stop offset="1" stop-color="#9844B2"/>
        </linearGradient>
        <linearGradient id="paint7_linear_12504_54013" x1="370.507" y1="10148.7" x2="992.042" y2="9771.35" gradientUnits="userSpaceOnUse">
            <stop stop-color="#17F2FF"/>
            <stop offset="0.529852" stop-color="#2D6FD3"/>
            <stop offset="1" stop-color="#9844B2"/>
        </linearGradient>
        <linearGradient id="paint8_linear_12504_54013" x1="300.27" y1="7151.79" x2="1137.76" y2="6643.38" gradientUnits="userSpaceOnUse">
            <stop stop-color="#17F2FF"/>
            <stop offset="0.529852" stop-color="#2D6FD3"/>
            <stop offset="1" stop-color="#9844B2"/>
        </linearGradient>
        <linearGradient id="paint9_linear_12504_54013" x1="1190.61" y1="1536.18" x2="994.765" y2="2523.06" gradientUnits="userSpaceOnUse">
            <stop stop-color="#17F2FF"/>
            <stop offset="0.529852" stop-color="#2D6FD3"/>
            <stop offset="1" stop-color="#9844B2"/>
        </linearGradient>
        <linearGradient id="paint10_linear_12504_54013" x1="409.319" y1="2230.16" x2="287.114" y2="2845.95" gradientUnits="userSpaceOnUse">
            <stop stop-color="#17F2FF"/>
            <stop offset="0.529852" stop-color="#2D6FD3"/>
            <stop offset="1" stop-color="#9844B2"/>
        </linearGradient>
        <linearGradient id="paint11_linear_12504_54013" x1="600.669" y1="1547.69" x2="534.496" y2="1881.14" gradientUnits="userSpaceOnUse">
            <stop stop-color="#17F2FF"/>
            <stop offset="0.529852" stop-color="#2D6FD3"/>
            <stop offset="1" stop-color="#9844B2"/>
        </linearGradient>
        <linearGradient id="paint12_linear_12504_54013" x1="959.395" y1="1160.42" x2="1093.91" y2="1402.39" gradientUnits="userSpaceOnUse">
            <stop stop-color="#17F2FF"/>
            <stop offset="0.529852" stop-color="#2D6FD3"/>
            <stop offset="1" stop-color="#9844B2"/>
        </linearGradient>
        <linearGradient id="paint13_linear_12504_54013" x1="175.001" y1="3598.23" x2="829.505" y2="3728.12" gradientUnits="userSpaceOnUse">
            <stop stop-color="#17F2FF"/>
            <stop offset="0.529852" stop-color="#2D6FD3"/>
            <stop offset="1" stop-color="#9844B2"/>
        </linearGradient>
        <linearGradient id="paint14_linear_12504_54013" x1="662.652" y1="8.76644" x2="492.773" y2="864.045" gradientUnits="userSpaceOnUse">
            <stop stop-color="#17F2FF"/>
            <stop offset="0.529852" stop-color="#2D6FD3"/>
            <stop offset="1" stop-color="#9844B2"/>
        </linearGradient>
    </defs>
</svg>
