<svg width="1346" height="1114" viewBox="-200 0 1420 1114" preserveAspectRatio="xMidYMin slice" fill="none" xmlns="http://www.w3.org/2000/svg">
    <path d="M-200 3H51.5C68.0685 3 81.5 16.4029 81.5 32.9714C81.5 135.773 81.5 373.549 81.5 461.71C81.5 475.683 88.7924 488.515 100.736 495.769L203.311 558.066C216.03 565.79 231.986 565.816 244.729 558.131L349.155 495.165C361.161 487.926 368.5 475.051 368.5 461.032C368.5 376.745 368.5 177.938 368.5 106.5C368.5 92.0147 376.332 78.6757 388.974 71.6046L492.159 13.8931C504.264 7.12222 519.014 7.10624 531.134 13.8508L634.95 71.6207C647.635 78.6794 655.5 91.8995 655.5 106.416C655.5 182.125 655.5 390.304 655.5 460.238C655.5 474.63 663.231 487.891 675.746 494.998L922.254 635.001C934.769 642.109 942.5 655.391 942.5 669.783V1006.57C942.5 1020.5 935.248 1033.43 923.358 1040.7L819.504 1104.16C806.623 1112.04 790.408 1111.99 777.576 1104.03L675.428 1040.73C663.659 1033.44 656.498 1020.58 656.498 1006.73V668.268C656.498 654.696 649.654 642.073 638.202 634.789C614.978 620.016 573.022 593.631 532.308 569.568C519.617 562.068 503.822 562.358 491.303 570.142L387.378 634.761C375.638 642.061 368.5 654.906 368.5 668.73V1006.53C368.5 1020.48 361.225 1033.43 349.305 1040.69L244.951 1104.24C232.096 1112.07 215.935 1112.02 203.129 1104.11L100.483 1040.72C88.6833 1033.44 81.5 1020.56 81.5 1006.69V610.631C81.5 588.539 63.5914 570.631 41.5 570.631H-200" stroke="#0075FF" stroke-width="6" stroke-linecap="round"/>
</svg>
