<svg width="3357" height="10641" viewBox="0 0 3357 10641" fill="none" xmlns="http://www.w3.org/2000/svg">
    <path opacity="0.2" d="M455.954 8182.06L356.865 8551.87C347.628 8586.34 357.462 8623.12 382.67 8648.38L654.846 8921.15C680.136 8946.5 717.046 8956.39 751.621 8947.08L1123.72 8846.94C1158.18 8837.67 1185.09 8810.73 1194.32 8776.26L1293.41 8406.46C1302.65 8371.98 1292.81 8335.2 1267.61 8309.94L995.431 8037.17C970.141 8011.83 933.23 8001.93 898.656 8011.24L526.559 8111.38C492.098 8120.65 465.191 8147.59 455.954 8182.06Z" fill="url(#paint0_linear_12500_53988)"/>
    <path opacity="0.2" d="M1628.27 9842.48L2077.96 10317.1C2102.51 10343 2139 10353.9 2173.73 10345.6L2813.83 10193.2C2848.65 10184.9 2876.39 10158.6 2886.55 10124.3L3073.36 9493.32C3083.49 9459.1 3074.61 9422.07 3050.06 9396.16L2600.38 8921.51C2575.83 8895.6 2539.33 8884.73 2504.61 8893L1864.5 9045.48C1829.68 9053.78 1801.95 9080.05 1791.79 9114.37L1604.98 9745.32C1594.85 9779.54 1603.73 9816.57 1628.27 9842.48Z" fill="url(#paint1_linear_12500_53988)"/>
    <path d="M1820.79 9278.05L1654.17 9671.74C1640.26 9704.61 1644.92 9742.39 1666.39 9770.9L1925.3 10114.5C1946.84 10143.1 1982.03 10158 2017.56 10153.6L2444.47 10100.2C2479.89 10095.8 2510.26 10072.8 2524.17 10040L2690.79 9646.26C2704.7 9613.4 2700.04 9575.61 2678.57 9547.11L2419.66 9203.5C2398.12 9174.91 2362.93 9160.01 2327.4 9164.45L1900.49 9217.8C1865.07 9222.22 1834.7 9245.18 1820.79 9278.05Z" fill="#D2E4FF"/>
    <path opacity="0.2" d="M2396.02 3342.23L2315.74 3385.45C2297.11 3395.47 2285.14 3414.57 2284.24 3435.71L2280.51 3522.9C2279.57 3544.87 2290.73 3565.59 2309.59 3576.91L2384.41 3621.81C2402.56 3632.69 2425.09 3633.22 2443.72 3623.19L2524 3579.97C2542.63 3569.95 2554.6 3550.85 2555.5 3529.71L2559.23 3442.52C2560.17 3420.55 2549.01 3399.83 2530.16 3388.51L2455.33 3343.61C2437.19 3332.73 2414.65 3332.2 2396.02 3342.23Z" fill="url(#paint2_linear_12500_53988)"/>
    <path opacity="0.4" d="M2271.12 5036.36L2233.62 5000.07C2223.49 4990.27 2208.95 4986.52 2195.35 4990.2L2147.59 5003.12C2133.41 5006.96 2122.47 5018.26 2119.11 5032.56L2107.76 5080.72C2104.52 5094.43 2108.75 5108.84 2118.87 5118.64L2156.38 5154.93C2166.51 5164.73 2181.04 5168.48 2194.65 5164.8L2242.41 5151.88C2256.59 5148.04 2267.52 5136.74 2270.89 5122.44L2282.24 5074.28C2285.47 5060.57 2281.25 5046.16 2271.12 5036.36Z" fill="url(#paint3_linear_12500_53988)"/>
    <path opacity="0.4" d="M1339.89 6055.76L1320.24 6104.11C1314.94 6117.17 1316.89 6132.05 1325.39 6143.29L1355.22 6182.76C1364.08 6194.48 1378.65 6200.41 1393.17 6198.19L1442.08 6190.72C1456.01 6188.59 1467.79 6179.29 1473.1 6166.24L1492.75 6117.89C1498.06 6104.83 1496.1 6089.95 1487.61 6078.71L1457.77 6039.23C1448.92 6027.51 1434.35 6021.59 1419.83 6023.81L1370.91 6031.28C1356.98 6033.4 1345.2 6042.7 1339.89 6055.76Z" fill="url(#paint4_linear_12500_53988)"/>
    <path opacity="0.4" d="M2176.17 8285.28L2189.37 8335.78C2192.93 8349.41 2203.4 8360.16 2216.94 8364.09L2264.46 8377.85C2278.57 8381.94 2293.79 8377.97 2304.1 8367.5L2338.81 8332.24C2348.7 8322.2 2352.57 8307.7 2349.01 8294.07L2335.82 8243.57C2332.25 8229.93 2321.78 8219.18 2308.25 8215.26L2260.72 8201.49C2246.61 8197.4 2231.4 8201.38 2221.09 8211.84L2186.37 8247.1C2176.49 8257.14 2172.61 8271.64 2176.17 8285.28Z" fill="url(#paint5_linear_12500_53988)"/>
    <path opacity="0.4" d="M1007 6850.9L1007 6903.1C1007 6917.19 1014.41 6930.24 1026.52 6937.46L1069.02 6962.79C1081.63 6970.31 1097.36 6970.31 1109.98 6962.79L1152.48 6937.46C1164.58 6930.24 1172 6917.19 1172 6903.1L1172 6850.9C1172 6836.81 1164.58 6823.76 1152.48 6816.54L1109.98 6791.21C1097.36 6783.69 1081.63 6783.69 1069.02 6791.21L1026.52 6816.54C1014.41 6823.76 1007 6836.81 1007 6850.9Z" fill="url(#paint6_linear_12500_53988)"/>
    <path opacity="0.6" d="M2271 6870.9L2271 6923.1C2271 6937.19 2278.41 6950.24 2290.52 6957.46L2333.02 6982.79C2345.63 6990.31 2361.36 6990.31 2373.98 6982.79L2416.48 6957.46C2428.58 6950.24 2436 6937.19 2436 6923.1L2436 6870.9C2436 6856.81 2428.58 6843.76 2416.48 6836.54L2373.98 6811.21C2361.36 6803.69 2345.63 6803.69 2333.02 6811.21L2290.52 6836.54C2278.41 6843.76 2271 6856.81 2271 6870.9Z" fill="#D2E4FF"/>
    <path opacity="0.6" d="M154.287 3071.73L345.713 3403.29C363.556 3434.2 396.518 3453.25 432.206 3453.29L817.541 3453.71C853.346 3453.75 886.439 3434.64 904.308 3403.62L1096.61 3069.7C1114.42 3038.77 1114.4 3000.7 1096.56 2969.79L905.131 2638.23C887.288 2607.33 854.326 2588.27 818.638 2588.23L433.303 2587.81C397.498 2587.77 364.405 2606.88 346.536 2637.91L154.233 2971.83C136.423 3002.75 136.444 3040.83 154.287 3071.73Z" fill="#D2E4FF"/>
    <path opacity="0.2" d="M157.287 3481.73L348.713 3813.29C366.556 3844.2 399.518 3863.25 435.206 3863.29L820.541 3863.71C856.346 3863.75 889.439 3844.64 907.308 3813.62L1099.61 3479.7C1117.42 3448.77 1117.4 3410.7 1099.56 3379.79L908.131 3048.23C890.288 3017.33 857.326 2998.27 821.638 2998.23L436.303 2997.81C400.498 2997.77 367.405 3016.88 349.536 3047.91L157.233 3381.83C139.423 3412.75 139.444 3450.83 157.287 3481.73Z" fill="url(#paint7_linear_12500_53988)"/>
    <path opacity="0.2" d="M1584.56 2991.01L1636.68 3081.28C1640.25 3087.47 1646.84 3091.28 1653.98 3091.28L1758.87 3091.4C1766.03 3091.41 1772.65 3087.59 1776.22 3081.38L1828.57 2990.49C1832.13 2984.3 1832.13 2976.69 1828.56 2970.5L1776.44 2880.23C1772.87 2874.05 1766.28 2870.24 1759.14 2870.23L1654.25 2870.11C1647.09 2870.11 1640.47 2873.93 1636.9 2880.13L1584.55 2971.03C1580.99 2977.21 1580.99 2984.83 1584.56 2991.01Z" fill="url(#paint8_linear_12500_53988)"/>
    <path opacity="0.2" d="M1114.82 4068.71L1160.98 4148.66C1164.55 4154.84 1171.14 4158.65 1178.28 4158.66L1271.17 4158.76C1278.33 4158.76 1284.95 4154.94 1288.53 4148.74L1334.88 4068.24C1338.45 4062.05 1338.44 4054.44 1334.87 4048.26L1288.72 3968.31C1285.15 3962.13 1278.56 3958.32 1271.42 3958.31L1178.52 3958.21C1171.36 3958.2 1164.75 3962.03 1161.17 3968.23L1114.81 4048.73C1111.25 4054.92 1111.25 4062.53 1114.82 4068.71Z" fill="url(#paint9_linear_12500_53988)"/>
    <path opacity="0.2" d="M1974.29 4189.06L2017.41 4263.74C2020.97 4269.92 2027.57 4273.73 2034.7 4273.74L2121.48 4273.83C2128.64 4273.84 2135.26 4270.02 2138.84 4263.81L2182.14 4188.61C2185.71 4182.43 2185.7 4174.81 2182.13 4168.63L2139.02 4093.95C2135.45 4087.77 2128.86 4083.96 2121.72 4083.95L2034.94 4083.86C2027.78 4083.85 2021.16 4087.67 2017.59 4093.88L1974.28 4169.08C1970.72 4175.26 1970.72 4182.88 1974.29 4189.06Z" fill="url(#paint10_linear_12500_53988)"/>
    <path opacity="0.2" d="M403.266 5996.4L768.366 6111.62C802.399 6122.37 839.577 6114.16 865.921 6090.08L1150.37 5830.14C1176.8 5805.98 1188.3 5769.54 1180.53 5734.59L1096.81 5358.46C1089.06 5323.63 1063.33 5295.56 1029.3 5284.82L664.197 5169.6C630.164 5158.86 592.986 5167.07 566.642 5191.14L282.19 5451.09C255.759 5475.24 244.259 5511.68 252.037 5546.63L335.75 5922.76C343.503 5957.6 369.233 5985.66 403.266 5996.4Z" fill="url(#paint11_linear_12500_53988)"/>
    <path opacity="0.2" d="M519.308 5536.42L722.112 5600.42C756.145 5611.16 793.322 5602.95 819.666 5578.88L977.805 5434.36C1004.24 5410.21 1015.74 5373.77 1007.96 5338.82L961.419 5129.71C953.666 5094.88 927.936 5066.81 893.903 5056.07L691.1 4992.07C657.067 4981.33 619.889 4989.54 593.545 5013.61L435.406 5158.13C408.975 5182.28 397.475 5218.72 405.253 5253.67L451.793 5462.78C459.546 5497.61 485.275 5525.68 519.308 5536.42Z" fill="url(#paint12_linear_12500_53988)"/>
    <path opacity="0.4" d="M2062.27 6507.67L2427.37 6622.89C2461.4 6633.63 2498.58 6625.42 2524.92 6601.35L2809.37 6341.41C2835.8 6317.25 2847.3 6280.81 2839.53 6245.86L2755.81 5869.73C2748.06 5834.89 2722.33 5806.83 2688.3 5796.09L2323.2 5680.87C2289.16 5670.13 2251.99 5678.34 2225.64 5702.41L1941.19 5962.36C1914.76 5986.51 1903.26 6022.95 1911.04 6057.9L1994.75 6434.03C2002.5 6468.87 2028.23 6496.93 2062.27 6507.67Z" fill="#D2E4FF"/>
    <path opacity="0.2" d="M2460.03 2011.37L2128.47 2202.79C2097.56 2220.63 2078.51 2253.6 2078.47 2289.28L2078.05 2674.62C2078.01 2710.42 2097.11 2743.52 2128.14 2761.39L2462.06 2953.69C2492.99 2971.5 2531.06 2971.48 2561.97 2953.63L2893.53 2762.21C2924.43 2744.37 2943.49 2711.4 2943.53 2675.72L2943.95 2290.38C2943.99 2254.58 2924.88 2221.48 2893.85 2203.61L2559.93 2011.31C2529.01 1993.5 2490.93 1993.52 2460.03 2011.37Z" fill="url(#paint13_linear_12500_53988)"/>
    <path opacity="0.2" d="M737.147 1613.43L483.055 1760.13C452.148 1777.98 433.094 1810.94 433.055 1846.63L432.733 2142.03C432.693 2177.83 451.8 2210.92 482.827 2228.79L738.812 2376.21C769.738 2394.02 807.811 2394 838.718 2376.16L1092.81 2229.46C1123.72 2211.62 1142.77 2178.65 1142.81 2142.97L1143.13 1847.57C1143.17 1811.76 1124.07 1778.67 1093.04 1760.8L837.053 1613.38C806.127 1595.57 768.054 1595.59 737.147 1613.43Z" fill="url(#paint14_linear_12500_53988)"/>
    <path opacity="0.6" d="M1158.23 1209.54L1371.98 1579.77C1389.82 1610.68 1422.79 1629.73 1458.47 1629.77L1888.71 1630.24C1924.51 1630.28 1957.6 1611.17 1975.47 1580.14L2190.18 1207.32C2207.99 1176.39 2207.97 1138.32 2190.13 1107.41L1976.37 737.184C1958.53 706.278 1925.57 687.223 1889.88 687.184L1459.65 686.715C1423.85 686.676 1390.75 705.782 1372.88 736.809L1158.17 1109.63C1140.36 1140.56 1140.39 1178.63 1158.23 1209.54Z" fill="#D2E4FF"/>
    <path d="M1194.52 223.011L628.275 549.932C597.364 567.778 578.309 600.747 578.275 636.439L577.652 1294.46C577.618 1330.25 596.718 1363.34 627.734 1381.2L1197.91 1709.67C1228.83 1727.49 1266.91 1727.47 1297.82 1709.63L1864.07 1382.71C1894.98 1364.86 1914.03 1331.89 1914.07 1296.2L1914.69 638.178C1914.72 602.384 1895.62 569.302 1864.61 551.434L1294.44 222.964C1263.51 205.146 1225.43 205.164 1194.52 223.011Z" fill="url(#paint15_linear_12500_53988)"/>
    <defs>
        <linearGradient id="paint0_linear_12500_53988" x1="192.047" y1="8244.25" x2="832.425" y2="9201.73" gradientUnits="userSpaceOnUse">
            <stop stop-color="#17F2FF"/>
            <stop offset="0.529852" stop-color="#2D6FD3"/>
            <stop offset="1" stop-color="#9844B2"/>
        </linearGradient>
        <linearGradient id="paint1_linear_12500_53988" x1="1518.39" y1="10262.8" x2="3295.92" y2="10194" gradientUnits="userSpaceOnUse">
            <stop stop-color="#17F2FF"/>
            <stop offset="0.529852" stop-color="#2D6FD3"/>
            <stop offset="1" stop-color="#9844B2"/>
        </linearGradient>
        <linearGradient id="paint2_linear_12500_53988" x1="2338.4" y1="3288.79" x2="2261.95" y2="3643.56" gradientUnits="userSpaceOnUse">
            <stop stop-color="#17F2FF"/>
            <stop offset="0.529852" stop-color="#2D6FD3"/>
            <stop offset="1" stop-color="#9844B2"/>
        </linearGradient>
        <linearGradient id="paint3_linear_12500_53988" x1="2292.86" y1="4994.15" x2="2071.91" y2="5015.62" gradientUnits="userSpaceOnUse">
            <stop stop-color="#17F2FF"/>
            <stop offset="0.529852" stop-color="#2D6FD3"/>
            <stop offset="1" stop-color="#9844B2"/>
        </linearGradient>
        <linearGradient id="paint4_linear_12500_53988" x1="1292.62" y1="6051.37" x2="1395.09" y2="6248.3" gradientUnits="userSpaceOnUse">
            <stop stop-color="#17F2FF"/>
            <stop offset="0.529852" stop-color="#2D6FD3"/>
            <stop offset="1" stop-color="#9844B2"/>
        </linearGradient>
        <linearGradient id="paint5_linear_12500_53988" x1="2135.67" y1="8310.06" x2="2335.63" y2="8406.49" gradientUnits="userSpaceOnUse">
            <stop stop-color="#17F2FF"/>
            <stop offset="0.529852" stop-color="#2D6FD3"/>
            <stop offset="1" stop-color="#9844B2"/>
        </linearGradient>
        <linearGradient id="paint6_linear_12500_53988" x1="961.548" y1="6864.64" x2="1130.63" y2="7008.49" gradientUnits="userSpaceOnUse">
            <stop stop-color="#17F2FF"/>
            <stop offset="0.529852" stop-color="#2D6FD3"/>
            <stop offset="1" stop-color="#9844B2"/>
        </linearGradient>
        <linearGradient id="paint7_linear_12500_53988" x1="14.652" y1="3712.32" x2="1144.5" y2="3936.54" gradientUnits="userSpaceOnUse">
            <stop stop-color="#17F2FF"/>
            <stop offset="0.529852" stop-color="#2D6FD3"/>
            <stop offset="1" stop-color="#9844B2"/>
        </linearGradient>
        <linearGradient id="paint8_linear_12500_53988" x1="1549.71" y1="3052.71" x2="1838.44" y2="3110.01" gradientUnits="userSpaceOnUse">
            <stop stop-color="#17F2FF"/>
            <stop offset="0.529852" stop-color="#2D6FD3"/>
            <stop offset="1" stop-color="#9844B2"/>
        </linearGradient>
        <linearGradient id="paint9_linear_12500_53988" x1="1082.7" y1="4123.69" x2="1344.37" y2="4175.62" gradientUnits="userSpaceOnUse">
            <stop stop-color="#17F2FF"/>
            <stop offset="0.529852" stop-color="#2D6FD3"/>
            <stop offset="1" stop-color="#9844B2"/>
        </linearGradient>
        <linearGradient id="paint10_linear_12500_53988" x1="1943.56" y1="4240.62" x2="2191.44" y2="4289.81" gradientUnits="userSpaceOnUse">
            <stop stop-color="#17F2FF"/>
            <stop offset="0.529852" stop-color="#2D6FD3"/>
            <stop offset="1" stop-color="#9844B2"/>
        </linearGradient>
        <linearGradient id="paint11_linear_12500_53988" x1="453.815" y1="6262.79" x2="1438.47" y2="5665.04" gradientUnits="userSpaceOnUse">
            <stop stop-color="#17F2FF"/>
            <stop offset="0.529852" stop-color="#2D6FD3"/>
            <stop offset="1" stop-color="#9844B2"/>
        </linearGradient>
        <linearGradient id="paint12_linear_12500_53988" x1="533.803" y1="5705.87" x2="1182.08" y2="5312.33" gradientUnits="userSpaceOnUse">
            <stop stop-color="#17F2FF"/>
            <stop offset="0.529852" stop-color="#2D6FD3"/>
            <stop offset="1" stop-color="#9844B2"/>
        </linearGradient>
        <linearGradient id="paint13_linear_12500_53988" x1="2229.44" y1="1868.73" x2="2005.22" y2="2998.58" gradientUnits="userSpaceOnUse">
            <stop stop-color="#17F2FF"/>
            <stop offset="0.529852" stop-color="#2D6FD3"/>
            <stop offset="1" stop-color="#9844B2"/>
        </linearGradient>
        <linearGradient id="paint14_linear_12500_53988" x1="556.931" y1="1491.23" x2="372.97" y2="2418.21" gradientUnits="userSpaceOnUse">
            <stop stop-color="#17F2FF"/>
            <stop offset="0.529852" stop-color="#2D6FD3"/>
            <stop offset="1" stop-color="#9844B2"/>
        </linearGradient>
        <linearGradient id="paint15_linear_12500_53988" x1="811.273" y1="18.3539" x2="464.72" y2="1763.13" gradientUnits="userSpaceOnUse">
            <stop stop-color="#17F2FF"/>
            <stop offset="0.529852" stop-color="#2D6FD3"/>
            <stop offset="1" stop-color="#9844B2"/>
        </linearGradient>
    </defs>
</svg>
