<svg width="33" height="26" viewBox="0 0 33 26" fill="none" xmlns="http://www.w3.org/2000/svg">
    <path fill-rule="evenodd" clip-rule="evenodd" d="M12.6583 5.82622C12.6374 9.00997 9.87621 11.5795 6.46614 11.5795C3.04306 11.5795 0.235366 8.99033 0.273828 5.78977C0.273828 2.58922 3.04306 0 6.46614 0C9.87621 0 12.6374 2.56958 12.6583 5.75333C12.6793 2.56958 15.4404 0 18.8505 0C22.2736 0 25.0428 2.58922 25.0428 5.78977C25.0428 8.99033 22.2736 11.5795 18.8505 11.5795C15.4404 11.5795 12.6793 9.00997 12.6583 5.82622ZM9.0046 5.78977C9.0046 4.49517 7.88921 3.41633 6.46614 3.41633C5.04306 3.41633 3.88921 4.45921 3.92767 5.78977C3.92767 7.08438 5.08152 8.16322 6.46614 8.16322C7.85075 8.16322 9.0046 7.12034 9.0046 5.78977ZM30.2734 12.982C30.9273 12.6223 31.735 12.8381 32.0811 13.4135C32.235 13.5933 32.2734 13.8091 32.2734 14.0248L32.235 18.7717V23.5906C32.235 24.2738 31.6581 24.8132 30.9273 24.8132C30.6581 24.8132 30.3888 24.7413 30.1965 24.5975L25.8888 22.26C25.8696 22.26 25.86 22.251 25.8504 22.242C25.8407 22.233 25.8311 22.224 25.8119 22.224L24.7734 21.6486V15.9668L25.8888 15.3554L30.2734 12.982ZM22.1602 11.9031C21.1602 12.3706 20.0448 12.6583 18.8525 12.6583C17.3909 12.6583 16.0063 12.2627 14.8525 11.5435H10.4678C9.314 12.2627 7.92939 12.6583 6.46785 12.6583C5.27554 12.6583 4.16016 12.4065 3.16016 11.9031C2.27554 12.3706 1.66016 13.3056 1.66016 14.3125V23.087C1.66016 24.7053 3.08323 25.9999 4.77554 25.9999H20.5832C22.314 25.9999 23.6986 24.6693 23.6986 23.087V14.3125C23.6602 13.3056 23.0448 12.3706 22.1602 11.9031ZM21.389 5.78977C21.389 4.49517 20.2736 3.41633 18.8505 3.41633C17.4274 3.41633 16.312 4.45921 16.312 5.78977C16.312 7.08438 17.4659 8.16322 18.8505 8.16322C20.2351 8.16322 21.389 7.12034 21.389 5.78977Z" fill="#0075FF"/>
</svg>
