<svg width="23" height="26" viewBox="0 0 23 26" fill="none" xmlns="http://www.w3.org/2000/svg">
    <path fill-rule="evenodd" clip-rule="evenodd" d="M15.7503 10.7039C14.5156 11.9231 13.0046 12.541 11.2595 12.541C9.51486 12.541 8.00398 11.9229 6.76913 10.7041C5.53428 9.4851 4.9082 7.9934 4.9082 6.2703C4.9082 4.54759 5.53428 3.0559 6.76893 1.83691C8.00358 0.617932 9.51425 0 11.2595 0C13.0043 0 14.5152 0.617932 15.7501 1.83672C16.9849 3.05609 17.6108 4.54779 17.6108 6.2703C17.6108 7.9934 16.9849 9.4849 15.7503 10.7039ZM22.1588 18.3394C22.2648 18.9238 22.3369 19.4772 22.3725 19.9845C22.4077 20.4802 22.4256 20.9977 22.4258 21.5222C22.4258 22.8818 21.9882 23.9822 21.1251 24.793C20.2727 25.5939 19.1455 25.9999 17.7743 25.9999H5.0773C3.70605 25.9999 2.57842 25.5937 1.72622 24.793C0.863351 23.9817 0.425781 22.8815 0.425781 21.5224C0.425781 21.0002 0.443485 20.4832 0.478491 19.9851C0.5141 19.4766 0.586123 18.923 0.692146 18.3394C0.799174 17.7507 0.936983 17.1943 1.10175 16.6856C1.27235 16.1595 1.50411 15.6405 1.7904 15.1429C2.08734 14.6267 2.43679 14.1772 2.82849 13.8069C3.2387 13.4194 3.74065 13.1081 4.32045 12.8815C4.89845 12.6555 5.53901 12.5409 6.22464 12.5409C6.49382 12.5409 6.75435 12.6499 7.2565 12.9731C7.57054 13.1751 7.93267 13.4055 8.33282 13.6579C8.67784 13.8752 9.14579 14.0788 9.72318 14.263C10.2877 14.4431 10.8601 14.5345 11.4252 14.5345C11.9903 14.5345 12.5629 14.4431 13.1268 14.263C13.7048 14.0786 14.1727 13.875 14.5181 13.6578C14.9221 13.4029 15.284 13.1725 15.5935 12.9733C16.0962 12.6501 16.3565 12.5411 16.6257 12.5411C17.3111 12.5411 17.9519 12.6555 18.5301 12.8813C19.1103 13.1083 19.6121 13.4196 20.0219 13.8067C20.4138 14.1768 20.763 14.6265 21.0604 15.1429C21.3468 15.6405 21.5786 16.1597 21.749 16.6854C21.914 17.1941 22.0518 17.7507 22.1588 18.3394Z" fill="#0075FF"/>
</svg>
