<svg width="28" height="26" viewBox="0 0 28 26" fill="none" xmlns="http://www.w3.org/2000/svg">
    <path d="M15.385 1.00803L18.1644 6.6714C18.4261 7.20443 18.9326 7.57483 19.5177 7.66066L25.7325 8.56747C27.207 8.78317 27.7954 10.6047 26.7286 11.6504L22.232 16.058C21.8086 16.4736 21.6155 17.0721 21.7154 17.6582L22.7767 23.8829C23.0282 25.36 21.4874 26.4859 20.169 25.788L14.6101 22.8496C14.0868 22.5729 13.4612 22.5729 12.9368 22.8496L7.37785 25.788C6.05943 26.4847 4.51752 25.3588 4.7702 23.8829L5.83145 17.6582C5.9314 17.0721 5.73824 16.4736 5.31486 16.058L0.8183 11.6504C-0.248567 10.6047 0.339895 8.78317 1.81442 8.56747L8.0292 7.65953C8.61429 7.5737 9.12077 7.20443 9.38244 6.67027L12.1619 1.0069C12.82 -0.335822 14.7258 -0.335822 15.385 1.00803Z" fill="#0075FF"/>
</svg>
