<svg width="32" height="29" viewBox="0 0 32 29" fill="none" xmlns="http://www.w3.org/2000/svg">
    <path fill-rule="evenodd" clip-rule="evenodd" d="M10.2112 6.15702C10.2112 2.99724 12.6478 0.426636 15.643 0.426636C18.6381 0.426636 21.0748 2.9973 21.0748 6.15702C21.0748 8.3002 19.9535 10.1721 18.2975 11.1549C17.5121 11.621 16.6065 11.8873 15.643 11.8873C14.6794 11.8873 13.7739 11.621 12.9884 11.1549C11.3325 10.1721 10.2112 8.30026 10.2112 6.15702ZM18.4113 13.0609H12.8795C10.389 13.0609 8.36289 15.1984 8.36289 17.8258V27.4734C8.36289 27.9997 8.76731 28.4264 9.26622 28.4264H22.0246C22.5235 28.4264 22.9279 27.9997 22.9279 27.4734V17.8258C22.9279 15.1984 20.9018 13.0609 18.4113 13.0609ZM6.93632 15.5433C6.68968 16.2557 6.55493 17.0244 6.55493 17.8257V27.4734C6.55493 27.8075 6.61006 28.1281 6.71034 28.4264H2.70997C1.21566 28.4264 0 27.1439 0 25.5675V20.3081C0 17.6808 2.02615 15.5433 4.51662 15.5433H6.93632ZM24.3509 15.5435H26.7706C29.2611 15.5435 31.2872 17.681 31.2872 20.3082V25.5676C31.2872 27.144 30.0715 28.4265 28.5772 28.4265H24.5769C24.6772 28.1283 24.7323 27.8076 24.7323 27.4735V17.8259C24.7323 17.0246 24.5976 16.2558 24.3509 15.5435ZM6.10797 5.76794C3.868 5.76794 2.0457 7.69039 2.0457 10.0535C2.0457 12.4165 3.868 14.339 6.10797 14.339C6.67617 14.339 7.21724 14.2148 7.70874 13.9916C8.55853 13.6057 9.25922 12.9224 9.69279 12.0666C9.99712 11.466 10.1702 10.7807 10.1702 10.0535C10.1702 7.69045 8.34795 5.76794 6.10797 5.76794ZM21.1202 10.0535C21.1202 7.69039 22.9425 5.76794 25.1825 5.76794C27.4224 5.76794 29.2447 7.69039 29.2447 10.0535C29.2447 12.4165 27.4224 14.339 25.1825 14.339C24.6143 14.339 24.0732 14.2148 23.5817 13.9916C22.7319 13.6057 22.0312 12.9225 21.5976 12.0666C21.2933 11.466 21.1202 10.7808 21.1202 10.0535Z" fill="#0075FF"/>
</svg>
