<svg viewBox="0 0 126 40" fill="none" xmlns="http://www.w3.org/2000/svg">
    <rect y="-0.000732422" width="126" height="40" rx="6.66667" fill="black"/>
    <path fill-rule="evenodd" clip-rule="evenodd" d="M51.7543 27.7409C52.6698 26.831 53.1275 25.6092 53.1275 24.0756C53.1275 23.8098 53.1018 23.5338 53.0504 23.2475H47.6966V24.5664H51.708C51.5949 25.6399 51.1732 26.4834 50.4429 27.0968C49.7126 27.7102 48.7971 28.017 47.6966 28.017C46.4931 28.017 45.4748 27.6029 44.6416 26.7748C43.8188 25.9364 43.4073 24.8884 43.4073 23.6309C43.4073 22.3734 43.8188 21.3254 44.6416 20.487C45.4748 19.6589 46.4931 19.2448 47.6966 19.2448C48.3137 19.2448 48.8897 19.3624 49.4246 19.5975C49.9697 19.8225 50.412 20.1394 50.7515 20.5484L51.7698 19.5362C51.3069 19.0148 50.7155 18.6109 49.9954 18.3247C49.2754 18.0384 48.5091 17.8953 47.6966 17.8953C46.092 17.8953 44.7342 18.4474 43.6233 19.5515C42.5125 20.6557 41.957 22.0155 41.957 23.6309C41.957 25.2463 42.5125 26.6061 43.6233 27.7102C44.7342 28.8144 46.092 29.3665 47.6966 29.3665C49.3732 29.3665 50.7257 28.8247 51.7543 27.7409ZM54.7474 22.8674C54.0171 23.624 53.652 24.5799 53.652 25.7352C53.652 26.8905 54.0171 27.8465 54.7474 28.6031C55.488 29.3596 56.4189 29.7379 57.54 29.7379C58.6612 29.7379 59.5869 29.3596 60.3172 28.6031C61.0578 27.8567 61.4281 26.9008 61.4281 25.7352C61.4281 24.5799 61.0578 23.624 60.3172 22.8674C59.5869 22.1109 58.6612 21.7326 57.54 21.7326C56.4189 21.7326 55.488 22.1109 54.7474 22.8674ZM55.7811 27.6982C55.308 27.1973 55.0714 26.5429 55.0714 25.7352C55.0714 24.9378 55.308 24.2886 55.7811 23.7876C56.2646 23.2764 56.8509 23.0208 57.54 23.0208C58.2292 23.0208 58.8155 23.2764 59.2989 23.7876C59.7721 24.2886 60.0086 24.9378 60.0086 25.7352C60.0086 26.5429 59.7721 27.1973 59.2989 27.6982C58.8258 28.1992 58.2395 28.4497 57.54 28.4497C56.8406 28.4497 56.2543 28.1992 55.7811 27.6982ZM61.9769 25.7352C61.9769 24.5799 62.342 23.624 63.0723 22.8674C63.8129 22.1109 64.7438 21.7326 65.865 21.7326C66.9861 21.7326 67.9118 22.1109 68.6421 22.8674C69.3827 23.624 69.753 24.5799 69.753 25.7352C69.753 26.9008 69.3827 27.8567 68.6421 28.6031C67.9118 29.3596 66.9861 29.7379 65.865 29.7379C64.7438 29.7379 63.8129 29.3596 63.0723 28.6031C62.342 27.8465 61.9769 26.8905 61.9769 25.7352ZM63.3963 25.7352C63.3963 26.5429 63.6329 27.1973 64.1061 27.6982C64.5792 28.1992 65.1655 28.4497 65.865 28.4497C66.5644 28.4497 67.1507 28.1992 67.6238 27.6982C68.097 27.1973 68.3336 26.5429 68.3336 25.7352C68.3336 24.9378 68.097 24.2886 67.6238 23.7876C67.1404 23.2764 66.5541 23.0208 65.865 23.0208C65.1758 23.0208 64.5895 23.2764 64.1061 23.7876C63.6329 24.2886 63.3963 24.9378 63.3963 25.7352ZM75.8408 27.6982C75.3985 28.1992 74.8276 28.4497 74.1282 28.4497C73.4493 28.4497 72.8784 28.1941 72.4156 27.6829C71.9527 27.1819 71.7213 26.5327 71.7213 25.7352C71.7213 24.948 71.9527 24.2988 72.4156 23.7876C72.8784 23.2764 73.4493 23.0208 74.1282 23.0208C74.8173 23.0208 75.3882 23.2764 75.8408 23.7876C76.3036 24.2988 76.5351 24.948 76.5351 25.7352C76.5351 26.5429 76.3036 27.1973 75.8408 27.6982ZM72.8939 32.8818C73.2642 32.9942 73.6602 33.0505 74.0819 33.0505C75.2339 33.0505 76.1596 32.7029 76.8591 32.0076C77.5482 31.3226 77.8928 30.3769 77.8928 29.1705V21.9779H76.5351V23.0208H76.4734C76.2059 22.6221 75.8408 22.3102 75.3779 22.0853C74.9253 21.8501 74.4316 21.7326 73.8967 21.7326C72.9093 21.7326 72.0607 22.1211 71.351 22.8981C70.6515 23.6751 70.3018 24.6208 70.3018 25.7352C70.3018 26.8497 70.6515 27.8005 71.351 28.5877C72.0607 29.3545 72.9093 29.7379 73.8967 29.7379C74.4316 29.7379 74.9253 29.6255 75.3779 29.4005C75.8408 29.1654 76.2059 28.8484 76.4734 28.4497H76.5351V29.1705C76.5351 29.9782 76.3191 30.6121 75.8871 31.0721C75.455 31.5322 74.8533 31.7623 74.0819 31.7623C73.5779 31.7623 73.1356 31.6293 72.755 31.3635C72.3744 31.0977 72.107 30.745 71.9527 30.3053L70.6104 30.8574C70.7235 31.1846 70.8881 31.4811 71.1041 31.7469C71.3201 32.0127 71.5773 32.2428 71.8756 32.437C72.1841 32.6313 72.5236 32.7795 72.8939 32.8818ZM80.7344 18.512V29.4925H79.3149V18.512H80.7344ZM82.7281 28.6031C83.4481 29.3596 84.3635 29.7379 85.4744 29.7379C86.2355 29.7379 86.9144 29.559 87.511 29.2012C88.1179 28.8433 88.591 28.3475 88.9304 27.7136L87.6653 27.1001C87.151 27.9998 86.4413 28.4497 85.5361 28.4497C84.8778 28.4497 84.3121 28.2248 83.8389 27.7749C83.3966 27.3544 83.3683 27.2837 83.2358 26.9535L83.2064 26.8804L88.9304 24.5996C88.7479 23.7391 88.5086 23.3981 88.051 22.8214C87.3927 22.0955 86.503 21.7326 85.3818 21.7326C84.2915 21.7326 83.3966 22.116 82.6972 22.8828C81.9978 23.6393 81.648 24.5902 81.648 25.7352C81.648 26.8905 82.008 27.8465 82.7281 28.6031ZM86.8938 23.5422C86.5133 23.1946 85.999 23.0208 85.351 23.0208C84.8161 23.0208 84.3532 23.1844 83.9624 23.5115C83.5818 23.8387 83.2788 24.2528 83.1554 24.8049L83.1499 24.8387L83.1499 24.8387L83.1499 24.8388C83.1071 25.1055 83.0781 25.2866 83.0781 25.7808L87.3676 24.1554C87.2587 23.9252 87.1008 23.7208 86.8938 23.5422ZM94.2649 29.5173V25.0558H96.6098C97.5765 25.0558 98.389 24.743 99.0472 24.1174C99.7259 23.4917 100.065 22.7123 100.065 21.779C100.065 20.8661 99.7259 20.0918 99.0472 19.4559C98.3787 18.82 97.5662 18.5021 96.6098 18.5021H92.8457V29.5173H94.2649ZM94.2649 23.702V19.8559H96.6406C97.2063 19.8559 97.6742 20.0508 98.0444 20.4405C98.425 20.82 98.6152 21.2661 98.6152 21.779C98.6152 22.302 98.425 22.7533 98.0444 23.1328C97.6742 23.5123 97.2063 23.702 96.6406 23.702H94.2649ZM102.492 29.5173V18.5021H101.073V29.5173H102.492ZM104.872 27.2096C104.872 27.5789 105.026 27.8866 105.334 28.1327C105.653 28.3789 106.023 28.5019 106.445 28.5019C107.042 28.5019 107.571 28.2814 108.034 27.8404C108.507 27.3994 108.744 26.8814 108.744 26.2866C108.301 25.9379 107.684 25.7635 106.892 25.7635C106.316 25.7635 105.833 25.902 105.442 26.1789C105.062 26.4558 104.872 26.7994 104.872 27.2096ZM106.707 21.7328C107.756 21.7328 108.584 22.0148 109.191 22.5789C109.798 23.1328 110.101 23.8969 110.101 24.8712V29.5173H108.744V28.4712H108.682C108.096 29.3327 107.314 29.7635 106.337 29.7635C105.504 29.7635 104.805 29.5173 104.239 29.025C103.684 28.5327 103.406 27.9173 103.406 27.1789C103.406 26.3994 103.699 25.7789 104.285 25.3174C104.882 24.8558 105.674 24.6251 106.661 24.6251C107.504 24.6251 108.199 24.7789 108.744 25.0866V24.7635C108.744 24.2712 108.548 23.8558 108.157 23.5174C107.767 23.1687 107.309 22.9943 106.784 22.9943C105.993 22.9943 105.365 23.3276 104.902 23.9943L103.653 23.2097C104.342 22.2251 105.36 21.7328 106.707 21.7328ZM113.264 32.8403L118 21.979H116.457L114.266 27.3943H114.235L111.983 21.979H110.441L113.557 29.0404L111.798 32.8403H113.264Z" fill="white"/>
    <path d="M51.7543 27.7409L51.6716 27.6577L51.6693 27.6602L51.7543 27.7409ZM53.0504 23.2475L53.1658 23.2268L53.1484 23.1303H53.0504V23.2475ZM47.6966 23.2475V23.1303H47.5793V23.2475H47.6966ZM47.6966 24.5664H47.5793V24.6836H47.6966V24.5664ZM51.708 24.5664L51.8246 24.5787L51.8383 24.4491H51.708V24.5664ZM50.4429 27.0968L50.5183 27.1866L50.4429 27.0968ZM44.6416 26.7748L44.558 26.8569L44.559 26.8579L44.6416 26.7748ZM44.6416 20.487L44.559 20.4039L44.558 20.4049L44.6416 20.487ZM49.4246 19.5975L49.3774 19.7049L49.3799 19.7059L49.4246 19.5975ZM50.7515 20.5484L50.6612 20.6233L50.7432 20.7219L50.8341 20.6315L50.7515 20.5484ZM51.7698 19.5362L51.8524 19.6194L51.931 19.5412L51.8574 19.4584L51.7698 19.5362ZM49.9954 18.3247L50.0388 18.2157V18.2157L49.9954 18.3247ZM43.6233 19.5515L43.706 19.6347L43.6233 19.5515ZM43.6233 27.7102L43.706 27.6271L43.6233 27.7102ZM54.7474 22.8674L54.6636 22.7854L54.663 22.786L54.7474 22.8674ZM54.7474 28.6031L54.663 28.6845L54.6636 28.6851L54.7474 28.6031ZM60.3172 28.6031L60.234 28.5205L60.2328 28.5216L60.3172 28.6031ZM60.3172 22.8674L60.2328 22.9489L60.2334 22.9494L60.3172 22.8674ZM55.7811 27.6982L55.6959 27.7787L55.7811 27.6982ZM55.7811 23.7876L55.6959 23.707L55.6959 23.7071L55.7811 23.7876ZM59.2989 23.7876L59.3841 23.7071L59.3841 23.707L59.2989 23.7876ZM59.2989 27.6982L59.3841 27.7787L59.2989 27.6982ZM63.0723 22.8674L62.9885 22.7854L62.988 22.786L63.0723 22.8674ZM68.6421 22.8674L68.5578 22.9489L68.5584 22.9494L68.6421 22.8674ZM68.6421 28.6031L68.5589 28.5205L68.5578 28.5216L68.6421 28.6031ZM63.0723 28.6031L62.988 28.6845L62.9886 28.6851L63.0723 28.6031ZM64.1061 27.6982L64.1913 27.6177L64.1061 27.6982ZM67.6238 27.6982L67.7091 27.7787L67.6238 27.6982ZM67.6238 23.7876L67.7091 23.7071L67.709 23.707L67.6238 23.7876ZM64.1061 23.7876L64.0209 23.707L64.0208 23.7071L64.1061 23.7876ZM75.8408 27.6982L75.7546 27.6187L75.7529 27.6206L75.8408 27.6982ZM72.4156 27.6829L72.5025 27.6042L72.5017 27.6033L72.4156 27.6829ZM72.4156 23.7876L72.3287 23.7089H72.3287L72.4156 23.7876ZM75.8408 23.7876L75.753 23.8653L75.7539 23.8663L75.8408 23.7876ZM72.8939 32.8818L72.9279 32.7696L72.9251 32.7688L72.8939 32.8818ZM76.8591 32.0076L76.7764 31.9245L76.8591 32.0076ZM77.8928 21.9779H78.0101V21.8607H77.8928V21.9779ZM76.5351 21.9779V21.8607H76.4178V21.9779H76.5351ZM76.5351 23.0208V23.138H76.6523V23.0208H76.5351ZM76.4734 23.0208L76.376 23.0861L76.4108 23.138H76.4734V23.0208ZM75.3779 22.0853L75.3238 22.1894L75.3267 22.1908L75.3779 22.0853ZM71.351 22.8981L71.2644 22.819L71.2638 22.8197L71.351 22.8981ZM71.351 28.5877L71.2633 28.6656L71.2649 28.6674L71.351 28.5877ZM75.3779 29.4005L75.4301 29.5055L75.431 29.5051L75.3779 29.4005ZM76.4734 28.4497V28.3325H76.4108L76.376 28.3844L76.4734 28.4497ZM76.5351 28.4497H76.6523V28.3325H76.5351V28.4497ZM75.8871 31.0721L75.8016 30.9919L75.8871 31.0721ZM72.755 31.3635L72.8221 31.2674L72.755 31.3635ZM71.9527 30.3053L72.0633 30.2665L72.0224 30.1499L71.9081 30.1969L71.9527 30.3053ZM70.6104 30.8574L70.5658 30.749L70.4634 30.7911L70.4996 30.8958L70.6104 30.8574ZM71.1041 31.7469L71.1951 31.673V31.673L71.1041 31.7469ZM71.8756 32.437L71.8116 32.5353L71.8131 32.5363L71.8756 32.437ZM80.7344 29.4925V29.6098H80.8516V29.4925H80.7344ZM80.7344 18.512H80.8516V18.3948H80.7344V18.512ZM79.3149 29.4925H79.1977V29.6098H79.3149V29.4925ZM79.3149 18.512V18.3948H79.1977V18.512H79.3149ZM87.511 29.2012L87.4514 29.1002L87.4507 29.1006L87.511 29.2012ZM88.9304 27.7136L89.0338 27.7689L89.0914 27.6613L88.9816 27.6081L88.9304 27.7136ZM87.6653 27.1001L87.7164 26.9946L87.6179 26.9468L87.5635 27.042L87.6653 27.1001ZM83.8389 27.7749L83.9197 27.6899V27.6899L83.8389 27.7749ZM83.2358 26.9535L83.3446 26.9098L83.3445 26.9097L83.2358 26.9535ZM83.2064 26.8804L83.163 26.7715L83.0537 26.8151L83.0976 26.9242L83.2064 26.8804ZM88.9304 24.5996L88.9738 24.7086L89.0656 24.672L89.0451 24.5753L88.9304 24.5996ZM88.051 22.8214L88.143 22.7484L88.1379 22.7427L88.051 22.8214ZM82.6972 22.8828L82.7833 22.9624L82.7838 22.9618L82.6972 22.8828ZM86.8938 23.5422L86.8147 23.6288L86.8172 23.631L86.8938 23.5422ZM83.9624 23.5115L83.8871 23.4216L83.8859 23.4226L83.9624 23.5115ZM83.1554 24.8049L83.0407 24.7793L83.0396 24.7864L83.1554 24.8049ZM83.1499 24.8387L83.2637 24.8701L83.2657 24.8573L83.1499 24.8387ZM83.1499 24.8387L83.0369 24.8075L83.0349 24.8149L83.0338 24.8224L83.1499 24.8387ZM83.1499 24.8388L83.2657 24.8574L83.266 24.8551L83.1499 24.8388ZM83.0781 25.7808H82.9608V25.9506L83.1196 25.8904L83.0781 25.7808ZM87.3676 24.1554L87.4091 24.2651L87.5279 24.2201L87.4736 24.1053L87.3676 24.1554ZM94.2649 25.0558V24.9386H94.1477V25.0558H94.2649ZM94.2649 29.5173V29.6346H94.3822V29.5173H94.2649ZM99.0472 24.1174L98.9677 24.0312L98.9664 24.0324L99.0472 24.1174ZM99.0472 19.4559L98.9664 19.5409L98.967 19.5415L99.0472 19.4559ZM92.8457 18.5021V18.3848H92.7285V18.5021H92.8457ZM92.8457 29.5173H92.7285V29.6346H92.8457V29.5173ZM94.2649 19.8559V19.7387H94.1477V19.8559H94.2649ZM94.2649 23.702H94.1477V23.8193H94.2649V23.702ZM98.0444 20.4405L97.9594 20.5213L97.9617 20.5235L98.0444 20.4405ZM98.0444 23.1328L97.9616 23.0498L97.9605 23.0509L98.0444 23.1328ZM102.492 18.5021H102.61V18.3848H102.492V18.5021ZM102.492 29.5173V29.6346H102.61V29.5173H102.492ZM101.073 18.5021V18.3848H100.956V18.5021H101.073ZM101.073 29.5173H100.956V29.6346H101.073V29.5173ZM105.334 28.1327L105.261 28.2244L105.263 28.2255L105.334 28.1327ZM108.034 27.8404L107.954 27.7546L107.953 27.7555L108.034 27.8404ZM108.744 26.2866H108.861V26.2297L108.816 26.1945L108.744 26.2866ZM105.442 26.1789L105.375 26.0832L105.373 26.0841L105.442 26.1789ZM109.191 22.5789L109.111 22.6648L109.112 22.6655L109.191 22.5789ZM110.101 29.5173V29.6346H110.218V29.5173H110.101ZM108.744 29.5173H108.626V29.6346H108.744V29.5173ZM108.744 28.4712H108.861V28.3539H108.744V28.4712ZM108.682 28.4712V28.3539H108.62L108.585 28.4052L108.682 28.4712ZM104.239 29.025L104.161 29.1127L104.162 29.1134L104.239 29.025ZM104.285 25.3174L104.214 25.2246L104.213 25.2252L104.285 25.3174ZM108.744 25.0866L108.686 25.1887L108.861 25.2874V25.0866H108.744ZM108.157 23.5174L108.079 23.6049L108.081 23.606L108.157 23.5174ZM104.902 23.9943L104.84 24.0936L104.935 24.1531L104.999 24.0612L104.902 23.9943ZM103.653 23.2097L103.557 23.1425L103.486 23.2435L103.59 23.309L103.653 23.2097ZM118 21.979L118.107 22.0258L118.179 21.8617H118V21.979ZM113.264 32.8403V32.9576H113.34L113.371 32.8872L113.264 32.8403ZM116.457 21.979V21.8617H116.378L116.348 21.935L116.457 21.979ZM114.266 27.3943V27.5115H114.345L114.375 27.4382L114.266 27.3943ZM114.235 27.3943L114.127 27.4393L114.157 27.5115H114.235V27.3943ZM111.983 21.979L112.091 21.9339L112.061 21.8617H111.983V21.979ZM110.441 21.979V21.8617H110.261L110.333 22.0263L110.441 21.979ZM113.557 29.0404L113.663 29.0896L113.685 29.0415L113.664 28.9931L113.557 29.0404ZM111.798 32.8403L111.692 32.7911L111.615 32.9576H111.798V32.8403ZM53.0102 24.0756C53.0102 25.5843 52.5609 26.7739 51.6717 27.6578L51.837 27.8241C52.7787 26.8881 53.2447 25.6341 53.2447 24.0756H53.0102ZM52.935 23.2682C52.9853 23.5483 53.0102 23.8174 53.0102 24.0756H53.2447C53.2447 23.8022 53.2183 23.5192 53.1658 23.2268L52.935 23.2682ZM47.6966 23.3647H53.0504V23.1303H47.6966V23.3647ZM47.8138 24.5664V23.2475H47.5793V24.5664H47.8138ZM51.708 24.4491H47.6966V24.6836H51.708V24.4491ZM50.5183 27.1866C51.275 26.551 51.7088 25.6781 51.8246 24.5787L51.5914 24.5541C51.481 25.6017 51.0714 26.4157 50.3675 27.007L50.5183 27.1866ZM47.6966 28.1342C48.8202 28.1342 49.7637 27.8205 50.5183 27.1866L50.3675 27.007C49.6615 27.6 48.774 27.8997 47.6966 27.8997V28.1342ZM44.559 26.8579C45.4147 27.7085 46.463 28.1342 47.6966 28.1342V27.8997C46.5232 27.8997 45.5349 27.4973 44.7243 26.6916L44.559 26.8579ZM43.2901 23.6309C43.2901 24.9168 43.712 25.995 44.558 26.8569L44.7253 26.6926C43.9256 25.8778 43.5246 24.8601 43.5246 23.6309H43.2901ZM44.558 20.4049C43.712 21.2668 43.2901 22.345 43.2901 23.6309H43.5246C43.5246 22.4017 43.9256 21.384 44.7253 20.5692L44.558 20.4049ZM47.6966 19.1276C46.463 19.1276 45.4147 19.5533 44.559 20.4039L44.7243 20.5702C45.5349 19.7645 46.5232 19.3621 47.6966 19.3621V19.1276ZM49.4718 19.4902C48.9212 19.2482 48.329 19.1276 47.6966 19.1276V19.3621C48.2984 19.3621 48.8582 19.4766 49.3774 19.7049L49.4718 19.4902ZM50.8417 20.4735C50.4887 20.0483 50.0302 19.7206 49.4693 19.4892L49.3799 19.7059C49.9093 19.9244 50.3353 20.2306 50.6612 20.6233L50.8417 20.4735ZM51.6871 19.4531L50.6688 20.4652L50.8341 20.6315L51.8524 19.6194L51.6871 19.4531ZM49.9521 18.4336C50.657 18.7139 51.2327 19.1078 51.6821 19.614L51.8574 19.4584C51.3811 18.9218 50.7739 18.508 50.0388 18.2157L49.9521 18.4336ZM47.6966 18.0125C48.495 18.0125 49.2466 18.1531 49.9521 18.4336L50.0388 18.2157C49.3043 17.9237 48.5232 17.778 47.6966 17.778V18.0125ZM43.706 19.6347C44.7943 18.5529 46.1221 18.0125 47.6966 18.0125V17.778C46.0618 17.778 44.6741 18.3418 43.5407 19.4684L43.706 19.6347ZM42.0743 23.6309C42.0743 22.0456 42.618 20.7161 43.706 19.6347L43.5407 19.4684C42.4069 20.5953 41.8398 21.9854 41.8398 23.6309H42.0743ZM43.706 27.6271C42.618 26.5457 42.0743 25.2162 42.0743 23.6309H41.8398C41.8398 25.2764 42.4069 26.6665 43.5407 27.7934L43.706 27.6271ZM47.6966 29.2493C46.1221 29.2493 44.7943 28.7089 43.706 27.6271L43.5407 27.7934C44.6741 28.92 46.0618 29.4838 47.6966 29.4838V29.2493ZM51.6693 27.6602C50.6657 28.7177 49.3453 29.2493 47.6966 29.2493V29.4838C49.401 29.4838 50.7858 28.9317 51.8394 27.8216L51.6693 27.6602ZM53.7692 25.7352C53.7692 24.607 54.1247 23.6813 54.8318 22.9489L54.663 22.786C53.9095 23.5667 53.5347 24.5528 53.5347 25.7352H53.7692ZM54.8318 28.5216C54.1247 27.7892 53.7692 26.8634 53.7692 25.7352H53.5347C53.5347 26.9177 53.9095 27.9038 54.663 28.6845L54.8318 28.5216ZM57.54 29.6207C56.4483 29.6207 55.5483 29.2536 54.8312 28.521L54.6636 28.6851C55.4277 29.4656 56.3894 29.8552 57.54 29.8552V29.6207ZM60.2328 28.5216C59.5262 29.2537 58.6317 29.6207 57.54 29.6207V29.8552C58.6906 29.8552 59.6476 29.4656 60.4016 28.6845L60.2328 28.5216ZM61.3108 25.7352C61.3108 26.8735 60.9503 27.7986 60.234 28.5205L60.4004 28.6856C61.1653 27.9149 61.5453 26.928 61.5453 25.7352H61.3108ZM60.2334 22.9494C60.9505 23.682 61.3108 24.6075 61.3108 25.7352H61.5453C61.5453 24.5523 61.1651 23.566 60.401 22.7854L60.2334 22.9494ZM57.54 21.8498C58.6317 21.8498 59.5262 22.2168 60.2328 22.9489L60.4016 22.786C59.6476 22.0049 58.6906 21.6153 57.54 21.6153V21.8498ZM54.8312 22.9494C55.5483 22.2168 56.4483 21.8498 57.54 21.8498V21.6153C56.3894 21.6153 55.4277 22.0049 54.6636 22.7854L54.8312 22.9494ZM54.9542 25.7352C54.9542 26.5674 55.1987 27.2523 55.6959 27.7787L55.8664 27.6177C55.4173 27.1422 55.1887 26.5185 55.1887 25.7352H54.9542ZM55.6959 23.7071C55.199 24.2332 54.9542 24.9129 54.9542 25.7352H55.1887C55.1887 24.9627 55.417 24.3439 55.8664 23.8681L55.6959 23.7071ZM57.54 22.9035C56.8179 22.9035 56.201 23.173 55.6959 23.707L55.8663 23.8681C56.3281 23.3798 56.8839 23.138 57.54 23.138V22.9035ZM59.3841 23.707C58.879 23.173 58.2622 22.9035 57.54 22.9035V23.138C58.1962 23.138 58.7519 23.3798 59.2137 23.8681L59.3841 23.707ZM60.1259 25.7352C60.1259 24.9129 59.8811 24.2332 59.3841 23.7071L59.2137 23.8681C59.663 24.3439 59.8914 24.9627 59.8914 25.7352H60.1259ZM59.3841 27.7787C59.8813 27.2523 60.1259 26.5674 60.1259 25.7352H59.8914C59.8914 26.5185 59.6628 27.1422 59.2137 27.6177L59.3841 27.7787ZM57.54 28.5669C58.2712 28.5669 58.8885 28.3036 59.3841 27.7787L59.2137 27.6177C58.763 28.0949 58.2078 28.3325 57.54 28.3325V28.5669ZM55.6959 27.7787C56.1916 28.3036 56.8089 28.5669 57.54 28.5669V28.3325C56.8723 28.3325 56.317 28.0949 55.8664 27.6177L55.6959 27.7787ZM62.988 22.786C62.2344 23.5667 61.8596 24.5528 61.8596 25.7352H62.0941C62.0941 24.607 62.4497 23.6813 63.1567 22.9489L62.988 22.786ZM65.865 21.6153C64.7143 21.6153 63.7526 22.0049 62.9886 22.7854L63.1561 22.9494C63.8732 22.2168 64.7733 21.8498 65.865 21.8498V21.6153ZM68.7265 22.786C67.9725 22.0049 67.0156 21.6153 65.865 21.6153V21.8498C66.9566 21.8498 67.8512 22.2168 68.5578 22.9489L68.7265 22.786ZM69.8703 25.7352C69.8703 24.5523 69.49 23.566 68.7259 22.7854L68.5584 22.9494C69.2754 23.682 69.6358 24.6075 69.6358 25.7352H69.8703ZM68.7254 28.6856C69.4902 27.9149 69.8703 26.928 69.8703 25.7352H69.6358C69.6358 26.8735 69.2752 27.7986 68.5589 28.5205L68.7254 28.6856ZM65.865 29.8552C67.0156 29.8552 67.9725 29.4656 68.7265 28.6845L68.5578 28.5216C67.8512 29.2537 66.9566 29.6207 65.865 29.6207V29.8552ZM62.9886 28.6851C63.7526 29.4656 64.7143 29.8552 65.865 29.8552V29.6207C64.7732 29.6207 63.8732 29.2536 63.1561 28.521L62.9886 28.6851ZM61.8596 25.7352C61.8596 26.9177 62.2344 27.9038 62.988 28.6845L63.1567 28.5216C62.4497 27.7892 62.0941 26.8634 62.0941 25.7352H61.8596ZM64.1913 27.6177C63.7422 27.1422 63.5136 26.5185 63.5136 25.7352H63.2791C63.2791 26.5674 63.5236 27.2523 64.0208 27.7787L64.1913 27.6177ZM65.865 28.3325C65.1972 28.3325 64.6419 28.0949 64.1913 27.6177L64.0208 27.7787C64.5165 28.3036 65.1338 28.5669 65.865 28.5669V28.3325ZM67.5386 27.6177C67.088 28.0949 66.5327 28.3325 65.865 28.3325V28.5669C66.5961 28.5669 67.2134 28.3036 67.7091 27.7787L67.5386 27.6177ZM68.2163 25.7352C68.2163 26.5185 67.9877 27.1422 67.5386 27.6177L67.7091 27.7787C68.2063 27.2523 68.4508 26.5674 68.4508 25.7352H68.2163ZM67.5386 23.8681C67.988 24.3439 68.2163 24.9627 68.2163 25.7352H68.4508C68.4508 24.9129 68.206 24.2332 67.7091 23.7071L67.5386 23.8681ZM65.865 23.138C66.5211 23.138 67.0768 23.3798 67.5387 23.8681L67.709 23.707C67.204 23.173 66.5871 22.9035 65.865 22.9035V23.138ZM64.1913 23.8681C64.6531 23.3798 65.2088 23.138 65.865 23.138V22.9035C65.1428 22.9035 64.5259 23.173 64.0209 23.707L64.1913 23.8681ZM63.5136 25.7352C63.5136 24.9627 63.7419 24.3439 64.1913 23.8681L64.0208 23.7071C63.5239 24.2332 63.2791 24.9129 63.2791 25.7352H63.5136ZM74.1282 28.5669C74.8595 28.5669 75.463 28.3033 75.9287 27.7758L75.7529 27.6206C75.334 28.0951 74.7958 28.3325 74.1282 28.3325V28.5669ZM72.3287 27.7616C72.8133 28.2969 73.4156 28.5669 74.1282 28.5669V28.3325C73.483 28.3325 72.9435 28.0913 72.5025 27.6042L72.3287 27.7616ZM71.604 25.7352C71.604 26.5569 71.8432 27.2362 72.3295 27.7625L72.5017 27.6033C72.0622 27.1276 71.8385 26.5085 71.8385 25.7352H71.604ZM72.3287 23.7089C71.8435 24.2447 71.604 24.9233 71.604 25.7352H71.8385C71.8385 24.9727 72.0619 24.3529 72.5025 23.8663L72.3287 23.7089ZM74.1282 22.9035C73.4156 22.9035 72.8133 23.1736 72.3287 23.7089L72.5025 23.8663C72.9435 23.3792 73.483 23.138 74.1282 23.138V22.9035ZM75.9286 23.7099C75.4535 23.1733 74.8505 22.9035 74.1282 22.9035V23.138C74.7841 23.138 75.3229 23.3795 75.753 23.8653L75.9286 23.7099ZM76.6523 25.7352C76.6523 24.9233 76.4128 24.2447 75.9277 23.7089L75.7539 23.8663C76.1944 24.3529 76.4178 24.9727 76.4178 25.7352H76.6523ZM75.9269 27.7778C76.4134 27.2513 76.6523 26.5667 76.6523 25.7352H76.4178C76.4178 26.5192 76.1939 27.1433 75.7547 27.6187L75.9269 27.7778ZM74.0819 32.9332C73.6707 32.9332 73.2862 32.8784 72.9279 32.7696L72.8598 32.994C73.2421 33.1101 73.6496 33.1677 74.0819 33.1677V32.9332ZM76.7764 31.9245C76.1026 32.5942 75.2085 32.9332 74.0819 32.9332V33.1677C75.2593 33.1677 76.2166 32.8115 76.9417 32.0908L76.7764 31.9245ZM77.7756 29.1705C77.7756 30.3537 77.4383 31.2665 76.7764 31.9245L76.9417 32.0908C77.6581 31.3787 78.0101 30.4001 78.0101 29.1705H77.7756ZM77.7756 21.9779V29.1705H78.0101V21.9779H77.7756ZM76.5351 22.0952H77.8928V21.8607H76.5351V22.0952ZM76.6523 23.0208V21.9779H76.4178V23.0208H76.6523ZM76.4734 23.138H76.5351V22.9035H76.4734V23.138ZM75.3267 22.1908C75.7723 22.4073 76.1209 22.7058 76.376 23.0861L76.5707 22.9555C76.2909 22.5383 75.9093 22.2132 75.4291 21.9798L75.3267 22.1908ZM73.8967 21.8498C74.4137 21.8498 74.8888 21.9633 75.3238 22.1893L75.432 21.9813C74.9619 21.737 74.4495 21.6153 73.8967 21.6153V21.8498ZM71.4376 22.9772C72.1267 22.2227 72.9446 21.8498 73.8967 21.8498V21.6153C72.874 21.6153 71.9947 22.0195 71.2644 22.819L71.4376 22.9772ZM70.4191 25.7352C70.4191 24.6477 70.7594 23.7305 71.4381 22.9765L71.2638 22.8197C70.5437 23.6197 70.1846 24.594 70.1846 25.7352H70.4191ZM71.4386 28.5099C70.7594 27.7454 70.4191 26.8228 70.4191 25.7352H70.1846C70.1846 26.8765 70.5436 27.8556 71.2633 28.6656L71.4386 28.5099ZM73.8967 29.6207C72.944 29.6207 72.126 29.2525 71.437 28.5081L71.2649 28.6674C71.9954 29.4566 72.8745 29.8552 73.8967 29.8552V29.6207ZM75.3257 29.2955C74.8903 29.5119 74.4146 29.6207 73.8967 29.6207V29.8552C74.4486 29.8552 74.9603 29.739 75.4301 29.5055L75.3257 29.2955ZM76.376 28.3844C76.1206 28.7651 75.7713 29.0692 75.3248 29.296L75.431 29.5051C75.9102 29.2616 76.2912 28.9317 76.5707 28.515L76.376 28.3844ZM76.5351 28.3325H76.4734V28.5669H76.5351V28.3325ZM76.6523 29.1705V28.4497H76.4178V29.1705H76.6523ZM75.9725 31.1524C76.4302 30.665 76.6523 29.9993 76.6523 29.1705H76.4178C76.4178 29.957 76.2079 30.5591 75.8016 30.9919L75.9725 31.1524ZM74.0819 31.8795C74.878 31.8795 75.5136 31.6412 75.9725 31.1524L75.8016 30.9919C75.3965 31.4233 74.8287 31.645 74.0819 31.645V31.8795ZM72.6879 31.4596C73.0898 31.7404 73.556 31.8795 74.0819 31.8795V31.645C73.5997 31.645 73.1813 31.5183 72.8221 31.2674L72.6879 31.4596ZM71.8421 30.3442C72.0045 30.8069 72.2871 31.1797 72.6879 31.4596L72.8221 31.2674C72.4618 31.0157 72.2095 30.6831 72.0633 30.2665L71.8421 30.3442ZM70.655 30.9659L71.9973 30.4138L71.9081 30.1969L70.5658 30.749L70.655 30.9659ZM71.1951 31.673C70.9878 31.4179 70.8299 31.1335 70.7212 30.8191L70.4996 30.8958C70.6172 31.2357 70.7884 31.5443 71.0131 31.8209L71.1951 31.673ZM71.9395 32.3388C71.6511 32.1509 71.4031 31.929 71.1951 31.673L71.0131 31.8209C71.2371 32.0965 71.5035 32.3346 71.8116 32.5353L71.9395 32.3388ZM72.9251 32.7688C72.5652 32.6694 72.2364 32.5257 71.938 32.3378L71.8131 32.5363C72.1319 32.7369 72.4819 32.8897 72.8627 32.9948L72.9251 32.7688ZM80.8516 29.4925V18.512H80.6171V29.4925H80.8516ZM79.3149 29.6098H80.7344V29.3753H79.3149V29.6098ZM79.1977 18.512V29.4925H79.4322V18.512H79.1977ZM80.7344 18.3948H79.3149V18.6293H80.7344V18.3948ZM85.4744 29.6207C84.3933 29.6207 83.5093 29.2539 82.813 28.5222L82.6431 28.6839C83.3868 29.4653 84.3337 29.8552 85.4744 29.8552V29.6207ZM87.4507 29.1006C86.874 29.4465 86.2164 29.6207 85.4744 29.6207V29.8552C86.2547 29.8552 86.9548 29.6715 87.5713 29.3017L87.4507 29.1006ZM88.8271 27.6582C88.4976 28.2736 88.0394 28.7535 87.4515 29.1002L87.5706 29.3022C88.1963 28.9332 88.6845 28.4213 89.0338 27.7689L88.8271 27.6582ZM87.6141 27.2056L88.8793 27.8191L88.9816 27.6081L87.7164 26.9946L87.6141 27.2056ZM85.5361 28.5669C86.4902 28.5669 87.2355 28.0882 87.7671 27.1583L87.5635 27.042C87.0664 27.9115 86.3924 28.3325 85.5361 28.3325V28.5669ZM83.7582 27.8599C84.2533 28.3307 84.848 28.5669 85.5361 28.5669V28.3325C84.9076 28.3325 84.3709 28.1189 83.9197 27.6899L83.7582 27.8599ZM83.127 26.9972C83.1925 27.1604 83.2373 27.2735 83.3255 27.3981C83.4119 27.5201 83.5375 27.6501 83.7582 27.8599L83.9197 27.6899C83.6981 27.4792 83.5884 27.3636 83.5169 27.2626C83.4472 27.1641 83.4116 27.0768 83.3446 26.9098L83.127 26.9972ZM83.0976 26.9242L83.127 26.9973L83.3445 26.9097L83.3151 26.8366L83.0976 26.9242ZM88.887 24.4907L83.163 26.7715L83.2498 26.9894L88.9738 24.7086L88.887 24.4907ZM87.9592 22.8943C88.188 23.1826 88.356 23.4045 88.4902 23.6588C88.6237 23.9117 88.7261 24.2012 88.8158 24.624L89.0451 24.5753C88.9523 24.1375 88.8438 23.8263 88.6976 23.5493C88.5521 23.2738 88.3717 23.0369 88.1428 22.7485L87.9592 22.8943ZM85.3818 21.8498C86.4752 21.8498 87.3314 22.2024 87.9641 22.9002L88.1379 22.7427C87.454 21.9886 86.5308 21.6153 85.3818 21.6153V21.8498ZM82.7838 22.9618C83.4598 22.2207 84.3226 21.8498 85.3818 21.8498V21.6153C84.2604 21.6153 83.3335 22.0112 82.6106 22.8038L82.7838 22.9618ZM81.7653 25.7352C81.7653 24.6161 82.1062 23.6948 82.7833 22.9624L82.6111 22.8032C81.8894 23.5839 81.5308 24.5642 81.5308 25.7352H81.7653ZM82.813 28.5222C82.116 27.7899 81.7653 26.8639 81.7653 25.7352H81.5308C81.5308 26.9172 81.9001 27.9031 82.6431 28.6839L82.813 28.5222ZM85.351 23.138C85.9775 23.138 86.461 23.3056 86.8148 23.6288L86.9729 23.4556C86.5656 23.0836 86.0204 22.9035 85.351 22.9035V23.138ZM84.0376 23.6014C84.4063 23.2929 84.8421 23.138 85.351 23.138V22.9035C84.7901 22.9035 84.3002 23.0759 83.8871 23.4216L84.0376 23.6014ZM83.2698 24.8305C83.3865 24.3086 83.6726 23.9152 84.0388 23.6004L83.8859 23.4226C83.491 23.7622 83.1711 24.1971 83.0409 24.7794L83.2698 24.8305ZM83.2657 24.8573L83.2711 24.8235L83.0396 24.7864L83.0342 24.8201L83.2657 24.8573ZM83.263 24.8699L83.263 24.8699L83.0369 24.8075L83.0369 24.8075L83.263 24.8699ZM83.266 24.8551L83.266 24.855L83.0338 24.8224L83.0338 24.8225L83.266 24.8551ZM83.1953 25.7808C83.1953 25.2943 83.2236 25.1196 83.2657 24.8574L83.0342 24.8202C82.9906 25.0914 82.9608 25.2789 82.9608 25.7808H83.1953ZM87.3261 24.0458L83.0365 25.6711L83.1196 25.8904L87.4091 24.2651L87.3261 24.0458ZM86.8172 23.631C87.0127 23.7997 87.1602 23.9912 87.2616 24.2056L87.4736 24.1053C87.3572 23.8593 87.1888 23.642 86.9705 23.4535L86.8172 23.631ZM94.1477 25.0558V29.5173H94.3822V25.0558H94.1477ZM96.6098 24.9386H94.2649V25.1731H96.6098V24.9386ZM98.9664 24.0324C98.3315 24.6359 97.5486 24.9386 96.6098 24.9386V25.1731C97.6044 25.1731 98.4465 24.8501 99.128 24.2024L98.9664 24.0324ZM99.9481 21.779C99.9481 22.6799 99.6221 23.428 98.9677 24.0312L99.1266 24.2036C99.8298 23.5555 100.183 22.7446 100.183 21.779H99.9481ZM98.967 19.5415C99.6226 20.1557 99.9481 20.8993 99.9481 21.779H100.183C100.183 20.833 99.8293 20.0279 99.1273 19.3703L98.967 19.5415ZM96.6098 18.6193C97.5374 18.6193 98.3205 18.9265 98.9664 19.5409L99.128 19.371C98.4368 18.7135 97.5951 18.3848 96.6098 18.3848V18.6193ZM92.8457 18.6193H96.6098V18.3848H92.8457V18.6193ZM92.963 29.5173V18.5021H92.7285V29.5173H92.963ZM94.2649 29.4001H92.8457V29.6346H94.2649V29.4001ZM94.1477 19.8559V23.702H94.3822V19.8559H94.1477ZM96.6406 19.7387H94.2649V19.9731H96.6406V19.7387ZM98.1295 20.3598C97.7358 19.9454 97.2365 19.7387 96.6406 19.7387V19.9731C97.176 19.9731 97.6126 20.1562 97.9594 20.5213L98.1295 20.3598ZM98.7325 21.779C98.7325 21.2334 98.5286 20.7578 98.1272 20.3575L97.9617 20.5235C98.3213 20.8822 98.498 21.2989 98.498 21.779H98.7325ZM98.1272 23.2158C98.5291 22.815 98.7325 22.3341 98.7325 21.779H98.498C98.498 22.2699 98.3208 22.6916 97.9617 23.0498L98.1272 23.2158ZM96.6406 23.8193C97.2355 23.8193 97.7345 23.6184 98.1284 23.2147L97.9605 23.0509C97.6139 23.4061 97.177 23.5848 96.6406 23.5848V23.8193ZM94.2649 23.8193H96.6406V23.5848H94.2649V23.8193ZM102.375 18.5021V29.5173H102.61V18.5021H102.375ZM101.073 18.6193H102.492V18.3848H101.073V18.6193ZM101.19 29.5173V18.5021H100.956V29.5173H101.19ZM102.492 29.4001H101.073V29.6346H102.492V29.4001ZM105.407 28.0411C105.125 27.8154 104.989 27.5405 104.989 27.2096H104.754C104.754 27.6173 104.927 27.9577 105.261 28.2244L105.407 28.0411ZM106.445 28.3847C106.048 28.3847 105.703 28.2694 105.406 28.0399L105.263 28.2255C105.603 28.4883 105.999 28.6192 106.445 28.6192V28.3847ZM107.953 27.7555C107.51 28.1774 107.009 28.3847 106.445 28.3847V28.6192C107.074 28.6192 107.632 28.3854 108.115 27.9253L107.953 27.7555ZM108.626 26.2866C108.626 26.8459 108.406 27.3336 107.954 27.7546L108.114 27.9262C108.608 27.4651 108.861 26.917 108.861 26.2866H108.626ZM106.892 25.8808C107.668 25.8808 108.256 26.0517 108.671 26.3786L108.816 26.1945C108.346 25.824 107.7 25.6463 106.892 25.6463V25.8808ZM105.51 26.2746C105.877 26.0143 106.336 25.8808 106.892 25.8808V25.6463C106.297 25.6463 105.789 25.7896 105.375 26.0832L105.51 26.2746ZM104.989 27.2096C104.989 26.8428 105.156 26.5323 105.511 26.2737L105.373 26.0841C104.968 26.3794 104.754 26.756 104.754 27.2096H104.989ZM109.271 22.4931C108.637 21.9038 107.778 21.6156 106.707 21.6156V21.85C107.735 21.85 108.531 22.1258 109.111 22.6648L109.271 22.4931ZM110.218 24.8712C110.218 23.8706 109.906 23.0725 109.27 22.4923L109.112 22.6655C109.69 23.193 109.984 23.9231 109.984 24.8712H110.218ZM110.218 29.5173V24.8712H109.984V29.5173H110.218ZM108.744 29.6346H110.101V29.4001H108.744V29.6346ZM108.626 28.4712V29.5173H108.861V28.4712H108.626ZM108.682 28.5884H108.744V28.3539H108.682V28.5884ZM106.337 29.8807C107.356 29.8807 108.173 29.4282 108.779 28.5371L108.585 28.4052C108.019 29.2372 107.272 29.6462 106.337 29.6462V29.8807ZM104.162 29.1134C104.751 29.6264 105.479 29.8807 106.337 29.8807V29.6462C105.529 29.6462 104.858 29.4082 104.316 28.9366L104.162 29.1134ZM103.289 27.1789C103.289 27.9511 103.581 28.5983 104.161 29.1127L104.317 28.9373C103.786 28.4671 103.523 27.8836 103.523 27.1789H103.289ZM104.213 25.2252C103.597 25.7101 103.289 26.3653 103.289 27.1789H103.523C103.523 26.4335 103.801 25.8477 104.358 25.4095L104.213 25.2252ZM106.661 24.5078C105.656 24.5078 104.836 24.7429 104.214 25.2246L104.357 25.4101C104.927 24.9688 105.692 24.7423 106.661 24.7423V24.5078ZM108.801 24.9845C108.234 24.664 107.518 24.5078 106.661 24.5078V24.7423C107.491 24.7423 108.164 24.8938 108.686 25.1887L108.801 24.9845ZM108.626 24.7635V25.0866H108.861V24.7635H108.626ZM108.081 23.606C108.447 23.9235 108.626 24.3071 108.626 24.7635H108.861C108.861 24.2353 108.649 23.7882 108.234 23.4288L108.081 23.606ZM106.784 23.1116C107.28 23.1116 107.71 23.2754 108.079 23.6049L108.235 23.4299C107.823 23.062 107.338 22.8771 106.784 22.8771V23.1116ZM104.999 24.0612C105.44 23.4251 106.032 23.1116 106.784 23.1116V22.8771C105.953 22.8771 105.29 23.2302 104.806 23.9274L104.999 24.0612ZM103.59 23.309L104.84 24.0936L104.965 23.895L103.715 23.1104L103.59 23.309ZM106.707 21.6156C105.327 21.6156 104.271 22.1224 103.557 23.1425L103.749 23.2769C104.413 22.3278 105.393 21.85 106.707 21.85V21.6156ZM117.892 21.9321L113.156 32.7935L113.371 32.8872L118.107 22.0258L117.892 21.9321ZM116.457 22.0962H118V21.8617H116.457V22.0962ZM114.375 27.4382L116.566 22.0229L116.348 21.935L114.158 27.3503L114.375 27.4382ZM114.235 27.5115H114.266V27.277H114.235V27.5115ZM111.875 22.024L114.127 27.4393L114.344 27.3492L112.091 21.9339L111.875 22.024ZM110.441 22.0962H111.983V21.8617H110.441V22.0962ZM113.664 28.9931L110.548 21.9316L110.333 22.0263L113.449 29.0877L113.664 28.9931ZM111.904 32.8896L113.663 29.0896L113.45 28.9911L111.692 32.7911L111.904 32.8896ZM113.264 32.7231H111.798V32.9576H113.264V32.7231Z" fill="white"/>
    <mask id="mask0_12262_55293" style="mask-type:alpha" maskUnits="userSpaceOnUse" x="9" y="6" width="25" height="28">
        <path d="M32.2143 17.6932C33.9849 18.7209 33.9849 21.278 32.2143 22.3057L13.9448 32.9106C12.167 33.9425 9.9394 32.6599 9.9394 30.6043L9.9394 9.39457C9.9394 7.339 12.167 6.05635 13.9448 7.08829L32.2143 17.6932Z" fill="#D9D9D9"/>
    </mask>
    <g mask="url(#mask0_12262_55293)">
        <rect x="-1.85547" y="20.0361" width="16.1904" height="16.1133" transform="rotate(-44.8832 -1.85547 20.0361)" fill="#4285F4"/>
        <rect x="9.53516" y="8.52979" width="16.1904" height="16.2283" transform="rotate(-44.8832 9.53516 8.52979)" fill="#34A853"/>
        <rect x="9.44336" y="31.5254" width="16.2925" height="9.08666" transform="rotate(-44.8832 9.44336 31.5254)" fill="#EA4335"/>
        <rect x="20.9863" y="20.0283" width="16.2925" height="9.94899" transform="rotate(-44.8832 20.9863 20.0283)" fill="#FBBC04"/>
    </g>
    <path d="M46.9035 10.7172C46.9035 11.3672 46.7107 11.885 46.325 12.2707C45.8917 12.73 45.3219 12.9597 44.6155 12.9597C43.9395 12.9597 43.3675 12.7257 42.8995 12.2577C42.4315 11.7897 42.1975 11.2134 42.1975 10.5287C42.1975 9.84405 42.4315 9.26771 42.8995 8.79971C43.3675 8.33171 43.9395 8.09771 44.6155 8.09771C44.9579 8.09771 45.2807 8.15838 45.584 8.27971C45.8874 8.40105 46.1365 8.57221 46.3315 8.79321L45.9025 9.22221C45.7595 9.04888 45.5732 8.91455 45.3435 8.81921C45.1182 8.71955 44.8755 8.66971 44.6155 8.66971C44.1085 8.66971 43.6795 8.84521 43.3285 9.19621C42.9819 9.55155 42.8085 9.99571 42.8085 10.5287C42.8085 11.0617 42.9819 11.5059 43.3285 11.8612C43.6795 12.2122 44.1085 12.3877 44.6155 12.3877C45.0792 12.3877 45.4649 12.2577 45.7725 11.9977C46.0802 11.7377 46.2579 11.3802 46.3055 10.9252H44.6155V10.3662H46.871C46.8927 10.4875 46.9035 10.6045 46.9035 10.7172ZM50.4121 8.20171V8.77371H48.2931V10.2492H50.2041V10.8082H48.2931V12.2837H50.4121V12.8557H47.6951V8.20171H50.4121ZM52.8691 8.77371V12.8557H52.2711V8.77371H50.9711V8.20171H54.1691V8.77371H52.8691ZM56.9495 12.8557H56.3515V8.20171H56.9495V12.8557ZM59.5387 8.77371V12.8557H58.9407V8.77371H57.6407V8.20171H60.8387V8.77371H59.5387ZM67.4507 10.5287C67.4507 11.2177 67.221 11.794 66.7617 12.2577C66.298 12.7257 65.7304 12.9597 65.0587 12.9597C64.3827 12.9597 63.815 12.7257 63.3557 12.2577C62.8964 11.794 62.6667 11.2177 62.6667 10.5287C62.6667 9.83971 62.8964 9.26338 63.3557 8.79971C63.815 8.33171 64.3827 8.09771 65.0587 8.09771C65.7347 8.09771 66.3024 8.33388 66.7617 8.80621C67.221 9.26988 67.4507 9.84405 67.4507 10.5287ZM63.2777 10.5287C63.2777 11.066 63.4467 11.5102 63.7847 11.8612C64.127 12.2122 64.5517 12.3877 65.0587 12.3877C65.5657 12.3877 65.9882 12.2122 66.3262 11.8612C66.6685 11.5145 66.8397 11.0704 66.8397 10.5287C66.8397 9.98705 66.6685 9.54288 66.3262 9.19621C65.9882 8.84521 65.5657 8.66971 65.0587 8.66971C64.5517 8.66971 64.127 8.84521 63.7847 9.19621C63.4467 9.54721 63.2777 9.99138 63.2777 10.5287ZM68.8194 12.8557H68.2214V8.20171H68.9494L71.2114 11.8222H71.2374L71.2114 10.9252V8.20171H71.8094V12.8557H71.1854L68.8194 9.05971H68.7934L68.8194 9.95671V12.8557Z" fill="white"/>
</svg>
