<svg viewBox="0 0 340 300" fill="none" xmlns="http://www.w3.org/2000/svg">
    <rect width="340" height="300" rx="40" fill="#F5FAFF"/>
    <path d="M33.8483 63.44V52.16H34.8323V63.44H33.8483ZM34.2203 62.12C33.5643 62.12 32.9363 62.028 32.3363 61.844C31.7363 61.652 31.2603 61.408 30.9083 61.112L31.4483 59.9C31.7843 60.164 32.2003 60.384 32.6963 60.56C33.1923 60.736 33.7003 60.824 34.2203 60.824C34.6603 60.824 35.0163 60.776 35.2883 60.68C35.5603 60.584 35.7603 60.456 35.8883 60.296C36.0163 60.128 36.0803 59.94 36.0803 59.732C36.0803 59.476 35.9883 59.272 35.8043 59.12C35.6203 58.96 35.3803 58.836 35.0843 58.748C34.7963 58.652 34.4723 58.564 34.1123 58.484C33.7603 58.404 33.4043 58.312 33.0443 58.208C32.6923 58.096 32.3683 57.956 32.0723 57.788C31.7843 57.612 31.5483 57.38 31.3643 57.092C31.1803 56.804 31.0883 56.436 31.0883 55.988C31.0883 55.532 31.2083 55.116 31.4483 54.74C31.6963 54.356 32.0683 54.052 32.5643 53.828C33.0683 53.596 33.7043 53.48 34.4723 53.48C34.9763 53.48 35.4763 53.544 35.9723 53.672C36.4683 53.8 36.9003 53.984 37.2683 54.224L36.7763 55.436C36.4003 55.212 36.0123 55.048 35.6123 54.944C35.2123 54.832 34.8283 54.776 34.4603 54.776C34.0283 54.776 33.6763 54.828 33.4043 54.932C33.1403 55.036 32.9443 55.172 32.8163 55.34C32.6963 55.508 32.6363 55.7 32.6363 55.916C32.6363 56.172 32.7243 56.38 32.9003 56.54C33.0843 56.692 33.3203 56.812 33.6083 56.9C33.9043 56.988 34.2323 57.076 34.5923 57.164C34.9523 57.244 35.3083 57.336 35.6603 57.44C36.0203 57.544 36.3443 57.68 36.6323 57.848C36.9283 58.016 37.1643 58.244 37.3403 58.532C37.5243 58.82 37.6163 59.184 37.6163 59.624C37.6163 60.072 37.4923 60.488 37.2443 60.872C37.0043 61.248 36.6323 61.552 36.1283 61.784C35.6243 62.008 34.9883 62.12 34.2203 62.12ZM38.5603 60.092V59.012L42.7003 53.6H44.3683L40.2883 59.012L39.5083 58.772H46.1683V60.092H38.5603ZM43.1683 62V60.092L43.2163 58.772V57.08H44.6803V62H43.1683ZM50.3289 62.12C49.6649 62.12 49.0649 61.952 48.5289 61.616C48.0009 61.28 47.5849 60.792 47.2809 60.152C46.9769 59.504 46.8249 58.72 46.8249 57.8C46.8249 56.88 46.9769 56.1 47.2809 55.46C47.5849 54.812 48.0009 54.32 48.5289 53.984C49.0649 53.648 49.6649 53.48 50.3289 53.48C51.0009 53.48 51.6009 53.648 52.1289 53.984C52.6569 54.32 53.0729 54.812 53.3769 55.46C53.6889 56.1 53.8449 56.88 53.8449 57.8C53.8449 58.72 53.6889 59.504 53.3769 60.152C53.0729 60.792 52.6569 61.28 52.1289 61.616C51.6009 61.952 51.0009 62.12 50.3289 62.12ZM50.3289 60.764C50.7209 60.764 51.0609 60.66 51.3489 60.452C51.6369 60.236 51.8609 59.908 52.0209 59.468C52.1889 59.028 52.2729 58.472 52.2729 57.8C52.2729 57.12 52.1889 56.564 52.0209 56.132C51.8609 55.692 51.6369 55.368 51.3489 55.16C51.0609 54.944 50.7209 54.836 50.3289 54.836C49.9529 54.836 49.6169 54.944 49.3209 55.16C49.0329 55.368 48.8049 55.692 48.6369 56.132C48.4769 56.564 48.3969 57.12 48.3969 57.8C48.3969 58.472 48.4769 59.028 48.6369 59.468C48.8049 59.908 49.0329 60.236 49.3209 60.452C49.6169 60.66 49.9529 60.764 50.3289 60.764ZM56.5791 60.572L56.6151 58.688L59.9631 55.592H61.7631L58.9191 58.448L58.1271 59.108L56.5791 60.572ZM55.3551 62V53.096H56.8551V62H55.3551ZM60.1911 62L57.8511 59.108L58.7991 57.908L62.0151 62H60.1911Z" fill="#595EC6"/>
    <path d="M35.1842 108.44V97.16H36.1682V108.44H35.1842ZM35.5562 107.12C34.9002 107.12 34.2722 107.028 33.6722 106.844C33.0722 106.652 32.5962 106.408 32.2442 106.112L32.7842 104.9C33.1202 105.164 33.5362 105.384 34.0322 105.56C34.5282 105.736 35.0362 105.824 35.5562 105.824C35.9962 105.824 36.3522 105.776 36.6242 105.68C36.8962 105.584 37.0962 105.456 37.2242 105.296C37.3522 105.128 37.4162 104.94 37.4162 104.732C37.4162 104.476 37.3242 104.272 37.1402 104.12C36.9562 103.96 36.7162 103.836 36.4202 103.748C36.1322 103.652 35.8082 103.564 35.4482 103.484C35.0962 103.404 34.7402 103.312 34.3802 103.208C34.0282 103.096 33.7042 102.956 33.4082 102.788C33.1202 102.612 32.8842 102.38 32.7002 102.092C32.5162 101.804 32.4242 101.436 32.4242 100.988C32.4242 100.532 32.5442 100.116 32.7842 99.74C33.0322 99.356 33.4042 99.052 33.9002 98.828C34.4042 98.596 35.0402 98.48 35.8082 98.48C36.3122 98.48 36.8122 98.544 37.3082 98.672C37.8042 98.8 38.2362 98.984 38.6042 99.224L38.1122 100.436C37.7362 100.212 37.3482 100.048 36.9482 99.944C36.5482 99.832 36.1642 99.776 35.7962 99.776C35.3642 99.776 35.0122 99.828 34.7402 99.932C34.4762 100.036 34.2802 100.172 34.1522 100.34C34.0322 100.508 33.9722 100.7 33.9722 100.916C33.9722 101.172 34.0602 101.38 34.2362 101.54C34.4202 101.692 34.6562 101.812 34.9442 101.9C35.2402 101.988 35.5682 102.076 35.9282 102.164C36.2882 102.244 36.6442 102.336 36.9962 102.44C37.3562 102.544 37.6802 102.68 37.9682 102.848C38.2642 103.016 38.5002 103.244 38.6762 103.532C38.8602 103.82 38.9522 104.184 38.9522 104.624C38.9522 105.072 38.8282 105.488 38.5802 105.872C38.3402 106.248 37.9682 106.552 37.4642 106.784C36.9602 107.008 36.3242 107.12 35.5562 107.12ZM42.4805 107.12C41.8885 107.12 41.3085 107.036 40.7405 106.868C40.1805 106.692 39.7085 106.452 39.3245 106.148L39.9965 104.936C40.3005 105.184 40.6685 105.384 41.1005 105.536C41.5325 105.688 41.9845 105.764 42.4565 105.764C43.0165 105.764 43.4525 105.652 43.7645 105.428C44.0765 105.196 44.2325 104.884 44.2325 104.492C44.2325 104.108 44.0885 103.804 43.8005 103.58C43.5125 103.356 43.0485 103.244 42.4085 103.244H41.6405V102.176L44.0405 99.32L44.2445 99.908H39.7325V98.6H45.4565V99.644L43.0565 102.5L42.2405 102.02H42.7085C43.7405 102.02 44.5125 102.252 45.0245 102.716C45.5445 103.172 45.8045 103.76 45.8045 104.48C45.8045 104.952 45.6845 105.388 45.4445 105.788C45.2045 106.188 44.8365 106.512 44.3405 106.76C43.8525 107 43.2325 107.12 42.4805 107.12ZM50.3289 107.12C49.6649 107.12 49.0649 106.952 48.5289 106.616C48.0009 106.28 47.5849 105.792 47.2809 105.152C46.9769 104.504 46.8249 103.72 46.8249 102.8C46.8249 101.88 46.9769 101.1 47.2809 100.46C47.5849 99.812 48.0009 99.32 48.5289 98.984C49.0649 98.648 49.6649 98.48 50.3289 98.48C51.0009 98.48 51.6009 98.648 52.1289 98.984C52.6569 99.32 53.0729 99.812 53.3769 100.46C53.6889 101.1 53.8449 101.88 53.8449 102.8C53.8449 103.72 53.6889 104.504 53.3769 105.152C53.0729 105.792 52.6569 106.28 52.1289 106.616C51.6009 106.952 51.0009 107.12 50.3289 107.12ZM50.3289 105.764C50.7209 105.764 51.0609 105.66 51.3489 105.452C51.6369 105.236 51.8609 104.908 52.0209 104.468C52.1889 104.028 52.2729 103.472 52.2729 102.8C52.2729 102.12 52.1889 101.564 52.0209 101.132C51.8609 100.692 51.6369 100.368 51.3489 100.16C51.0609 99.944 50.7209 99.836 50.3289 99.836C49.9529 99.836 49.6169 99.944 49.3209 100.16C49.0329 100.368 48.8049 100.692 48.6369 101.132C48.4769 101.564 48.3969 102.12 48.3969 102.8C48.3969 103.472 48.4769 104.028 48.6369 104.468C48.8049 104.908 49.0329 105.236 49.3209 105.452C49.6169 105.66 49.9529 105.764 50.3289 105.764ZM56.5791 105.572L56.6151 103.688L59.9631 100.592H61.7631L58.9191 103.448L58.1271 104.108L56.5791 105.572ZM55.3551 107V98.096H56.8551V107H55.3551ZM60.1911 107L57.8511 104.108L58.7991 102.908L62.0151 107H60.1911Z" fill="#595EC6"/>
    <path d="M35.1256 153.44V142.16H36.1096V153.44H35.1256ZM35.4976 152.12C34.8416 152.12 34.2136 152.028 33.6136 151.844C33.0136 151.652 32.5376 151.408 32.1856 151.112L32.7256 149.9C33.0616 150.164 33.4776 150.384 33.9736 150.56C34.4696 150.736 34.9776 150.824 35.4976 150.824C35.9376 150.824 36.2936 150.776 36.5656 150.68C36.8376 150.584 37.0376 150.456 37.1656 150.296C37.2936 150.128 37.3576 149.94 37.3576 149.732C37.3576 149.476 37.2656 149.272 37.0816 149.12C36.8976 148.96 36.6576 148.836 36.3616 148.748C36.0736 148.652 35.7496 148.564 35.3896 148.484C35.0376 148.404 34.6816 148.312 34.3216 148.208C33.9696 148.096 33.6456 147.956 33.3496 147.788C33.0616 147.612 32.8256 147.38 32.6416 147.092C32.4576 146.804 32.3656 146.436 32.3656 145.988C32.3656 145.532 32.4856 145.116 32.7256 144.74C32.9736 144.356 33.3456 144.052 33.8416 143.828C34.3456 143.596 34.9816 143.48 35.7496 143.48C36.2536 143.48 36.7536 143.544 37.2496 143.672C37.7456 143.8 38.1776 143.984 38.5456 144.224L38.0536 145.436C37.6776 145.212 37.2896 145.048 36.8896 144.944C36.4896 144.832 36.1056 144.776 35.7376 144.776C35.3056 144.776 34.9536 144.828 34.6816 144.932C34.4176 145.036 34.2216 145.172 34.0936 145.34C33.9736 145.508 33.9136 145.7 33.9136 145.916C33.9136 146.172 34.0016 146.38 34.1776 146.54C34.3616 146.692 34.5976 146.812 34.8856 146.9C35.1816 146.988 35.5096 147.076 35.8696 147.164C36.2296 147.244 36.5856 147.336 36.9376 147.44C37.2976 147.544 37.6216 147.68 37.9096 147.848C38.2056 148.016 38.4416 148.244 38.6176 148.532C38.8016 148.82 38.8936 149.184 38.8936 149.624C38.8936 150.072 38.7696 150.488 38.5216 150.872C38.2816 151.248 37.9096 151.552 37.4056 151.784C36.9016 152.008 36.2656 152.12 35.4976 152.12ZM39.7325 152V150.956L43.0685 147.788C43.3485 147.524 43.5565 147.292 43.6925 147.092C43.8285 146.892 43.9165 146.708 43.9565 146.54C44.0045 146.364 44.0285 146.2 44.0285 146.048C44.0285 145.664 43.8965 145.368 43.6325 145.16C43.3685 144.944 42.9805 144.836 42.4685 144.836C42.0605 144.836 41.6885 144.908 41.3525 145.052C41.0245 145.196 40.7405 145.416 40.5005 145.712L39.4085 144.872C39.7365 144.432 40.1765 144.092 40.7285 143.852C41.2885 143.604 41.9125 143.48 42.6005 143.48C43.2085 143.48 43.7365 143.58 44.1845 143.78C44.6405 143.972 44.9885 144.248 45.2285 144.608C45.4765 144.968 45.6005 145.396 45.6005 145.892C45.6005 146.164 45.5645 146.436 45.4925 146.708C45.4205 146.972 45.2845 147.252 45.0845 147.548C44.8845 147.844 44.5925 148.176 44.2085 148.544L41.3405 151.268L41.0165 150.68H45.9245V152H39.7325ZM50.3289 152.12C49.6649 152.12 49.0649 151.952 48.5289 151.616C48.0009 151.28 47.5849 150.792 47.2809 150.152C46.9769 149.504 46.8249 148.72 46.8249 147.8C46.8249 146.88 46.9769 146.1 47.2809 145.46C47.5849 144.812 48.0009 144.32 48.5289 143.984C49.0649 143.648 49.6649 143.48 50.3289 143.48C51.0009 143.48 51.6009 143.648 52.1289 143.984C52.6569 144.32 53.0729 144.812 53.3769 145.46C53.6889 146.1 53.8449 146.88 53.8449 147.8C53.8449 148.72 53.6889 149.504 53.3769 150.152C53.0729 150.792 52.6569 151.28 52.1289 151.616C51.6009 151.952 51.0009 152.12 50.3289 152.12ZM50.3289 150.764C50.7209 150.764 51.0609 150.66 51.3489 150.452C51.6369 150.236 51.8609 149.908 52.0209 149.468C52.1889 149.028 52.2729 148.472 52.2729 147.8C52.2729 147.12 52.1889 146.564 52.0209 146.132C51.8609 145.692 51.6369 145.368 51.3489 145.16C51.0609 144.944 50.7209 144.836 50.3289 144.836C49.9529 144.836 49.6169 144.944 49.3209 145.16C49.0329 145.368 48.8049 145.692 48.6369 146.132C48.4769 146.564 48.3969 147.12 48.3969 147.8C48.3969 148.472 48.4769 149.028 48.6369 149.468C48.8049 149.908 49.0329 150.236 49.3209 150.452C49.6169 150.66 49.9529 150.764 50.3289 150.764ZM56.5791 150.572L56.6151 148.688L59.9631 145.592H61.7631L58.9191 148.448L58.1271 149.108L56.5791 150.572ZM55.3551 152V143.096H56.8551V152H55.3551ZM60.1911 152L57.8511 149.108L58.7991 147.908L62.0151 152H60.1911Z" fill="#595EC6"/>
    <path d="M37.6569 198.44V187.16H38.6409V198.44H37.6569ZM38.0289 197.12C37.3729 197.12 36.7449 197.028 36.1449 196.844C35.5449 196.652 35.0689 196.408 34.7169 196.112L35.2569 194.9C35.5929 195.164 36.0089 195.384 36.5049 195.56C37.0009 195.736 37.5089 195.824 38.0289 195.824C38.4689 195.824 38.8249 195.776 39.0969 195.68C39.3689 195.584 39.5689 195.456 39.6969 195.296C39.8249 195.128 39.8889 194.94 39.8889 194.732C39.8889 194.476 39.7969 194.272 39.6129 194.12C39.4289 193.96 39.1889 193.836 38.8929 193.748C38.6049 193.652 38.2809 193.564 37.9209 193.484C37.5689 193.404 37.2129 193.312 36.8529 193.208C36.5009 193.096 36.1769 192.956 35.8809 192.788C35.5929 192.612 35.3569 192.38 35.1729 192.092C34.9889 191.804 34.8969 191.436 34.8969 190.988C34.8969 190.532 35.0169 190.116 35.2569 189.74C35.5049 189.356 35.8769 189.052 36.3729 188.828C36.8769 188.596 37.5129 188.48 38.2809 188.48C38.7849 188.48 39.2849 188.544 39.7809 188.672C40.2769 188.8 40.7089 188.984 41.0769 189.224L40.5849 190.436C40.2089 190.212 39.8209 190.048 39.4209 189.944C39.0209 189.832 38.6369 189.776 38.2689 189.776C37.8369 189.776 37.4849 189.828 37.2129 189.932C36.9489 190.036 36.7529 190.172 36.6249 190.34C36.5049 190.508 36.4449 190.7 36.4449 190.916C36.4449 191.172 36.5329 191.38 36.7089 191.54C36.8929 191.692 37.1289 191.812 37.4169 191.9C37.7129 191.988 38.0409 192.076 38.4009 192.164C38.7609 192.244 39.1169 192.336 39.4689 192.44C39.8289 192.544 40.1529 192.68 40.4409 192.848C40.7369 193.016 40.9729 193.244 41.1489 193.532C41.3329 193.82 41.4249 194.184 41.4249 194.624C41.4249 195.072 41.3009 195.488 41.0529 195.872C40.8129 196.248 40.4409 196.552 39.9369 196.784C39.4329 197.008 38.7969 197.12 38.0289 197.12ZM43.5986 197V189.2L44.2826 189.908H41.8226V188.6H45.1586V197H43.5986ZM50.3289 197.12C49.6649 197.12 49.0649 196.952 48.5289 196.616C48.0009 196.28 47.5849 195.792 47.2809 195.152C46.9769 194.504 46.8249 193.72 46.8249 192.8C46.8249 191.88 46.9769 191.1 47.2809 190.46C47.5849 189.812 48.0009 189.32 48.5289 188.984C49.0649 188.648 49.6649 188.48 50.3289 188.48C51.0009 188.48 51.6009 188.648 52.1289 188.984C52.6569 189.32 53.0729 189.812 53.3769 190.46C53.6889 191.1 53.8449 191.88 53.8449 192.8C53.8449 193.72 53.6889 194.504 53.3769 195.152C53.0729 195.792 52.6569 196.28 52.1289 196.616C51.6009 196.952 51.0009 197.12 50.3289 197.12ZM50.3289 195.764C50.7209 195.764 51.0609 195.66 51.3489 195.452C51.6369 195.236 51.8609 194.908 52.0209 194.468C52.1889 194.028 52.2729 193.472 52.2729 192.8C52.2729 192.12 52.1889 191.564 52.0209 191.132C51.8609 190.692 51.6369 190.368 51.3489 190.16C51.0609 189.944 50.7209 189.836 50.3289 189.836C49.9529 189.836 49.6169 189.944 49.3209 190.16C49.0329 190.368 48.8049 190.692 48.6369 191.132C48.4769 191.564 48.3969 192.12 48.3969 192.8C48.3969 193.472 48.4769 194.028 48.6369 194.468C48.8049 194.908 49.0329 195.236 49.3209 195.452C49.6169 195.66 49.9529 195.764 50.3289 195.764ZM56.5791 195.572L56.6151 193.688L59.9631 190.592H61.7631L58.9191 193.448L58.1271 194.108L56.5791 195.572ZM55.3551 197V188.096H56.8551V197H55.3551ZM60.1911 197L57.8511 194.108L58.7991 192.908L62.0151 197H60.1911Z" fill="#595EC6"/>
    <path d="M57.9578 242.12C57.2938 242.12 56.6938 241.952 56.1578 241.616C55.6298 241.28 55.2138 240.792 54.9098 240.152C54.6058 239.504 54.4538 238.72 54.4538 237.8C54.4538 236.88 54.6058 236.1 54.9098 235.46C55.2138 234.812 55.6298 234.32 56.1578 233.984C56.6938 233.648 57.2938 233.48 57.9578 233.48C58.6298 233.48 59.2298 233.648 59.7578 233.984C60.2858 234.32 60.7018 234.812 61.0058 235.46C61.3178 236.1 61.4738 236.88 61.4738 237.8C61.4738 238.72 61.3178 239.504 61.0058 240.152C60.7018 240.792 60.2858 241.28 59.7578 241.616C59.2298 241.952 58.6298 242.12 57.9578 242.12ZM57.9578 240.764C58.3498 240.764 58.6898 240.66 58.9778 240.452C59.2658 240.236 59.4898 239.908 59.6498 239.468C59.8178 239.028 59.9018 238.472 59.9018 237.8C59.9018 237.12 59.8178 236.564 59.6498 236.132C59.4898 235.692 59.2658 235.368 58.9778 235.16C58.6898 234.944 58.3498 234.836 57.9578 234.836C57.5818 234.836 57.2458 234.944 56.9498 235.16C56.6618 235.368 56.4338 235.692 56.2658 236.132C56.1058 236.564 56.0258 237.12 56.0258 237.8C56.0258 238.472 56.1058 239.028 56.2658 239.468C56.4338 239.908 56.6618 240.236 56.9498 240.452C57.2458 240.66 57.5818 240.764 57.9578 240.764Z" fill="#595EC6"/>
    <path d="M93.8673 267V265.956L97.2033 262.788C97.4833 262.524 97.6913 262.292 97.8273 262.092C97.9633 261.892 98.0513 261.708 98.0913 261.54C98.1393 261.364 98.1633 261.2 98.1633 261.048C98.1633 260.664 98.0313 260.368 97.7673 260.16C97.5033 259.944 97.1153 259.836 96.6033 259.836C96.1953 259.836 95.8233 259.908 95.4873 260.052C95.1593 260.196 94.8753 260.416 94.6353 260.712L93.5433 259.872C93.8713 259.432 94.3113 259.092 94.8633 258.852C95.4233 258.604 96.0473 258.48 96.7353 258.48C97.3433 258.48 97.8713 258.58 98.3193 258.78C98.7753 258.972 99.1233 259.248 99.3633 259.608C99.6113 259.968 99.7353 260.396 99.7353 260.892C99.7353 261.164 99.6993 261.436 99.6273 261.708C99.5553 261.972 99.4193 262.252 99.2193 262.548C99.0193 262.844 98.7273 263.176 98.3433 263.544L95.4753 266.268L95.1513 265.68H100.059V267H93.8673ZM104.464 267.12C103.8 267.12 103.2 266.952 102.664 266.616C102.136 266.28 101.72 265.792 101.416 265.152C101.112 264.504 100.96 263.72 100.96 262.8C100.96 261.88 101.112 261.1 101.416 260.46C101.72 259.812 102.136 259.32 102.664 258.984C103.2 258.648 103.8 258.48 104.464 258.48C105.136 258.48 105.736 258.648 106.264 258.984C106.792 259.32 107.208 259.812 107.512 260.46C107.824 261.1 107.98 261.88 107.98 262.8C107.98 263.72 107.824 264.504 107.512 265.152C107.208 265.792 106.792 266.28 106.264 266.616C105.736 266.952 105.136 267.12 104.464 267.12ZM104.464 265.764C104.856 265.764 105.196 265.66 105.484 265.452C105.772 265.236 105.996 264.908 106.156 264.468C106.324 264.028 106.408 263.472 106.408 262.8C106.408 262.12 106.324 261.564 106.156 261.132C105.996 260.692 105.772 260.368 105.484 260.16C105.196 259.944 104.856 259.836 104.464 259.836C104.088 259.836 103.752 259.944 103.456 260.16C103.168 260.368 102.94 260.692 102.772 261.132C102.612 261.564 102.532 262.12 102.532 262.8C102.532 263.472 102.612 264.028 102.772 264.468C102.94 264.908 103.168 265.236 103.456 265.452C103.752 265.66 104.088 265.764 104.464 265.764ZM108.914 267V265.956L112.25 262.788C112.53 262.524 112.738 262.292 112.874 262.092C113.01 261.892 113.098 261.708 113.138 261.54C113.186 261.364 113.21 261.2 113.21 261.048C113.21 260.664 113.078 260.368 112.814 260.16C112.55 259.944 112.162 259.836 111.65 259.836C111.242 259.836 110.87 259.908 110.534 260.052C110.206 260.196 109.922 260.416 109.682 260.712L108.59 259.872C108.918 259.432 109.358 259.092 109.91 258.852C110.47 258.604 111.094 258.48 111.782 258.48C112.39 258.48 112.918 258.58 113.366 258.78C113.822 258.972 114.17 259.248 114.41 259.608C114.658 259.968 114.782 260.396 114.782 260.892C114.782 261.164 114.746 261.436 114.674 261.708C114.602 261.972 114.466 262.252 114.266 262.548C114.066 262.844 113.774 263.176 113.39 263.544L110.522 266.268L110.198 265.68H115.106V267H108.914ZM119.511 267.12C118.847 267.12 118.247 266.952 117.711 266.616C117.183 266.28 116.767 265.792 116.463 265.152C116.159 264.504 116.007 263.72 116.007 262.8C116.007 261.88 116.159 261.1 116.463 260.46C116.767 259.812 117.183 259.32 117.711 258.984C118.247 258.648 118.847 258.48 119.511 258.48C120.183 258.48 120.783 258.648 121.311 258.984C121.839 259.32 122.255 259.812 122.559 260.46C122.871 261.1 123.027 261.88 123.027 262.8C123.027 263.72 122.871 264.504 122.559 265.152C122.255 265.792 121.839 266.28 121.311 266.616C120.783 266.952 120.183 267.12 119.511 267.12ZM119.511 265.764C119.903 265.764 120.243 265.66 120.531 265.452C120.819 265.236 121.043 264.908 121.203 264.468C121.371 264.028 121.455 263.472 121.455 262.8C121.455 262.12 121.371 261.564 121.203 261.132C121.043 260.692 120.819 260.368 120.531 260.16C120.243 259.944 119.903 259.836 119.511 259.836C119.135 259.836 118.799 259.944 118.503 260.16C118.215 260.368 117.987 260.692 117.819 261.132C117.659 261.564 117.579 262.12 117.579 262.8C117.579 263.472 117.659 264.028 117.819 264.468C117.987 264.908 118.215 265.236 118.503 265.452C118.799 265.66 119.135 265.764 119.511 265.764Z" fill="#003879"/>
    <path d="M154.619 267V265.956L157.955 262.788C158.235 262.524 158.443 262.292 158.579 262.092C158.715 261.892 158.803 261.708 158.843 261.54C158.891 261.364 158.915 261.2 158.915 261.048C158.915 260.664 158.783 260.368 158.519 260.16C158.255 259.944 157.867 259.836 157.355 259.836C156.947 259.836 156.575 259.908 156.239 260.052C155.911 260.196 155.627 260.416 155.387 260.712L154.295 259.872C154.623 259.432 155.063 259.092 155.615 258.852C156.175 258.604 156.799 258.48 157.487 258.48C158.095 258.48 158.623 258.58 159.071 258.78C159.527 258.972 159.875 259.248 160.115 259.608C160.363 259.968 160.487 260.396 160.487 260.892C160.487 261.164 160.451 261.436 160.379 261.708C160.307 261.972 160.171 262.252 159.971 262.548C159.771 262.844 159.479 263.176 159.095 263.544L156.227 266.268L155.903 265.68H160.811V267H154.619ZM165.216 267.12C164.552 267.12 163.952 266.952 163.416 266.616C162.888 266.28 162.472 265.792 162.168 265.152C161.864 264.504 161.712 263.72 161.712 262.8C161.712 261.88 161.864 261.1 162.168 260.46C162.472 259.812 162.888 259.32 163.416 258.984C163.952 258.648 164.552 258.48 165.216 258.48C165.888 258.48 166.488 258.648 167.016 258.984C167.544 259.32 167.96 259.812 168.264 260.46C168.576 261.1 168.732 261.88 168.732 262.8C168.732 263.72 168.576 264.504 168.264 265.152C167.96 265.792 167.544 266.28 167.016 266.616C166.488 266.952 165.888 267.12 165.216 267.12ZM165.216 265.764C165.608 265.764 165.948 265.66 166.236 265.452C166.524 265.236 166.748 264.908 166.908 264.468C167.076 264.028 167.16 263.472 167.16 262.8C167.16 262.12 167.076 261.564 166.908 261.132C166.748 260.692 166.524 260.368 166.236 260.16C165.948 259.944 165.608 259.836 165.216 259.836C164.84 259.836 164.504 259.944 164.208 260.16C163.92 260.368 163.692 260.692 163.524 261.132C163.364 261.564 163.284 262.12 163.284 262.8C163.284 263.472 163.364 264.028 163.524 264.468C163.692 264.908 163.92 265.236 164.208 265.452C164.504 265.66 164.84 265.764 165.216 265.764ZM169.666 267V265.956L173.002 262.788C173.282 262.524 173.49 262.292 173.626 262.092C173.762 261.892 173.85 261.708 173.89 261.54C173.938 261.364 173.962 261.2 173.962 261.048C173.962 260.664 173.83 260.368 173.566 260.16C173.302 259.944 172.914 259.836 172.402 259.836C171.994 259.836 171.622 259.908 171.286 260.052C170.958 260.196 170.674 260.416 170.434 260.712L169.342 259.872C169.67 259.432 170.11 259.092 170.662 258.852C171.222 258.604 171.846 258.48 172.534 258.48C173.142 258.48 173.67 258.58 174.118 258.78C174.574 258.972 174.922 259.248 175.162 259.608C175.41 259.968 175.534 260.396 175.534 260.892C175.534 261.164 175.498 261.436 175.426 261.708C175.354 261.972 175.218 262.252 175.018 262.548C174.818 262.844 174.526 263.176 174.142 263.544L171.274 266.268L170.95 265.68H175.858V267H169.666ZM178.102 267V259.2L178.786 259.908H176.326V258.6H179.662V267H178.102Z" fill="#003879"/>
    <path d="M211.912 267V265.956L215.248 262.788C215.528 262.524 215.736 262.292 215.872 262.092C216.008 261.892 216.096 261.708 216.136 261.54C216.184 261.364 216.208 261.2 216.208 261.048C216.208 260.664 216.076 260.368 215.812 260.16C215.548 259.944 215.16 259.836 214.648 259.836C214.24 259.836 213.868 259.908 213.532 260.052C213.204 260.196 212.92 260.416 212.68 260.712L211.588 259.872C211.916 259.432 212.356 259.092 212.908 258.852C213.468 258.604 214.092 258.48 214.78 258.48C215.388 258.48 215.916 258.58 216.364 258.78C216.82 258.972 217.168 259.248 217.408 259.608C217.656 259.968 217.78 260.396 217.78 260.892C217.78 261.164 217.744 261.436 217.672 261.708C217.6 261.972 217.464 262.252 217.264 262.548C217.064 262.844 216.772 263.176 216.388 263.544L213.52 266.268L213.196 265.68H218.104V267H211.912ZM222.509 267.12C221.845 267.12 221.245 266.952 220.709 266.616C220.181 266.28 219.765 265.792 219.461 265.152C219.157 264.504 219.005 263.72 219.005 262.8C219.005 261.88 219.157 261.1 219.461 260.46C219.765 259.812 220.181 259.32 220.709 258.984C221.245 258.648 221.845 258.48 222.509 258.48C223.181 258.48 223.781 258.648 224.309 258.984C224.837 259.32 225.253 259.812 225.557 260.46C225.869 261.1 226.025 261.88 226.025 262.8C226.025 263.72 225.869 264.504 225.557 265.152C225.253 265.792 224.837 266.28 224.309 266.616C223.781 266.952 223.181 267.12 222.509 267.12ZM222.509 265.764C222.901 265.764 223.241 265.66 223.529 265.452C223.817 265.236 224.041 264.908 224.201 264.468C224.369 264.028 224.453 263.472 224.453 262.8C224.453 262.12 224.369 261.564 224.201 261.132C224.041 260.692 223.817 260.368 223.529 260.16C223.241 259.944 222.901 259.836 222.509 259.836C222.133 259.836 221.797 259.944 221.501 260.16C221.213 260.368 220.985 260.692 220.817 261.132C220.657 261.564 220.577 262.12 220.577 262.8C220.577 263.472 220.657 264.028 220.817 264.468C220.985 264.908 221.213 265.236 221.501 265.452C221.797 265.66 222.133 265.764 222.509 265.764ZM226.959 267V265.956L230.295 262.788C230.575 262.524 230.783 262.292 230.919 262.092C231.055 261.892 231.143 261.708 231.183 261.54C231.231 261.364 231.255 261.2 231.255 261.048C231.255 260.664 231.123 260.368 230.859 260.16C230.595 259.944 230.207 259.836 229.695 259.836C229.287 259.836 228.915 259.908 228.579 260.052C228.251 260.196 227.967 260.416 227.727 260.712L226.635 259.872C226.963 259.432 227.403 259.092 227.955 258.852C228.515 258.604 229.139 258.48 229.827 258.48C230.435 258.48 230.963 258.58 231.411 258.78C231.867 258.972 232.215 259.248 232.455 259.608C232.703 259.968 232.827 260.396 232.827 260.892C232.827 261.164 232.791 261.436 232.719 261.708C232.647 261.972 232.511 262.252 232.311 262.548C232.111 262.844 231.819 263.176 231.435 263.544L228.567 266.268L228.243 265.68H233.151V267H226.959ZM233.943 267V265.956L237.279 262.788C237.559 262.524 237.767 262.292 237.903 262.092C238.039 261.892 238.127 261.708 238.167 261.54C238.215 261.364 238.239 261.2 238.239 261.048C238.239 260.664 238.107 260.368 237.843 260.16C237.579 259.944 237.191 259.836 236.679 259.836C236.271 259.836 235.899 259.908 235.563 260.052C235.235 260.196 234.951 260.416 234.711 260.712L233.619 259.872C233.947 259.432 234.387 259.092 234.939 258.852C235.499 258.604 236.123 258.48 236.811 258.48C237.419 258.48 237.947 258.58 238.395 258.78C238.851 258.972 239.199 259.248 239.439 259.608C239.687 259.968 239.811 260.396 239.811 260.892C239.811 261.164 239.775 261.436 239.703 261.708C239.631 261.972 239.495 262.252 239.295 262.548C239.095 262.844 238.803 263.176 238.419 263.544L235.551 266.268L235.227 265.68H240.135V267H233.943Z" fill="#003879"/>
    <path d="M276.394 267.12C275.738 267.12 275.134 267.012 274.582 266.796C274.03 266.58 273.55 266.28 273.142 265.896C272.734 265.504 272.418 265.048 272.194 264.528C271.97 264 271.858 263.424 271.858 262.8C271.858 262.176 271.97 261.604 272.194 261.084C272.418 260.556 272.734 260.1 273.142 259.716C273.55 259.324 274.03 259.02 274.582 258.804C275.134 258.588 275.734 258.48 276.382 258.48C277.038 258.48 277.638 258.588 278.182 258.804C278.734 259.02 279.214 259.32 279.622 259.704C280.03 260.088 280.346 260.544 280.57 261.072C280.794 261.6 280.906 262.176 280.906 262.8C280.906 263.424 280.794 264 280.57 264.528C280.346 265.056 280.03 265.512 279.622 265.896C279.214 266.28 278.734 266.58 278.182 266.796C277.638 267.012 277.042 267.12 276.394 267.12ZM279.13 268.836C278.834 268.836 278.546 268.8 278.266 268.728C277.994 268.664 277.722 268.552 277.45 268.392C277.186 268.24 276.91 268.036 276.622 267.78C276.334 267.532 276.018 267.224 275.674 266.856L277.33 266.424C277.554 266.72 277.766 266.956 277.966 267.132C278.174 267.316 278.374 267.448 278.566 267.528C278.758 267.608 278.958 267.648 279.166 267.648C279.718 267.648 280.198 267.424 280.606 266.976L281.326 267.84C280.766 268.504 280.034 268.836 279.13 268.836ZM276.382 265.752C276.806 265.752 277.198 265.68 277.558 265.536C277.918 265.392 278.23 265.188 278.494 264.924C278.758 264.652 278.962 264.336 279.106 263.976C279.258 263.616 279.334 263.224 279.334 262.8C279.334 262.368 279.258 261.976 279.106 261.624C278.962 261.264 278.758 260.952 278.494 260.688C278.23 260.416 277.918 260.208 277.558 260.064C277.198 259.92 276.806 259.848 276.382 259.848C275.958 259.848 275.566 259.92 275.206 260.064C274.846 260.208 274.534 260.416 274.27 260.688C274.006 260.952 273.798 261.264 273.646 261.624C273.502 261.976 273.43 262.368 273.43 262.8C273.43 263.224 273.502 263.616 273.646 263.976C273.798 264.336 274.006 264.652 274.27 264.924C274.534 265.188 274.846 265.392 275.206 265.536C275.566 265.68 275.958 265.752 276.382 265.752ZM281.734 267V265.956L285.07 262.788C285.35 262.524 285.558 262.292 285.694 262.092C285.83 261.892 285.918 261.708 285.958 261.54C286.006 261.364 286.03 261.2 286.03 261.048C286.03 260.664 285.898 260.368 285.634 260.16C285.37 259.944 284.982 259.836 284.47 259.836C284.062 259.836 283.69 259.908 283.354 260.052C283.026 260.196 282.742 260.416 282.502 260.712L281.41 259.872C281.738 259.432 282.178 259.092 282.73 258.852C283.29 258.604 283.914 258.48 284.602 258.48C285.21 258.48 285.738 258.58 286.186 258.78C286.642 258.972 286.99 259.248 287.23 259.608C287.478 259.968 287.602 260.396 287.602 260.892C287.602 261.164 287.566 261.436 287.494 261.708C287.422 261.972 287.286 262.252 287.086 262.548C286.886 262.844 286.594 263.176 286.21 263.544L283.342 266.268L283.018 265.68H287.926V267H281.734ZM292.035 267V265.956L295.371 262.788C295.651 262.524 295.859 262.292 295.995 262.092C296.131 261.892 296.219 261.708 296.259 261.54C296.307 261.364 296.331 261.2 296.331 261.048C296.331 260.664 296.199 260.368 295.935 260.16C295.671 259.944 295.283 259.836 294.771 259.836C294.363 259.836 293.991 259.908 293.655 260.052C293.327 260.196 293.043 260.416 292.803 260.712L291.711 259.872C292.039 259.432 292.479 259.092 293.031 258.852C293.591 258.604 294.215 258.48 294.903 258.48C295.511 258.48 296.039 258.58 296.487 258.78C296.943 258.972 297.291 259.248 297.531 259.608C297.779 259.968 297.903 260.396 297.903 260.892C297.903 261.164 297.867 261.436 297.795 261.708C297.723 261.972 297.587 262.252 297.387 262.548C297.187 262.844 296.895 263.176 296.511 263.544L293.643 266.268L293.319 265.68H298.227V267H292.035ZM302.632 267.12C301.968 267.12 301.368 266.952 300.832 266.616C300.304 266.28 299.888 265.792 299.584 265.152C299.28 264.504 299.128 263.72 299.128 262.8C299.128 261.88 299.28 261.1 299.584 260.46C299.888 259.812 300.304 259.32 300.832 258.984C301.368 258.648 301.968 258.48 302.632 258.48C303.304 258.48 303.904 258.648 304.432 258.984C304.96 259.32 305.376 259.812 305.68 260.46C305.992 261.1 306.148 261.88 306.148 262.8C306.148 263.72 305.992 264.504 305.68 265.152C305.376 265.792 304.96 266.28 304.432 266.616C303.904 266.952 303.304 267.12 302.632 267.12ZM302.632 265.764C303.024 265.764 303.364 265.66 303.652 265.452C303.94 265.236 304.164 264.908 304.324 264.468C304.492 264.028 304.576 263.472 304.576 262.8C304.576 262.12 304.492 261.564 304.324 261.132C304.164 260.692 303.94 260.368 303.652 260.16C303.364 259.944 303.024 259.836 302.632 259.836C302.256 259.836 301.92 259.944 301.624 260.16C301.336 260.368 301.108 260.692 300.94 261.132C300.78 261.564 300.7 262.12 300.7 262.8C300.7 263.472 300.78 264.028 300.94 264.468C301.108 264.908 301.336 265.236 301.624 265.452C301.92 265.66 302.256 265.764 302.632 265.764ZM307.082 267V265.956L310.418 262.788C310.698 262.524 310.906 262.292 311.042 262.092C311.178 261.892 311.266 261.708 311.306 261.54C311.354 261.364 311.378 261.2 311.378 261.048C311.378 260.664 311.246 260.368 310.982 260.16C310.718 259.944 310.33 259.836 309.818 259.836C309.41 259.836 309.038 259.908 308.702 260.052C308.374 260.196 308.09 260.416 307.85 260.712L306.758 259.872C307.086 259.432 307.526 259.092 308.078 258.852C308.638 258.604 309.262 258.48 309.95 258.48C310.558 258.48 311.086 258.58 311.534 258.78C311.99 258.972 312.338 259.248 312.578 259.608C312.826 259.968 312.95 260.396 312.95 260.892C312.95 261.164 312.914 261.436 312.842 261.708C312.77 261.972 312.634 262.252 312.434 262.548C312.234 262.844 311.942 263.176 311.558 263.544L308.69 266.268L308.366 265.68H313.274V267H307.082ZM316.814 267.12C316.222 267.12 315.642 267.036 315.074 266.868C314.514 266.692 314.042 266.452 313.658 266.148L314.33 264.936C314.634 265.184 315.002 265.384 315.434 265.536C315.866 265.688 316.318 265.764 316.79 265.764C317.35 265.764 317.786 265.652 318.098 265.428C318.41 265.196 318.566 264.884 318.566 264.492C318.566 264.108 318.422 263.804 318.134 263.58C317.846 263.356 317.382 263.244 316.742 263.244H315.974V262.176L318.374 259.32L318.578 259.908H314.066V258.6H319.79V259.644L317.39 262.5L316.574 262.02H317.042C318.074 262.02 318.846 262.252 319.358 262.716C319.878 263.172 320.138 263.76 320.138 264.48C320.138 264.952 320.018 265.388 319.778 265.788C319.538 266.188 319.17 266.512 318.674 266.76C318.186 267 317.566 267.12 316.814 267.12ZM323.199 262.092H327.375V263.376H323.199V262.092ZM323.319 265.692H328.059V267H321.759V258.6H327.891V259.908H323.319V265.692Z" fill="#003879"/>
    <g opacity="0.2">
        <path d="M80.9951 240H300" stroke="#003879" stroke-dasharray="8 4"/>
        <path d="M80 195H299.005" stroke="#003879" stroke-linejoin="round" stroke-dasharray="8 4"/>
        <path d="M80.9951 150H300" stroke="#003879" stroke-linejoin="round" stroke-dasharray="8 4"/>
        <path d="M80.9951 105H300" stroke="#003879" stroke-linejoin="round" stroke-dasharray="8 4"/>
        <path d="M80.9951 60H300" stroke="#003879" stroke-linejoin="round" stroke-dasharray="8 4"/>
    </g>
    <path d="M80.5 239.5H106L164.612 238.507C164.87 238.502 165.128 238.478 165.382 238.434L223.208 228.398C224.661 228.146 225.929 227.265 226.672 225.991L284.776 126.383C284.925 126.128 285.051 125.861 285.153 125.583L311 55" stroke="#595EC6" stroke-width="4" stroke-linecap="round"/>
    <rect x="88" y="204" width="37" height="23" rx="11.5" fill="white" fill-opacity="0.8"/>
    <path d="M102.583 221.44V210.16H103.567V221.44H102.583ZM102.955 220.12C102.299 220.12 101.671 220.028 101.071 219.844C100.471 219.652 99.9947 219.408 99.6427 219.112L100.183 217.9C100.519 218.164 100.935 218.384 101.431 218.56C101.927 218.736 102.435 218.824 102.955 218.824C103.395 218.824 103.751 218.776 104.023 218.68C104.295 218.584 104.495 218.456 104.623 218.296C104.751 218.128 104.815 217.94 104.815 217.732C104.815 217.476 104.723 217.272 104.539 217.12C104.355 216.96 104.115 216.836 103.819 216.748C103.531 216.652 103.207 216.564 102.847 216.484C102.495 216.404 102.139 216.312 101.779 216.208C101.427 216.096 101.103 215.956 100.807 215.788C100.519 215.612 100.283 215.38 100.099 215.092C99.9147 214.804 99.8227 214.436 99.8227 213.988C99.8227 213.532 99.9427 213.116 100.183 212.74C100.431 212.356 100.803 212.052 101.299 211.828C101.803 211.596 102.439 211.48 103.207 211.48C103.711 211.48 104.211 211.544 104.707 211.672C105.203 211.8 105.635 211.984 106.003 212.224L105.511 213.436C105.135 213.212 104.747 213.048 104.347 212.944C103.947 212.832 103.563 212.776 103.195 212.776C102.763 212.776 102.411 212.828 102.139 212.932C101.875 213.036 101.679 213.172 101.551 213.34C101.431 213.508 101.371 213.7 101.371 213.916C101.371 214.172 101.459 214.38 101.635 214.54C101.819 214.692 102.055 214.812 102.343 214.9C102.639 214.988 102.967 215.076 103.327 215.164C103.687 215.244 104.043 215.336 104.395 215.44C104.755 215.544 105.079 215.68 105.367 215.848C105.663 216.016 105.899 216.244 106.075 216.532C106.259 216.82 106.351 217.184 106.351 217.624C106.351 218.072 106.227 218.488 105.979 218.872C105.739 219.248 105.367 219.552 104.863 219.784C104.359 220.008 103.723 220.12 102.955 220.12ZM110.082 220.12C109.49 220.12 108.91 220.036 108.342 219.868C107.782 219.692 107.31 219.452 106.926 219.148L107.586 217.936C107.89 218.184 108.258 218.384 108.69 218.536C109.13 218.688 109.586 218.764 110.058 218.764C110.61 218.764 111.042 218.648 111.354 218.416C111.674 218.184 111.834 217.872 111.834 217.48C111.834 217.216 111.766 216.984 111.63 216.784C111.502 216.584 111.27 216.432 110.934 216.328C110.606 216.224 110.154 216.172 109.578 216.172H107.55L107.982 211.6H112.914V212.908H108.558L109.374 212.164L109.05 215.584L108.234 214.852H109.926C110.758 214.852 111.426 214.964 111.93 215.188C112.442 215.404 112.814 215.708 113.046 216.1C113.286 216.484 113.406 216.924 113.406 217.42C113.406 217.908 113.286 218.356 113.046 218.764C112.806 219.172 112.438 219.5 111.942 219.748C111.454 219.996 110.834 220.12 110.082 220.12Z" fill="#595EC6"/>
    <rect x="88" y="204" width="37" height="23" rx="11.5" stroke="#595EC6" stroke-width="2" stroke-linecap="square" stroke-linejoin="round"/>
    <rect x="138" y="203" width="51" height="23" rx="11.5" fill="white" fill-opacity="0.8"/>
    <path d="M152.786 220.44V209.16H153.77V220.44H152.786ZM153.158 219.12C152.502 219.12 151.874 219.028 151.274 218.844C150.674 218.652 150.198 218.408 149.846 218.112L150.386 216.9C150.722 217.164 151.138 217.384 151.634 217.56C152.13 217.736 152.638 217.824 153.158 217.824C153.598 217.824 153.954 217.776 154.226 217.68C154.498 217.584 154.698 217.456 154.826 217.296C154.954 217.128 155.018 216.94 155.018 216.732C155.018 216.476 154.926 216.272 154.742 216.12C154.558 215.96 154.318 215.836 154.022 215.748C153.734 215.652 153.41 215.564 153.05 215.484C152.698 215.404 152.342 215.312 151.982 215.208C151.63 215.096 151.306 214.956 151.01 214.788C150.722 214.612 150.486 214.38 150.302 214.092C150.118 213.804 150.026 213.436 150.026 212.988C150.026 212.532 150.146 212.116 150.386 211.74C150.634 211.356 151.006 211.052 151.502 210.828C152.006 210.596 152.642 210.48 153.41 210.48C153.914 210.48 154.414 210.544 154.91 210.672C155.406 210.8 155.838 210.984 156.206 211.224L155.714 212.436C155.338 212.212 154.95 212.048 154.55 211.944C154.15 211.832 153.766 211.776 153.398 211.776C152.966 211.776 152.614 211.828 152.342 211.932C152.078 212.036 151.882 212.172 151.754 212.34C151.634 212.508 151.574 212.7 151.574 212.916C151.574 213.172 151.662 213.38 151.838 213.54C152.022 213.692 152.258 213.812 152.546 213.9C152.842 213.988 153.17 214.076 153.53 214.164C153.89 214.244 154.246 214.336 154.598 214.44C154.958 214.544 155.282 214.68 155.57 214.848C155.866 215.016 156.102 215.244 156.278 215.532C156.462 215.82 156.554 216.184 156.554 216.624C156.554 217.072 156.43 217.488 156.182 217.872C155.942 218.248 155.57 218.552 155.066 218.784C154.562 219.008 153.926 219.12 153.158 219.12ZM158.727 219V211.2L159.411 211.908H156.951V210.6H160.287V219H158.727ZM165.458 219.12C164.794 219.12 164.194 218.952 163.658 218.616C163.13 218.28 162.714 217.792 162.41 217.152C162.106 216.504 161.954 215.72 161.954 214.8C161.954 213.88 162.106 213.1 162.41 212.46C162.714 211.812 163.13 211.32 163.658 210.984C164.194 210.648 164.794 210.48 165.458 210.48C166.13 210.48 166.73 210.648 167.258 210.984C167.786 211.32 168.202 211.812 168.506 212.46C168.818 213.1 168.974 213.88 168.974 214.8C168.974 215.72 168.818 216.504 168.506 217.152C168.202 217.792 167.786 218.28 167.258 218.616C166.73 218.952 166.13 219.12 165.458 219.12ZM165.458 217.764C165.85 217.764 166.19 217.66 166.478 217.452C166.766 217.236 166.99 216.908 167.15 216.468C167.318 216.028 167.402 215.472 167.402 214.8C167.402 214.12 167.318 213.564 167.15 213.132C166.99 212.692 166.766 212.368 166.478 212.16C166.19 211.944 165.85 211.836 165.458 211.836C165.082 211.836 164.746 211.944 164.45 212.16C164.162 212.368 163.934 212.692 163.766 213.132C163.606 213.564 163.526 214.12 163.526 214.8C163.526 215.472 163.606 216.028 163.766 216.468C163.934 216.908 164.162 217.236 164.45 217.452C164.746 217.66 165.082 217.764 165.458 217.764ZM173.532 219.12C172.868 219.12 172.268 218.952 171.732 218.616C171.204 218.28 170.788 217.792 170.484 217.152C170.18 216.504 170.028 215.72 170.028 214.8C170.028 213.88 170.18 213.1 170.484 212.46C170.788 211.812 171.204 211.32 171.732 210.984C172.268 210.648 172.868 210.48 173.532 210.48C174.204 210.48 174.804 210.648 175.332 210.984C175.86 211.32 176.276 211.812 176.58 212.46C176.892 213.1 177.048 213.88 177.048 214.8C177.048 215.72 176.892 216.504 176.58 217.152C176.276 217.792 175.86 218.28 175.332 218.616C174.804 218.952 174.204 219.12 173.532 219.12ZM173.532 217.764C173.924 217.764 174.264 217.66 174.552 217.452C174.84 217.236 175.064 216.908 175.224 216.468C175.392 216.028 175.476 215.472 175.476 214.8C175.476 214.12 175.392 213.564 175.224 213.132C175.064 212.692 174.84 212.368 174.552 212.16C174.264 211.944 173.924 211.836 173.532 211.836C173.156 211.836 172.82 211.944 172.524 212.16C172.236 212.368 172.008 212.692 171.84 213.132C171.68 213.564 171.6 214.12 171.6 214.8C171.6 215.472 171.68 216.028 171.84 216.468C172.008 216.908 172.236 217.236 172.524 217.452C172.82 217.66 173.156 217.764 173.532 217.764Z" fill="#595EC6"/>
    <rect x="138" y="203" width="51" height="23" rx="11.5" stroke="#595EC6" stroke-width="2" stroke-linecap="square" stroke-linejoin="round"/>
    <rect x="203" y="193" width="44" height="23" rx="11.5" fill="white" fill-opacity="0.8"/>
    <path d="M217.391 210.44V199.16H218.375V210.44H217.391ZM217.763 209.12C217.107 209.12 216.479 209.028 215.879 208.844C215.279 208.652 214.803 208.408 214.451 208.112L214.991 206.9C215.327 207.164 215.743 207.384 216.239 207.56C216.735 207.736 217.243 207.824 217.763 207.824C218.203 207.824 218.559 207.776 218.831 207.68C219.103 207.584 219.303 207.456 219.431 207.296C219.559 207.128 219.623 206.94 219.623 206.732C219.623 206.476 219.531 206.272 219.347 206.12C219.163 205.96 218.923 205.836 218.627 205.748C218.339 205.652 218.015 205.564 217.655 205.484C217.303 205.404 216.947 205.312 216.587 205.208C216.235 205.096 215.911 204.956 215.615 204.788C215.327 204.612 215.091 204.38 214.907 204.092C214.723 203.804 214.631 203.436 214.631 202.988C214.631 202.532 214.751 202.116 214.991 201.74C215.239 201.356 215.611 201.052 216.107 200.828C216.611 200.596 217.247 200.48 218.015 200.48C218.519 200.48 219.019 200.544 219.515 200.672C220.011 200.8 220.443 200.984 220.811 201.224L220.319 202.436C219.943 202.212 219.555 202.048 219.155 201.944C218.755 201.832 218.371 201.776 218.003 201.776C217.571 201.776 217.219 201.828 216.947 201.932C216.683 202.036 216.487 202.172 216.359 202.34C216.239 202.508 216.179 202.7 216.179 202.916C216.179 203.172 216.267 203.38 216.443 203.54C216.627 203.692 216.863 203.812 217.151 203.9C217.447 203.988 217.775 204.076 218.135 204.164C218.495 204.244 218.851 204.336 219.203 204.44C219.563 204.544 219.887 204.68 220.175 204.848C220.471 205.016 220.707 205.244 220.883 205.532C221.067 205.82 221.159 206.184 221.159 206.624C221.159 207.072 221.035 207.488 220.787 207.872C220.547 208.248 220.175 208.552 219.671 208.784C219.167 209.008 218.531 209.12 217.763 209.12ZM223.333 209V201.2L224.017 201.908H221.557V200.6H224.893V209H223.333ZM227.495 209.084C227.223 209.084 226.991 208.992 226.799 208.808C226.607 208.616 226.511 208.376 226.511 208.088C226.511 207.784 226.607 207.544 226.799 207.368C226.991 207.184 227.223 207.092 227.495 207.092C227.767 207.092 227.999 207.184 228.191 207.368C228.383 207.544 228.479 207.784 228.479 208.088C228.479 208.376 228.383 208.616 228.191 208.808C227.999 208.992 227.767 209.084 227.495 209.084ZM232.273 209.12C231.681 209.12 231.101 209.036 230.533 208.868C229.973 208.692 229.501 208.452 229.117 208.148L229.777 206.936C230.081 207.184 230.449 207.384 230.881 207.536C231.321 207.688 231.777 207.764 232.249 207.764C232.801 207.764 233.233 207.648 233.545 207.416C233.865 207.184 234.025 206.872 234.025 206.48C234.025 206.216 233.957 205.984 233.821 205.784C233.693 205.584 233.461 205.432 233.125 205.328C232.797 205.224 232.345 205.172 231.769 205.172H229.741L230.173 200.6H235.105V201.908H230.749L231.565 201.164L231.241 204.584L230.425 203.852H232.117C232.949 203.852 233.617 203.964 234.121 204.188C234.633 204.404 235.005 204.708 235.237 205.1C235.477 205.484 235.597 205.924 235.597 206.42C235.597 206.908 235.477 207.356 235.237 207.764C234.997 208.172 234.629 208.5 234.133 208.748C233.645 208.996 233.025 209.12 232.273 209.12Z" fill="#595EC6"/>
    <rect x="203" y="193" width="44" height="23" rx="11.5" stroke="#595EC6" stroke-width="2" stroke-linecap="square" stroke-linejoin="round"/>
    <rect x="258" y="90" width="52" height="23" rx="11.5" fill="white" fill-opacity="0.8"/>
    <path d="M272.518 107.44V96.16H273.502V107.44H272.518ZM272.89 106.12C272.234 106.12 271.606 106.028 271.006 105.844C270.406 105.652 269.93 105.408 269.578 105.112L270.118 103.9C270.454 104.164 270.87 104.384 271.366 104.56C271.862 104.736 272.37 104.824 272.89 104.824C273.33 104.824 273.686 104.776 273.958 104.68C274.23 104.584 274.43 104.456 274.558 104.296C274.686 104.128 274.75 103.94 274.75 103.732C274.75 103.476 274.658 103.272 274.474 103.12C274.29 102.96 274.05 102.836 273.754 102.748C273.466 102.652 273.142 102.564 272.782 102.484C272.43 102.404 272.074 102.312 271.714 102.208C271.362 102.096 271.038 101.956 270.742 101.788C270.454 101.612 270.218 101.38 270.034 101.092C269.85 100.804 269.758 100.436 269.758 99.988C269.758 99.532 269.878 99.116 270.118 98.74C270.366 98.356 270.738 98.052 271.234 97.828C271.738 97.596 272.374 97.48 273.142 97.48C273.646 97.48 274.146 97.544 274.642 97.672C275.138 97.8 275.57 97.984 275.938 98.224L275.446 99.436C275.07 99.212 274.682 99.048 274.282 98.944C273.882 98.832 273.498 98.776 273.13 98.776C272.698 98.776 272.346 98.828 272.074 98.932C271.81 99.036 271.614 99.172 271.486 99.34C271.366 99.508 271.306 99.7 271.306 99.916C271.306 100.172 271.394 100.38 271.57 100.54C271.754 100.692 271.99 100.812 272.278 100.9C272.574 100.988 272.902 101.076 273.262 101.164C273.622 101.244 273.978 101.336 274.33 101.44C274.69 101.544 275.014 101.68 275.302 101.848C275.598 102.016 275.834 102.244 276.01 102.532C276.194 102.82 276.286 103.184 276.286 103.624C276.286 104.072 276.162 104.488 275.914 104.872C275.674 105.248 275.302 105.552 274.798 105.784C274.294 106.008 273.658 106.12 272.89 106.12ZM277.125 106V104.956L280.461 101.788C280.741 101.524 280.949 101.292 281.085 101.092C281.221 100.892 281.309 100.708 281.349 100.54C281.397 100.364 281.421 100.2 281.421 100.048C281.421 99.664 281.289 99.368 281.025 99.16C280.761 98.944 280.373 98.836 279.861 98.836C279.453 98.836 279.081 98.908 278.745 99.052C278.417 99.196 278.133 99.416 277.893 99.712L276.801 98.872C277.129 98.432 277.569 98.092 278.121 97.852C278.681 97.604 279.305 97.48 279.993 97.48C280.601 97.48 281.129 97.58 281.577 97.78C282.033 97.972 282.381 98.248 282.621 98.608C282.869 98.968 282.993 99.396 282.993 99.892C282.993 100.164 282.957 100.436 282.885 100.708C282.813 100.972 282.677 101.252 282.477 101.548C282.277 101.844 281.985 102.176 281.601 102.544L278.733 105.268L278.409 104.68H283.317V106H277.125ZM287.853 106.12C287.093 106.12 286.441 105.96 285.897 105.64C285.353 105.312 284.937 104.84 284.649 104.224C284.361 103.608 284.217 102.848 284.217 101.944C284.217 100.984 284.389 100.172 284.733 99.508C285.085 98.844 285.569 98.34 286.185 97.996C286.809 97.652 287.525 97.48 288.333 97.48C288.757 97.48 289.161 97.524 289.545 97.612C289.937 97.7 290.269 97.836 290.541 98.02L289.965 99.196C289.733 99.044 289.481 98.94 289.209 98.884C288.945 98.82 288.665 98.788 288.369 98.788C287.577 98.788 286.949 99.032 286.485 99.52C286.021 100.008 285.789 100.728 285.789 101.68C285.789 101.832 285.793 102.012 285.801 102.22C285.809 102.42 285.837 102.624 285.885 102.832L285.405 102.304C285.549 101.976 285.745 101.704 285.993 101.488C286.249 101.264 286.549 101.096 286.893 100.984C287.245 100.872 287.625 100.816 288.033 100.816C288.585 100.816 289.077 100.924 289.509 101.14C289.941 101.348 290.285 101.648 290.541 102.04C290.797 102.424 290.925 102.876 290.925 103.396C290.925 103.948 290.789 104.428 290.517 104.836C290.245 105.244 289.877 105.56 289.413 105.784C288.949 106.008 288.429 106.12 287.853 106.12ZM287.769 104.896C288.089 104.896 288.373 104.84 288.621 104.728C288.869 104.608 289.061 104.44 289.197 104.224C289.341 104.008 289.413 103.756 289.413 103.468C289.413 103.028 289.261 102.68 288.957 102.424C288.653 102.168 288.245 102.04 287.733 102.04C287.397 102.04 287.101 102.104 286.845 102.232C286.597 102.352 286.397 102.52 286.245 102.736C286.101 102.952 286.029 103.2 286.029 103.48C286.029 103.736 286.097 103.972 286.233 104.188C286.369 104.404 286.565 104.576 286.821 104.704C287.085 104.832 287.401 104.896 287.769 104.896ZM293.421 104.572L293.457 102.688L296.805 99.592H298.605L295.761 102.448L294.969 103.108L293.421 104.572ZM292.197 106V97.096H293.697V106H292.197ZM297.033 106L294.693 103.108L295.641 101.908L298.857 106H297.033Z" fill="#595EC6"/>
    <rect x="258" y="90" width="52" height="23" rx="11.5" stroke="#595EC6" stroke-width="2" stroke-linecap="square" stroke-linejoin="round"/>
    <circle cx="107" cy="239" r="5" fill="white" stroke="#595EC6" stroke-width="2"/>
    <circle cx="164" cy="238" r="5" fill="white" stroke="#595EC6" stroke-width="2"/>
    <circle cx="225" cy="228" r="5" fill="white" stroke="#595EC6" stroke-width="2"/>
    <circle cx="285" cy="125" r="5" fill="white" stroke="#595EC6" stroke-width="2"/>
</svg>
