<svg viewBox="0 0 340 300" fill="none" xmlns="http://www.w3.org/2000/svg">
    <rect width="340" height="300" rx="40" fill="#F5FAFF"/>
    <path d="M30.8025 60.092V59.012L34.9425 53.6H36.6105L32.5305 59.012L31.7505 58.772H38.4105V60.092H30.8025ZM35.4105 62V60.092L35.4585 58.772V57.08H36.9225V62H35.4105ZM39.6671 62V53.6H40.9511L44.6231 59.732H43.9511L47.5631 53.6H48.8471L48.8591 62H47.3831L47.3711 55.916H47.6831L44.6111 61.04H43.9151L40.7951 55.916H41.1551V62H39.6671Z" fill="#A700C2"/>
    <path d="M34.7227 107.12C34.1307 107.12 33.5507 107.036 32.9827 106.868C32.4227 106.692 31.9507 106.452 31.5667 106.148L32.2387 104.936C32.5427 105.184 32.9107 105.384 33.3427 105.536C33.7747 105.688 34.2267 105.764 34.6987 105.764C35.2587 105.764 35.6947 105.652 36.0067 105.428C36.3187 105.196 36.4747 104.884 36.4747 104.492C36.4747 104.108 36.3307 103.804 36.0427 103.58C35.7547 103.356 35.2907 103.244 34.6507 103.244H33.8827V102.176L36.2827 99.32L36.4867 99.908H31.9747V98.6H37.6987V99.644L35.2987 102.5L34.4827 102.02H34.9507C35.9827 102.02 36.7547 102.252 37.2667 102.716C37.7867 103.172 38.0467 103.76 38.0467 104.48C38.0467 104.952 37.9267 105.388 37.6867 105.788C37.4467 106.188 37.0787 106.512 36.5827 106.76C36.0947 107 35.4747 107.12 34.7227 107.12ZM39.6671 107V98.6H40.9511L44.6231 104.732H43.9511L47.5631 98.6H48.8471L48.8591 107H47.3831L47.3711 100.916H47.6831L44.6111 106.04H43.9151L40.7951 100.916H41.1551V107H39.6671Z" fill="#A700C2"/>
    <path d="M31.9747 152V150.956L35.3107 147.788C35.5907 147.524 35.7987 147.292 35.9347 147.092C36.0707 146.892 36.1587 146.708 36.1987 146.54C36.2467 146.364 36.2707 146.2 36.2707 146.048C36.2707 145.664 36.1387 145.368 35.8747 145.16C35.6107 144.944 35.2227 144.836 34.7107 144.836C34.3027 144.836 33.9307 144.908 33.5947 145.052C33.2667 145.196 32.9827 145.416 32.7427 145.712L31.6507 144.872C31.9787 144.432 32.4187 144.092 32.9707 143.852C33.5307 143.604 34.1547 143.48 34.8427 143.48C35.4507 143.48 35.9787 143.58 36.4267 143.78C36.8827 143.972 37.2307 144.248 37.4707 144.608C37.7187 144.968 37.8427 145.396 37.8427 145.892C37.8427 146.164 37.8067 146.436 37.7347 146.708C37.6627 146.972 37.5267 147.252 37.3267 147.548C37.1267 147.844 36.8347 148.176 36.4507 148.544L33.5827 151.268L33.2587 150.68H38.1667V152H31.9747ZM39.6671 152V143.6H40.9511L44.6231 149.732H43.9511L47.5631 143.6H48.8471L48.8591 152H47.3831L47.3711 145.916H47.6831L44.6111 151.04H43.9151L40.7951 145.916H41.1551V152H39.6671Z" fill="#A700C2"/>
    <path d="M35.8408 197V189.2L36.5248 189.908H34.0648V188.6H37.4008V197H35.8408ZM39.6671 197V188.6H40.9511L44.6231 194.732H43.9511L47.5631 188.6H48.8471L48.8591 197H47.3831L47.3711 190.916H47.6831L44.6111 196.04H43.9151L40.7951 190.916H41.1551V197H39.6671Z" fill="#A700C2"/>
    <path d="M45.9578 242.12C45.2938 242.12 44.6938 241.952 44.1578 241.616C43.6298 241.28 43.2138 240.792 42.9098 240.152C42.6058 239.504 42.4538 238.72 42.4538 237.8C42.4538 236.88 42.6058 236.1 42.9098 235.46C43.2138 234.812 43.6298 234.32 44.1578 233.984C44.6938 233.648 45.2938 233.48 45.9578 233.48C46.6298 233.48 47.2298 233.648 47.7578 233.984C48.2858 234.32 48.7018 234.812 49.0058 235.46C49.3178 236.1 49.4738 236.88 49.4738 237.8C49.4738 238.72 49.3178 239.504 49.0058 240.152C48.7018 240.792 48.2858 241.28 47.7578 241.616C47.2298 241.952 46.6298 242.12 45.9578 242.12ZM45.9578 240.764C46.3498 240.764 46.6898 240.66 46.9778 240.452C47.2658 240.236 47.4898 239.908 47.6498 239.468C47.8178 239.028 47.9018 238.472 47.9018 237.8C47.9018 237.12 47.8178 236.564 47.6498 236.132C47.4898 235.692 47.2658 235.368 46.9778 235.16C46.6898 234.944 46.3498 234.836 45.9578 234.836C45.5818 234.836 45.2458 234.944 44.9498 235.16C44.6618 235.368 44.4338 235.692 44.2658 236.132C44.1058 236.564 44.0258 237.12 44.0258 237.8C44.0258 238.472 44.1058 239.028 44.2658 239.468C44.4338 239.908 44.6618 240.236 44.9498 240.452C45.2458 240.66 45.5818 240.764 45.9578 240.764Z" fill="#A700C2"/>
    <path d="M93.8673 267V265.956L97.2033 262.788C97.4833 262.524 97.6913 262.292 97.8273 262.092C97.9633 261.892 98.0513 261.708 98.0913 261.54C98.1393 261.364 98.1633 261.2 98.1633 261.048C98.1633 260.664 98.0313 260.368 97.7673 260.16C97.5033 259.944 97.1153 259.836 96.6033 259.836C96.1953 259.836 95.8233 259.908 95.4873 260.052C95.1593 260.196 94.8753 260.416 94.6353 260.712L93.5433 259.872C93.8713 259.432 94.3113 259.092 94.8633 258.852C95.4233 258.604 96.0473 258.48 96.7353 258.48C97.3433 258.48 97.8713 258.58 98.3193 258.78C98.7753 258.972 99.1233 259.248 99.3633 259.608C99.6113 259.968 99.7353 260.396 99.7353 260.892C99.7353 261.164 99.6993 261.436 99.6273 261.708C99.5553 261.972 99.4193 262.252 99.2193 262.548C99.0193 262.844 98.7273 263.176 98.3433 263.544L95.4753 266.268L95.1513 265.68H100.059V267H93.8673ZM104.464 267.12C103.8 267.12 103.2 266.952 102.664 266.616C102.136 266.28 101.72 265.792 101.416 265.152C101.112 264.504 100.96 263.72 100.96 262.8C100.96 261.88 101.112 261.1 101.416 260.46C101.72 259.812 102.136 259.32 102.664 258.984C103.2 258.648 103.8 258.48 104.464 258.48C105.136 258.48 105.736 258.648 106.264 258.984C106.792 259.32 107.208 259.812 107.512 260.46C107.824 261.1 107.98 261.88 107.98 262.8C107.98 263.72 107.824 264.504 107.512 265.152C107.208 265.792 106.792 266.28 106.264 266.616C105.736 266.952 105.136 267.12 104.464 267.12ZM104.464 265.764C104.856 265.764 105.196 265.66 105.484 265.452C105.772 265.236 105.996 264.908 106.156 264.468C106.324 264.028 106.408 263.472 106.408 262.8C106.408 262.12 106.324 261.564 106.156 261.132C105.996 260.692 105.772 260.368 105.484 260.16C105.196 259.944 104.856 259.836 104.464 259.836C104.088 259.836 103.752 259.944 103.456 260.16C103.168 260.368 102.94 260.692 102.772 261.132C102.612 261.564 102.532 262.12 102.532 262.8C102.532 263.472 102.612 264.028 102.772 264.468C102.94 264.908 103.168 265.236 103.456 265.452C103.752 265.66 104.088 265.764 104.464 265.764ZM108.914 267V265.956L112.25 262.788C112.53 262.524 112.738 262.292 112.874 262.092C113.01 261.892 113.098 261.708 113.138 261.54C113.186 261.364 113.21 261.2 113.21 261.048C113.21 260.664 113.078 260.368 112.814 260.16C112.55 259.944 112.162 259.836 111.65 259.836C111.242 259.836 110.87 259.908 110.534 260.052C110.206 260.196 109.922 260.416 109.682 260.712L108.59 259.872C108.918 259.432 109.358 259.092 109.91 258.852C110.47 258.604 111.094 258.48 111.782 258.48C112.39 258.48 112.918 258.58 113.366 258.78C113.822 258.972 114.17 259.248 114.41 259.608C114.658 259.968 114.782 260.396 114.782 260.892C114.782 261.164 114.746 261.436 114.674 261.708C114.602 261.972 114.466 262.252 114.266 262.548C114.066 262.844 113.774 263.176 113.39 263.544L110.522 266.268L110.198 265.68H115.106V267H108.914ZM119.511 267.12C118.847 267.12 118.247 266.952 117.711 266.616C117.183 266.28 116.767 265.792 116.463 265.152C116.159 264.504 116.007 263.72 116.007 262.8C116.007 261.88 116.159 261.1 116.463 260.46C116.767 259.812 117.183 259.32 117.711 258.984C118.247 258.648 118.847 258.48 119.511 258.48C120.183 258.48 120.783 258.648 121.311 258.984C121.839 259.32 122.255 259.812 122.559 260.46C122.871 261.1 123.027 261.88 123.027 262.8C123.027 263.72 122.871 264.504 122.559 265.152C122.255 265.792 121.839 266.28 121.311 266.616C120.783 266.952 120.183 267.12 119.511 267.12ZM119.511 265.764C119.903 265.764 120.243 265.66 120.531 265.452C120.819 265.236 121.043 264.908 121.203 264.468C121.371 264.028 121.455 263.472 121.455 262.8C121.455 262.12 121.371 261.564 121.203 261.132C121.043 260.692 120.819 260.368 120.531 260.16C120.243 259.944 119.903 259.836 119.511 259.836C119.135 259.836 118.799 259.944 118.503 260.16C118.215 260.368 117.987 260.692 117.819 261.132C117.659 261.564 117.579 262.12 117.579 262.8C117.579 263.472 117.659 264.028 117.819 264.468C117.987 264.908 118.215 265.236 118.503 265.452C118.799 265.66 119.135 265.764 119.511 265.764Z" fill="#003879"/>
    <path d="M154.619 267V265.956L157.955 262.788C158.235 262.524 158.443 262.292 158.579 262.092C158.715 261.892 158.803 261.708 158.843 261.54C158.891 261.364 158.915 261.2 158.915 261.048C158.915 260.664 158.783 260.368 158.519 260.16C158.255 259.944 157.867 259.836 157.355 259.836C156.947 259.836 156.575 259.908 156.239 260.052C155.911 260.196 155.627 260.416 155.387 260.712L154.295 259.872C154.623 259.432 155.063 259.092 155.615 258.852C156.175 258.604 156.799 258.48 157.487 258.48C158.095 258.48 158.623 258.58 159.071 258.78C159.527 258.972 159.875 259.248 160.115 259.608C160.363 259.968 160.487 260.396 160.487 260.892C160.487 261.164 160.451 261.436 160.379 261.708C160.307 261.972 160.171 262.252 159.971 262.548C159.771 262.844 159.479 263.176 159.095 263.544L156.227 266.268L155.903 265.68H160.811V267H154.619ZM165.216 267.12C164.552 267.12 163.952 266.952 163.416 266.616C162.888 266.28 162.472 265.792 162.168 265.152C161.864 264.504 161.712 263.72 161.712 262.8C161.712 261.88 161.864 261.1 162.168 260.46C162.472 259.812 162.888 259.32 163.416 258.984C163.952 258.648 164.552 258.48 165.216 258.48C165.888 258.48 166.488 258.648 167.016 258.984C167.544 259.32 167.96 259.812 168.264 260.46C168.576 261.1 168.732 261.88 168.732 262.8C168.732 263.72 168.576 264.504 168.264 265.152C167.96 265.792 167.544 266.28 167.016 266.616C166.488 266.952 165.888 267.12 165.216 267.12ZM165.216 265.764C165.608 265.764 165.948 265.66 166.236 265.452C166.524 265.236 166.748 264.908 166.908 264.468C167.076 264.028 167.16 263.472 167.16 262.8C167.16 262.12 167.076 261.564 166.908 261.132C166.748 260.692 166.524 260.368 166.236 260.16C165.948 259.944 165.608 259.836 165.216 259.836C164.84 259.836 164.504 259.944 164.208 260.16C163.92 260.368 163.692 260.692 163.524 261.132C163.364 261.564 163.284 262.12 163.284 262.8C163.284 263.472 163.364 264.028 163.524 264.468C163.692 264.908 163.92 265.236 164.208 265.452C164.504 265.66 164.84 265.764 165.216 265.764ZM169.666 267V265.956L173.002 262.788C173.282 262.524 173.49 262.292 173.626 262.092C173.762 261.892 173.85 261.708 173.89 261.54C173.938 261.364 173.962 261.2 173.962 261.048C173.962 260.664 173.83 260.368 173.566 260.16C173.302 259.944 172.914 259.836 172.402 259.836C171.994 259.836 171.622 259.908 171.286 260.052C170.958 260.196 170.674 260.416 170.434 260.712L169.342 259.872C169.67 259.432 170.11 259.092 170.662 258.852C171.222 258.604 171.846 258.48 172.534 258.48C173.142 258.48 173.67 258.58 174.118 258.78C174.574 258.972 174.922 259.248 175.162 259.608C175.41 259.968 175.534 260.396 175.534 260.892C175.534 261.164 175.498 261.436 175.426 261.708C175.354 261.972 175.218 262.252 175.018 262.548C174.818 262.844 174.526 263.176 174.142 263.544L171.274 266.268L170.95 265.68H175.858V267H169.666ZM178.102 267V259.2L178.786 259.908H176.326V258.6H179.662V267H178.102Z" fill="#003879"/>
    <path d="M211.912 267V265.956L215.248 262.788C215.528 262.524 215.736 262.292 215.872 262.092C216.008 261.892 216.096 261.708 216.136 261.54C216.184 261.364 216.208 261.2 216.208 261.048C216.208 260.664 216.076 260.368 215.812 260.16C215.548 259.944 215.16 259.836 214.648 259.836C214.24 259.836 213.868 259.908 213.532 260.052C213.204 260.196 212.92 260.416 212.68 260.712L211.588 259.872C211.916 259.432 212.356 259.092 212.908 258.852C213.468 258.604 214.092 258.48 214.78 258.48C215.388 258.48 215.916 258.58 216.364 258.78C216.82 258.972 217.168 259.248 217.408 259.608C217.656 259.968 217.78 260.396 217.78 260.892C217.78 261.164 217.744 261.436 217.672 261.708C217.6 261.972 217.464 262.252 217.264 262.548C217.064 262.844 216.772 263.176 216.388 263.544L213.52 266.268L213.196 265.68H218.104V267H211.912ZM222.509 267.12C221.845 267.12 221.245 266.952 220.709 266.616C220.181 266.28 219.765 265.792 219.461 265.152C219.157 264.504 219.005 263.72 219.005 262.8C219.005 261.88 219.157 261.1 219.461 260.46C219.765 259.812 220.181 259.32 220.709 258.984C221.245 258.648 221.845 258.48 222.509 258.48C223.181 258.48 223.781 258.648 224.309 258.984C224.837 259.32 225.253 259.812 225.557 260.46C225.869 261.1 226.025 261.88 226.025 262.8C226.025 263.72 225.869 264.504 225.557 265.152C225.253 265.792 224.837 266.28 224.309 266.616C223.781 266.952 223.181 267.12 222.509 267.12ZM222.509 265.764C222.901 265.764 223.241 265.66 223.529 265.452C223.817 265.236 224.041 264.908 224.201 264.468C224.369 264.028 224.453 263.472 224.453 262.8C224.453 262.12 224.369 261.564 224.201 261.132C224.041 260.692 223.817 260.368 223.529 260.16C223.241 259.944 222.901 259.836 222.509 259.836C222.133 259.836 221.797 259.944 221.501 260.16C221.213 260.368 220.985 260.692 220.817 261.132C220.657 261.564 220.577 262.12 220.577 262.8C220.577 263.472 220.657 264.028 220.817 264.468C220.985 264.908 221.213 265.236 221.501 265.452C221.797 265.66 222.133 265.764 222.509 265.764ZM226.959 267V265.956L230.295 262.788C230.575 262.524 230.783 262.292 230.919 262.092C231.055 261.892 231.143 261.708 231.183 261.54C231.231 261.364 231.255 261.2 231.255 261.048C231.255 260.664 231.123 260.368 230.859 260.16C230.595 259.944 230.207 259.836 229.695 259.836C229.287 259.836 228.915 259.908 228.579 260.052C228.251 260.196 227.967 260.416 227.727 260.712L226.635 259.872C226.963 259.432 227.403 259.092 227.955 258.852C228.515 258.604 229.139 258.48 229.827 258.48C230.435 258.48 230.963 258.58 231.411 258.78C231.867 258.972 232.215 259.248 232.455 259.608C232.703 259.968 232.827 260.396 232.827 260.892C232.827 261.164 232.791 261.436 232.719 261.708C232.647 261.972 232.511 262.252 232.311 262.548C232.111 262.844 231.819 263.176 231.435 263.544L228.567 266.268L228.243 265.68H233.151V267H226.959ZM233.943 267V265.956L237.279 262.788C237.559 262.524 237.767 262.292 237.903 262.092C238.039 261.892 238.127 261.708 238.167 261.54C238.215 261.364 238.239 261.2 238.239 261.048C238.239 260.664 238.107 260.368 237.843 260.16C237.579 259.944 237.191 259.836 236.679 259.836C236.271 259.836 235.899 259.908 235.563 260.052C235.235 260.196 234.951 260.416 234.711 260.712L233.619 259.872C233.947 259.432 234.387 259.092 234.939 258.852C235.499 258.604 236.123 258.48 236.811 258.48C237.419 258.48 237.947 258.58 238.395 258.78C238.851 258.972 239.199 259.248 239.439 259.608C239.687 259.968 239.811 260.396 239.811 260.892C239.811 261.164 239.775 261.436 239.703 261.708C239.631 261.972 239.495 262.252 239.295 262.548C239.095 262.844 238.803 263.176 238.419 263.544L235.551 266.268L235.227 265.68H240.135V267H233.943Z" fill="#003879"/>
    <path d="M276.394 267.12C275.738 267.12 275.134 267.012 274.582 266.796C274.03 266.58 273.55 266.28 273.142 265.896C272.734 265.504 272.418 265.048 272.194 264.528C271.97 264 271.858 263.424 271.858 262.8C271.858 262.176 271.97 261.604 272.194 261.084C272.418 260.556 272.734 260.1 273.142 259.716C273.55 259.324 274.03 259.02 274.582 258.804C275.134 258.588 275.734 258.48 276.382 258.48C277.038 258.48 277.638 258.588 278.182 258.804C278.734 259.02 279.214 259.32 279.622 259.704C280.03 260.088 280.346 260.544 280.57 261.072C280.794 261.6 280.906 262.176 280.906 262.8C280.906 263.424 280.794 264 280.57 264.528C280.346 265.056 280.03 265.512 279.622 265.896C279.214 266.28 278.734 266.58 278.182 266.796C277.638 267.012 277.042 267.12 276.394 267.12ZM279.13 268.836C278.834 268.836 278.546 268.8 278.266 268.728C277.994 268.664 277.722 268.552 277.45 268.392C277.186 268.24 276.91 268.036 276.622 267.78C276.334 267.532 276.018 267.224 275.674 266.856L277.33 266.424C277.554 266.72 277.766 266.956 277.966 267.132C278.174 267.316 278.374 267.448 278.566 267.528C278.758 267.608 278.958 267.648 279.166 267.648C279.718 267.648 280.198 267.424 280.606 266.976L281.326 267.84C280.766 268.504 280.034 268.836 279.13 268.836ZM276.382 265.752C276.806 265.752 277.198 265.68 277.558 265.536C277.918 265.392 278.23 265.188 278.494 264.924C278.758 264.652 278.962 264.336 279.106 263.976C279.258 263.616 279.334 263.224 279.334 262.8C279.334 262.368 279.258 261.976 279.106 261.624C278.962 261.264 278.758 260.952 278.494 260.688C278.23 260.416 277.918 260.208 277.558 260.064C277.198 259.92 276.806 259.848 276.382 259.848C275.958 259.848 275.566 259.92 275.206 260.064C274.846 260.208 274.534 260.416 274.27 260.688C274.006 260.952 273.798 261.264 273.646 261.624C273.502 261.976 273.43 262.368 273.43 262.8C273.43 263.224 273.502 263.616 273.646 263.976C273.798 264.336 274.006 264.652 274.27 264.924C274.534 265.188 274.846 265.392 275.206 265.536C275.566 265.68 275.958 265.752 276.382 265.752ZM281.734 267V265.956L285.07 262.788C285.35 262.524 285.558 262.292 285.694 262.092C285.83 261.892 285.918 261.708 285.958 261.54C286.006 261.364 286.03 261.2 286.03 261.048C286.03 260.664 285.898 260.368 285.634 260.16C285.37 259.944 284.982 259.836 284.47 259.836C284.062 259.836 283.69 259.908 283.354 260.052C283.026 260.196 282.742 260.416 282.502 260.712L281.41 259.872C281.738 259.432 282.178 259.092 282.73 258.852C283.29 258.604 283.914 258.48 284.602 258.48C285.21 258.48 285.738 258.58 286.186 258.78C286.642 258.972 286.99 259.248 287.23 259.608C287.478 259.968 287.602 260.396 287.602 260.892C287.602 261.164 287.566 261.436 287.494 261.708C287.422 261.972 287.286 262.252 287.086 262.548C286.886 262.844 286.594 263.176 286.21 263.544L283.342 266.268L283.018 265.68H287.926V267H281.734ZM292.035 267V265.956L295.371 262.788C295.651 262.524 295.859 262.292 295.995 262.092C296.131 261.892 296.219 261.708 296.259 261.54C296.307 261.364 296.331 261.2 296.331 261.048C296.331 260.664 296.199 260.368 295.935 260.16C295.671 259.944 295.283 259.836 294.771 259.836C294.363 259.836 293.991 259.908 293.655 260.052C293.327 260.196 293.043 260.416 292.803 260.712L291.711 259.872C292.039 259.432 292.479 259.092 293.031 258.852C293.591 258.604 294.215 258.48 294.903 258.48C295.511 258.48 296.039 258.58 296.487 258.78C296.943 258.972 297.291 259.248 297.531 259.608C297.779 259.968 297.903 260.396 297.903 260.892C297.903 261.164 297.867 261.436 297.795 261.708C297.723 261.972 297.587 262.252 297.387 262.548C297.187 262.844 296.895 263.176 296.511 263.544L293.643 266.268L293.319 265.68H298.227V267H292.035ZM302.632 267.12C301.968 267.12 301.368 266.952 300.832 266.616C300.304 266.28 299.888 265.792 299.584 265.152C299.28 264.504 299.128 263.72 299.128 262.8C299.128 261.88 299.28 261.1 299.584 260.46C299.888 259.812 300.304 259.32 300.832 258.984C301.368 258.648 301.968 258.48 302.632 258.48C303.304 258.48 303.904 258.648 304.432 258.984C304.96 259.32 305.376 259.812 305.68 260.46C305.992 261.1 306.148 261.88 306.148 262.8C306.148 263.72 305.992 264.504 305.68 265.152C305.376 265.792 304.96 266.28 304.432 266.616C303.904 266.952 303.304 267.12 302.632 267.12ZM302.632 265.764C303.024 265.764 303.364 265.66 303.652 265.452C303.94 265.236 304.164 264.908 304.324 264.468C304.492 264.028 304.576 263.472 304.576 262.8C304.576 262.12 304.492 261.564 304.324 261.132C304.164 260.692 303.94 260.368 303.652 260.16C303.364 259.944 303.024 259.836 302.632 259.836C302.256 259.836 301.92 259.944 301.624 260.16C301.336 260.368 301.108 260.692 300.94 261.132C300.78 261.564 300.7 262.12 300.7 262.8C300.7 263.472 300.78 264.028 300.94 264.468C301.108 264.908 301.336 265.236 301.624 265.452C301.92 265.66 302.256 265.764 302.632 265.764ZM307.082 267V265.956L310.418 262.788C310.698 262.524 310.906 262.292 311.042 262.092C311.178 261.892 311.266 261.708 311.306 261.54C311.354 261.364 311.378 261.2 311.378 261.048C311.378 260.664 311.246 260.368 310.982 260.16C310.718 259.944 310.33 259.836 309.818 259.836C309.41 259.836 309.038 259.908 308.702 260.052C308.374 260.196 308.09 260.416 307.85 260.712L306.758 259.872C307.086 259.432 307.526 259.092 308.078 258.852C308.638 258.604 309.262 258.48 309.95 258.48C310.558 258.48 311.086 258.58 311.534 258.78C311.99 258.972 312.338 259.248 312.578 259.608C312.826 259.968 312.95 260.396 312.95 260.892C312.95 261.164 312.914 261.436 312.842 261.708C312.77 261.972 312.634 262.252 312.434 262.548C312.234 262.844 311.942 263.176 311.558 263.544L308.69 266.268L308.366 265.68H313.274V267H307.082ZM316.814 267.12C316.222 267.12 315.642 267.036 315.074 266.868C314.514 266.692 314.042 266.452 313.658 266.148L314.33 264.936C314.634 265.184 315.002 265.384 315.434 265.536C315.866 265.688 316.318 265.764 316.79 265.764C317.35 265.764 317.786 265.652 318.098 265.428C318.41 265.196 318.566 264.884 318.566 264.492C318.566 264.108 318.422 263.804 318.134 263.58C317.846 263.356 317.382 263.244 316.742 263.244H315.974V262.176L318.374 259.32L318.578 259.908H314.066V258.6H319.79V259.644L317.39 262.5L316.574 262.02H317.042C318.074 262.02 318.846 262.252 319.358 262.716C319.878 263.172 320.138 263.76 320.138 264.48C320.138 264.952 320.018 265.388 319.778 265.788C319.538 266.188 319.17 266.512 318.674 266.76C318.186 267 317.566 267.12 316.814 267.12ZM323.199 262.092H327.375V263.376H323.199V262.092ZM323.319 265.692H328.059V267H321.759V258.6H327.891V259.908H323.319V265.692Z" fill="#003879"/>
    <g opacity="0.2">
        <path d="M80.9951 240H300" stroke="#003879" stroke-dasharray="8 4"/>
        <path d="M80 195H299.005" stroke="#003879" stroke-linejoin="round" stroke-dasharray="8 4"/>
        <path d="M80.9951 150H300" stroke="#003879" stroke-linejoin="round" stroke-dasharray="8 4"/>
        <path d="M80.9951 105H300" stroke="#003879" stroke-linejoin="round" stroke-dasharray="8 4"/>
        <path d="M80.9951 60H300" stroke="#003879" stroke-linejoin="round" stroke-dasharray="8 4"/>
    </g>
    <path d="M76 238.5H105.737C106.566 238.5 107.382 238.294 108.112 237.9L169.447 204.799C169.814 204.6 170.155 204.357 170.462 204.074L228 151L297.107 82.8807C297.693 82.3025 298.128 81.5884 298.372 80.8018L307 53" stroke="#A700C2" stroke-width="4" stroke-linecap="round"/>
    <rect x="92" y="203" width="45" height="23" rx="11.5" fill="white" fill-opacity="0.8"/>
    <path d="M106.457 219.12C105.865 219.12 105.285 219.036 104.717 218.868C104.157 218.692 103.685 218.452 103.301 218.148L103.961 216.936C104.265 217.184 104.633 217.384 105.065 217.536C105.505 217.688 105.961 217.764 106.433 217.764C106.985 217.764 107.417 217.648 107.729 217.416C108.049 217.184 108.209 216.872 108.209 216.48C108.209 216.216 108.141 215.984 108.005 215.784C107.877 215.584 107.645 215.432 107.309 215.328C106.981 215.224 106.529 215.172 105.953 215.172H103.925L104.357 210.6H109.289V211.908H104.933L105.749 211.164L105.425 214.584L104.609 213.852H106.301C107.133 213.852 107.801 213.964 108.305 214.188C108.817 214.404 109.189 214.708 109.421 215.1C109.661 215.484 109.781 215.924 109.781 216.42C109.781 216.908 109.661 217.356 109.421 217.764C109.181 218.172 108.813 218.5 108.317 218.748C107.829 218.996 107.209 219.12 106.457 219.12ZM114.184 219.12C113.52 219.12 112.92 218.952 112.384 218.616C111.856 218.28 111.44 217.792 111.136 217.152C110.832 216.504 110.68 215.72 110.68 214.8C110.68 213.88 110.832 213.1 111.136 212.46C111.44 211.812 111.856 211.32 112.384 210.984C112.92 210.648 113.52 210.48 114.184 210.48C114.856 210.48 115.456 210.648 115.984 210.984C116.512 211.32 116.928 211.812 117.232 212.46C117.544 213.1 117.7 213.88 117.7 214.8C117.7 215.72 117.544 216.504 117.232 217.152C116.928 217.792 116.512 218.28 115.984 218.616C115.456 218.952 114.856 219.12 114.184 219.12ZM114.184 217.764C114.576 217.764 114.916 217.66 115.204 217.452C115.492 217.236 115.716 216.908 115.876 216.468C116.044 216.028 116.128 215.472 116.128 214.8C116.128 214.12 116.044 213.564 115.876 213.132C115.716 212.692 115.492 212.368 115.204 212.16C114.916 211.944 114.576 211.836 114.184 211.836C113.808 211.836 113.472 211.944 113.176 212.16C112.888 212.368 112.66 212.692 112.492 213.132C112.332 213.564 112.252 214.12 112.252 214.8C112.252 215.472 112.332 216.028 112.492 216.468C112.66 216.908 112.888 217.236 113.176 217.452C113.472 217.66 113.808 217.764 114.184 217.764ZM120.435 217.572L120.471 215.688L123.819 212.592H125.619L122.775 215.448L121.983 216.108L120.435 217.572ZM119.211 219V210.096H120.711V219H119.211ZM124.047 219L121.707 216.108L122.655 214.908L125.871 219H124.047Z" fill="#A700C2"/>
    <rect x="92" y="203" width="45" height="23" rx="11.5" stroke="#A700C2" stroke-width="2" stroke-linecap="square" stroke-linejoin="round"/>
    <rect x="142" y="168" width="54" height="23" rx="11.5" fill="white" fill-opacity="0.8"/>
    <path d="M157.311 184.12C156.647 184.12 156.047 183.952 155.511 183.616C154.983 183.28 154.567 182.792 154.263 182.152C153.959 181.504 153.807 180.72 153.807 179.8C153.807 178.88 153.959 178.1 154.263 177.46C154.567 176.812 154.983 176.32 155.511 175.984C156.047 175.648 156.647 175.48 157.311 175.48C157.983 175.48 158.583 175.648 159.111 175.984C159.639 176.32 160.055 176.812 160.359 177.46C160.671 178.1 160.827 178.88 160.827 179.8C160.827 180.72 160.671 181.504 160.359 182.152C160.055 182.792 159.639 183.28 159.111 183.616C158.583 183.952 157.983 184.12 157.311 184.12ZM157.311 182.764C157.703 182.764 158.043 182.66 158.331 182.452C158.619 182.236 158.843 181.908 159.003 181.468C159.171 181.028 159.255 180.472 159.255 179.8C159.255 179.12 159.171 178.564 159.003 178.132C158.843 177.692 158.619 177.368 158.331 177.16C158.043 176.944 157.703 176.836 157.311 176.836C156.935 176.836 156.599 176.944 156.303 177.16C156.015 177.368 155.787 177.692 155.619 178.132C155.459 178.564 155.379 179.12 155.379 179.8C155.379 180.472 155.459 181.028 155.619 181.468C155.787 181.908 156.015 182.236 156.303 182.452C156.599 182.66 156.935 182.764 157.311 182.764ZM162.677 184.084C162.405 184.084 162.173 183.992 161.981 183.808C161.789 183.616 161.693 183.376 161.693 183.088C161.693 182.784 161.789 182.544 161.981 182.368C162.173 182.184 162.405 182.092 162.677 182.092C162.949 182.092 163.181 182.184 163.373 182.368C163.565 182.544 163.661 182.784 163.661 183.088C163.661 183.376 163.565 183.616 163.373 183.808C163.181 183.992 162.949 184.084 162.677 184.084ZM168.16 184.12C167.464 184.12 166.86 184.016 166.348 183.808C165.836 183.6 165.44 183.308 165.16 182.932C164.88 182.548 164.74 182.1 164.74 181.588C164.74 181.076 164.876 180.644 165.148 180.292C165.42 179.94 165.812 179.672 166.324 179.488C166.836 179.304 167.448 179.212 168.16 179.212C168.872 179.212 169.484 179.304 169.996 179.488C170.516 179.672 170.912 179.944 171.184 180.304C171.464 180.656 171.604 181.084 171.604 181.588C171.604 182.1 171.46 182.548 171.172 182.932C170.892 183.308 170.492 183.6 169.972 183.808C169.46 184.016 168.856 184.12 168.16 184.12ZM168.16 182.896C168.736 182.896 169.192 182.776 169.528 182.536C169.864 182.296 170.032 181.964 170.032 181.54C170.032 181.124 169.864 180.796 169.528 180.556C169.192 180.316 168.736 180.196 168.16 180.196C167.584 180.196 167.132 180.316 166.804 180.556C166.476 180.796 166.312 181.124 166.312 181.54C166.312 181.964 166.476 182.296 166.804 182.536C167.132 182.776 167.584 182.896 168.16 182.896ZM168.16 180.028C167.512 180.028 166.956 179.944 166.492 179.776C166.028 179.6 165.668 179.348 165.412 179.02C165.164 178.684 165.04 178.284 165.04 177.82C165.04 177.34 165.168 176.928 165.424 176.584C165.688 176.232 166.056 175.96 166.528 175.768C167 175.576 167.544 175.48 168.16 175.48C168.784 175.48 169.332 175.576 169.804 175.768C170.276 175.96 170.644 176.232 170.908 176.584C171.172 176.928 171.304 177.34 171.304 177.82C171.304 178.284 171.176 178.684 170.92 179.02C170.672 179.348 170.312 179.6 169.84 179.776C169.368 179.944 168.808 180.028 168.16 180.028ZM168.16 179.068C168.656 179.068 169.048 178.964 169.336 178.756C169.624 178.54 169.768 178.252 169.768 177.892C169.768 177.516 169.62 177.224 169.324 177.016C169.028 176.808 168.64 176.704 168.16 176.704C167.68 176.704 167.296 176.808 167.008 177.016C166.72 177.224 166.576 177.516 166.576 177.892C166.576 178.252 166.716 178.54 166.996 178.756C167.284 178.964 167.672 179.068 168.16 179.068ZM181.16 177.52C181.672 177.52 182.124 177.62 182.516 177.82C182.916 178.02 183.228 178.328 183.452 178.744C183.676 179.152 183.788 179.68 183.788 180.328V184H182.288V180.52C182.288 179.952 182.164 179.528 181.916 179.248C181.668 178.968 181.312 178.828 180.848 178.828C180.52 178.828 180.228 178.9 179.972 179.044C179.724 179.188 179.528 179.4 179.384 179.68C179.248 179.96 179.18 180.316 179.18 180.748V184H177.68V180.52C177.68 179.952 177.556 179.528 177.308 179.248C177.06 178.968 176.704 178.828 176.24 178.828C175.912 178.828 175.62 178.9 175.364 179.044C175.116 179.188 174.92 179.4 174.776 179.68C174.64 179.96 174.572 180.316 174.572 180.748V184H173.072V177.592H174.5V179.296L174.248 178.792C174.464 178.376 174.776 178.06 175.184 177.844C175.6 177.628 176.072 177.52 176.6 177.52C177.2 177.52 177.72 177.668 178.16 177.964C178.608 178.26 178.904 178.708 179.048 179.308L178.46 179.104C178.668 178.624 179.012 178.24 179.492 177.952C179.972 177.664 180.528 177.52 181.16 177.52Z" fill="#A700C2"/>
    <rect x="142" y="168" width="54" height="23" rx="11.5" stroke="#A700C2" stroke-width="2" stroke-linecap="square" stroke-linejoin="round"/>
    <rect x="207" y="116" width="42" height="23" rx="11.5" fill="white" fill-opacity="0.8"/>
    <path d="M218.611 132V130.956L221.947 127.788C222.227 127.524 222.435 127.292 222.571 127.092C222.707 126.892 222.795 126.708 222.835 126.54C222.883 126.364 222.907 126.2 222.907 126.048C222.907 125.664 222.775 125.368 222.511 125.16C222.247 124.944 221.859 124.836 221.347 124.836C220.939 124.836 220.567 124.908 220.231 125.052C219.903 125.196 219.619 125.416 219.379 125.712L218.287 124.872C218.615 124.432 219.055 124.092 219.607 123.852C220.167 123.604 220.791 123.48 221.479 123.48C222.087 123.48 222.615 123.58 223.063 123.78C223.519 123.972 223.867 124.248 224.107 124.608C224.355 124.968 224.479 125.396 224.479 125.892C224.479 126.164 224.443 126.436 224.371 126.708C224.299 126.972 224.163 127.252 223.963 127.548C223.763 127.844 223.471 128.176 223.087 128.544L220.219 131.268L219.895 130.68H224.803V132H218.611ZM234.248 125.52C234.76 125.52 235.212 125.62 235.604 125.82C236.004 126.02 236.316 126.328 236.54 126.744C236.764 127.152 236.876 127.68 236.876 128.328V132H235.376V128.52C235.376 127.952 235.252 127.528 235.004 127.248C234.756 126.968 234.4 126.828 233.936 126.828C233.608 126.828 233.316 126.9 233.06 127.044C232.812 127.188 232.616 127.4 232.472 127.68C232.336 127.96 232.268 128.316 232.268 128.748V132H230.768V128.52C230.768 127.952 230.644 127.528 230.396 127.248C230.148 126.968 229.792 126.828 229.328 126.828C229 126.828 228.708 126.9 228.452 127.044C228.204 127.188 228.008 127.4 227.864 127.68C227.728 127.96 227.66 128.316 227.66 128.748V132H226.16V125.592H227.588V127.296L227.336 126.792C227.552 126.376 227.864 126.06 228.272 125.844C228.688 125.628 229.16 125.52 229.688 125.52C230.288 125.52 230.808 125.668 231.248 125.964C231.696 126.26 231.992 126.708 232.136 127.308L231.548 127.104C231.756 126.624 232.1 126.24 232.58 125.952C233.06 125.664 233.616 125.52 234.248 125.52Z" fill="#A700C2"/>
    <rect x="207" y="116" width="42" height="23" rx="11.5" stroke="#A700C2" stroke-width="2" stroke-linecap="square" stroke-linejoin="round"/>
    <rect x="272" y="47" width="52" height="23" rx="11.5" fill="white" fill-opacity="0.8"/>
    <path d="M286.391 63.12C285.799 63.12 285.219 63.036 284.651 62.868C284.091 62.692 283.619 62.452 283.235 62.148L283.907 60.936C284.211 61.184 284.579 61.384 285.011 61.536C285.443 61.688 285.895 61.764 286.367 61.764C286.927 61.764 287.363 61.652 287.675 61.428C287.987 61.196 288.143 60.884 288.143 60.492C288.143 60.108 287.999 59.804 287.711 59.58C287.423 59.356 286.959 59.244 286.319 59.244H285.551V58.176L287.951 55.32L288.155 55.908H283.643V54.6H289.367V55.644L286.967 58.5L286.151 58.02H286.619C287.651 58.02 288.423 58.252 288.935 58.716C289.455 59.172 289.715 59.76 289.715 60.48C289.715 60.952 289.595 61.388 289.355 61.788C289.115 62.188 288.747 62.512 288.251 62.76C287.763 63 287.143 63.12 286.391 63.12ZM291.671 63.084C291.399 63.084 291.167 62.992 290.975 62.808C290.783 62.616 290.687 62.376 290.687 62.088C290.687 61.784 290.783 61.544 290.975 61.368C291.167 61.184 291.399 61.092 291.671 61.092C291.943 61.092 292.175 61.184 292.367 61.368C292.559 61.544 292.655 61.784 292.655 62.088C292.655 62.376 292.559 62.616 292.367 62.808C292.175 62.992 291.943 63.084 291.671 63.084ZM296.449 63.12C295.857 63.12 295.277 63.036 294.709 62.868C294.149 62.692 293.677 62.452 293.293 62.148L293.953 60.936C294.257 61.184 294.625 61.384 295.057 61.536C295.497 61.688 295.953 61.764 296.425 61.764C296.977 61.764 297.409 61.648 297.721 61.416C298.041 61.184 298.201 60.872 298.201 60.48C298.201 60.216 298.133 59.984 297.997 59.784C297.869 59.584 297.637 59.432 297.301 59.328C296.973 59.224 296.521 59.172 295.945 59.172H293.917L294.349 54.6H299.281V55.908H294.925L295.741 55.164L295.417 58.584L294.601 57.852H296.293C297.125 57.852 297.793 57.964 298.297 58.188C298.809 58.404 299.181 58.708 299.413 59.1C299.653 59.484 299.773 59.924 299.773 60.42C299.773 60.908 299.653 61.356 299.413 61.764C299.173 62.172 298.805 62.5 298.309 62.748C297.821 62.996 297.201 63.12 296.449 63.12ZM309.217 56.52C309.729 56.52 310.181 56.62 310.573 56.82C310.973 57.02 311.285 57.328 311.509 57.744C311.733 58.152 311.845 58.68 311.845 59.328V63H310.345V59.52C310.345 58.952 310.221 58.528 309.973 58.248C309.725 57.968 309.369 57.828 308.905 57.828C308.577 57.828 308.285 57.9 308.029 58.044C307.781 58.188 307.585 58.4 307.441 58.68C307.305 58.96 307.237 59.316 307.237 59.748V63H305.737V59.52C305.737 58.952 305.613 58.528 305.365 58.248C305.117 57.968 304.761 57.828 304.297 57.828C303.969 57.828 303.677 57.9 303.421 58.044C303.173 58.188 302.977 58.4 302.833 58.68C302.697 58.96 302.629 59.316 302.629 59.748V63H301.129V56.592H302.557V58.296L302.305 57.792C302.521 57.376 302.833 57.06 303.241 56.844C303.657 56.628 304.129 56.52 304.657 56.52C305.257 56.52 305.777 56.668 306.217 56.964C306.665 57.26 306.961 57.708 307.105 58.308L306.517 58.104C306.725 57.624 307.069 57.24 307.549 56.952C308.029 56.664 308.585 56.52 309.217 56.52Z" fill="#A700C2"/>
    <rect x="272" y="47" width="52" height="23" rx="11.5" stroke="#A700C2" stroke-width="2" stroke-linecap="square" stroke-linejoin="round"/>
    <circle cx="107" cy="238" r="5" fill="white" stroke="#A700C2" stroke-width="2"/>
    <circle cx="169" cy="203" r="5" fill="white" stroke="#A700C2" stroke-width="2"/>
    <circle cx="228" cy="151" r="5" fill="white" stroke="#A700C2" stroke-width="2"/>
    <circle cx="298" cy="82" r="5" fill="white" stroke="#A700C2" stroke-width="2"/>
</svg>
