<svg viewBox="0 0 340 300" fill="none" xmlns="http://www.w3.org/2000/svg">
    <rect width="340" height="300" rx="40" fill="#F5FAFF"/>
    <path d="M36.9033 62V54.2L37.5873 54.908H35.1273V53.6H38.4633V62H36.9033ZM41.0656 62.084C40.7936 62.084 40.5616 61.992 40.3696 61.808C40.1776 61.616 40.0816 61.376 40.0816 61.088C40.0816 60.784 40.1776 60.544 40.3696 60.368C40.5616 60.184 40.7936 60.092 41.0656 60.092C41.3376 60.092 41.5696 60.184 41.7616 60.368C41.9536 60.544 42.0496 60.784 42.0496 61.088C42.0496 61.376 41.9536 61.616 41.7616 61.808C41.5696 61.992 41.3376 62.084 41.0656 62.084ZM45.8433 62.12C45.2513 62.12 44.6713 62.036 44.1033 61.868C43.5433 61.692 43.0713 61.452 42.6873 61.148L43.3473 59.936C43.6513 60.184 44.0193 60.384 44.4513 60.536C44.8913 60.688 45.3473 60.764 45.8193 60.764C46.3713 60.764 46.8033 60.648 47.1153 60.416C47.4353 60.184 47.5953 59.872 47.5953 59.48C47.5953 59.216 47.5273 58.984 47.3913 58.784C47.2633 58.584 47.0313 58.432 46.6953 58.328C46.3673 58.224 45.9153 58.172 45.3393 58.172H43.3113L43.7433 53.6H48.6753V54.908H44.3193L45.1353 54.164L44.8113 57.584L43.9953 56.852H45.6873C46.5193 56.852 47.1873 56.964 47.6913 57.188C48.2033 57.404 48.5753 57.708 48.8073 58.1C49.0473 58.484 49.1673 58.924 49.1673 59.42C49.1673 59.908 49.0473 60.356 48.8073 60.764C48.5673 61.172 48.1993 61.5 47.7033 61.748C47.2153 61.996 46.5953 62.12 45.8433 62.12ZM50.6671 62V53.6H51.9511L55.6231 59.732H54.9511L58.5631 53.6H59.8471L59.8591 62H58.3831L58.3711 55.916H58.6831L55.6111 61.04H54.9151L51.7951 55.916H52.1551V62H50.6671Z" fill="#0075FF"/>
    <path d="M39.5165 107V99.2L40.2005 99.908H37.7405V98.6H41.0765V107H39.5165ZM43.6788 107.084C43.4068 107.084 43.1748 106.992 42.9828 106.808C42.7908 106.616 42.6948 106.376 42.6948 106.088C42.6948 105.784 42.7908 105.544 42.9828 105.368C43.1748 105.184 43.4068 105.092 43.6788 105.092C43.9508 105.092 44.1828 105.184 44.3748 105.368C44.5668 105.544 44.6628 105.784 44.6628 106.088C44.6628 106.376 44.5668 106.616 44.3748 106.808C44.1828 106.992 43.9508 107.084 43.6788 107.084ZM46.8408 107V99.2L47.5248 99.908H45.0648V98.6H48.4008V107H46.8408ZM50.6671 107V98.6H51.9511L55.6231 104.732H54.9511L58.5631 98.6H59.8471L59.8591 107H58.3831L58.3711 100.916H58.6831L55.6111 106.04H54.9151L51.7951 100.916H52.1551V107H50.6671Z" fill="#0075FF"/>
    <path d="M32.0179 152L35.4859 144.224L35.8939 144.92H31.1299L31.8739 144.164V146.348H30.4219V143.6H36.9499V144.644L33.6859 152H32.0179ZM40.4878 152.12C39.8958 152.12 39.3158 152.036 38.7478 151.868C38.1878 151.692 37.7158 151.452 37.3318 151.148L37.9918 149.936C38.2958 150.184 38.6638 150.384 39.0958 150.536C39.5358 150.688 39.9918 150.764 40.4638 150.764C41.0158 150.764 41.4478 150.648 41.7598 150.416C42.0798 150.184 42.2398 149.872 42.2398 149.48C42.2398 149.216 42.1718 148.984 42.0358 148.784C41.9078 148.584 41.6758 148.432 41.3398 148.328C41.0118 148.224 40.5598 148.172 39.9838 148.172H37.9558L38.3878 143.6H43.3198V144.908H38.9638L39.7798 144.164L39.4558 147.584L38.6398 146.852H40.3318C41.1638 146.852 41.8318 146.964 42.3358 147.188C42.8478 147.404 43.2198 147.708 43.4518 148.1C43.6918 148.484 43.8118 148.924 43.8118 149.42C43.8118 149.908 43.6918 150.356 43.4518 150.764C43.2118 151.172 42.8438 151.5 42.3478 151.748C41.8598 151.996 41.2398 152.12 40.4878 152.12ZM48.2156 152.12C47.5516 152.12 46.9516 151.952 46.4156 151.616C45.8876 151.28 45.4716 150.792 45.1676 150.152C44.8636 149.504 44.7116 148.72 44.7116 147.8C44.7116 146.88 44.8636 146.1 45.1676 145.46C45.4716 144.812 45.8876 144.32 46.4156 143.984C46.9516 143.648 47.5516 143.48 48.2156 143.48C48.8876 143.48 49.4876 143.648 50.0156 143.984C50.5436 144.32 50.9596 144.812 51.2636 145.46C51.5756 146.1 51.7316 146.88 51.7316 147.8C51.7316 148.72 51.5756 149.504 51.2636 150.152C50.9596 150.792 50.5436 151.28 50.0156 151.616C49.4876 151.952 48.8876 152.12 48.2156 152.12ZM48.2156 150.764C48.6076 150.764 48.9476 150.66 49.2356 150.452C49.5236 150.236 49.7476 149.908 49.9076 149.468C50.0756 149.028 50.1596 148.472 50.1596 147.8C50.1596 147.12 50.0756 146.564 49.9076 146.132C49.7476 145.692 49.5236 145.368 49.2356 145.16C48.9476 144.944 48.6076 144.836 48.2156 144.836C47.8396 144.836 47.5036 144.944 47.2076 145.16C46.9196 145.368 46.6916 145.692 46.5236 146.132C46.3636 146.564 46.2836 147.12 46.2836 147.8C46.2836 148.472 46.3636 149.028 46.5236 149.468C46.6916 149.908 46.9196 150.236 47.2076 150.452C47.5036 150.66 47.8396 150.764 48.2156 150.764ZM54.7778 150.02L54.6938 148.172L59.0978 143.6H60.8498L57.1898 147.488L56.3258 148.436L54.7778 150.02ZM53.3858 152V143.6H54.9458V152H53.3858ZM59.2418 152L56.0258 148.172L57.0578 147.032L61.0658 152H59.2418Z" fill="#0075FF"/>
    <path d="M34.461 197.12C33.869 197.12 33.289 197.036 32.721 196.868C32.161 196.692 31.689 196.452 31.305 196.148L31.977 194.936C32.281 195.184 32.649 195.384 33.081 195.536C33.513 195.688 33.965 195.764 34.437 195.764C34.997 195.764 35.433 195.652 35.745 195.428C36.057 195.196 36.213 194.884 36.213 194.492C36.213 194.108 36.069 193.804 35.781 193.58C35.493 193.356 35.029 193.244 34.389 193.244H33.621V192.176L36.021 189.32L36.225 189.908H31.713V188.6H37.437V189.644L35.037 192.5L34.221 192.02H34.689C35.721 192.02 36.493 192.252 37.005 192.716C37.525 193.172 37.785 193.76 37.785 194.48C37.785 194.952 37.665 195.388 37.425 195.788C37.185 196.188 36.817 196.512 36.321 196.76C35.833 197 35.213 197.12 34.461 197.12ZM40.0922 197L43.5602 189.224L43.9682 189.92H39.2042L39.9482 189.164V191.348H38.4962V188.6H45.0242V189.644L41.7602 197H40.0922ZM48.562 197.12C47.97 197.12 47.39 197.036 46.822 196.868C46.262 196.692 45.79 196.452 45.406 196.148L46.066 194.936C46.37 195.184 46.738 195.384 47.17 195.536C47.61 195.688 48.066 195.764 48.538 195.764C49.09 195.764 49.522 195.648 49.834 195.416C50.154 195.184 50.314 194.872 50.314 194.48C50.314 194.216 50.246 193.984 50.11 193.784C49.982 193.584 49.75 193.432 49.414 193.328C49.086 193.224 48.634 193.172 48.058 193.172H46.03L46.462 188.6H51.394V189.908H47.038L47.854 189.164L47.53 192.584L46.714 191.852H48.406C49.238 191.852 49.906 191.964 50.41 192.188C50.922 192.404 51.294 192.708 51.526 193.1C51.766 193.484 51.886 193.924 51.886 194.42C51.886 194.908 51.766 195.356 51.526 195.764C51.286 196.172 50.918 196.5 50.422 196.748C49.934 196.996 49.314 197.12 48.562 197.12ZM54.7778 195.02L54.6938 193.172L59.0978 188.6H60.8498L57.1898 192.488L56.3258 193.436L54.7778 195.02ZM53.3858 197V188.6H54.9458V197H53.3858ZM59.2418 197L56.0258 193.172L57.0578 192.032L61.0658 197H59.2418Z" fill="#0075FF"/>
    <path d="M56.9578 242.12C56.2938 242.12 55.6938 241.952 55.1578 241.616C54.6298 241.28 54.2138 240.792 53.9098 240.152C53.6058 239.504 53.4538 238.72 53.4538 237.8C53.4538 236.88 53.6058 236.1 53.9098 235.46C54.2138 234.812 54.6298 234.32 55.1578 233.984C55.6938 233.648 56.2938 233.48 56.9578 233.48C57.6298 233.48 58.2298 233.648 58.7578 233.984C59.2858 234.32 59.7018 234.812 60.0058 235.46C60.3178 236.1 60.4738 236.88 60.4738 237.8C60.4738 238.72 60.3178 239.504 60.0058 240.152C59.7018 240.792 59.2858 241.28 58.7578 241.616C58.2298 241.952 57.6298 242.12 56.9578 242.12ZM56.9578 240.764C57.3498 240.764 57.6898 240.66 57.9778 240.452C58.2658 240.236 58.4898 239.908 58.6498 239.468C58.8178 239.028 58.9018 238.472 58.9018 237.8C58.9018 237.12 58.8178 236.564 58.6498 236.132C58.4898 235.692 58.2658 235.368 57.9778 235.16C57.6898 234.944 57.3498 234.836 56.9578 234.836C56.5818 234.836 56.2458 234.944 55.9498 235.16C55.6618 235.368 55.4338 235.692 55.2658 236.132C55.1058 236.564 55.0258 237.12 55.0258 237.8C55.0258 238.472 55.1058 239.028 55.2658 239.468C55.4338 239.908 55.6618 240.236 55.9498 240.452C56.2458 240.66 56.5818 240.764 56.9578 240.764Z" fill="#0075FF"/>
    <path d="M93.8673 267V265.956L97.2033 262.788C97.4833 262.524 97.6913 262.292 97.8273 262.092C97.9633 261.892 98.0513 261.708 98.0913 261.54C98.1393 261.364 98.1633 261.2 98.1633 261.048C98.1633 260.664 98.0313 260.368 97.7673 260.16C97.5033 259.944 97.1153 259.836 96.6033 259.836C96.1953 259.836 95.8233 259.908 95.4873 260.052C95.1593 260.196 94.8753 260.416 94.6353 260.712L93.5433 259.872C93.8713 259.432 94.3113 259.092 94.8633 258.852C95.4233 258.604 96.0473 258.48 96.7353 258.48C97.3433 258.48 97.8713 258.58 98.3193 258.78C98.7753 258.972 99.1233 259.248 99.3633 259.608C99.6113 259.968 99.7353 260.396 99.7353 260.892C99.7353 261.164 99.6993 261.436 99.6273 261.708C99.5553 261.972 99.4193 262.252 99.2193 262.548C99.0193 262.844 98.7273 263.176 98.3433 263.544L95.4753 266.268L95.1513 265.68H100.059V267H93.8673ZM104.464 267.12C103.8 267.12 103.2 266.952 102.664 266.616C102.136 266.28 101.72 265.792 101.416 265.152C101.112 264.504 100.96 263.72 100.96 262.8C100.96 261.88 101.112 261.1 101.416 260.46C101.72 259.812 102.136 259.32 102.664 258.984C103.2 258.648 103.8 258.48 104.464 258.48C105.136 258.48 105.736 258.648 106.264 258.984C106.792 259.32 107.208 259.812 107.512 260.46C107.824 261.1 107.98 261.88 107.98 262.8C107.98 263.72 107.824 264.504 107.512 265.152C107.208 265.792 106.792 266.28 106.264 266.616C105.736 266.952 105.136 267.12 104.464 267.12ZM104.464 265.764C104.856 265.764 105.196 265.66 105.484 265.452C105.772 265.236 105.996 264.908 106.156 264.468C106.324 264.028 106.408 263.472 106.408 262.8C106.408 262.12 106.324 261.564 106.156 261.132C105.996 260.692 105.772 260.368 105.484 260.16C105.196 259.944 104.856 259.836 104.464 259.836C104.088 259.836 103.752 259.944 103.456 260.16C103.168 260.368 102.94 260.692 102.772 261.132C102.612 261.564 102.532 262.12 102.532 262.8C102.532 263.472 102.612 264.028 102.772 264.468C102.94 264.908 103.168 265.236 103.456 265.452C103.752 265.66 104.088 265.764 104.464 265.764ZM108.914 267V265.956L112.25 262.788C112.53 262.524 112.738 262.292 112.874 262.092C113.01 261.892 113.098 261.708 113.138 261.54C113.186 261.364 113.21 261.2 113.21 261.048C113.21 260.664 113.078 260.368 112.814 260.16C112.55 259.944 112.162 259.836 111.65 259.836C111.242 259.836 110.87 259.908 110.534 260.052C110.206 260.196 109.922 260.416 109.682 260.712L108.59 259.872C108.918 259.432 109.358 259.092 109.91 258.852C110.47 258.604 111.094 258.48 111.782 258.48C112.39 258.48 112.918 258.58 113.366 258.78C113.822 258.972 114.17 259.248 114.41 259.608C114.658 259.968 114.782 260.396 114.782 260.892C114.782 261.164 114.746 261.436 114.674 261.708C114.602 261.972 114.466 262.252 114.266 262.548C114.066 262.844 113.774 263.176 113.39 263.544L110.522 266.268L110.198 265.68H115.106V267H108.914ZM119.511 267.12C118.847 267.12 118.247 266.952 117.711 266.616C117.183 266.28 116.767 265.792 116.463 265.152C116.159 264.504 116.007 263.72 116.007 262.8C116.007 261.88 116.159 261.1 116.463 260.46C116.767 259.812 117.183 259.32 117.711 258.984C118.247 258.648 118.847 258.48 119.511 258.48C120.183 258.48 120.783 258.648 121.311 258.984C121.839 259.32 122.255 259.812 122.559 260.46C122.871 261.1 123.027 261.88 123.027 262.8C123.027 263.72 122.871 264.504 122.559 265.152C122.255 265.792 121.839 266.28 121.311 266.616C120.783 266.952 120.183 267.12 119.511 267.12ZM119.511 265.764C119.903 265.764 120.243 265.66 120.531 265.452C120.819 265.236 121.043 264.908 121.203 264.468C121.371 264.028 121.455 263.472 121.455 262.8C121.455 262.12 121.371 261.564 121.203 261.132C121.043 260.692 120.819 260.368 120.531 260.16C120.243 259.944 119.903 259.836 119.511 259.836C119.135 259.836 118.799 259.944 118.503 260.16C118.215 260.368 117.987 260.692 117.819 261.132C117.659 261.564 117.579 262.12 117.579 262.8C117.579 263.472 117.659 264.028 117.819 264.468C117.987 264.908 118.215 265.236 118.503 265.452C118.799 265.66 119.135 265.764 119.511 265.764Z" fill="#003879"/>
    <path d="M154.619 267V265.956L157.955 262.788C158.235 262.524 158.443 262.292 158.579 262.092C158.715 261.892 158.803 261.708 158.843 261.54C158.891 261.364 158.915 261.2 158.915 261.048C158.915 260.664 158.783 260.368 158.519 260.16C158.255 259.944 157.867 259.836 157.355 259.836C156.947 259.836 156.575 259.908 156.239 260.052C155.911 260.196 155.627 260.416 155.387 260.712L154.295 259.872C154.623 259.432 155.063 259.092 155.615 258.852C156.175 258.604 156.799 258.48 157.487 258.48C158.095 258.48 158.623 258.58 159.071 258.78C159.527 258.972 159.875 259.248 160.115 259.608C160.363 259.968 160.487 260.396 160.487 260.892C160.487 261.164 160.451 261.436 160.379 261.708C160.307 261.972 160.171 262.252 159.971 262.548C159.771 262.844 159.479 263.176 159.095 263.544L156.227 266.268L155.903 265.68H160.811V267H154.619ZM165.216 267.12C164.552 267.12 163.952 266.952 163.416 266.616C162.888 266.28 162.472 265.792 162.168 265.152C161.864 264.504 161.712 263.72 161.712 262.8C161.712 261.88 161.864 261.1 162.168 260.46C162.472 259.812 162.888 259.32 163.416 258.984C163.952 258.648 164.552 258.48 165.216 258.48C165.888 258.48 166.488 258.648 167.016 258.984C167.544 259.32 167.96 259.812 168.264 260.46C168.576 261.1 168.732 261.88 168.732 262.8C168.732 263.72 168.576 264.504 168.264 265.152C167.96 265.792 167.544 266.28 167.016 266.616C166.488 266.952 165.888 267.12 165.216 267.12ZM165.216 265.764C165.608 265.764 165.948 265.66 166.236 265.452C166.524 265.236 166.748 264.908 166.908 264.468C167.076 264.028 167.16 263.472 167.16 262.8C167.16 262.12 167.076 261.564 166.908 261.132C166.748 260.692 166.524 260.368 166.236 260.16C165.948 259.944 165.608 259.836 165.216 259.836C164.84 259.836 164.504 259.944 164.208 260.16C163.92 260.368 163.692 260.692 163.524 261.132C163.364 261.564 163.284 262.12 163.284 262.8C163.284 263.472 163.364 264.028 163.524 264.468C163.692 264.908 163.92 265.236 164.208 265.452C164.504 265.66 164.84 265.764 165.216 265.764ZM169.666 267V265.956L173.002 262.788C173.282 262.524 173.49 262.292 173.626 262.092C173.762 261.892 173.85 261.708 173.89 261.54C173.938 261.364 173.962 261.2 173.962 261.048C173.962 260.664 173.83 260.368 173.566 260.16C173.302 259.944 172.914 259.836 172.402 259.836C171.994 259.836 171.622 259.908 171.286 260.052C170.958 260.196 170.674 260.416 170.434 260.712L169.342 259.872C169.67 259.432 170.11 259.092 170.662 258.852C171.222 258.604 171.846 258.48 172.534 258.48C173.142 258.48 173.67 258.58 174.118 258.78C174.574 258.972 174.922 259.248 175.162 259.608C175.41 259.968 175.534 260.396 175.534 260.892C175.534 261.164 175.498 261.436 175.426 261.708C175.354 261.972 175.218 262.252 175.018 262.548C174.818 262.844 174.526 263.176 174.142 263.544L171.274 266.268L170.95 265.68H175.858V267H169.666ZM178.102 267V259.2L178.786 259.908H176.326V258.6H179.662V267H178.102Z" fill="#003879"/>
    <path d="M211.912 267V265.956L215.248 262.788C215.528 262.524 215.736 262.292 215.872 262.092C216.008 261.892 216.096 261.708 216.136 261.54C216.184 261.364 216.208 261.2 216.208 261.048C216.208 260.664 216.076 260.368 215.812 260.16C215.548 259.944 215.16 259.836 214.648 259.836C214.24 259.836 213.868 259.908 213.532 260.052C213.204 260.196 212.92 260.416 212.68 260.712L211.588 259.872C211.916 259.432 212.356 259.092 212.908 258.852C213.468 258.604 214.092 258.48 214.78 258.48C215.388 258.48 215.916 258.58 216.364 258.78C216.82 258.972 217.168 259.248 217.408 259.608C217.656 259.968 217.78 260.396 217.78 260.892C217.78 261.164 217.744 261.436 217.672 261.708C217.6 261.972 217.464 262.252 217.264 262.548C217.064 262.844 216.772 263.176 216.388 263.544L213.52 266.268L213.196 265.68H218.104V267H211.912ZM222.509 267.12C221.845 267.12 221.245 266.952 220.709 266.616C220.181 266.28 219.765 265.792 219.461 265.152C219.157 264.504 219.005 263.72 219.005 262.8C219.005 261.88 219.157 261.1 219.461 260.46C219.765 259.812 220.181 259.32 220.709 258.984C221.245 258.648 221.845 258.48 222.509 258.48C223.181 258.48 223.781 258.648 224.309 258.984C224.837 259.32 225.253 259.812 225.557 260.46C225.869 261.1 226.025 261.88 226.025 262.8C226.025 263.72 225.869 264.504 225.557 265.152C225.253 265.792 224.837 266.28 224.309 266.616C223.781 266.952 223.181 267.12 222.509 267.12ZM222.509 265.764C222.901 265.764 223.241 265.66 223.529 265.452C223.817 265.236 224.041 264.908 224.201 264.468C224.369 264.028 224.453 263.472 224.453 262.8C224.453 262.12 224.369 261.564 224.201 261.132C224.041 260.692 223.817 260.368 223.529 260.16C223.241 259.944 222.901 259.836 222.509 259.836C222.133 259.836 221.797 259.944 221.501 260.16C221.213 260.368 220.985 260.692 220.817 261.132C220.657 261.564 220.577 262.12 220.577 262.8C220.577 263.472 220.657 264.028 220.817 264.468C220.985 264.908 221.213 265.236 221.501 265.452C221.797 265.66 222.133 265.764 222.509 265.764ZM226.959 267V265.956L230.295 262.788C230.575 262.524 230.783 262.292 230.919 262.092C231.055 261.892 231.143 261.708 231.183 261.54C231.231 261.364 231.255 261.2 231.255 261.048C231.255 260.664 231.123 260.368 230.859 260.16C230.595 259.944 230.207 259.836 229.695 259.836C229.287 259.836 228.915 259.908 228.579 260.052C228.251 260.196 227.967 260.416 227.727 260.712L226.635 259.872C226.963 259.432 227.403 259.092 227.955 258.852C228.515 258.604 229.139 258.48 229.827 258.48C230.435 258.48 230.963 258.58 231.411 258.78C231.867 258.972 232.215 259.248 232.455 259.608C232.703 259.968 232.827 260.396 232.827 260.892C232.827 261.164 232.791 261.436 232.719 261.708C232.647 261.972 232.511 262.252 232.311 262.548C232.111 262.844 231.819 263.176 231.435 263.544L228.567 266.268L228.243 265.68H233.151V267H226.959ZM233.943 267V265.956L237.279 262.788C237.559 262.524 237.767 262.292 237.903 262.092C238.039 261.892 238.127 261.708 238.167 261.54C238.215 261.364 238.239 261.2 238.239 261.048C238.239 260.664 238.107 260.368 237.843 260.16C237.579 259.944 237.191 259.836 236.679 259.836C236.271 259.836 235.899 259.908 235.563 260.052C235.235 260.196 234.951 260.416 234.711 260.712L233.619 259.872C233.947 259.432 234.387 259.092 234.939 258.852C235.499 258.604 236.123 258.48 236.811 258.48C237.419 258.48 237.947 258.58 238.395 258.78C238.851 258.972 239.199 259.248 239.439 259.608C239.687 259.968 239.811 260.396 239.811 260.892C239.811 261.164 239.775 261.436 239.703 261.708C239.631 261.972 239.495 262.252 239.295 262.548C239.095 262.844 238.803 263.176 238.419 263.544L235.551 266.268L235.227 265.68H240.135V267H233.943Z" fill="#003879"/>
    <path d="M276.236 267.12C275.58 267.12 274.976 267.012 274.424 266.796C273.872 266.58 273.392 266.28 272.984 265.896C272.576 265.504 272.26 265.048 272.036 264.528C271.812 264 271.7 263.424 271.7 262.8C271.7 262.176 271.812 261.604 272.036 261.084C272.26 260.556 272.576 260.1 272.984 259.716C273.392 259.324 273.872 259.02 274.424 258.804C274.976 258.588 275.576 258.48 276.224 258.48C276.88 258.48 277.48 258.588 278.024 258.804C278.576 259.02 279.056 259.32 279.464 259.704C279.872 260.088 280.188 260.544 280.412 261.072C280.636 261.6 280.748 262.176 280.748 262.8C280.748 263.424 280.636 264 280.412 264.528C280.188 265.056 279.872 265.512 279.464 265.896C279.056 266.28 278.576 266.58 278.024 266.796C277.48 267.012 276.884 267.12 276.236 267.12ZM278.972 268.836C278.676 268.836 278.388 268.8 278.108 268.728C277.836 268.664 277.564 268.552 277.292 268.392C277.028 268.24 276.752 268.036 276.464 267.78C276.176 267.532 275.86 267.224 275.516 266.856L277.172 266.424C277.396 266.72 277.608 266.956 277.808 267.132C278.016 267.316 278.216 267.448 278.408 267.528C278.6 267.608 278.8 267.648 279.008 267.648C279.56 267.648 280.04 267.424 280.448 266.976L281.168 267.84C280.608 268.504 279.876 268.836 278.972 268.836ZM276.224 265.752C276.648 265.752 277.04 265.68 277.4 265.536C277.76 265.392 278.072 265.188 278.336 264.924C278.6 264.652 278.804 264.336 278.948 263.976C279.1 263.616 279.176 263.224 279.176 262.8C279.176 262.368 279.1 261.976 278.948 261.624C278.804 261.264 278.6 260.952 278.336 260.688C278.072 260.416 277.76 260.208 277.4 260.064C277.04 259.92 276.648 259.848 276.224 259.848C275.8 259.848 275.408 259.92 275.048 260.064C274.688 260.208 274.376 260.416 274.112 260.688C273.848 260.952 273.64 261.264 273.488 261.624C273.344 261.976 273.272 262.368 273.272 262.8C273.272 263.224 273.344 263.616 273.488 263.976C273.64 264.336 273.848 264.652 274.112 264.924C274.376 265.188 274.688 265.392 275.048 265.536C275.408 265.68 275.8 265.752 276.224 265.752ZM281.576 267V265.956L284.912 262.788C285.192 262.524 285.4 262.292 285.536 262.092C285.672 261.892 285.76 261.708 285.8 261.54C285.848 261.364 285.872 261.2 285.872 261.048C285.872 260.664 285.74 260.368 285.476 260.16C285.212 259.944 284.824 259.836 284.312 259.836C283.904 259.836 283.532 259.908 283.196 260.052C282.868 260.196 282.584 260.416 282.344 260.712L281.252 259.872C281.58 259.432 282.02 259.092 282.572 258.852C283.132 258.604 283.756 258.48 284.444 258.48C285.052 258.48 285.58 258.58 286.028 258.78C286.484 258.972 286.832 259.248 287.072 259.608C287.32 259.968 287.444 260.396 287.444 260.892C287.444 261.164 287.408 261.436 287.336 261.708C287.264 261.972 287.128 262.252 286.928 262.548C286.728 262.844 286.436 263.176 286.052 263.544L283.184 266.268L282.86 265.68H287.768V267H281.576ZM291.877 267V265.956L295.213 262.788C295.493 262.524 295.701 262.292 295.837 262.092C295.973 261.892 296.061 261.708 296.101 261.54C296.149 261.364 296.173 261.2 296.173 261.048C296.173 260.664 296.041 260.368 295.777 260.16C295.513 259.944 295.125 259.836 294.613 259.836C294.205 259.836 293.833 259.908 293.497 260.052C293.169 260.196 292.885 260.416 292.645 260.712L291.553 259.872C291.881 259.432 292.321 259.092 292.873 258.852C293.433 258.604 294.057 258.48 294.745 258.48C295.353 258.48 295.881 258.58 296.329 258.78C296.785 258.972 297.133 259.248 297.373 259.608C297.621 259.968 297.745 260.396 297.745 260.892C297.745 261.164 297.709 261.436 297.637 261.708C297.565 261.972 297.429 262.252 297.229 262.548C297.029 262.844 296.737 263.176 296.353 263.544L293.485 266.268L293.161 265.68H298.069V267H291.877ZM302.473 267.12C301.809 267.12 301.209 266.952 300.673 266.616C300.145 266.28 299.729 265.792 299.425 265.152C299.121 264.504 298.969 263.72 298.969 262.8C298.969 261.88 299.121 261.1 299.425 260.46C299.729 259.812 300.145 259.32 300.673 258.984C301.209 258.648 301.809 258.48 302.473 258.48C303.145 258.48 303.745 258.648 304.273 258.984C304.801 259.32 305.217 259.812 305.521 260.46C305.833 261.1 305.989 261.88 305.989 262.8C305.989 263.72 305.833 264.504 305.521 265.152C305.217 265.792 304.801 266.28 304.273 266.616C303.745 266.952 303.145 267.12 302.473 267.12ZM302.473 265.764C302.865 265.764 303.205 265.66 303.493 265.452C303.781 265.236 304.005 264.908 304.165 264.468C304.333 264.028 304.417 263.472 304.417 262.8C304.417 262.12 304.333 261.564 304.165 261.132C304.005 260.692 303.781 260.368 303.493 260.16C303.205 259.944 302.865 259.836 302.473 259.836C302.097 259.836 301.761 259.944 301.465 260.16C301.177 260.368 300.949 260.692 300.781 261.132C300.621 261.564 300.541 262.12 300.541 262.8C300.541 263.472 300.621 264.028 300.781 264.468C300.949 264.908 301.177 265.236 301.465 265.452C301.761 265.66 302.097 265.764 302.473 265.764ZM306.924 267V265.956L310.26 262.788C310.54 262.524 310.748 262.292 310.884 262.092C311.02 261.892 311.108 261.708 311.148 261.54C311.196 261.364 311.22 261.2 311.22 261.048C311.22 260.664 311.088 260.368 310.824 260.16C310.56 259.944 310.172 259.836 309.66 259.836C309.252 259.836 308.88 259.908 308.544 260.052C308.216 260.196 307.932 260.416 307.692 260.712L306.6 259.872C306.928 259.432 307.368 259.092 307.92 258.852C308.48 258.604 309.104 258.48 309.792 258.48C310.4 258.48 310.928 258.58 311.376 258.78C311.832 258.972 312.18 259.248 312.42 259.608C312.668 259.968 312.792 260.396 312.792 260.892C312.792 261.164 312.756 261.436 312.684 261.708C312.612 261.972 312.476 262.252 312.276 262.548C312.076 262.844 311.784 263.176 311.4 263.544L308.532 266.268L308.208 265.68H313.116V267H306.924ZM316.656 267.12C316.064 267.12 315.484 267.036 314.916 266.868C314.356 266.692 313.884 266.452 313.5 266.148L314.172 264.936C314.476 265.184 314.844 265.384 315.276 265.536C315.708 265.688 316.16 265.764 316.632 265.764C317.192 265.764 317.628 265.652 317.94 265.428C318.252 265.196 318.408 264.884 318.408 264.492C318.408 264.108 318.264 263.804 317.976 263.58C317.688 263.356 317.224 263.244 316.584 263.244H315.816V262.176L318.216 259.32L318.42 259.908H313.908V258.6H319.632V259.644L317.232 262.5L316.416 262.02H316.884C317.916 262.02 318.688 262.252 319.2 262.716C319.72 263.172 319.98 263.76 319.98 264.48C319.98 264.952 319.86 265.388 319.62 265.788C319.38 266.188 319.012 266.512 318.516 266.76C318.028 267 317.408 267.12 316.656 267.12ZM326.357 262.092H330.533V263.376H326.357V262.092ZM326.477 265.692H331.217V267H324.917V258.6H331.049V259.908H326.477V265.692Z" fill="#003879"/>
    <g opacity="0.2">
        <path d="M80.9951 240H300" stroke="#003879" stroke-dasharray="8 4"/>
        <path d="M80 195H299.005" stroke="#003879" stroke-linejoin="round" stroke-dasharray="8 4"/>
        <path d="M80.9951 150H300" stroke="#003879" stroke-linejoin="round" stroke-dasharray="8 4"/>
        <path d="M80.9951 105H300" stroke="#003879" stroke-linejoin="round" stroke-dasharray="8 4"/>
        <path d="M80.9951 60H300" stroke="#003879" stroke-linejoin="round" stroke-dasharray="8 4"/>
    </g>
    <path d="M76.5 238.5L106.5 236L164.839 232.078C165.603 232.027 166.345 231.801 167.007 231.417L225.118 197.8C226.017 197.28 226.732 196.492 227.163 195.547L289 60L303 18" stroke="#0075FF" stroke-width="4" stroke-linecap="round"/>
    <rect x="86" y="201" width="37" height="23" rx="11.5" fill="white" fill-opacity="0.8"/>
    <path d="M97.6134 217V215.956L100.949 212.788C101.229 212.524 101.437 212.292 101.573 212.092C101.709 211.892 101.797 211.708 101.837 211.54C101.885 211.364 101.909 211.2 101.909 211.048C101.909 210.664 101.777 210.368 101.513 210.16C101.249 209.944 100.861 209.836 100.349 209.836C99.9414 209.836 99.5694 209.908 99.2334 210.052C98.9054 210.196 98.6214 210.416 98.3814 210.712L97.2894 209.872C97.6174 209.432 98.0574 209.092 98.6094 208.852C99.1694 208.604 99.7934 208.48 100.481 208.48C101.089 208.48 101.617 208.58 102.065 208.78C102.521 208.972 102.869 209.248 103.109 209.608C103.357 209.968 103.481 210.396 103.481 210.892C103.481 211.164 103.445 211.436 103.373 211.708C103.301 211.972 103.165 212.252 102.965 212.548C102.765 212.844 102.473 213.176 102.089 213.544L99.2214 216.268L98.8974 215.68H103.805V217H97.6134ZM106.386 215.572L106.422 213.688L109.77 210.592H111.57L108.726 213.448L107.934 214.108L106.386 215.572ZM105.162 217V208.096H106.662V217H105.162ZM109.998 217L107.658 214.108L108.606 212.908L111.822 217H109.998Z" fill="#0075FF"/>
    <rect x="86" y="201" width="37" height="23" rx="11.5" stroke="#0075FF" stroke-width="2" stroke-linecap="square" stroke-linejoin="round"/>
    <rect x="144" y="198" width="45" height="23" rx="11.5" fill="white" fill-opacity="0.8"/>
    <path d="M155.529 212.092V211.012L159.669 205.6H161.337L157.257 211.012L156.477 210.772H163.137V212.092H155.529ZM160.137 214V212.092L160.185 210.772V209.08H161.649V214H160.137ZM163.686 214V212.956L167.022 209.788C167.302 209.524 167.51 209.292 167.646 209.092C167.782 208.892 167.87 208.708 167.91 208.54C167.958 208.364 167.982 208.2 167.982 208.048C167.982 207.664 167.85 207.368 167.586 207.16C167.322 206.944 166.934 206.836 166.422 206.836C166.014 206.836 165.642 206.908 165.306 207.052C164.978 207.196 164.694 207.416 164.454 207.712L163.362 206.872C163.69 206.432 164.13 206.092 164.682 205.852C165.242 205.604 165.866 205.48 166.554 205.48C167.162 205.48 167.69 205.58 168.138 205.78C168.594 205.972 168.942 206.248 169.182 206.608C169.43 206.968 169.554 207.396 169.554 207.892C169.554 208.164 169.518 208.436 169.446 208.708C169.374 208.972 169.238 209.252 169.038 209.548C168.838 209.844 168.546 210.176 168.162 210.544L165.294 213.268L164.97 212.68H169.878V214H163.686ZM172.458 212.572L172.494 210.688L175.842 207.592H177.642L174.798 210.448L174.006 211.108L172.458 212.572ZM171.234 214V205.096H172.734V214H171.234ZM176.07 214L173.73 211.108L174.678 209.908L177.894 214H176.07Z" fill="#0075FF"/>
    <rect x="144" y="198" width="45" height="23" rx="11.5" stroke="#0075FF" stroke-width="2" stroke-linecap="square" stroke-linejoin="round"/>
    <rect x="205" y="165" width="53" height="23" rx="11.5" fill="white" fill-opacity="0.8"/>
    <path d="M219.563 181.12C218.971 181.12 218.391 181.036 217.823 180.868C217.263 180.692 216.791 180.452 216.407 180.148L217.079 178.936C217.383 179.184 217.751 179.384 218.183 179.536C218.615 179.688 219.067 179.764 219.539 179.764C220.099 179.764 220.535 179.652 220.847 179.428C221.159 179.196 221.315 178.884 221.315 178.492C221.315 178.108 221.171 177.804 220.883 177.58C220.595 177.356 220.131 177.244 219.491 177.244H218.723V176.176L221.123 173.32L221.327 173.908H216.815V172.6H222.539V173.644L220.139 176.5L219.323 176.02H219.791C220.823 176.02 221.595 176.252 222.107 176.716C222.627 177.172 222.887 177.76 222.887 178.48C222.887 178.952 222.767 179.388 222.527 179.788C222.287 180.188 221.919 180.512 221.423 180.76C220.935 181 220.315 181.12 219.563 181.12ZM227.543 181.12C226.783 181.12 226.131 180.96 225.587 180.64C225.043 180.312 224.627 179.84 224.339 179.224C224.051 178.608 223.907 177.848 223.907 176.944C223.907 175.984 224.079 175.172 224.423 174.508C224.775 173.844 225.259 173.34 225.875 172.996C226.499 172.652 227.215 172.48 228.023 172.48C228.447 172.48 228.851 172.524 229.235 172.612C229.627 172.7 229.959 172.836 230.231 173.02L229.655 174.196C229.423 174.044 229.171 173.94 228.899 173.884C228.635 173.82 228.355 173.788 228.059 173.788C227.267 173.788 226.639 174.032 226.175 174.52C225.711 175.008 225.479 175.728 225.479 176.68C225.479 176.832 225.483 177.012 225.491 177.22C225.499 177.42 225.527 177.624 225.575 177.832L225.095 177.304C225.239 176.976 225.435 176.704 225.683 176.488C225.939 176.264 226.239 176.096 226.583 175.984C226.935 175.872 227.315 175.816 227.723 175.816C228.275 175.816 228.767 175.924 229.199 176.14C229.631 176.348 229.975 176.648 230.231 177.04C230.487 177.424 230.615 177.876 230.615 178.396C230.615 178.948 230.479 179.428 230.207 179.836C229.935 180.244 229.567 180.56 229.103 180.784C228.639 181.008 228.119 181.12 227.543 181.12ZM227.459 179.896C227.779 179.896 228.063 179.84 228.311 179.728C228.559 179.608 228.751 179.44 228.887 179.224C229.031 179.008 229.103 178.756 229.103 178.468C229.103 178.028 228.951 177.68 228.647 177.424C228.343 177.168 227.935 177.04 227.423 177.04C227.087 177.04 226.791 177.104 226.535 177.232C226.287 177.352 226.087 177.52 225.935 177.736C225.791 177.952 225.719 178.2 225.719 178.48C225.719 178.736 225.787 178.972 225.923 179.188C226.059 179.404 226.255 179.576 226.511 179.704C226.775 179.832 227.091 179.896 227.459 179.896ZM234.934 181.12C234.27 181.12 233.67 180.952 233.134 180.616C232.606 180.28 232.19 179.792 231.886 179.152C231.582 178.504 231.43 177.72 231.43 176.8C231.43 175.88 231.582 175.1 231.886 174.46C232.19 173.812 232.606 173.32 233.134 172.984C233.67 172.648 234.27 172.48 234.934 172.48C235.606 172.48 236.206 172.648 236.734 172.984C237.262 173.32 237.678 173.812 237.982 174.46C238.294 175.1 238.45 175.88 238.45 176.8C238.45 177.72 238.294 178.504 237.982 179.152C237.678 179.792 237.262 180.28 236.734 180.616C236.206 180.952 235.606 181.12 234.934 181.12ZM234.934 179.764C235.326 179.764 235.666 179.66 235.954 179.452C236.242 179.236 236.466 178.908 236.626 178.468C236.794 178.028 236.878 177.472 236.878 176.8C236.878 176.12 236.794 175.564 236.626 175.132C236.466 174.692 236.242 174.368 235.954 174.16C235.666 173.944 235.326 173.836 234.934 173.836C234.558 173.836 234.222 173.944 233.926 174.16C233.638 174.368 233.41 174.692 233.242 175.132C233.082 175.564 233.002 176.12 233.002 176.8C233.002 177.472 233.082 178.028 233.242 178.468C233.41 178.908 233.638 179.236 233.926 179.452C234.222 179.66 234.558 179.764 234.934 179.764ZM241.185 179.572L241.221 177.688L244.569 174.592H246.369L243.525 177.448L242.733 178.108L241.185 179.572ZM239.961 181V172.096H241.461V181H239.961ZM244.797 181L242.457 178.108L243.405 176.908L246.621 181H244.797Z" fill="#0075FF"/>
    <rect x="205" y="165" width="53" height="23" rx="11.5" stroke="#0075FF" stroke-width="2" stroke-linecap="square" stroke-linejoin="round"/>
    <rect x="264" y="25" width="50" height="23" rx="11.5" fill="white" fill-opacity="0.8"/>
    <path d="M277.302 41V33.2L277.986 33.908H275.526V32.6H278.862V41H277.302ZM281.464 41.084C281.192 41.084 280.96 40.992 280.768 40.808C280.576 40.616 280.48 40.376 280.48 40.088C280.48 39.784 280.576 39.544 280.768 39.368C280.96 39.184 281.192 39.092 281.464 39.092C281.736 39.092 281.968 39.184 282.16 39.368C282.352 39.544 282.448 39.784 282.448 40.088C282.448 40.376 282.352 40.616 282.16 40.808C281.968 40.992 281.736 41.084 281.464 41.084ZM286.242 41.12C285.65 41.12 285.07 41.036 284.502 40.868C283.942 40.692 283.47 40.452 283.086 40.148L283.746 38.936C284.05 39.184 284.418 39.384 284.85 39.536C285.29 39.688 285.746 39.764 286.218 39.764C286.77 39.764 287.202 39.648 287.514 39.416C287.834 39.184 287.994 38.872 287.994 38.48C287.994 38.216 287.926 37.984 287.79 37.784C287.662 37.584 287.43 37.432 287.094 37.328C286.766 37.224 286.314 37.172 285.738 37.172H283.71L284.142 32.6H289.074V33.908H284.718L285.534 33.164L285.21 36.584L284.394 35.852H286.086C286.918 35.852 287.586 35.964 288.09 36.188C288.602 36.404 288.974 36.708 289.206 37.1C289.446 37.484 289.566 37.924 289.566 38.42C289.566 38.908 289.446 39.356 289.206 39.764C288.966 40.172 288.598 40.5 288.102 40.748C287.614 40.996 286.994 41.12 286.242 41.12ZM299.01 34.52C299.522 34.52 299.974 34.62 300.366 34.82C300.766 35.02 301.078 35.328 301.302 35.744C301.526 36.152 301.638 36.68 301.638 37.328V41H300.138V37.52C300.138 36.952 300.014 36.528 299.766 36.248C299.518 35.968 299.162 35.828 298.698 35.828C298.37 35.828 298.078 35.9 297.822 36.044C297.574 36.188 297.378 36.4 297.234 36.68C297.098 36.96 297.03 37.316 297.03 37.748V41H295.53V37.52C295.53 36.952 295.406 36.528 295.158 36.248C294.91 35.968 294.554 35.828 294.09 35.828C293.762 35.828 293.47 35.9 293.214 36.044C292.966 36.188 292.77 36.4 292.626 36.68C292.49 36.96 292.422 37.316 292.422 37.748V41H290.922V34.592H292.35V36.296L292.098 35.792C292.314 35.376 292.626 35.06 293.034 34.844C293.45 34.628 293.922 34.52 294.45 34.52C295.05 34.52 295.57 34.668 296.01 34.964C296.458 35.26 296.754 35.708 296.898 36.308L296.31 36.104C296.518 35.624 296.862 35.24 297.342 34.952C297.822 34.664 298.378 34.52 299.01 34.52Z" fill="#0075FF"/>
    <rect x="264" y="25" width="50" height="23" rx="11.5" stroke="#0075FF" stroke-width="2" stroke-linecap="square" stroke-linejoin="round"/>
    <circle cx="107" cy="235" r="5" fill="white" stroke="#0075FF" stroke-width="2"/>
    <circle cx="165" cy="232" r="5" fill="white" stroke="#0075FF" stroke-width="2"/>
    <circle cx="226" cy="197" r="5" fill="white" stroke="#0075FF" stroke-width="2"/>
    <circle cx="288" cy="60" r="5" fill="white" stroke="#0075FF" stroke-width="2"/>
</svg>
