<svg width="26" height="26" viewBox="0 0 26 26" fill="none" xmlns="http://www.w3.org/2000/svg">
    <path d="M7.87231 18.0332L6.84155 18.0835L4.84311 23.8251C4.77943 24.008 4.92761 24.195 5.12022 24.1748L7.92147 23.8815C7.99972 23.8733 8.07752 23.9004 8.13378 23.9554L10.1475 25.9246C10.2859 26.06 10.5182 26.0054 10.5818 25.8225L12.5933 20.0434L12.0002 19.4677L7.87231 18.0332Z" fill="#FF4755"/>
    <path d="M12.5936 20.0433L13 18.8756L7.24703 16.9192L6.8418 18.0835C8.47543 19.2491 10.4535 19.9627 12.5936 20.0433Z" fill="#FC2B3A"/>
    <path d="M18.1272 18.0332L19.158 18.0835L21.1564 23.8251C21.2201 24.008 21.0719 24.195 20.8793 24.1748L18.0781 23.8815C17.9998 23.8733 17.922 23.9004 17.8658 23.9554L15.8521 25.9246C15.7136 26.06 15.4814 26.0054 15.4177 25.8225L13.4062 20.0434L13.9994 19.4677L18.1272 18.0332Z" fill="#FF4755"/>
    <path d="M13.4065 20.0433L13 18.8756L18.753 16.9192L19.1582 18.0835C17.5246 19.2491 15.5466 19.9627 13.4065 20.0433Z" fill="#FC2B3A"/>
    <path d="M13.0007 18.2871C3.56288 18.2871 3.56684 9.11965 3.57466 8.96208C3.82242 3.97079 7.94784 0 13.0007 0C18.0535 0 22.1789 3.97079 22.4267 8.96213C22.4345 9.1197 22.4385 18.2871 13.0007 18.2871Z" fill="#FFE27A"/>
    <path d="M13.0003 17.9242C7.94746 17.9242 3.8222 13.9534 3.57438 8.96204C3.56656 9.11961 3.5625 9.2782 3.5625 9.4377C3.5625 14.65 7.78796 18.8755 13.0003 18.8755C18.2126 18.8755 22.4381 14.65 22.4381 9.4377C22.4381 9.27815 22.434 9.11961 22.4262 8.96204C22.1784 13.9534 18.0531 17.9242 13.0003 17.9242Z" fill="#F9CF58"/>
    <path d="M13.0007 16.2564C5.58073 16.2564 5.57078 8.96009 5.58073 8.80277C5.82606 4.91821 9.05432 1.84351 13.0007 1.84351C16.9472 1.84351 20.1754 4.91821 20.4207 8.80277C20.4307 8.96004 20.4207 16.2564 13.0007 16.2564Z" fill="#FFBA57"/>
    <path d="M12.9994 15.9215C9.05307 15.9215 5.82537 12.8467 5.58004 8.96216C5.57009 9.11948 5.56445 9.27802 5.56445 9.43783C5.56445 13.544 8.89321 16.8728 12.9994 16.8728C17.1057 16.8728 20.4344 13.544 20.4344 9.43783C20.4344 9.27797 20.4288 9.11948 20.4188 8.96216C20.1735 12.8467 16.9458 15.9215 12.9994 15.9215Z" fill="#FFAC3E"/>
    <path d="M13.425 13.8542C12.9088 13.8542 12.4904 13.4357 12.4904 12.9195V12.4251V7.68136C12.4904 7.68136 11.9311 8.24223 11.262 7.90571C10.7402 7.64332 10.7402 6.96798 10.7402 6.96798L11.8926 5.02275C12.0609 4.73868 12.3666 4.56445 12.6968 4.56445H13.425C13.9412 4.56445 14.3597 4.98289 14.3597 5.49913V12.4251V12.9195C14.3597 13.4357 13.9412 13.8542 13.425 13.8542Z" fill="#FFE27A"/>
    <path d="M12.3616 6.94684C12.1136 7.36563 11.5861 7.54722 11.1462 7.33877C10.9681 7.25442 10.8309 7.12335 10.7396 6.96857C10.4801 7.40763 10.6206 7.97247 11.0527 8.23932C11.4984 8.51456 12.0939 8.35023 12.3608 7.89954L12.4901 7.68123V6.98193C12.4901 6.91175 12.3974 6.88641 12.3616 6.94684Z" fill="#F9CF58"/>
    <path d="M13.4249 13.3597C12.9087 13.3597 12.4902 12.9413 12.4902 12.425V13.3764C12.4902 13.8927 12.9087 14.3111 13.4249 14.3111C13.9411 14.3111 14.3596 13.8927 14.3596 13.3764V12.425C14.3596 12.9413 13.9411 13.3597 13.4249 13.3597Z" fill="#F9CF58"/>
</svg>
