<svg width="38" height="38" viewBox="0 0 38 38" fill="none" xmlns="http://www.w3.org/2000/svg">
    <circle cx="19" cy="19" r="19" fill="#F5FAFF"/>
    <g clip-path="url(#clip0_12281_53925)">
        <path d="M34 18.9999C34 17.1651 33.67 15.4075 33.067 13.7826L19 13.1304L4.93299 13.7825C4.33006 15.4075 4 17.1651 4 18.9999C4 20.8347 4.33006 22.5924 4.93299 24.2173L19 24.8695L33.067 24.2174C33.67 22.5924 34 20.8347 34 18.9999Z" fill="#D80027"/>
        <path d="M19.0006 33.9999C25.4501 33.9999 30.9482 29.9293 33.0676 24.2173H4.93359C7.05299 29.9293 12.5511 33.9999 19.0006 33.9999Z" fill="#6DA544"/>
        <path d="M4.93359 13.7826H33.0677C30.9482 8.07063 25.4501 4 19.0006 4C12.5511 4 7.05299 8.07063 4.93359 13.7826V13.7826Z" fill="#338AF3"/>
        <path d="M19.3263 23.2393C16.9851 23.2393 15.0872 21.3413 15.0872 19.0001C15.0872 16.659 16.9851 14.761 19.3263 14.761C20.0563 14.761 20.7432 14.9456 21.3428 15.2705C20.402 14.3505 19.1155 13.7827 17.6959 13.7827C14.8144 13.7827 12.4785 16.1186 12.4785 19.0001C12.4785 21.8815 14.8144 24.2174 17.6959 24.2174C19.1156 24.2174 20.4021 23.6496 21.3428 22.7296C20.7432 23.0547 20.0563 23.2393 19.3263 23.2393Z" fill="#F0F0F0"/>
        <path d="M22.5871 16.0654L23.1486 17.6446L24.6623 16.9249L23.9428 18.4387L25.5219 19.0002L23.9428 19.5618L24.6623 21.0755L23.1486 20.3558L22.5871 21.935L22.0257 20.3558L20.5119 21.0755L21.2316 19.5618L19.6523 19.0002L21.2316 18.4387L20.5119 16.9249L22.0257 17.6446L22.5871 16.0654Z" fill="#F0F0F0"/>
    </g>
    <defs>
        <clipPath id="clip0_12281_53925">
            <rect width="30" height="30" fill="white" transform="translate(4 4)"/>
        </clipPath>
    </defs>
</svg>
