<svg width="38" height="38" viewBox="0 0 38 38" fill="none" xmlns="http://www.w3.org/2000/svg">
    <circle cx="19" cy="19" r="19" fill="#F5FAFF"/>
    <g clip-path="url(#clip0_12262_55515)">
        <path d="M19 34C27.2843 34 34 27.2843 34 19C34 10.7157 27.2843 4 19 4C10.7157 4 4 10.7157 4 19C4 27.2843 10.7157 34 19 34Z" fill="#F0F0F0"/>
        <path d="M7.10162 9.86768C5.92336 11.4007 5.0349 13.1676 4.51758 15.087H12.321L7.10162 9.86768Z" fill="#0052B4"/>
        <path d="M33.4849 15.087C32.9676 13.1676 32.0791 11.4007 30.9009 9.86768L25.6816 15.087H33.4849Z" fill="#0052B4"/>
        <path d="M4.51758 22.9131C5.03496 24.8325 5.92342 26.5994 7.10162 28.1323L12.3208 22.9131H4.51758Z" fill="#0052B4"/>
        <path d="M28.1334 7.1007C26.6004 5.92244 24.8335 5.03398 22.9141 4.5166V12.3199L28.1334 7.1007Z" fill="#0052B4"/>
        <path d="M9.86914 30.8989C11.4021 32.0771 13.169 32.9656 15.0884 33.483V25.6797L9.86914 30.8989Z" fill="#0052B4"/>
        <path d="M15.0884 4.5166C13.169 5.03398 11.4021 5.92244 9.86914 7.10064L15.0884 12.3199V4.5166Z" fill="#0052B4"/>
        <path d="M22.9141 33.483C24.8335 32.9656 26.6004 32.0771 28.1333 30.8989L22.9141 25.6797V33.483Z" fill="#0052B4"/>
        <path d="M25.6816 22.9131L30.9009 28.1324C32.0791 26.5995 32.9676 24.8325 33.4849 22.9131H25.6816Z" fill="#0052B4"/>
        <path d="M33.873 17.0435H20.9566H20.9566V4.12697C20.3161 4.04359 19.6631 4 19 4C18.3368 4 17.6839 4.04359 17.0435 4.12697V17.0434V17.0434H4.12697C4.04359 17.6839 4 18.3369 4 19C4 19.6632 4.04359 20.3161 4.12697 20.9565H17.0434H17.0434V33.873C17.6839 33.9564 18.3368 34 19 34C19.6631 34 20.3161 33.9565 20.9565 33.873V20.9566V20.9566H33.873C33.9564 20.3161 34 19.6632 34 19C34 18.3369 33.9564 17.6839 33.873 17.0435V17.0435Z" fill="#D80027"/>
        <path d="M22.9121 22.9131L29.6056 29.6067C29.9135 29.2989 30.2071 28.9772 30.4873 28.6437L24.7568 22.9131H22.9121V22.9131Z" fill="#D80027"/>
        <path d="M15.0862 22.9131H15.086L8.39258 29.6065C8.70031 29.9144 9.02205 30.2081 9.35557 30.4883L15.0862 24.7576V22.9131Z" fill="#D80027"/>
        <path d="M15.087 15.0872V15.0871L8.39344 8.39355C8.08559 8.70129 7.79191 9.02303 7.51172 9.35654L13.2424 15.0872H15.087V15.0872Z" fill="#D80027"/>
        <path d="M22.9121 15.087L29.6057 8.39338C29.2979 8.08553 28.9762 7.79186 28.6427 7.51172L22.9121 13.2424V15.087Z" fill="#D80027"/>
    </g>
    <defs>
        <clipPath id="clip0_12262_55515">
            <rect width="30" height="30" fill="white" transform="translate(4 4)"/>
        </clipPath>
    </defs>
</svg>
