<svg width="30" height="20" viewBox="0 0 30 20" fill="none" xmlns="http://www.w3.org/2000/svg">
    <path d="M29.4827 19.6552H0.517265C0.231621 19.6552 0 19.4236 0 19.1379V0.517264C0 0.23162 0.231621 0 0.517265 0H29.4827C29.7684 0 30 0.23162 30 0.517264V19.1379C29.9999 19.4236 29.7683 19.6552 29.4827 19.6552Z" fill="#F5F5F5"/>
    <path d="M29.9999 1.51201H0V0.517264C0 0.23162 0.231621 0 0.517265 0H29.4827C29.7684 0 30 0.23162 30 0.517264L29.9999 1.51201Z" fill="#FF4B55"/>
    <path d="M29.9999 6.04761H0V7.55956H29.9999V6.04761Z" fill="#FF4B55"/>
    <path d="M29.9999 3.02368H0V4.53563H29.9999V3.02368Z" fill="#FF4B55"/>
    <path d="M29.9999 10.5835H0.517265C0.231621 10.5835 0 10.3519 0 10.0663V9.07153H29.9999V10.5835Z" fill="#FF4B55"/>
    <path d="M29.9999 15.1196H0V16.6316H29.9999V15.1196Z" fill="#FF4B55"/>
    <path d="M29.4827 19.6551H0.517265C0.231621 19.6551 0 19.4235 0 19.1379V18.1432H29.9999V19.1379C29.9999 19.4236 29.7683 19.6551 29.4827 19.6551Z" fill="#FF4B55"/>
    <path d="M29.9999 12.0957H0V13.6077H29.9999V12.0957Z" fill="#FF4B55"/>
    <path d="M13.4482 0.000244141H0.517265C0.231621 0.000244141 0 0.231806 0 0.51745V10.0665C0 10.3521 0.231621 10.5837 0.517265 10.5837H13.4483C13.7339 10.5837 13.9656 10.3521 13.9656 10.0665V0.51745C13.9655 0.231806 13.7339 0.000244141 13.4482 0.000244141Z" fill="#41479B"/>
    <path d="M1.45135 1.18716L1.56584 1.53051L1.92777 1.53327C1.97465 1.53368 1.99404 1.59344 1.95637 1.62128L1.66521 1.83631L1.77443 2.18137C1.78861 2.22602 1.7377 2.26305 1.69955 2.23575L1.40512 2.02534L1.11068 2.23581C1.07254 2.26305 1.02174 2.22608 1.0358 2.18143L1.14502 1.83637L0.853869 1.62133C0.816193 1.59344 0.835587 1.53374 0.882462 1.53333L1.2444 1.53057L1.35889 1.18721C1.37365 1.14268 1.43647 1.14268 1.45135 1.18716Z" fill="#F5F5F5"/>
    <path d="M1.45135 2.98338L1.56584 3.32674L1.92777 3.32949C1.97465 3.3299 1.99404 3.38966 1.95637 3.4175L1.66521 3.63254L1.77443 3.97759C1.78861 4.02224 1.7377 4.05927 1.69955 4.03197L1.40512 3.82156L1.11068 4.03203C1.07254 4.05927 1.02174 4.0223 1.0358 3.97765L1.14502 3.63259L0.853869 3.41756C0.816193 3.38967 0.835587 3.32996 0.882462 3.32955L1.2444 3.32679L1.35889 2.98343C1.37365 2.93896 1.43647 2.93896 1.45135 2.98338Z" fill="#F5F5F5"/>
    <path d="M1.45135 4.7794L1.56584 5.12276L1.92777 5.12551C1.97465 5.12592 1.99404 5.18569 1.95637 5.21352L1.66521 5.42856L1.77443 5.77361C1.78861 5.81826 1.7377 5.85529 1.69955 5.82799L1.40512 5.61758L1.11068 5.82805C1.07254 5.85529 1.02174 5.81832 1.0358 5.77367L1.14502 5.42861L0.853869 5.21358C0.816193 5.18569 0.835587 5.12598 0.882462 5.12557L1.2444 5.12281L1.35889 4.77946C1.37365 4.73498 1.43647 4.73498 1.45135 4.7794Z" fill="#F5F5F5"/>
    <path d="M1.45135 6.57558L1.56584 6.91894L1.92777 6.9217C1.97465 6.92211 1.99404 6.98187 1.95637 7.0097L1.66521 7.22474L1.77443 7.5698C1.78861 7.61445 1.7377 7.65148 1.69955 7.62418L1.40512 7.41377L1.11068 7.62423C1.07254 7.65148 1.02174 7.61451 1.0358 7.56986L1.14502 7.2248L0.853869 7.00976C0.816193 6.98187 0.835587 6.92216 0.882462 6.92175L1.2444 6.919L1.35889 6.57564C1.37365 6.53111 1.43647 6.53111 1.45135 6.57558Z" fill="#F5F5F5"/>
    <path d="M1.45135 8.37177L1.56584 8.71513L1.92777 8.71788C1.97465 8.71829 1.99404 8.77806 1.95637 8.80589L1.66521 9.02093L1.77443 9.36599C1.78861 9.41064 1.7377 9.44767 1.69955 9.42036L1.40512 9.20995L1.11068 9.42042C1.07254 9.44767 1.02174 9.41069 1.0358 9.36604L1.14502 9.02099L0.853869 8.80595C0.816193 8.77806 0.835587 8.71835 0.882462 8.71794L1.2444 8.71519L1.35889 8.37183C1.37365 8.32724 1.43647 8.32724 1.45135 8.37177Z" fill="#F5F5F5"/>
    <path d="M2.84588 2.06773L2.96037 2.41109L3.3223 2.41385C3.36918 2.41426 3.38857 2.47402 3.3509 2.50185L3.05975 2.71689L3.16896 3.06195C3.18314 3.1066 3.13223 3.14363 3.09408 3.11633L2.79965 2.90586L2.50522 3.11633C2.46707 3.14357 2.41627 3.1066 2.43033 3.06195L2.53955 2.71689L2.2484 2.50185C2.21072 2.47396 2.23012 2.41426 2.27699 2.41385L2.63893 2.41109L2.75342 2.06773C2.76813 2.02332 2.83106 2.02332 2.84588 2.06773Z" fill="#F5F5F5"/>
    <path d="M2.84588 3.86392L2.96037 4.20728L3.3223 4.21003C3.36918 4.21044 3.38857 4.27021 3.3509 4.29804L3.05975 4.51308L3.16896 4.85814C3.18314 4.90279 3.13223 4.93982 3.09408 4.91251L2.79965 4.70204L2.50522 4.91251C2.46707 4.93976 2.41627 4.90284 2.43033 4.85814L2.53955 4.51308L2.2484 4.29804C2.21072 4.27015 2.23012 4.21044 2.27699 4.21003L2.63893 4.20728L2.75342 3.86392C2.76813 3.81945 2.83106 3.81945 2.84588 3.86392Z" fill="#F5F5F5"/>
    <path d="M2.84588 5.66006L2.96037 6.00342L3.3223 6.00618C3.36918 6.00659 3.38857 6.06635 3.3509 6.09418L3.05975 6.30922L3.16896 6.65428C3.18314 6.69893 3.13223 6.73596 3.09408 6.70866L2.79965 6.49819L2.50522 6.70866C2.46707 6.7359 2.41627 6.69893 2.43033 6.65428L2.53955 6.30922L2.2484 6.09418C2.21072 6.06629 2.23012 6.00659 2.27699 6.00618L2.63893 6.00342L2.75342 5.66006C2.76813 5.61559 2.83106 5.61559 2.84588 5.66006Z" fill="#F5F5F5"/>
    <path d="M2.84588 7.45616L2.96037 7.79952L3.3223 7.80227C3.36918 7.80268 3.38857 7.86245 3.3509 7.89028L3.05975 8.10532L3.16896 8.45038C3.18314 8.49503 3.13223 8.53206 3.09408 8.50475L2.79965 8.29429L2.50522 8.50475C2.46707 8.532 2.41627 8.49503 2.43033 8.45038L2.53955 8.10532L2.2484 7.89028C2.21072 7.86239 2.23012 7.80268 2.27699 7.80227L2.63893 7.79952L2.75342 7.45616C2.76813 7.41175 2.83106 7.41175 2.84588 7.45616Z" fill="#F5F5F5"/>
    <path d="M4.24041 1.18716L4.3549 1.53052L4.71684 1.53328C4.76371 1.53369 4.78311 1.59345 4.74543 1.62128L4.45428 1.83632L4.5635 2.18138C4.57768 2.22603 4.52676 2.26306 4.48861 2.23575L4.19418 2.02529L3.89975 2.23575C3.8616 2.263 3.8108 2.22603 3.82486 2.18138L3.93408 1.83632L3.64293 1.62128C3.60526 1.59339 3.62465 1.53369 3.67152 1.53328L4.03346 1.53052L4.14795 1.18716C4.16272 1.14269 4.22559 1.14269 4.24041 1.18716Z" fill="#F5F5F5"/>
    <path d="M4.24041 2.98351L4.3549 3.32686L4.71684 3.32962C4.76371 3.33003 4.78311 3.38979 4.74543 3.41763L4.45428 3.63266L4.5635 3.97772C4.57768 4.02237 4.52676 4.0594 4.48861 4.0321L4.19418 3.82163L3.89975 4.0321C3.8616 4.05934 3.8108 4.02237 3.82486 3.97772L3.93408 3.63266L3.64293 3.41763C3.60526 3.38974 3.62465 3.33003 3.67152 3.32962L4.03346 3.32686L4.14795 2.98351C4.16272 2.93909 4.22559 2.93909 4.24041 2.98351Z" fill="#F5F5F5"/>
    <path d="M4.24041 4.7794L4.3549 5.12276L4.71684 5.12552C4.76371 5.12593 4.78311 5.18569 4.74543 5.21353L4.45428 5.42856L4.5635 5.77362C4.57768 5.81827 4.52676 5.8553 4.48861 5.828L4.19418 5.61753L3.89975 5.828C3.8616 5.85524 3.8108 5.81827 3.82486 5.77362L3.93408 5.42856L3.64293 5.21353C3.60526 5.18563 3.62465 5.12593 3.67152 5.12552L4.03346 5.12276L4.14795 4.7794C4.16272 4.73499 4.22559 4.73499 4.24041 4.7794Z" fill="#F5F5F5"/>
    <path d="M4.24041 6.57559L4.3549 6.91895L4.71684 6.9217C4.76371 6.92211 4.78311 6.98188 4.74543 7.00971L4.45428 7.22475L4.5635 7.56981C4.57768 7.61446 4.52676 7.65149 4.48861 7.62418L4.19418 7.41371L3.89975 7.62418C3.8616 7.65143 3.8108 7.61446 3.82486 7.56981L3.93408 7.22475L3.64293 7.00971C3.60526 6.98182 3.62465 6.92211 3.67152 6.9217L4.03346 6.91895L4.14795 6.57559C4.16272 6.53112 4.22559 6.53112 4.24041 6.57559Z" fill="#F5F5F5"/>
    <path d="M4.24041 8.37178L4.3549 8.71514L4.71684 8.71789C4.76371 8.7183 4.78311 8.77807 4.74543 8.8059L4.45428 9.02094L4.5635 9.36599C4.57768 9.41064 4.52676 9.44767 4.48861 9.42037L4.19418 9.2099L3.89975 9.42037C3.8616 9.44761 3.8108 9.41064 3.82486 9.36599L3.93408 9.02094L3.64293 8.8059C3.60526 8.77801 3.62465 8.7183 3.67152 8.71789L4.03346 8.71514L4.14795 8.37178C4.16272 8.32725 4.22559 8.32725 4.24041 8.37178Z" fill="#F5F5F5"/>
    <path d="M5.63494 2.06773L5.74943 2.41109L6.11137 2.41385C6.15824 2.41426 6.17764 2.47402 6.13996 2.50185L5.84881 2.71689L5.95803 3.06195C5.97221 3.1066 5.92129 3.14363 5.88314 3.11633L5.58871 2.90586L5.29428 3.11633C5.25613 3.14357 5.20533 3.1066 5.2194 3.06195L5.32861 2.71689L5.03746 2.50185C4.99979 2.47396 5.01918 2.41426 5.06606 2.41385L5.42799 2.41109L5.54248 2.06773C5.55719 2.02332 5.62012 2.02332 5.63494 2.06773Z" fill="#F5F5F5"/>
    <path d="M5.63494 3.86392L5.74943 4.20728L6.11137 4.21003C6.15824 4.21044 6.17764 4.27021 6.13996 4.29804L5.84881 4.51308L5.95803 4.85814C5.97221 4.90279 5.92129 4.93982 5.88314 4.91251L5.58871 4.70204L5.29428 4.91251C5.25613 4.93976 5.20533 4.90284 5.2194 4.85814L5.32861 4.51308L5.03746 4.29804C4.99979 4.27015 5.01918 4.21044 5.06606 4.21003L5.42799 4.20728L5.54248 3.86392C5.55719 3.81945 5.62012 3.81945 5.63494 3.86392Z" fill="#F5F5F5"/>
    <path d="M5.63494 5.66006L5.74943 6.00342L6.11137 6.00618C6.15824 6.00659 6.17764 6.06635 6.13996 6.09418L5.84881 6.30922L5.95803 6.65428C5.97221 6.69893 5.92129 6.73596 5.88314 6.70866L5.58871 6.49819L5.29428 6.70866C5.25613 6.7359 5.20533 6.69893 5.2194 6.65428L5.32861 6.30922L5.03746 6.09418C4.99979 6.06629 5.01918 6.00659 5.06606 6.00618L5.42799 6.00342L5.54248 5.66006C5.55719 5.61559 5.62012 5.61559 5.63494 5.66006Z" fill="#F5F5F5"/>
    <path d="M5.63494 7.45616L5.74943 7.79952L6.11137 7.80227C6.15824 7.80268 6.17764 7.86245 6.13996 7.89028L5.84881 8.10532L5.95803 8.45038C5.97221 8.49503 5.92129 8.53206 5.88314 8.50475L5.58871 8.29429L5.29428 8.50475C5.25613 8.532 5.20533 8.49503 5.2194 8.45038L5.32861 8.10532L5.03746 7.89028C4.99979 7.86239 5.01918 7.80268 5.06606 7.80227L5.42799 7.79952L5.54248 7.45616C5.55719 7.41175 5.62012 7.41175 5.63494 7.45616Z" fill="#F5F5F5"/>
    <path d="M7.02953 1.18716L7.14402 1.53052L7.50596 1.53328C7.55283 1.53369 7.57223 1.59345 7.53455 1.62128L7.2434 1.83632L7.35262 2.18138C7.3668 2.22603 7.31588 2.26306 7.27773 2.23575L6.98324 2.02529L6.68881 2.23575C6.65067 2.263 6.59986 2.22603 6.61393 2.18138L6.72315 1.83632L6.43199 1.62128C6.39432 1.59339 6.41371 1.53369 6.46059 1.53328L6.82252 1.53052L6.93701 1.18716C6.95184 1.14269 7.01471 1.14269 7.02953 1.18716Z" fill="#F5F5F5"/>
    <path d="M7.02953 2.98351L7.14402 3.32686L7.50596 3.32962C7.55283 3.33003 7.57223 3.38979 7.53455 3.41763L7.2434 3.63266L7.35262 3.97772C7.3668 4.02237 7.31588 4.0594 7.27773 4.0321L6.98324 3.82163L6.68881 4.0321C6.65067 4.05934 6.59986 4.02237 6.61393 3.97772L6.72315 3.63266L6.43199 3.41763C6.39432 3.38974 6.41371 3.33003 6.46059 3.32962L6.82252 3.32686L6.93701 2.98351C6.95184 2.93909 7.01471 2.93909 7.02953 2.98351Z" fill="#F5F5F5"/>
    <path d="M7.02953 4.7794L7.14402 5.12276L7.50596 5.12552C7.55283 5.12593 7.57223 5.18569 7.53455 5.21353L7.2434 5.42856L7.35262 5.77362C7.3668 5.81827 7.31588 5.8553 7.27773 5.828L6.98324 5.61753L6.68881 5.828C6.65067 5.85524 6.59986 5.81827 6.61393 5.77362L6.72315 5.42856L6.43199 5.21353C6.39432 5.18563 6.41371 5.12593 6.46059 5.12552L6.82252 5.12276L6.93701 4.7794C6.95184 4.73499 7.01471 4.73499 7.02953 4.7794Z" fill="#F5F5F5"/>
    <path d="M7.02953 6.57559L7.14402 6.91895L7.50596 6.9217C7.55283 6.92211 7.57223 6.98188 7.53455 7.00971L7.2434 7.22475L7.35262 7.56981C7.3668 7.61446 7.31588 7.65149 7.27773 7.62418L6.98324 7.41371L6.68881 7.62418C6.65067 7.65143 6.59986 7.61446 6.61393 7.56981L6.72315 7.22475L6.43199 7.00971C6.39432 6.98182 6.41371 6.92211 6.46059 6.9217L6.82252 6.91895L6.93701 6.57559C6.95184 6.53112 7.01471 6.53112 7.02953 6.57559Z" fill="#F5F5F5"/>
    <path d="M7.02953 8.37178L7.14402 8.71514L7.50596 8.71789C7.55283 8.7183 7.57223 8.77807 7.53455 8.8059L7.2434 9.02094L7.35262 9.36599C7.3668 9.41064 7.31588 9.44767 7.27773 9.42037L6.98324 9.2099L6.68881 9.42037C6.65067 9.44761 6.59986 9.41064 6.61393 9.36599L6.72315 9.02094L6.43199 8.8059C6.39432 8.77801 6.41371 8.7183 6.46059 8.71789L6.82252 8.71514L6.93701 8.37178C6.95184 8.32725 7.01471 8.32725 7.02953 8.37178Z" fill="#F5F5F5"/>
    <path d="M8.42205 2.06773L8.53654 2.41109L8.89848 2.41385C8.94535 2.41426 8.96474 2.47402 8.92707 2.50185L8.63592 2.71689L8.74514 3.06195C8.75932 3.1066 8.7084 3.14363 8.67025 3.11633L8.37582 2.90586L8.08139 3.11633C8.04324 3.14357 7.99244 3.1066 8.0065 3.06195L8.11572 2.71689L7.82457 2.50185C7.7869 2.47396 7.80629 2.41426 7.85317 2.41385L8.2151 2.41109L8.32959 2.06773C8.34441 2.02332 8.40723 2.02332 8.42205 2.06773Z" fill="#F5F5F5"/>
    <path d="M8.42205 3.86392L8.53654 4.20728L8.89848 4.21003C8.94535 4.21044 8.96474 4.27021 8.92707 4.29804L8.63592 4.51308L8.74514 4.85814C8.75932 4.90279 8.7084 4.93982 8.67025 4.91251L8.37582 4.70204L8.08139 4.91251C8.04324 4.93976 7.99244 4.90284 8.0065 4.85814L8.11572 4.51308L7.82457 4.29804C7.7869 4.27015 7.80629 4.21044 7.85317 4.21003L8.2151 4.20728L8.32959 3.86392C8.34441 3.81945 8.40723 3.81945 8.42205 3.86392Z" fill="#F5F5F5"/>
    <path d="M8.42205 5.66006L8.53654 6.00342L8.89848 6.00618C8.94535 6.00659 8.96474 6.06635 8.92707 6.09418L8.63592 6.30922L8.74514 6.65428C8.75932 6.69893 8.7084 6.73596 8.67025 6.70866L8.37582 6.49819L8.08139 6.70866C8.04324 6.7359 7.99244 6.69893 8.0065 6.65428L8.11572 6.30922L7.82457 6.09418C7.7869 6.06629 7.80629 6.00659 7.85317 6.00618L8.2151 6.00342L8.32959 5.66006C8.34441 5.61559 8.40723 5.61559 8.42205 5.66006Z" fill="#F5F5F5"/>
    <path d="M8.42205 7.45616L8.53654 7.79952L8.89848 7.80227C8.94535 7.80268 8.96474 7.86245 8.92707 7.89028L8.63592 8.10532L8.74514 8.45038C8.75932 8.49503 8.7084 8.53206 8.67025 8.50475L8.37582 8.29429L8.08139 8.50475C8.04324 8.532 7.99244 8.49503 8.0065 8.45038L8.11572 8.10532L7.82457 7.89028C7.7869 7.86239 7.80629 7.80268 7.85317 7.80227L8.2151 7.79952L8.32959 7.45616C8.34441 7.41175 8.40723 7.41175 8.42205 7.45616Z" fill="#F5F5F5"/>
    <path d="M9.81658 1.18716L9.93107 1.53052L10.293 1.53328C10.3399 1.53369 10.3593 1.59345 10.3216 1.62128L10.0304 1.83632L10.1397 2.18138C10.1538 2.22603 10.1029 2.26306 10.0648 2.23575L9.77035 2.02529L9.47592 2.23575C9.43777 2.263 9.38697 2.22603 9.40104 2.18138L9.51025 1.83632L9.2191 1.62128C9.18143 1.59339 9.20082 1.53369 9.2477 1.53328L9.60963 1.53052L9.72412 1.18716C9.73883 1.14269 9.80176 1.14269 9.81658 1.18716Z" fill="#F5F5F5"/>
    <path d="M9.81658 2.98351L9.93107 3.32686L10.293 3.32962C10.3399 3.33003 10.3593 3.38979 10.3216 3.41763L10.0304 3.63266L10.1397 3.97772C10.1538 4.02237 10.1029 4.0594 10.0648 4.0321L9.77035 3.82163L9.47592 4.0321C9.43777 4.05934 9.38697 4.02237 9.40104 3.97772L9.51025 3.63266L9.2191 3.41763C9.18143 3.38974 9.20082 3.33003 9.2477 3.32962L9.60963 3.32686L9.72412 2.98351C9.73883 2.93909 9.80176 2.93909 9.81658 2.98351Z" fill="#F5F5F5"/>
    <path d="M9.81658 4.7794L9.93107 5.12276L10.293 5.12552C10.3399 5.12593 10.3593 5.18569 10.3216 5.21353L10.0304 5.42856L10.1397 5.77362C10.1538 5.81827 10.1029 5.8553 10.0648 5.828L9.77035 5.61753L9.47592 5.828C9.43777 5.85524 9.38697 5.81827 9.40104 5.77362L9.51025 5.42856L9.2191 5.21353C9.18143 5.18563 9.20082 5.12593 9.2477 5.12552L9.60963 5.12276L9.72412 4.7794C9.73883 4.73499 9.80176 4.73499 9.81658 4.7794Z" fill="#F5F5F5"/>
    <path d="M9.81658 6.57559L9.93107 6.91895L10.293 6.9217C10.3399 6.92211 10.3593 6.98188 10.3216 7.00971L10.0304 7.22475L10.1397 7.56981C10.1538 7.61446 10.1029 7.65149 10.0648 7.62418L9.77035 7.41371L9.47592 7.62418C9.43777 7.65143 9.38697 7.61446 9.40104 7.56981L9.51025 7.22475L9.2191 7.00971C9.18143 6.98182 9.20082 6.92211 9.2477 6.9217L9.60963 6.91895L9.72412 6.57559C9.73883 6.53112 9.80176 6.53112 9.81658 6.57559Z" fill="#F5F5F5"/>
    <path d="M9.81658 8.37178L9.93107 8.71514L10.293 8.71789C10.3399 8.7183 10.3593 8.77807 10.3216 8.8059L10.0304 9.02094L10.1397 9.36599C10.1538 9.41064 10.1029 9.44767 10.0648 9.42037L9.77035 9.2099L9.47592 9.42037C9.43777 9.44761 9.38697 9.41064 9.40104 9.36599L9.51025 9.02094L9.2191 8.8059C9.18143 8.77801 9.20082 8.7183 9.2477 8.71789L9.60963 8.71514L9.72412 8.37178C9.73883 8.32725 9.80176 8.32725 9.81658 8.37178Z" fill="#F5F5F5"/>
    <path d="M11.2092 2.06773L11.3237 2.41109L11.6856 2.41385C11.7325 2.41426 11.7519 2.47402 11.7142 2.50185L11.423 2.71689L11.5322 3.06195C11.5464 3.1066 11.4955 3.14363 11.4574 3.11633L11.1629 2.90586L10.8685 3.11633C10.8304 3.14357 10.7796 3.1066 10.7936 3.06195L10.9028 2.71689L10.6117 2.50185C10.574 2.47396 10.5934 2.41426 10.6403 2.41385L11.0022 2.41109L11.1167 2.06773C11.1315 2.02332 11.1944 2.02332 11.2092 2.06773Z" fill="#F5F5F5"/>
    <path d="M11.2092 3.86392L11.3237 4.20728L11.6856 4.21003C11.7325 4.21044 11.7519 4.27021 11.7142 4.29804L11.423 4.51308L11.5322 4.85814C11.5464 4.90279 11.4955 4.93982 11.4574 4.91251L11.1629 4.70204L10.8685 4.91251C10.8304 4.93976 10.7796 4.90284 10.7936 4.85814L10.9028 4.51308L10.6117 4.29804C10.574 4.27015 10.5934 4.21044 10.6403 4.21003L11.0022 4.20728L11.1167 3.86392C11.1315 3.81945 11.1944 3.81945 11.2092 3.86392Z" fill="#F5F5F5"/>
    <path d="M11.2092 5.66006L11.3237 6.00342L11.6856 6.00618C11.7325 6.00659 11.7519 6.06635 11.7142 6.09418L11.423 6.30922L11.5322 6.65428C11.5464 6.69893 11.4955 6.73596 11.4574 6.70866L11.1629 6.49819L10.8685 6.70866C10.8304 6.7359 10.7796 6.69893 10.7936 6.65428L10.9028 6.30922L10.6117 6.09418C10.574 6.06629 10.5934 6.00659 10.6403 6.00618L11.0022 6.00342L11.1167 5.66006C11.1315 5.61559 11.1944 5.61559 11.2092 5.66006Z" fill="#F5F5F5"/>
    <path d="M11.2092 7.45616L11.3237 7.79952L11.6856 7.80227C11.7325 7.80268 11.7519 7.86245 11.7142 7.89028L11.423 8.10532L11.5322 8.45038C11.5464 8.49503 11.4955 8.53206 11.4574 8.50475L11.1629 8.29429L10.8685 8.50475C10.8304 8.532 10.7796 8.49503 10.7936 8.45038L10.9028 8.10532L10.6117 7.89028C10.574 7.86239 10.5934 7.80268 10.6403 7.80227L11.0022 7.79952L11.1167 7.45616C11.1315 7.41175 11.1944 7.41175 11.2092 7.45616Z" fill="#F5F5F5"/>
    <path d="M12.6037 1.18716L12.7182 1.53052L13.0801 1.53328C13.127 1.53369 13.1464 1.59345 13.1087 1.62128L12.8176 1.83632L12.9268 2.18138C12.941 2.22603 12.89 2.26306 12.8519 2.23575L12.5575 2.02529L12.263 2.23575C12.2249 2.263 12.1741 2.22603 12.1881 2.18138L12.2974 1.83632L12.0062 1.62128C11.9685 1.59339 11.9879 1.53369 12.0348 1.53328L12.3967 1.53052L12.5112 1.18716C12.526 1.14269 12.5888 1.14269 12.6037 1.18716Z" fill="#F5F5F5"/>
    <path d="M12.6037 2.98351L12.7182 3.32686L13.0801 3.32962C13.127 3.33003 13.1464 3.38979 13.1087 3.41763L12.8176 3.63266L12.9268 3.97772C12.941 4.02237 12.89 4.0594 12.8519 4.0321L12.5575 3.82163L12.263 4.0321C12.2249 4.05934 12.1741 4.02237 12.1881 3.97772L12.2974 3.63266L12.0062 3.41763C11.9685 3.38974 11.9879 3.33003 12.0348 3.32962L12.3967 3.32686L12.5112 2.98351C12.526 2.93909 12.5888 2.93909 12.6037 2.98351Z" fill="#F5F5F5"/>
    <path d="M12.6037 4.7794L12.7182 5.12276L13.0801 5.12552C13.127 5.12593 13.1464 5.18569 13.1087 5.21353L12.8176 5.42856L12.9268 5.77362C12.941 5.81827 12.89 5.8553 12.8519 5.828L12.5575 5.61753L12.263 5.828C12.2249 5.85524 12.1741 5.81827 12.1881 5.77362L12.2974 5.42856L12.0062 5.21353C11.9685 5.18563 11.9879 5.12593 12.0348 5.12552L12.3967 5.12276L12.5112 4.7794C12.526 4.73499 12.5888 4.73499 12.6037 4.7794Z" fill="#F5F5F5"/>
    <path d="M12.6037 6.57559L12.7182 6.91895L13.0801 6.9217C13.127 6.92211 13.1464 6.98188 13.1087 7.00971L12.8176 7.22475L12.9268 7.56981C12.941 7.61446 12.89 7.65149 12.8519 7.62418L12.5575 7.41371L12.263 7.62418C12.2249 7.65143 12.1741 7.61446 12.1881 7.56981L12.2974 7.22475L12.0062 7.00971C11.9685 6.98182 11.9879 6.92211 12.0348 6.9217L12.3967 6.91895L12.5112 6.57559C12.526 6.53112 12.5888 6.53112 12.6037 6.57559Z" fill="#F5F5F5"/>
    <path d="M12.6037 8.37178L12.7182 8.71514L13.0801 8.71789C13.127 8.7183 13.1464 8.77807 13.1087 8.8059L12.8176 9.02094L12.9268 9.36599C12.941 9.41064 12.89 9.44767 12.8519 9.42037L12.5575 9.2099L12.263 9.42037C12.2249 9.44761 12.1741 9.41064 12.1881 9.36599L12.2974 9.02094L12.0062 8.8059C11.9685 8.77801 11.9879 8.7183 12.0348 8.71789L12.3967 8.71514L12.5112 8.37178C12.526 8.32725 12.5888 8.32725 12.6037 8.37178Z" fill="#F5F5F5"/>
</svg>
