<svg width="136" height="48" viewBox="0 0 136 48" fill="none" xmlns="http://www.w3.org/2000/svg">
    <path d="M39.5302 24.3404V31.4763C39.5276 31.9213 39.4097 32.3581 39.188 32.7438C38.9662 33.1295 38.6483 33.451 38.2652 33.677L32.0887 37.2375C31.7061 37.4657 31.2691 37.5862 30.8237 37.5862C30.3784 37.5862 29.9413 37.4657 29.5588 37.2375L23.3822 33.677C22.9991 33.451 22.6812 33.1295 22.4594 32.7438C22.2378 32.3581 22.1198 31.9213 22.1173 31.4763V29.4735L25.2796 27.6364V31.1178L30.8138 34.3322L36.348 31.1178V24.7039L30.8138 21.4895L17.848 29.0062C17.4619 29.2239 17.0263 29.3384 16.583 29.3384C16.1399 29.3384 15.7042 29.2239 15.3181 29.0062L9.14155 25.4308C8.76436 25.2015 8.45255 24.8788 8.23613 24.4937C8.01978 24.1087 7.90618 23.6744 7.90625 23.2327V16.0967C7.90881 15.6517 8.02674 15.215 8.24848 14.8293C8.47016 14.4436 8.78815 14.122 9.17118 13.8961L15.3477 10.3356C15.7311 10.1096 16.1678 9.99048 16.6127 9.99048C17.0576 9.99048 17.4943 10.1096 17.8777 10.3356L24.0542 13.8961C24.4373 14.122 24.7553 14.4436 24.9769 14.8293C25.1987 15.215 25.3166 15.6517 25.3192 16.0967V18.0995L22.137 19.9243V16.4627L16.6028 13.2483L11.0686 16.4627V22.8692L16.6028 26.0836L29.5686 18.5669C29.9547 18.3491 30.3904 18.2348 30.8336 18.2348C31.2768 18.2348 31.7124 18.3491 32.0985 18.5669L38.2751 22.1422C38.656 22.3692 38.9717 22.6909 39.1916 23.0761C39.4116 23.4612 39.5282 23.8968 39.5302 24.3404Z" fill="white"/>
    <path d="M50.5362 34.0699V28.509C51.139 29.2681 52.2335 29.6934 53.5009 29.6934C56.7374 29.6934 58.9239 27.3938 58.9239 23.8877C58.9239 20.3816 56.9153 18.082 53.7703 18.082C52.32 18.082 51.2033 18.6186 50.5337 19.489V18.2526H47.4355V34.0625L50.5362 34.0699ZM53.118 27.0131C51.4429 27.0131 50.3509 25.762 50.3509 23.8877C50.3509 22.0135 51.4429 20.74 53.118 20.74C54.7461 20.74 55.8628 21.9764 55.8628 23.8877C55.8628 25.7991 54.7535 27.0131 53.118 27.0131Z" fill="white"/>
    <path d="M65.9666 29.6934C69.4258 29.6934 71.8961 27.2356 71.8961 23.8877C71.8961 20.5398 69.4258 18.082 65.9666 18.082C62.5077 18.082 60.0371 20.5373 60.0371 23.8877C60.0371 27.2381 62.5077 29.6934 65.9666 29.6934ZM65.9666 27.0131C64.294 27.0131 63.1551 25.7397 63.1551 23.8877C63.1551 22.0357 64.2965 20.74 65.9666 20.74C67.6368 20.74 68.778 22.011 68.778 23.8877C68.778 25.7644 67.6413 27.0131 65.9666 27.0131Z" fill="white"/>
    <path d="M76.8778 29.5155V13.3694H73.7773V29.5155H76.8778Z" fill="white"/>
    <path d="M86.1998 18.26L83.8576 25.5172L81.493 18.26H78.3184L82.3997 29.4239L80.7493 34.0699H83.7143L85.3076 29.4733L89.3915 18.2649L86.1998 18.26Z" fill="white"/>
    <path d="M98.102 19.3776C97.4765 18.5963 96.3727 18.082 95.0009 18.082C91.7205 18.082 89.7363 20.3816 89.7363 23.8877C89.7363 27.3938 91.7126 29.6934 95.0456 29.6934C96.3622 29.6934 97.5435 29.1989 98.1243 28.3755V29.8591C98.1243 30.9074 97.4325 31.6443 96.4963 31.6443H91.3197V34.0798H96.9877C99.5296 34.0798 101.225 32.5394 101.225 30.1928V18.26H98.102V19.3776ZM95.537 27.0131C93.8847 27.0131 92.7927 25.7768 92.7927 23.8877C92.7927 21.9986 93.8847 20.74 95.537 20.74C97.1901 20.74 98.3017 21.9764 98.3017 23.8877C98.3017 25.7991 97.2098 27.0131 95.537 27.0131Z" fill="white"/>
    <path d="M109.043 29.6934C112.502 29.6934 114.972 27.2356 114.972 23.8877C114.972 20.5398 112.502 18.082 109.043 18.082C105.584 18.082 103.113 20.5373 103.113 23.8877C103.113 27.2381 105.584 29.6934 109.043 29.6934ZM109.043 27.0131C107.368 27.0131 106.231 25.7397 106.231 23.8877C106.231 22.0357 107.368 20.74 109.043 20.74C110.718 20.74 111.855 22.011 111.855 23.8877C111.855 25.7644 110.715 27.0131 109.043 27.0131Z" fill="white"/>
    <path d="M119.799 29.5154V23.3511C119.799 21.8997 120.757 20.8514 122.118 20.8514C123.413 20.8514 124.283 21.8404 124.283 23.1953V29.5154H127.405V22.503C127.405 19.9118 125.756 18.082 123.206 18.082C121.666 18.082 120.419 18.7298 119.794 19.8129V18.26H116.676V29.5154H119.799Z" fill="white"/>
</svg>
