<svg  viewBox="0 0 73 46" fill="none" xmlns="http://www.w3.org/2000/svg">
<path fill-rule="evenodd" clip-rule="evenodd" d="M1.50407 26.1812C1.64731 26.3042 1.83158 26.367 2.01936 26.3582L4.56957 26.3493C4.75647 26.3688 4.94424 26.3157 5.09359 26.1989C5.20887 26.0475 5.26127 25.8572 5.24206 25.6679V19.7207C5.73638 20.1525 6.30843 20.4835 6.92765 20.6942C7.60101 20.9322 8.31018 21.0517 9.02371 21.0482C10.0744 21.0729 11.1075 20.7632 11.9757 20.1632C12.8735 19.5021 13.5774 18.6056 14.0106 17.5701C14.5355 16.3267 14.7914 14.9842 14.7617 13.6319C14.8604 11.769 14.3233 9.92904 13.242 8.41924C12.2604 7.15281 10.7425 6.43684 9.15472 6.48994C8.35821 6.49083 7.56957 6.64747 6.83158 6.95014C6.11018 7.23953 5.45079 7.66964 4.89271 8.21569L4.70058 7.50769C4.64643 7.13865 4.3163 6.87757 3.94949 6.91474H2.01062C1.82896 6.90058 1.64905 6.95368 1.50407 7.06519C1.3818 7.21299 1.32504 7.40503 1.34687 7.59619V25.6502C1.32504 25.8413 1.3818 26.0334 1.50407 26.1812ZM10.1067 17.0391C9.59489 17.7462 8.75996 18.1374 7.89708 18.0746L7.88834 18.0834C6.96258 18.087 6.05428 17.8268 5.26826 17.3312V10.2069C6.0604 9.72638 6.9652 9.47327 7.88834 9.47239C8.75821 9.40159 9.60188 9.79364 10.1154 10.5078C10.6551 11.5114 10.8979 12.6513 10.8141 13.7912C10.8971 14.9204 10.6508 16.0497 10.1067 17.0391Z" fill="#8FB6DC"/>
<path fill-rule="evenodd" clip-rule="evenodd" d="M17.8151 20.7846C17.5073 20.8451 17.2106 20.632 17.153 20.3078C17.1401 20.2356 17.1401 20.1615 17.153 20.0893V7.34813C17.1315 7.15309 17.1874 6.95714 17.3078 6.80634C17.4505 6.69256 17.6277 6.63838 17.8065 6.65283H19.7069C20.0681 6.61491 20.3931 6.88129 20.4464 7.25783L20.7904 8.73874C21.3553 8.04434 22.0304 7.45739 22.7853 7.005C23.401 6.66638 24.0855 6.49029 24.7803 6.49029H25.1501C25.3367 6.47314 25.5233 6.52732 25.6746 6.6438C25.795 6.7946 25.8509 6.99055 25.8294 7.18559V9.51531C25.844 9.70313 25.7924 9.88914 25.6832 10.039C25.5396 10.1655 25.353 10.2242 25.1673 10.2016H24.6943C24.4991 10.2016 24.2532 10.2016 23.9548 10.2016C23.4578 10.2124 22.9625 10.2729 22.4758 10.3822C21.9684 10.4806 21.4731 10.635 20.9968 10.8427V20.0983C21.0105 20.2862 20.9589 20.4722 20.8506 20.6221C20.707 20.7485 20.5204 20.8072 20.3346 20.7846H17.8151Z" fill="#8FB6DC"/>
<path fill-rule="evenodd" clip-rule="evenodd" d="M28.0671 3.88639C28.5425 4.28765 29.1552 4.49415 29.7799 4.46349C30.4091 4.49415 31.0255 4.28404 31.5018 3.87737C31.9433 3.47069 32.1805 2.89359 32.1521 2.29936C32.1805 1.70512 31.9433 1.12802 31.5018 0.721342C30.498 -0.0694677 29.0709 -0.0694677 28.0671 0.721342C27.6229 1.12982 27.3856 1.71053 27.4168 2.30837C27.3884 2.90261 27.6256 3.47971 28.0671 3.88639ZM27.7282 20.3085C27.7896 20.6323 28.1056 20.8451 28.4335 20.7847L31.1263 20.7756C31.3241 20.7982 31.5229 20.7396 31.6758 20.6133C31.7922 20.4636 31.8471 20.2779 31.8315 20.0903V7.35801C31.8517 7.16505 31.7967 6.97118 31.6758 6.81698C31.5192 6.69795 31.3223 6.64385 31.1263 6.66369H28.4243C28.2338 6.64926 28.0451 6.70336 27.8931 6.81698C27.7648 6.96757 27.7053 7.16324 27.7282 7.35801V20.0903C27.7145 20.1625 27.7145 20.2364 27.7282 20.3085Z" fill="#8FB6DC"/>
<path fill-rule="evenodd" clip-rule="evenodd" d="M36.0117 20.7848C35.6923 20.8441 35.3845 20.6351 35.3247 20.3172C35.3114 20.2464 35.3114 20.1738 35.3247 20.1029V7.60754C35.3024 7.41626 35.3604 7.22409 35.4853 7.0762C35.6334 6.96461 35.8172 6.91148 36.0028 6.92565H37.9745C38.3492 6.88846 38.6865 7.1497 38.7418 7.51898L38.9648 8.254C39.7767 7.69875 40.6546 7.24711 41.5789 6.90794C42.3417 6.64404 43.1438 6.50678 43.9521 6.50058C45.3581 6.38102 46.7089 7.06911 47.4316 8.27172C48.2461 7.71558 49.1312 7.26925 50.0635 6.94336C50.8861 6.67149 51.7479 6.53423 52.6151 6.536C53.7107 6.47047 54.7849 6.8548 55.5861 7.59868C56.3248 8.40278 56.7048 9.46989 56.6388 10.5565V20.1118C56.6531 20.296 56.5996 20.4784 56.4872 20.6254C56.3382 20.7494 56.1446 20.8069 55.9518 20.7848H53.3556C53.0362 20.8441 52.7284 20.6351 52.6686 20.3172C52.6553 20.2464 52.6553 20.1738 52.6686 20.1029V11.3889C52.6686 10.1553 52.1128 9.53808 51.0003 9.53808C49.9636 9.54959 48.942 9.79224 48.0115 10.2465V20.1118C48.0266 20.296 47.9731 20.4784 47.8598 20.6254C47.7108 20.7494 47.5172 20.8069 47.3245 20.7848H44.7015C44.3821 20.8441 44.0743 20.6351 44.0145 20.3172C44.0011 20.2464 44.0011 20.1738 44.0145 20.1029V11.3889C44.0145 10.1553 43.4587 9.53808 42.3462 9.53808C41.297 9.54428 40.2638 9.79667 39.3306 10.2731V20.1029C39.3449 20.2871 39.2913 20.4695 39.1789 20.6166C39.0299 20.7405 38.8363 20.7981 38.6436 20.776L36.0117 20.7848Z" fill="#8FB6DC"/>
<path fill-rule="evenodd" clip-rule="evenodd" d="M60.8483 18.8827C62.2774 20.2215 64.1946 20.9077 66.1462 20.7797C67.6223 20.8051 69.0894 20.5555 70.475 20.0445C70.6652 19.9882 70.8354 19.8784 70.964 19.7268C71.0645 19.5344 71.108 19.3174 71.0908 19.1005V17.8207C71.0908 17.3914 70.9341 17.1762 70.6199 17.1762H70.484H70.321C69.6473 17.3587 68.9644 17.5048 68.2744 17.6119C67.7726 17.6782 67.2673 17.7118 66.762 17.7118C65.7287 17.7907 64.6999 17.5048 63.855 16.9039C63.1413 16.1996 62.7374 15.2393 62.732 14.2354C63.6213 14.4514 64.5342 14.5549 65.4488 14.544C67.0626 14.6493 68.6719 14.2771 70.0765 13.4729C71.1198 12.7713 71.7184 11.5713 71.6523 10.3142C71.7084 9.02983 71.1705 7.79085 70.1942 6.95579C69.0405 6.06173 67.6024 5.61606 66.1462 5.70319C64.1774 5.59155 62.2566 6.34401 60.8846 7.76362C59.5678 9.34843 58.9067 11.3789 59.0371 13.4366C58.8886 15.4217 59.5415 17.3832 60.8483 18.8827ZM67.2963 11.6031C66.666 11.9398 65.9533 12.0905 65.2406 12.0388H65.2224C64.3992 12.0433 63.5769 11.9671 62.7682 11.8119C63.0463 9.62164 64.075 8.52607 65.8564 8.52607C67.2447 8.52607 67.9393 9.10971 67.9393 10.2779C67.9737 10.8025 67.7292 11.3063 67.2963 11.6031Z" fill="#8FB6DC"/>
<path fill-rule="evenodd" clip-rule="evenodd" d="M64.7642 36.0216C56.9857 41.6512 45.7087 44.6403 36.0033 44.6403C23.0338 44.7083 10.5048 40.026 0.866897 31.5075C0.138773 30.8626 0.786981 29.9824 1.66606 30.4792C12.373 36.4791 24.491 39.6303 36.8202 39.6207C46.0203 39.5728 55.121 37.7454 63.601 34.2439C64.9507 33.6948 66.0517 35.0543 64.7642 36.0216Z" fill="#8FB6DC"/>
<path fill-rule="evenodd" clip-rule="evenodd" d="M68.0462 32.1433C67.0429 30.9108 61.4174 31.5572 58.8824 31.8503C58.112 31.9365 57.9866 31.2986 58.6853 30.8332C63.1642 27.7992 70.5365 28.6784 71.3875 29.6954C72.2385 30.7125 71.1635 37.8062 66.9086 41.1936C66.2636 41.7108 65.6455 41.4349 65.9322 40.7454C66.8907 38.4268 69.0137 33.3414 68.0462 32.1433Z" fill="#8FB6DC"/>
</svg>
