<svg width="104" height="30" viewBox="0 0 104 30" fill="none" xmlns="http://www.w3.org/2000/svg">
    <g clip-path="url(#clip0_11797_129035)">
        <rect x="0.35" y="0.35" width="103.3" height="29.3" rx="4.65" fill="black" stroke="#A6A6A6" stroke-width="0.7"/>
        <path d="M26.1291 15.2255C26.1372 14.5995 26.304 13.9857 26.6139 13.4412C26.9237 12.8968 27.3667 12.4393 27.9015 12.1114C27.5618 11.6276 27.1136 11.2294 26.5925 10.9485C26.0714 10.6675 25.4918 10.5117 24.8997 10.4932C23.6368 10.361 22.4124 11.2468 21.7688 11.2468C21.1128 11.2468 20.1219 10.5063 19.0548 10.5282C18.3646 10.5504 17.692 10.7506 17.1024 11.1091C16.5129 11.4677 16.0265 11.9724 15.6907 12.5741C14.2362 15.0854 15.3211 18.7762 16.7145 20.8062C17.4116 21.8002 18.2264 22.9105 19.2924 22.8711C20.3356 22.828 20.7253 22.2078 21.9845 22.2078C23.2321 22.2078 23.5976 22.8711 24.6853 22.8461C25.8048 22.828 26.51 21.8477 27.1827 20.8443C27.6836 20.136 28.069 19.3532 28.3247 18.5249C27.6744 18.2506 27.1194 17.7914 26.7289 17.2047C26.3385 16.618 26.1299 15.9296 26.1291 15.2255Z" fill="white"/>
        <path d="M24.0746 9.15813C24.6849 8.42747 24.9856 7.48834 24.9128 6.54016C23.9803 6.63783 23.119 7.08225 22.5004 7.78487C22.1979 8.12812 21.9663 8.52744 21.8187 8.96002C21.6711 9.3926 21.6104 9.84994 21.6402 10.3059C22.1066 10.3107 22.568 10.2099 22.9897 10.0111C23.4114 9.81226 23.7823 9.52062 24.0746 9.15813Z" fill="white"/>
        <path d="M39.3154 20.3546H35.7554L34.9005 22.8719H33.3926L36.7646 13.5584H38.3312L41.7032 22.8719H40.1696L39.3154 20.3546ZM36.1241 19.193H38.946L37.5549 15.1075H37.516L36.1241 19.193Z" fill="white"/>
        <path d="M48.9845 19.4773C48.9845 21.5874 47.852 22.9432 46.1428 22.9432C45.7099 22.9657 45.2793 22.8663 44.9004 22.6562C44.5215 22.4461 44.2096 22.1338 44.0004 21.7552H43.968V25.1184H42.5703V16.0818H43.9232V17.2112H43.949C44.1678 16.8344 44.485 16.5237 44.8668 16.3123C45.2485 16.101 45.6807 15.9967 46.1171 16.0108C47.8453 16.0108 48.9845 17.3731 48.9845 19.4773ZM47.5479 19.4773C47.5479 18.1026 46.8354 17.1988 45.7484 17.1988C44.6805 17.1988 43.9622 18.1216 43.9622 19.4773C43.9622 20.8455 44.6805 21.7618 45.7484 21.7618C46.8354 21.7618 47.5479 20.8645 47.5479 19.4773Z" fill="white"/>
        <path d="M56.4787 19.4773C56.4787 21.5874 55.3461 22.9431 53.637 22.9431C53.204 22.9657 52.7734 22.8663 52.3945 22.6562C52.0156 22.4461 51.7037 22.1338 51.4945 21.7551H51.4622V25.1184H50.0645V16.0818H51.4174V17.2112H51.4431C51.6619 16.8344 51.9791 16.5237 52.3609 16.3123C52.7427 16.101 53.1748 15.9967 53.6112 16.0108C55.3395 16.0108 56.4787 17.3731 56.4787 19.4773ZM55.042 19.4773C55.042 18.1026 54.3296 17.1988 53.2426 17.1988C52.1746 17.1988 51.4563 18.1216 51.4563 19.4773C51.4563 20.8455 52.1746 21.7618 53.2426 21.7618C54.3296 21.7618 55.042 20.8645 55.042 19.4773H55.042Z" fill="white"/>
        <path d="M61.4327 20.2773C61.5363 21.2009 62.436 21.8073 63.6656 21.8073C64.8437 21.8073 65.6912 21.2009 65.6912 20.3681C65.6912 19.6452 65.18 19.2124 63.9696 18.9157L62.7592 18.6249C61.0442 18.2119 60.248 17.4121 60.248 16.1142C60.248 14.5073 61.6524 13.4035 63.6465 13.4035C65.62 13.4035 66.9729 14.5073 67.0184 16.1142H65.6075C65.523 15.1848 64.7526 14.6237 63.6266 14.6237C62.5007 14.6237 61.7302 15.1914 61.7302 16.0175C61.7302 16.676 62.2223 17.0634 63.4261 17.36L64.4551 17.612C66.3713 18.0639 67.1675 18.8315 67.1675 20.1938C67.1675 21.9362 65.7757 23.0275 63.562 23.0275C61.4907 23.0275 60.0923 21.9618 60.002 20.2773L61.4327 20.2773Z" fill="white"/>
        <path d="M70.1835 14.4749V16.0818H71.4783V17.1856H70.1835V20.929C70.1835 21.5106 70.4427 21.7816 71.0119 21.7816C71.1657 21.7789 71.3191 21.7681 71.4717 21.7493V22.8465C71.2158 22.8942 70.9557 22.9158 70.6954 22.9109C69.3168 22.9109 68.7791 22.3946 68.7791 21.0777V17.1856H67.7891V16.0818H68.7791V14.4749H70.1835Z" fill="white"/>
        <path d="M72.2285 19.4775C72.2285 17.341 73.4903 15.9985 75.458 15.9985C77.4323 15.9985 78.6883 17.341 78.6883 19.4775C78.6883 21.6198 77.4389 22.9565 75.458 22.9565C73.4778 22.9565 72.2285 21.6198 72.2285 19.4775ZM77.2641 19.4775C77.2641 18.0119 76.5906 17.1469 75.458 17.1469C74.3254 17.1469 73.6527 18.0185 73.6527 19.4775C73.6527 20.9489 74.3254 21.8073 75.458 21.8073C76.5906 21.8073 77.2641 20.9489 77.2641 19.4775H77.2641Z" fill="white"/>
        <path d="M79.8418 16.0818H81.1749V17.2375H81.2072C81.2974 16.8765 81.5095 16.5575 81.8077 16.3341C82.106 16.1107 82.4723 15.9965 82.8451 16.0107C83.0062 16.0101 83.1668 16.0276 83.324 16.0627V17.3664C83.1206 17.3045 82.9085 17.276 82.696 17.2822C82.4929 17.274 82.2905 17.3097 82.1026 17.3868C81.9147 17.464 81.7457 17.5808 81.6074 17.7292C81.469 17.8776 81.3645 18.0542 81.301 18.2467C81.2375 18.4392 81.2165 18.6431 81.2395 18.8444V22.872H79.8418L79.8418 16.0818Z" fill="white"/>
        <path d="M89.7674 20.8779C89.5794 22.1105 88.3756 22.9565 86.8354 22.9565C84.8545 22.9565 83.625 21.633 83.625 19.5097C83.625 17.3798 84.8611 15.9985 86.7766 15.9985C88.6606 15.9985 89.8453 17.289 89.8453 19.3478V19.8254H85.0359V19.9096C85.0137 20.1595 85.0451 20.4113 85.128 20.6481C85.2108 20.885 85.3433 21.1016 85.5166 21.2835C85.6898 21.4654 85.8999 21.6085 86.1328 21.7032C86.3658 21.798 86.6163 21.8422 86.8677 21.8329C87.198 21.8638 87.5295 21.7875 87.8128 21.6154C88.0961 21.4434 88.3162 21.1847 88.4402 20.8779L89.7674 20.8779ZM85.0425 18.8513H88.4468C88.4594 18.6266 88.4252 18.4017 88.3465 18.1908C88.2678 17.9799 88.1462 17.7875 87.9893 17.6257C87.8325 17.4638 87.6438 17.3361 87.4352 17.2504C87.2265 17.1648 87.0023 17.123 86.7766 17.1279C86.549 17.1265 86.3234 17.1701 86.1128 17.2562C85.9022 17.3422 85.7107 17.469 85.5495 17.6293C85.3883 17.7895 85.2605 17.98 85.1735 18.1897C85.0865 18.3994 85.042 18.6243 85.0425 18.8513V18.8513Z" fill="white"/>
        <path d="M35.9491 6.54847C36.2421 6.5275 36.5362 6.57165 36.81 6.67772C37.0839 6.7838 37.3307 6.94916 37.5327 7.16188C37.7347 7.3746 37.8869 7.62937 37.9782 7.90782C38.0695 8.18628 38.0977 8.48147 38.0607 8.7721C38.0607 10.2018 37.2859 11.0236 35.9491 11.0236H34.3281V6.54847H35.9491ZM35.0251 10.3907H35.8713C36.0806 10.4032 36.2902 10.369 36.4846 10.2905C36.6791 10.212 36.8535 10.0913 36.9953 9.93716C37.1371 9.78299 37.2426 9.59923 37.3042 9.39927C37.3657 9.1993 37.3818 8.98817 37.3512 8.78122C37.3796 8.5751 37.3619 8.36527 37.2994 8.16677C37.2369 7.96827 37.1311 7.78602 36.9896 7.63307C36.8482 7.48013 36.6746 7.36027 36.4812 7.28209C36.2879 7.20392 36.0796 7.16935 35.8713 7.18088H35.0251V10.3907Z" fill="white"/>
        <path d="M38.8494 9.33291C38.8281 9.11097 38.8535 8.88705 38.9241 8.67549C38.9947 8.46394 39.1088 8.26944 39.2592 8.10445C39.4096 7.93946 39.5929 7.80764 39.7973 7.71743C40.0018 7.62722 40.2229 7.58063 40.4465 7.58063C40.6701 7.58063 40.8912 7.62722 41.0956 7.71743C41.3001 7.80764 41.4834 7.93946 41.6338 8.10445C41.7841 8.26944 41.8983 8.46394 41.9689 8.67549C42.0394 8.88705 42.0649 9.11097 42.0436 9.33291C42.0653 9.55508 42.0401 9.77931 41.9697 9.99121C41.8994 10.2031 41.7853 10.398 41.6349 10.5633C41.4845 10.7286 41.301 10.8607 41.0964 10.9511C40.8917 11.0415 40.6703 11.0882 40.4465 11.0882C40.2226 11.0882 40.0013 11.0415 39.7966 10.9511C39.5919 10.8607 39.4085 10.7286 39.2581 10.5633C39.1077 10.398 38.9936 10.2031 38.9232 9.99121C38.8528 9.77931 38.8277 9.55508 38.8494 9.33291ZM41.3561 9.33291C41.3561 8.60086 41.0263 8.17276 40.4476 8.17276C39.8666 8.17276 39.5398 8.60086 39.5398 9.33292C39.5398 10.0708 39.8666 10.4956 40.4476 10.4956C41.0264 10.4956 41.3561 10.0679 41.3561 9.33291H41.3561Z" fill="white"/>
        <path d="M46.2889 11.0234H45.5955L44.8956 8.53607H44.8427L44.1457 11.0234H43.4589L42.5254 7.64618H43.2033L43.81 10.2232H43.8599L44.5562 7.64618H45.1974L45.8937 10.2232H45.9466L46.5503 7.64618H47.2187L46.2889 11.0234Z" fill="white"/>
        <path d="M48.0039 7.64621H48.6473V8.18271H48.6973C48.782 7.99002 48.9249 7.82849 49.106 7.72064C49.2872 7.61278 49.4976 7.56398 49.7079 7.58102C49.8727 7.56867 50.0381 7.59344 50.192 7.65352C50.3459 7.71359 50.4843 7.80742 50.5968 7.92805C50.7094 8.04868 50.7933 8.19303 50.8424 8.35039C50.8914 8.50776 50.9043 8.67411 50.8801 8.83712V11.0234H50.2118V9.00449C50.2118 8.46177 49.9753 8.19187 49.4809 8.19187C49.3691 8.18667 49.2574 8.20566 49.1535 8.24753C49.0497 8.28941 48.9562 8.35317 48.8794 8.43446C48.8026 8.51575 48.7443 8.61264 48.7085 8.71849C48.6728 8.82433 48.6604 8.93664 48.6723 9.0477V11.0234H48.0039L48.0039 7.64621Z" fill="white"/>
        <path d="M51.9453 6.32782H52.6137V11.0234H51.9453V6.32782Z" fill="white"/>
        <path d="M53.5427 9.33297C53.5214 9.11102 53.5469 8.88708 53.6175 8.67552C53.6881 8.46396 53.8022 8.26945 53.9526 8.10446C54.103 7.93947 54.2863 7.80764 54.4908 7.71743C54.6953 7.62723 54.9164 7.58063 55.14 7.58063C55.3636 7.58063 55.5847 7.62723 55.7892 7.71743C55.9937 7.80764 56.177 7.93947 56.3274 8.10446C56.4778 8.26945 56.5919 8.46396 56.6625 8.67552C56.7331 8.88708 56.7586 9.11102 56.7373 9.33297C56.759 9.55515 56.7338 9.77939 56.6634 9.99128C56.593 10.2032 56.4789 10.398 56.3284 10.5633C56.178 10.7286 55.9946 10.8607 55.7899 10.9511C55.5852 11.0415 55.3639 11.0882 55.14 11.0882C54.9162 11.0882 54.6948 11.0415 54.4901 10.9511C54.2854 10.8607 54.102 10.7286 53.9516 10.5633C53.8011 10.398 53.687 10.2032 53.6166 9.99128C53.5462 9.77939 53.521 9.55515 53.5427 9.33297ZM56.0495 9.33297C56.0495 8.60092 55.7197 8.17282 55.1409 8.17282C54.5599 8.17282 54.2331 8.60092 54.2331 9.33298C54.2331 10.0709 54.56 10.4957 55.1409 10.4957C55.7197 10.4957 56.0495 10.068 56.0495 9.33297H56.0495Z" fill="white"/>
        <path d="M57.4414 10.0679C57.4414 9.46002 57.8953 9.10956 58.701 9.05975L59.6184 9.00702V8.71551C59.6184 8.35882 59.3819 8.15741 58.9251 8.15741C58.5519 8.15741 58.2934 8.29401 58.2192 8.53278H57.5721C57.6404 7.9527 58.1876 7.58063 58.9559 7.58063C59.805 7.58063 60.2838 8.00213 60.2838 8.71551V11.023H59.6404V10.5484H59.5876C59.4802 10.7186 59.3295 10.8574 59.1508 10.9506C58.9721 11.0437 58.7717 11.0879 58.5703 11.0786C58.4281 11.0934 58.2844 11.0783 58.1485 11.0342C58.0125 10.9902 57.8873 10.9183 57.781 10.8231C57.6746 10.7278 57.5894 10.6114 57.531 10.4814C57.4725 10.3513 57.442 10.2105 57.4414 10.0679ZM59.6184 9.77935V9.497L58.7914 9.54974C58.325 9.58086 58.1134 9.73907 58.1134 10.0368C58.1134 10.3407 58.3779 10.5176 58.7415 10.5176C58.848 10.5284 58.9556 10.5177 59.0579 10.4861C59.1602 10.4545 59.2551 10.4028 59.3369 10.3339C59.4187 10.265 59.4858 10.1804 59.5341 10.0851C59.5825 9.98988 59.6112 9.88588 59.6184 9.77935Z" fill="white"/>
        <path d="M61.1621 9.33332C61.1621 8.26619 61.7122 7.59016 62.5679 7.59016C62.7796 7.58043 62.9896 7.63099 63.1735 7.73591C63.3574 7.84083 63.5076 7.99578 63.6065 8.18266H63.6564V6.32782H64.3248V11.0234H63.6843V10.4898H63.6314C63.5249 10.6754 63.3695 10.8284 63.1821 10.9323C62.9946 11.0362 62.7822 11.0869 62.5679 11.079C61.7064 11.0791 61.1621 10.403 61.1621 9.33332ZM61.8525 9.33332C61.8525 10.0496 62.1911 10.4807 62.7574 10.4807C63.3208 10.4807 63.6689 10.0434 63.6689 9.33626C63.6689 8.6324 63.3171 8.18891 62.7574 8.18891C62.1948 8.18891 61.8525 8.62287 61.8525 9.33332H61.8525Z" fill="white"/>
        <path d="M67.0896 9.33291C67.0683 9.11097 67.0938 8.88705 67.1643 8.67549C67.2349 8.46394 67.349 8.26944 67.4994 8.10445C67.6498 7.93946 67.8331 7.80764 68.0376 7.71743C68.242 7.62722 68.4631 7.58063 68.6867 7.58063C68.9103 7.58063 69.1314 7.62722 69.3359 7.71743C69.5403 7.80764 69.7236 7.93946 69.874 8.10445C70.0244 8.26944 70.1385 8.46394 70.2091 8.67549C70.2797 8.88705 70.3051 9.11097 70.2838 9.33291C70.3055 9.55508 70.2804 9.77931 70.21 9.99121C70.1396 10.2031 70.0255 10.398 69.8751 10.5633C69.7247 10.7286 69.5412 10.8607 69.3366 10.9511C69.1319 11.0415 68.9106 11.0882 68.6867 11.0882C68.4629 11.0882 68.2415 11.0415 68.0368 10.9511C67.8322 10.8607 67.6487 10.7286 67.4983 10.5633C67.3479 10.398 67.2338 10.2031 67.1634 9.99121C67.093 9.77931 67.0679 9.55508 67.0896 9.33291ZM69.5964 9.33291C69.5964 8.60086 69.2666 8.17276 68.6878 8.17276C68.1068 8.17276 67.78 8.60086 67.78 9.33292C67.78 10.0708 68.1069 10.4956 68.6878 10.4956C69.2666 10.4956 69.5964 10.0679 69.5964 9.33291Z" fill="white"/>
        <path d="M71.1816 7.64621H71.825V8.18271H71.875C71.9597 7.99002 72.1026 7.82849 72.2838 7.72064C72.4649 7.61278 72.6753 7.56398 72.8856 7.58102C73.0504 7.56867 73.2159 7.59344 73.3698 7.65352C73.5236 7.71359 73.662 7.80742 73.7746 7.92805C73.8871 8.04868 73.9711 8.19303 74.0201 8.35039C74.0691 8.50776 74.082 8.67411 74.0579 8.83712V11.0234H73.3895V9.00449C73.3895 8.46177 73.153 8.19187 72.6587 8.19187C72.5468 8.18667 72.4351 8.20566 72.3313 8.24753C72.2274 8.28941 72.1339 8.35317 72.0571 8.43446C71.9803 8.51575 71.922 8.61264 71.8863 8.71849C71.8505 8.82433 71.8382 8.93664 71.85 9.0477V11.0234H71.1816V7.64621Z" fill="white"/>
        <path d="M77.8337 6.80554V7.66174H78.5674V8.22315H77.8337V9.95972C77.8337 10.3135 77.9799 10.4684 78.3126 10.4684C78.3978 10.4681 78.4829 10.463 78.5674 10.453V11.0082C78.4474 11.0296 78.3258 11.041 78.2039 11.0422C77.4606 11.0422 77.1646 10.7815 77.1646 10.1304V8.22312H76.627V7.66171H77.1646V6.80554H77.8337Z" fill="white"/>
        <path d="M79.4805 6.32782H80.143V8.18891H80.1958C80.2847 7.99442 80.4315 7.83197 80.6163 7.72371C80.8011 7.61545 81.0149 7.56664 81.2285 7.58393C81.3924 7.57503 81.5563 7.60232 81.7084 7.66386C81.8606 7.72539 81.9972 7.81964 82.1086 7.93989C82.22 8.06015 82.3034 8.20344 82.3529 8.35954C82.4024 8.51564 82.4167 8.6807 82.3948 8.84296V11.0234H81.7258V9.00738C81.7258 8.46795 81.4738 8.19476 81.0016 8.19476C80.8867 8.18536 80.7712 8.20111 80.663 8.2409C80.5549 8.28069 80.4568 8.34356 80.3756 8.42511C80.2944 8.50667 80.232 8.60493 80.1928 8.71304C80.1537 8.82114 80.1387 8.93647 80.1489 9.05096V11.0234H79.4805L79.4805 6.32782Z" fill="white"/>
        <path d="M86.2925 10.1112C86.2017 10.4199 86.0049 10.6868 85.7366 10.8655C85.4684 11.0441 85.1457 11.1229 84.825 11.0882C84.6019 11.0941 84.3801 11.0515 84.1752 10.9634C83.9702 10.8752 83.787 10.7436 83.6381 10.5778C83.4893 10.4119 83.3784 10.2158 83.3132 10.0029C83.248 9.79004 83.23 9.56557 83.2605 9.34509C83.2308 9.12392 83.2491 8.89898 83.3142 8.68547C83.3792 8.47197 83.4895 8.27489 83.6376 8.10759C83.7856 7.94028 83.968 7.80665 84.1724 7.71575C84.3767 7.62484 84.5983 7.57878 84.822 7.58068C85.7644 7.58068 86.3329 8.22268 86.3329 9.28318V9.51575H83.9414V9.5531C83.9309 9.67704 83.9466 9.80178 83.9873 9.91935C84.028 10.0369 84.0929 10.1447 84.1778 10.2358C84.2627 10.3269 84.3658 10.3993 84.4804 10.4483C84.595 10.4974 84.7186 10.522 84.8433 10.5206C85.0032 10.5397 85.1652 10.511 85.3087 10.4381C85.4521 10.3652 85.5706 10.2514 85.6491 10.1112L86.2925 10.1112ZM83.9414 9.02282H85.652C85.6604 8.90948 85.645 8.79563 85.6066 8.68859C85.5683 8.58155 85.5079 8.48369 85.4294 8.4013C85.3509 8.3189 85.256 8.2538 85.1508 8.21017C85.0455 8.16654 84.9323 8.14534 84.8183 8.14795C84.7027 8.1465 84.588 8.16814 84.4809 8.2116C84.3739 8.25506 84.2766 8.31945 84.1949 8.40099C84.1131 8.48252 84.0486 8.57955 84.0051 8.68634C83.9615 8.79314 83.9399 8.90755 83.9414 9.02282H83.9414Z" fill="white"/>
    </g>
    <defs>
        <clipPath id="clip0_11797_129035">
            <rect width="104" height="30" fill="white"/>
        </clipPath>
    </defs>
</svg>
