<svg  viewBox="0 0 106 39" fill="none" xmlns="http://www.w3.org/2000/svg">
<path fill-rule="evenodd" clip-rule="evenodd" d="M21.0972 7.09148C22.4012 5.36112 23.0231 3.15493 22.8426 0.94873C20.8364 1.16502 18.9706 2.20323 17.6465 3.84707C16.3225 5.44764 15.6404 7.54569 15.7808 9.687C17.807 9.77352 19.7932 8.8002 21.0972 7.09148Z" fill="#8FB6DC"/>
<path fill-rule="evenodd" clip-rule="evenodd" d="M21.1055 6.96334C22.3714 5.27579 22.9943 3.11226 22.8537 0.94873C20.8443 1.16508 18.9757 2.20358 17.6495 3.84786C16.3233 5.44887 15.6402 7.5475 15.7808 9.68939C17.8504 9.7543 19.8196 8.73744 21.1055 6.96334Z" fill="#8FB6DC"/>
<path fill-rule="evenodd" clip-rule="evenodd" d="M22.9966 10.5003C19.9699 10.3124 17.3845 12.2121 15.9973 12.2121C14.6101 12.2121 12.34 10.5838 9.92284 10.6255C6.72798 10.709 3.82737 12.4835 2.31401 15.2601C-0.964931 20.855 1.45224 29.2056 4.64711 33.6731C6.18149 35.9904 8.03115 38.3077 10.4904 38.3077C12.9496 38.3077 13.7062 36.8255 16.5228 36.8255C19.3393 36.8255 20.138 38.3077 22.5972 38.2659C25.0564 38.2242 26.7169 35.9487 28.2513 33.7566C29.3443 32.17 30.185 30.4164 30.7736 28.5793C27.7889 27.264 25.8762 24.3205 25.8972 21.0846C25.9392 18.2454 27.4526 15.615 29.8908 14.1328C28.3354 11.9407 25.8341 10.5838 23.1437 10.5003" fill="#8FB6DC"/>
<path fill-rule="evenodd" clip-rule="evenodd" d="M46.5985 6.51282V12.3897H51.2941V16.442H46.5985V30.2325C46.5985 32.3753 47.5292 33.3725 49.6231 33.3725C50.1942 33.3725 50.7441 33.33 51.3152 33.2452V37.2762C50.3846 37.446 49.4328 37.5308 48.481 37.5096C43.4259 37.5096 41.4377 35.6002 41.4377 30.7629V16.5056H37.8843V12.3897H41.5011V6.51282H46.5985V6.51282Z" fill="#8FB6DC"/>
<path fill-rule="evenodd" clip-rule="evenodd" d="M68.6319 37.5129H63.292L54.4751 12.077H59.8149L65.9412 32.3654L72.1504 12.077H77.3867L68.6319 37.5129Z" fill="#8FB6DC"/>
<path fill-rule="evenodd" clip-rule="evenodd" d="M105.039 22.8254H95.1323V12.8718H90.411V22.8254H80.5469V27.4958H90.411V37.5129H95.1323V27.4958H105.039V22.8254Z" fill="#8FB6DC"/>
</svg>
