<svg width="27" height="29" viewBox="0 0 27 29" fill="none" xmlns="http://www.w3.org/2000/svg">
<path fill-rule="evenodd" clip-rule="evenodd" d="M1.58325 20.7114C1.36883 21.4212 1.64218 23.6385 4.04686 26.892C4.76665 27.6906 6.51046 28.1899 7.4959 27.8429C10.4522 26.892 11.4377 26.4875 13.6873 26.4166C15.8721 26.4875 17.843 27.3674 19.8139 27.8429C21.7848 28.3183 23.0358 27.2152 23.7557 26.4166C26.1603 23.163 25.941 21.4212 25.7266 20.7114C24.5625 16.4818 2.74727 16.4818 1.58325 20.7114Z" fill="#677897" fill-opacity="0.8"/>
<path fill-rule="evenodd" clip-rule="evenodd" d="M23.9261 11.3965C23.8955 9.96201 23.8648 7.89158 23.7883 7.58102C21.9022 0.527775 14.0686 1.25006 13.7067 1.25006C13.3534 1.25006 5.45427 0.527775 3.56826 7.58102C3.49161 7.89158 3.46098 9.96201 3.43041 11.3965C3.39972 12.831 3.24129 14.0437 2.07727 18.2733C1.86284 18.9832 0.925958 20.4207 1.58455 21.6629C2.07727 23.0892 3.55543 24.5155 4.54087 25.6825C5.52631 26.2888 6.40715 25.8953 7.00447 25.4664C9.46417 24.1113 11.439 22.2093 13.7067 22.1384C16.3662 22.2093 17.8482 24.1113 20.3079 25.4664C20.9053 25.8953 21.7861 26.4173 22.7715 25.6825C24.2333 24.1879 25.4031 22.9692 25.7279 21.6629C26.0527 20.3567 25.3451 18.699 25.2351 18.3349C24.0711 14.1053 23.9567 12.831 23.9261 11.3965Z" fill="white" stroke="#677897" stroke-opacity="0.8" stroke-width="0.5"/>
<path fill-rule="evenodd" clip-rule="evenodd" d="M23.3619 12.4C22.8871 12.4148 22.425 12.6662 22.3484 12.888C22.2718 13.1098 21.8123 14.0267 21.5213 14.426C21.2303 14.8253 21.3529 15.3429 21.7817 15.6535C22.2106 15.9641 23.2214 16.4332 23.2214 17.384C23.2214 18.3349 20.8005 22.6138 19.8151 22.6138C18.8296 22.6138 17.4075 21.4515 16.366 20.7121C15.4594 20.0684 14.3951 19.7612 13.6781 19.7612C12.961 19.7612 11.8527 20.0684 10.9461 20.7121C9.90461 21.4515 8.4825 22.6138 7.49706 22.6138C6.51162 22.6138 4.13475 18.3349 4.13475 17.384C4.13475 16.4332 5.14561 15.9641 5.57446 15.6535C6.00337 15.3429 6.12584 14.8253 5.83483 14.426C5.54389 14.0267 5.08441 13.1098 5.00777 12.888C4.93119 12.6662 4.4691 12.4148 3.99436 12.4C3.79519 12.4148 3.6114 12.4443 3.64203 12.045C3.67272 11.6457 3.85652 11.069 3.85652 11.069C3.85652 11.069 7.42384 10.5226 13.6781 10.5218C19.9323 10.5226 23.4997 11.069 23.4997 11.069C23.4997 11.069 23.6835 11.6457 23.7141 12.045C23.7448 12.4443 23.561 12.4148 23.3619 12.4Z" fill="#677897" fill-opacity="0.8"/>
<mask id="path-4-inside-1_6822_40428" fill="white">
<path fill-rule="evenodd" clip-rule="evenodd" d="M23.6568 19.5231L24.5102 19.9985L24.2639 20.4102L23.4105 19.9348L23.6568 19.5231Z"/>
</mask>
<path d="M23.6568 19.5231L24.6837 17.8068L22.9365 16.8335L21.9096 18.5497L23.6568 19.5231ZM24.5102 19.9985L26.2574 20.9719L27.2843 19.2556L25.5371 18.2823L24.5102 19.9985ZM24.2639 20.4102L23.237 22.1265L24.9841 23.0998L26.011 21.3836L24.2639 20.4102ZM23.4105 19.9348L21.6633 18.9615L20.6364 20.6777L22.3836 21.6511L23.4105 19.9348ZM22.6299 21.2393L23.4833 21.7147L25.5371 18.2823L24.6837 17.8068L22.6299 21.2393ZM22.7631 19.0252L22.5167 19.4369L26.011 21.3836L26.2574 20.9719L22.7631 19.0252ZM25.2908 18.694L24.4374 18.2186L22.3836 21.6511L23.237 22.1265L25.2908 18.694ZM25.1576 20.9082L25.404 20.4964L21.9096 18.5497L21.6633 18.9615L25.1576 20.9082Z" fill="#677897" fill-opacity="0.8" mask="url(#path-4-inside-1_6822_40428)"/>
<mask id="path-6-inside-2_6822_40428" fill="white">
<path fill-rule="evenodd" clip-rule="evenodd" d="M23.014 20.2362L23.8674 20.7116L23.621 21.1234L22.7676 20.6479L23.014 20.2362Z"/>
</mask>
<path d="M23.014 20.2362L24.0409 18.52L22.2937 17.5466L21.2668 19.2629L23.014 20.2362ZM23.8674 20.7116L25.6146 21.685L26.6415 19.9687L24.8943 18.9954L23.8674 20.7116ZM23.621 21.1234L22.5941 22.8396L24.3413 23.813L25.3682 22.0967L23.621 21.1234ZM22.7676 20.6479L21.0204 19.6746L19.9935 21.3908L21.7407 22.3642L22.7676 20.6479ZM21.9871 21.9524L22.8405 22.4279L24.8943 18.9954L24.0409 18.52L21.9871 21.9524ZM22.1202 19.7383L21.8738 20.15L25.3682 22.0967L25.6146 21.685L22.1202 19.7383ZM24.6479 19.4071L23.7945 18.9317L21.7407 22.3642L22.5941 22.8396L24.6479 19.4071ZM24.5148 21.6213L24.7611 21.2095L21.2668 19.2629L21.0204 19.6746L24.5148 21.6213Z" fill="#677897" fill-opacity="0.8" mask="url(#path-6-inside-2_6822_40428)"/>
<rect x="0.0431996" y="0.161312" width="0.737007" height="0.239907" transform="matrix(0.873587 0.486669 -0.513451 0.858119 22.364 20.9513)" stroke="#677897" stroke-opacity="0.8" stroke-width="0.239907"/>
<mask id="path-9-inside-3_6822_40428" fill="white">
<path fill-rule="evenodd" clip-rule="evenodd" d="M24.2469 18.8099L25.1004 19.2853L24.854 19.697L24.0006 19.2216L24.2469 18.8099Z"/>
</mask>
<path d="M24.2469 18.8099L25.2738 17.0936L23.5267 16.1203L22.4998 17.8365L24.2469 18.8099ZM25.1004 19.2853L26.8475 20.2586L27.8744 18.5424L26.1273 17.5691L25.1004 19.2853ZM24.854 19.697L23.8271 21.4133L25.5743 22.3866L26.6012 20.6704L24.854 19.697ZM24.0006 19.2216L22.2534 18.2483L21.2265 19.9645L22.9737 20.9378L24.0006 19.2216ZM23.22 20.5261L24.0734 21.0015L26.1273 17.5691L25.2738 17.0936L23.22 20.5261ZM23.3532 18.312L23.1068 18.7237L26.6012 20.6704L26.8475 20.2586L23.3532 18.312ZM25.8809 17.9808L25.0275 17.5054L22.9737 20.9378L23.8271 21.4133L25.8809 17.9808ZM25.7477 20.1949L25.9941 19.7832L22.4998 17.8365L22.2534 18.2483L25.7477 20.1949Z" fill="#677897" fill-opacity="0.8" mask="url(#path-9-inside-3_6822_40428)"/>
<mask id="path-11-inside-4_6822_40428" fill="white">
<path fill-rule="evenodd" clip-rule="evenodd" d="M3.65347 19.5231L2.80006 19.9985L3.04642 20.4102L3.89983 19.9348L3.65347 19.5231Z"/>
</mask>
<path d="M3.65347 19.5231L2.62657 17.8068L4.37375 16.8335L5.40064 18.5497L3.65347 19.5231ZM2.80006 19.9985L1.05288 20.9718L0.0259846 19.2556L1.77316 18.2823L2.80006 19.9985ZM3.04642 20.4102L4.07332 22.1265L2.32614 23.0998L1.29924 21.3836L3.04642 20.4102ZM3.89983 19.9348L5.64701 18.9615L6.6739 20.6777L4.92673 21.651L3.89983 19.9348ZM4.68037 21.2393L3.82696 21.7147L1.77316 18.2823L2.62657 17.8068L4.68037 21.2393ZM4.54723 19.0252L4.79359 19.4369L1.29924 21.3836L1.05288 20.9718L4.54723 19.0252ZM2.01952 18.694L2.87293 18.2186L4.92673 21.651L4.07332 22.1265L2.01952 18.694ZM2.15266 20.9081L1.9063 20.4964L5.40064 18.5497L5.64701 18.9615L2.15266 20.9081Z" fill="#677897" fill-opacity="0.8" mask="url(#path-11-inside-4_6822_40428)"/>
<mask id="path-13-inside-5_6822_40428" fill="white">
<path fill-rule="evenodd" clip-rule="evenodd" d="M4.29633 20.2362L3.44291 20.7116L3.68927 21.1234L4.54269 20.6479L4.29633 20.2362Z"/>
</mask>
<path d="M4.29633 20.2362L3.26943 18.52L5.0166 17.5466L6.0435 19.2629L4.29633 20.2362ZM3.44291 20.7116L1.69574 21.685L0.668837 19.9687L2.41601 18.9954L3.44291 20.7116ZM3.68927 21.1234L4.71617 22.8396L2.969 23.813L1.9421 22.0967L3.68927 21.1234ZM4.54269 20.6479L6.28986 19.6746L7.31676 21.3908L5.56959 22.3642L4.54269 20.6479ZM5.32323 21.9524L4.46981 22.4279L2.41601 18.9954L3.26943 18.52L5.32323 21.9524ZM5.19008 19.7383L5.43644 20.15L1.9421 22.0967L1.69574 21.685L5.19008 19.7383ZM2.66237 19.4071L3.51579 18.9317L5.56959 22.3642L4.71617 22.8396L2.66237 19.4071ZM2.79551 21.6213L2.54915 21.2095L6.0435 19.2629L6.28986 19.6746L2.79551 21.6213Z" fill="#677897" fill-opacity="0.8" mask="url(#path-13-inside-5_6822_40428)"/>
<rect x="-0.0431995" y="0.161312" width="0.737005" height="0.239906" transform="matrix(-0.873586 0.486669 0.51345 0.858119 4.87084 20.9933)" stroke="#677897" stroke-opacity="0.8" stroke-width="0.239906"/>
<mask id="path-16-inside-6_6822_40428" fill="white">
<path fill-rule="evenodd" clip-rule="evenodd" d="M3.06335 18.8099L2.20994 19.2853L2.4563 19.697L3.30971 19.2216L3.06335 18.8099Z"/>
</mask>
<path d="M3.06335 18.8099L2.03645 17.0936L3.78363 16.1203L4.81053 17.8365L3.06335 18.8099ZM2.20994 19.2853L0.462764 20.2586L-0.56414 18.5424L1.18303 17.5691L2.20994 19.2853ZM2.4563 19.697L3.4832 21.4133L1.73603 22.3866L0.709124 20.6704L2.4563 19.697ZM3.30971 19.2216L5.05689 18.2483L6.08379 19.9645L4.33662 20.9378L3.30971 19.2216ZM4.09026 20.5261L3.23684 21.0015L1.18303 17.5691L2.03645 17.0936L4.09026 20.5261ZM3.95711 18.312L4.20347 18.7237L0.709124 20.6704L0.462764 20.2586L3.95711 18.312ZM1.42939 17.9808L2.28281 17.5054L4.33662 20.9378L3.4832 21.4133L1.42939 17.9808ZM1.56254 20.1949L1.31618 19.7832L4.81053 17.8365L5.05689 18.2483L1.56254 20.1949Z" fill="#677897" fill-opacity="0.8" mask="url(#path-16-inside-6_6822_40428)"/>
<path fill-rule="evenodd" clip-rule="evenodd" d="M20.3064 26.0746C19.7621 26.0746 19.3209 25.619 19.3209 25.057C19.3209 24.4949 19.7621 24.0394 20.3064 24.0394C20.8506 24.0394 21.2918 24.4949 21.2918 25.057C21.2918 25.619 20.8506 26.0746 20.3064 26.0746Z" fill="#677897" fill-opacity="0.8"/>
<path fill-rule="evenodd" clip-rule="evenodd" d="M18.3356 15.0066C17.9527 14.7404 16.3647 13.5803 15.872 13.1049C15.3792 12.6294 14.3938 12.1631 13.7054 12.154C12.9156 12.1631 11.9302 12.6294 11.4375 13.1049C10.9448 13.5803 9.35683 14.7404 8.97387 15.0066C8.59097 15.2728 6.95156 15.9574 6.51027 16.4329C6.23785 16.7264 6.01755 17.8592 6.51027 18.81C7.00289 19.7607 7.49571 20.2363 7.98843 20.7118C8.48115 21.1872 8.97387 20.7118 9.75439 20.2363C10.5349 19.7609 12.0071 17.3837 13.6932 17.3837C15.3792 17.3837 16.6134 19.3864 17.8428 20.2363C19.0834 21.0941 19.2662 20.7118 19.321 20.7118C19.3757 20.7118 20.3071 19.7595 20.7992 18.81C21.2919 17.8592 21.2919 16.9083 20.7992 16.4329C20.7992 16.4329 18.7185 15.2728 18.3356 15.0066Z" fill="white"/>
<path fill-rule="evenodd" clip-rule="evenodd" d="M5.03175 7.875L5.52447 9.3013C5.52447 9.3013 9.59378 8.82253 13.6764 8.82586C17.759 8.82919 21.7842 9.3013 21.7842 9.3013L22.277 7.875L22.6619 7.9776L22.277 9.77673C22.102 9.75281 17.8779 9.29551 13.6764 9.3013C9.47482 9.30708 5.03175 9.77673 5.03175 9.77673C5.03175 9.77673 4.74924 8.30337 4.69086 7.9776L5.03175 7.875Z" fill="#677897" fill-opacity="0.8"/>
</svg>
