<svg xmlns="http://www.w3.org/2000/svg" width="20" height="20" viewBox="0 0 20 20"><g><g><g><path fill="#b4c0d5" d="M9.853 8.352c0 .397-.1.717-.304.958a1.577 1.577 0 0 1-.502.37c.335.121.588.312.76.574.17.261.256.58.256.953 0 .385-.097.731-.293 1.037a1.806 1.806 0 0 1-1.209.838 4.617 4.617 0 0 1-.93.087H4.667V6.667h3.18c.802.011 1.37.242 1.704.693.201.276.302.607.302.992zm5.038.818c.2.286.33.617.389.994.034.22.048.54.042.955h-3.544c.021.482.189.82.51 1.014.193.12.427.181.7.181.29 0 .525-.073.706-.22.1-.08.187-.19.263-.331h1.298c-.034.285-.192.575-.471.87-.436.466-1.046.7-1.83.7-.648 0-1.22-.196-1.713-.591-.496-.394-.743-1.037-.743-1.925 0-.833.223-1.473.67-1.917.447-.444 1.026-.667 1.739-.667.424 0 .805.075 1.144.225.34.15.62.388.84.712zm-3.408-2.2h2.834v.81h-2.834zM10 20c5.523 0 10-4.477 10-10S15.523 0 10 0 0 4.477 0 10s4.477 10 10 10z"/></g><g><path fill="#b4c0d5" d="M5.98 10.31h1.623c.282.003.502.04.66.112.28.127.419.36.419.701 0 .402-.144.674-.434.817-.158.076-.382.115-.667.115H5.98zm6.171-.76c.18-.184.435-.276.761-.276.301 0 .552.086.757.259.202.174.316.426.34.76H11.81c.047-.313.16-.56.34-.744zM5.98 7.8h1.435c.315 0 .575.034.78.101.235.098.353.298.353.602 0 .272-.09.463-.268.57-.179.108-.412.162-.697.162H5.98z"/></g></g></g></svg>