<svg width="14" height="14" viewBox="0 0 12 12" fill="none" xmlns="http://www.w3.org/2000/svg">
<path fill-rule="evenodd" clip-rule="evenodd" d="M6.92143 10.8071L7.16429 10.0214C7.46391 9.93539 7.75303 9.82579 8.02143 9.67857L8.75207 10.0521L9.04492 10.0306L10.0164 9.05921L10.0378 8.76635L9.67857 8.02857C9.82723 7.75959 9.94059 7.47262 10.0286 7.17143L10.8071 6.92143L11 6.69286V5.32143L10.8143 5.1L10.0357 4.83571C9.9481 4.53454 9.82781 4.24802 9.67857 3.97857L10.0521 3.24793L10.0306 2.95508L9.05921 1.98365L8.76635 1.96222L8.03571 2.32857C7.76493 2.179 7.47404 2.06614 7.17143 1.97857L6.92143 1.19286L6.7 1H5.32857L5.1 1.18571L4.83571 1.97143C4.53506 2.05961 4.25455 2.1863 3.98571 2.33571L3.23365 1.96222L2.94079 1.98365L1.96936 2.95508L1.94793 3.25508L2.33571 3.98571C2.18952 4.25182 2.07182 4.53876 1.98571 4.83571L1.18571 5.1L1 5.32143V6.69286L1.19286 6.92143L1.97857 7.16429C2.0653 7.4637 2.18839 7.74607 2.33571 8.01429L1.96222 8.76635L1.98365 9.05921L2.95508 10.0306L3.25508 10.0521L3.97857 9.67143C4.24719 9.8207 4.53457 9.93356 4.83571 10.0214L5.1 10.8143L5.32857 11H6.7L6.92143 10.8071Z" stroke="#0075FF"/>
<circle cx="5.99979" cy="6.00028" r="2.14286" stroke="#0075FF"/>
</svg>
