<svg width="16" height="16" viewBox="0 0 16 16" fill="none" xmlns="http://www.w3.org/2000/svg">
<path d="M1.35154 1.64468L14.8738 15.0324M1.18645 14.9315L14.6416 1.47635M1.77699 1.34919L14.7932 14.3653C14.9925 14.5647 14.9925 14.8878 14.7932 15.0871C14.5938 15.2864 14.2707 15.2864 14.0714 15.0871L1.05524 2.07094C0.855931 1.87163 0.855932 1.54849 1.05524 1.34919C1.25455 1.14988 1.57768 1.14988 1.77699 1.34919ZM14.8309 2.11307L1.73523 15.0493C1.53471 15.2474 1.21157 15.2454 1.01349 15.0448C0.815404 14.8443 0.817385 14.5212 1.01791 14.3231L14.1136 1.38691C14.3141 1.18883 14.6372 1.19081 14.8353 1.39133C15.0334 1.59186 15.0314 1.91499 14.8309 2.11307Z" stroke="#47536A"/>
</svg>
