<svg width="20" height="20" viewBox="0 0 20 20" fill="none" xmlns="http://www.w3.org/2000/svg">
    <circle cx="10" cy="10.0002" r="10" fill="#D2E4FF"/>
    <path d="M14.3183 7.02356C14.7088 6.63303 14.7088 5.99987 14.3183 5.60934L13.6111 6.31645L14.3183 7.02356ZM7.24718 14.0946L14.3183 7.02356L13.6111 6.31645L6.54008 13.3875L7.24718 14.0946ZM5.83297 14.0946C6.2235 14.4851 6.85666 14.4851 7.24718 14.0946L6.54008 13.3875L5.83297 14.0946ZM5.83297 12.6804C5.44245 13.0709 5.44245 13.7041 5.83297 14.0946L6.54008 13.3875L5.83297 12.6804ZM12.904 5.60934L5.83297 12.6804L6.54008 13.3875L13.6111 6.31645L12.904 5.60934ZM14.3183 5.60934C13.9277 5.21882 13.2946 5.21882 12.904 5.60934L13.6111 6.31645L14.3183 5.60934ZM7.08968 5.61953C6.69916 5.229 6.066 5.229 5.67547 5.61953L6.38258 6.32663L7.08968 5.61953ZM14.1608 12.6906L7.08968 5.61953L6.38258 6.32663L13.4536 13.3977L14.1608 12.6906ZM14.1608 14.1048C14.5513 13.7143 14.5513 13.0811 14.1608 12.6906L13.4536 13.3977L14.1608 14.1048ZM12.7465 14.1048C13.1371 14.4953 13.7702 14.4953 14.1608 14.1048L13.4536 13.3977L12.7465 14.1048ZM5.67547 7.03374L12.7465 14.1048L13.4536 13.3977L6.38258 6.32663L5.67547 7.03374ZM5.67547 5.61953C5.28495 6.01005 5.28495 6.64321 5.67547 7.03374L6.38258 6.32663L5.67547 5.61953Z" fill="#47536A"/>
</svg>
