<svg xmlns="http://www.w3.org/2000/svg" width="16" height="15" viewBox="0 0 16 15"><g><g><g transform="rotate(180 10.5 5.5)"><path fill="#2b2b2b" d="M10.44 10.167a4.5 4.5 0 0 0 1.286-.553c.16-.103 1-.858 1.864-1.67l1.575-1.48h-.6c-.62 0-1.065-.066-1.615-.24l-.32-.098-1.034.966c-1.25 1.162-1.355 1.223-2.105 1.223-.425 0-.505-.014-.765-.136a1.872 1.872 0 0 1-.82-.788c-.12-.22-.135-.3-.14-.693 0-.736-.01-.722 2.045-2.663.965-.91 1.865-1.725 2.005-1.815.68-.44 1.624-.365 2.21.174.184.169.244.197.48.215.354.029.46-.028 1.029-.567l.47-.445-.185-.24c-.685-.871-2.03-1.43-3.25-1.35-.754.052-1.414.268-1.994.662-.38.257-4.01 3.67-4.23 3.98a3.67 3.67 0 0 0-.56 1.205c-.154.567-.12 1.401.08 1.96.396 1.1 1.26 1.907 2.45 2.287.555.179 1.56.207 2.125.066z"/></g><g transform="rotate(180 5.5 9.5)"><path fill="#2b2b2b" d="M3.85 14.957c.394-.061.944-.253 1.34-.474.28-.154.73-.548 2.289-2.001 1.07-.994 2.034-1.932 2.144-2.087.285-.384.515-.876.615-1.312.13-.544.085-1.374-.095-1.88-.405-1.116-1.265-1.927-2.44-2.297-.594-.188-1.484-.22-2.089-.075a4.114 4.114 0 0 0-1.37.586c-.17.117-1 .862-1.854 1.664L.84 8.539h.6c.62 0 1.065.065 1.615.239l.32.098 1.03-.956c1.26-1.167 1.37-1.233 2.109-1.233.39.005.515.023.715.112.35.16.695.474.86.788.135.244.15.319.15.717 0 .75.015.727-2.04 2.663-.97.91-1.875 1.725-2.01 1.815-.68.44-1.624.365-2.21-.174-.184-.169-.244-.197-.48-.215-.354-.029-.46.028-1.029.572L0 13.41l.205.258c.39.483 1.15.965 1.835 1.167.57.169 1.23.211 1.81.122z"/></g></g></g></svg>