<svg width="35" height="34" viewBox="0 0 35 34" fill="none" xmlns="http://www.w3.org/2000/svg">
<path fill-rule="evenodd" clip-rule="evenodd" d="M5.3335 8.66663H30.3335C30.3335 6.99996 29.5002 6.16663 27.8335 6.16663H5.3335C3.80572 6.16663 2.8335 7.41663 2.8335 8.66663V26.1146H0.333496V27.8333C0.333496 28.6666 0.750163 29.5 2.00016 29.5H17.8335H19.5002V27.9448V26.1146H5.3335V8.66663ZM32.2777 12.8333H23.9444C23.1805 12.8333 22.1872 13.25 22.1872 14.5V27.8333C22.1872 28.6067 23.1805 29.5 23.9444 29.5H32.2777C33.0416 29.5 34.5 29.0833 34.5 27.8333V14.5C34.5 13.25 33.0416 12.8333 32.2777 12.8333ZM24.5001 26.9479H32.0001V15.4375H24.5001V26.9479Z" fill="url(#paint0_linear_9804_1641)"/>
<defs>
<linearGradient id="paint0_linear_9804_1641" x1="51.5835" y1="19.395" x2="33.6886" y2="-10.8579" gradientUnits="userSpaceOnUse">
<stop stop-color="#5C00D0"/>
<stop offset="1" stop-color="#00A6FF"/>
</linearGradient>
</defs>
</svg>
