<svg width="18" height="18" viewBox="0 0 18 18" fill="none" xmlns="http://www.w3.org/2000/svg">
<path d="M12 5.604H3C1.89543 5.604 1 6.41383 1 7.41281V12.93C1 13.9289 1.89543 14.7388 3 14.7388C3.55228 14.7388 4 15.1865 4 15.7388V16.9998L7.00457 15.0588C7.32797 14.8499 7.7048 14.7388 8.08982 14.7388H12C13.1046 14.7388 14 13.9289 14 12.93V7.41281C14 6.41383 13.1046 5.604 12 5.604Z" stroke="#47536A"/>
<path d="M4.31266 4.34921C4.31266 3.30693 4.3123 3.49006 4.31266 2.8872C4.31336 1.68149 5.04046 1 6.02957 1C7.01867 1 15.0139 1 15.0139 1C15.0139 1 15.0139 1 15.0139 1C15.9396 1 16.69 1.84493 16.69 2.8872V7.60522C16.69 8.64749 16.0418 9.44 15.2054 9.44" stroke="#47536A"/>
<ellipse rx="0.53125" ry="0.529412" transform="matrix(-1 0 0 1 10.1562 10.2277)" fill="#47536A"/>
<ellipse rx="0.53125" ry="0.529412" transform="matrix(-1 0 0 1 10.1562 10.2277)" fill="#47536A"/>
<ellipse rx="0.53125" ry="0.529412" transform="matrix(-1 0 0 1 10.1562 10.2277)" fill="#47536A"/>
<ellipse rx="0.53125" ry="0.529412" transform="matrix(-1 0 0 1 10.1562 10.2277)" fill="#47536A"/>
<ellipse rx="0.53125" ry="0.529412" transform="matrix(-1 0 0 1 7.5 10.2277)" fill="#47536A"/>
<ellipse rx="0.53125" ry="0.529412" transform="matrix(-1 0 0 1 7.5 10.2277)" fill="#47536A"/>
<ellipse rx="0.53125" ry="0.529412" transform="matrix(-1 0 0 1 7.5 10.2277)" fill="#47536A"/>
<ellipse rx="0.53125" ry="0.529412" transform="matrix(-1 0 0 1 7.5 10.2277)" fill="#47536A"/>
<ellipse rx="0.53125" ry="0.529412" transform="matrix(-1 0 0 1 4.84375 10.2277)" fill="#47536A"/>
<ellipse rx="0.53125" ry="0.529412" transform="matrix(-1 0 0 1 4.84375 10.2277)" fill="#47536A"/>
<ellipse rx="0.53125" ry="0.529412" transform="matrix(-1 0 0 1 4.84375 10.2277)" fill="#47536A"/>
<ellipse rx="0.53125" ry="0.529412" transform="matrix(-1 0 0 1 4.84375 10.2277)" fill="#47536A"/>
</svg>
