<svg viewBox="0 0 127 69" fill="none" xmlns="http://www.w3.org/2000/svg">
<path fill-rule="evenodd" clip-rule="evenodd" d="M42.599 46.8534C42.3697 49.7801 41.2471 54.7022 33.292 57.133C28.041 58.7173 23.0797 57.9554 20.3757 57.266C20.3154 58.3424 20.1946 58.8019 20.0256 58.9833C19.7963 59.2131 18.0822 60.2048 17.1406 58.8019C16.7181 58.1368 16.5008 56.9274 16.3801 55.8511C10.2961 53.0453 7.4956 49.0061 7.38695 48.8247C7.25417 48.6916 5.86596 47.2404 7.25417 45.4626C8.55787 43.8542 12.8191 42.2457 16.6577 41.5926C16.7905 38.3032 17.1768 35.824 17.6355 34.6872C18.1575 33.4479 18.8076 34.4212 19.3851 35.2858C19.4219 35.3408 19.4584 35.3955 19.4945 35.4491C20.0015 36.1142 20.3033 38.9804 20.3274 41.2661C22.8383 41.1452 24.323 41.3266 27.1236 41.8345C30.7691 42.4997 33.2076 44.3621 32.9903 46.4785C32.8333 48.5586 30.9261 49.4172 30.2018 49.4777C29.4413 49.5382 28.2583 48.994 28.2583 48.994C27.4495 48.607 28.1979 48.2683 29.1757 47.8451C30.238 47.325 29.9966 46.7929 29.9966 46.7929C29.5982 45.6319 24.8663 44.8217 20.1584 44.8217C20.1388 46.9372 20.223 50.1897 20.2876 52.6834C20.3024 53.2546 20.3162 53.7859 20.3274 54.2547C23.6229 54.8836 26.0855 54.7626 26.0855 54.7626C26.0855 54.7626 38.1085 54.424 38.4707 46.7325C38.8449 39.0288 26.4838 31.6396 17.3458 29.2934C8.21988 26.8989 3.05334 28.5678 2.6067 28.7976C2.12385 29.0394 2.57049 29.112 2.57049 29.112C2.57049 29.112 3.06541 29.1846 3.92248 29.4748C4.82783 29.7651 4.12769 30.2367 4.12769 30.2367C2.57049 30.7325 0.820145 30.4181 0.482148 29.7046C0.180831 29.0685 0.599021 28.4901 1.15516 27.7208C1.22287 27.6272 1.29261 27.5307 1.36336 27.431C2.01521 26.4635 2.72742 26.4998 2.72742 26.4998C14.0141 22.5814 27.7634 29.6683 27.7634 29.6683C40.6435 36.211 42.8405 43.8784 42.599 46.8534ZM43.9873 38.0371C45.1702 38.545 46.5705 38.7748 48.6106 38.0976C51.7974 37.0212 54.8997 33.8769 54.936 31.3493C54.9963 28.8338 52.1716 28.8217 52.1716 28.8217H52.0871C51.5922 27.2617 48.683 27.4794 48.683 27.4794C42.7318 27.9631 40.7763 32.0991 40.4866 33.1876C40.2934 34.1309 40.3779 35.5337 41.5368 36.5738C41.2359 37.3919 41.4228 37.7884 41.5357 38.0277C41.5496 38.0573 41.5624 38.0844 41.573 38.1097C41.6696 38.412 42.1886 39.3432 42.7681 39.2828C43.1664 39.2223 43.4682 38.9441 43.9873 38.0371ZM75.6142 52.7551C75.1554 53.8435 73.9362 55.0045 72.4273 54.2789C70.9305 53.5533 68.5524 48.6795 68.5524 48.6795C68.5524 48.6795 67.6471 46.8655 67.4781 46.9018C67.4781 46.9018 67.2849 46.551 67.1642 48.5344C67.1359 49.0001 67.1222 49.5692 67.1077 50.1753L67.1077 50.176L67.1077 50.1768L67.1076 50.1775L67.1076 50.1782L67.1076 50.1788L67.1076 50.1795L67.1075 50.1801L67.1075 50.1807L67.1075 50.1813V50.1814C67.0602 52.155 67.0035 54.5181 66.4037 54.9803C65.6553 55.585 64.75 55.3431 64.2792 54.6296C63.8567 53.9282 63.6756 52.2593 63.905 49.3326C64.1826 46.4059 64.8586 43.2858 65.7277 42.3062C66.5824 41.3548 67.2736 42.0172 67.5489 42.281L67.5626 42.2941C67.5626 42.2941 68.7214 43.3462 70.6408 46.4422L70.9788 47.0106C70.9788 47.0106 72.717 49.9373 72.8981 49.9252C72.8981 49.9252 73.043 50.0582 73.1637 49.9615C73.3447 49.9131 73.2723 48.9698 73.2723 48.9698C73.2723 48.9698 72.9102 45.7891 71.3288 40.3954C71.3288 40.3954 71.0874 39.7181 71.2564 39.0893C71.4133 38.4483 72.0531 38.7506 72.0531 38.7506C72.0531 38.7506 74.5157 39.9842 75.6987 43.9993C76.8696 48.0507 76.0729 51.6667 75.6142 52.7551ZM89.1461 43.9751C87.4079 44.3742 82.8328 44.604 82.8328 44.604L82.2534 46.418C82.2534 46.418 84.5349 46.2245 86.2007 46.3938C86.2007 46.3938 86.7439 46.3334 86.8043 47.0106C86.8284 47.6395 86.756 48.3167 86.756 48.3167C86.756 48.3167 86.7198 48.7279 86.1404 48.8247C85.5127 48.9335 81.2153 49.0907 81.2153 49.0907L80.5151 51.449C80.5151 51.449 80.2616 51.9932 80.8411 51.836C81.3843 51.6909 85.8869 50.8443 86.4784 50.9652C87.1061 51.1224 87.8062 51.9569 87.601 52.7309C87.3596 53.6742 82.869 56.5525 80.1288 56.3469C80.1288 56.3469 78.6924 56.4437 77.4732 54.4966C76.3384 52.6462 77.9077 49.127 77.9077 49.127C77.9077 49.127 77.1955 47.4823 77.7146 46.938C77.7146 46.938 78.0284 46.6599 78.9217 46.5873L80.0202 44.3016C80.0202 44.3016 78.7648 44.3863 78.0164 43.4672C77.3162 42.5843 77.2679 42.1852 77.7991 41.9434C78.3664 41.6652 83.5933 40.7098 87.1906 40.8307C87.1906 40.8307 88.446 40.7098 89.5203 42.8867C89.5191 42.8867 89.5233 42.8954 89.5309 42.9113C89.5998 43.0554 89.9507 43.7899 89.1461 43.9751ZM63.441 42.6069C63.4669 42.5488 63.4921 42.4925 63.5187 42.4392C63.6696 42.1066 63.5941 41.858 63.5718 41.7844C63.5673 41.7697 63.565 41.762 63.567 41.762C62.5047 40.5768 56.7225 40.7824 56.7225 40.7824C54.6221 40.9759 49.7574 41.8345 49.0572 44.0598C48.3933 46.1882 48.9969 46.938 48.9969 46.938C49.5139 47.8912 52.6536 47.9746 54.2486 48.0169C54.5153 48.024 54.7389 48.0299 54.8997 48.0386C56.0707 48.099 59.0764 48.4618 60.1266 49.0665C61.1768 49.7075 60.4888 50.4936 60.4888 50.4936C58.7505 52.4286 52.92 52.7309 51.4111 51.8723C50.8196 51.4732 50.6748 51.0741 51.2783 50.4331C51.8819 49.7317 53.8375 50.7596 53.6202 50.675C53.3908 50.554 54.5738 51.328 56.1914 51.3764C57.8572 51.4127 59.004 50.7959 59.0885 50.2154C59.1609 49.6712 57.6641 49.127 57.6641 49.127C52.7269 47.7483 50.7834 48.9214 50.7834 48.9214C48.0915 50.6145 50.0954 52.8518 50.0954 52.8518C54.441 57.4958 61.1768 54.4724 61.9615 53.8193C62.7099 53.1179 63.0479 52.4407 63.0841 50.5057C63.1203 48.6191 62.2874 47.7846 62.2874 47.7846C60.8907 46.0355 56.9962 45.9949 55.8262 45.9827L55.8172 45.9826C54.7307 45.9222 52.4855 45.6198 51.9423 45.511C51.3991 45.3901 51.7491 44.9789 51.7491 44.9789C52.2199 44.2774 62.1546 43.6002 62.1546 43.6002C63.0582 43.4634 63.2668 42.9967 63.441 42.6069ZM47.1017 55.4883C46.4015 56.0083 44.9167 55.7785 44.4943 55.198C44.0718 54.678 43.9269 52.61 44.0114 49.3689L44.0223 48.9433V48.9432C44.1033 45.7493 44.1983 42.0005 44.8685 41.3871C45.6169 40.734 46.0756 41.3024 46.3653 41.7499L46.3992 41.7969C46.7056 42.2206 47.0564 42.7058 47.1379 43.6969C47.2103 44.7249 47.4517 50.1187 47.4517 50.1187C47.4517 50.1187 47.7656 54.9803 47.1017 55.4883ZM43.0578 32.4982C42.4542 33.4657 42.43 34.0462 42.7077 34.4453C43.3958 33.3932 44.6512 31.7363 46.4981 30.4786C45.0737 30.5995 43.8786 31.2163 43.0578 32.4982ZM45.134 35.7272C46.5102 33.6713 49.4073 31.1558 51.2783 30.8777C53.2617 30.5297 52.7175 32.3075 52.6388 32.5644C52.6328 32.5842 52.6295 32.595 52.6303 32.595C50.9766 35.9691 47.2465 36.1142 45.134 35.7272ZM102.075 50.3605C100.952 52.3197 97.8013 56.4074 93.6005 55.452C92.2123 58.8261 91.0534 62.2244 90.3895 67.3279C90.3895 67.3279 90.2446 68.3196 89.4238 67.9689C88.615 67.6787 87.263 66.3242 86.9974 64.4497C86.7077 61.9826 87.8062 57.8102 90.0394 53.0332C89.3876 51.969 88.9409 50.4452 89.3272 48.2804C89.3272 48.2804 89.8946 44.2653 93.9143 40.6373C93.9143 40.6373 94.3972 40.214 94.6748 40.347C94.9887 40.48 94.8438 41.7861 94.5903 42.415C94.3368 43.0439 92.5382 46.1641 92.5382 46.1641C92.5382 46.1641 91.4155 48.2683 91.7294 49.9252C93.8419 46.672 98.6463 40.1051 101.628 42.1731C102.63 42.8867 103.089 44.4468 103.089 46.1278C103.076 47.6153 102.726 49.1875 102.075 50.3605ZM99.781 45.3417C101.036 43.9146 101.205 45.2087 101.205 45.2087C101.495 47.7241 99.6723 49.6107 98.8877 50.3122C98.4049 50.7717 96.8114 51.6788 95.1577 51.8602C96.739 48.8005 98.6946 46.539 99.781 45.3417ZM8.13538 47.9902C8.13538 47.9902 7.25417 47.0832 8.53373 46.4543C9.69258 45.9222 12.2276 45.2207 16.6215 44.9184C16.6149 45.3317 16.6111 45.7222 16.6073 46.1119C16.5904 47.8432 16.5737 49.56 16.3077 53.2026C13.4951 52.1988 10.5376 50.5782 8.13538 47.9902Z" fill="#8AB4DC"/>
<path fill-rule="evenodd" clip-rule="evenodd" d="M126 45.191V46.7685C126 47.115 125.714 47.3899 125.354 47.3899H117.535C117.535 47.7843 117.547 48.1308 117.547 48.4535C117.547 50.7838 117.448 52.6839 117.212 54.823C117.175 55.1456 116.901 55.3846 116.578 55.3846H114.887C114.713 55.3846 114.552 55.3129 114.44 55.1934C114.328 55.0739 114.266 54.9066 114.291 54.7393C114.527 52.6122 114.639 50.736 114.639 48.4535C114.639 48.1189 114.639 47.7723 114.626 47.3899H106.895C106.534 47.3899 106.249 47.115 106.249 46.7685V45.191C106.249 44.8445 106.534 44.5696 106.895 44.5696H114.515C114.353 42.0003 114.03 39.5266 113.508 37.017C113.483 36.8617 113.52 36.7063 113.62 36.5868C113.719 36.4673 113.868 36.3956 114.03 36.3956H115.857C116.143 36.3956 116.379 36.5868 116.441 36.8617C116.951 39.4549 117.274 41.9764 117.436 44.5696H125.354C125.702 44.5696 126 44.8564 126 45.191Z" fill="#8AB4DC"/>
<path fill-rule="evenodd" clip-rule="evenodd" d="M115.689 33.2509C111.77 23.7716 105.149 15.6923 96.5395 9.879C87.7246 3.93519 77.3903 0.79126 66.658 0.79126C48.9076 0.79126 32.4354 9.46377 22.6076 23.997C22.4991 24.1513 22.4749 24.353 22.5352 24.5309C22.5955 24.7207 22.7402 24.8512 22.9211 24.9106L24.2958 25.3732C24.3802 25.397 24.4646 25.4088 24.537 25.4088C24.7902 25.4088 25.0314 25.2783 25.1761 25.0767C29.686 18.5515 35.7878 13.1297 42.83 9.38072C50.1014 5.51309 58.3375 3.46064 66.646 3.46064C76.6909 3.46064 86.374 6.37915 94.6704 11.884C102.762 17.2583 109.044 24.7682 112.843 33.5831C112.951 33.8441 113.217 34.022 113.506 34.022H115.146C115.339 34.022 115.52 33.9271 115.616 33.7729C115.737 33.6187 115.761 33.4288 115.689 33.2509ZM113.297 33.8831C113.254 33.8692 113.212 33.8414 113.17 33.8136C113.191 33.8275 113.212 33.8379 113.233 33.8484C113.254 33.8588 113.276 33.8692 113.297 33.8831Z" fill="#8AB4DC"/>
</svg>
