<svg width="12" height="6" viewBox="0 0 10 3" fill="none" xmlns="http://www.w3.org/2000/svg">
<path d="M0.964844 1.32715C0.964844 1.04362 1.02832 0.829915 1.15527 0.686035C1.28646 0.537923 1.47266 0.463867 1.71387 0.463867C1.95931 0.463867 2.14974 0.537923 2.28516 0.686035C2.4248 0.829915 2.49463 1.04362 2.49463 1.32715C2.49463 1.60221 2.4248 1.8138 2.28516 1.96191C2.14551 2.11003 1.95508 2.18408 1.71387 2.18408C1.49805 2.18408 1.3182 2.11849 1.17432 1.9873C1.03467 1.85189 0.964844 1.63184 0.964844 1.32715ZM4.43066 1.32715C4.43066 1.04362 4.49414 0.829915 4.62109 0.686035C4.75228 0.537923 4.93848 0.463867 5.17969 0.463867C5.42513 0.463867 5.61556 0.537923 5.75098 0.686035C5.89062 0.829915 5.96045 1.04362 5.96045 1.32715C5.96045 1.60221 5.89062 1.8138 5.75098 1.96191C5.61133 2.11003 5.4209 2.18408 5.17969 2.18408C4.96387 2.18408 4.78402 2.11849 4.64014 1.9873C4.50049 1.85189 4.43066 1.63184 4.43066 1.32715ZM7.89648 1.32715C7.89648 1.04362 7.95996 0.829915 8.08691 0.686035C8.2181 0.537923 8.4043 0.463867 8.64551 0.463867C8.89095 0.463867 9.08138 0.537923 9.2168 0.686035C9.35645 0.829915 9.42627 1.04362 9.42627 1.32715C9.42627 1.60221 9.35645 1.8138 9.2168 1.96191C9.07715 2.11003 8.88672 2.18408 8.64551 2.18408C8.42969 2.18408 8.24984 2.11849 8.10596 1.9873C7.96631 1.85189 7.89648 1.63184 7.89648 1.32715Z" fill="black"/>
</svg>
