<svg xmlns="http://www.w3.org/2000/svg" width="40" height="40" viewBox="0 0 40 40"><g><g clip-path="url(#clip-0577A734-9F9D-4D35-AC48-B8082F56607F)"><g filter="url(#75hca)"><path fill="none" d="M0 0h40v40H0z" mask="url(&quot;#75hcb&quot;)"/><path fill-opacity=".1" d="M0 0h40v40H0z"/></g><path fill="#fff" d="M0 0h40v40H0z"/></g><g><path fill="#2b2b2b" d="M15 13h10a3 3 0 0 1 3 3l-7.553 3.776a1 1 0 0 1-.894 0L12 16a3 3 0 0 1 3-3zm13 11a3 3 0 0 1-3 3H15a3 3 0 0 1-3-3v-6l7.553 3.776a1 1 0 0 0 .894 0L28 18z"/></g></g></svg>