<?xml version="1.0" encoding="UTF-8"?>
<svg width="22px" height="21px" viewBox="0 0 22 21" version="1.1" xmlns="http://www.w3.org/2000/svg" xmlns:xlink="http://www.w3.org/1999/xlink">
    <!-- Generator: Sketch 52.5 (67469) - http://www.bohemiancoding.com/sketch -->
    <title>Explore</title>
    <desc>Created with Sketch.</desc>
    <g id="Symbols" stroke="none" stroke-width="1" fill="none" fill-rule="evenodd">
        <g id="Menu-Feed-Mobile" transform="translate(-156.000000, -20.000000)" stroke="#47536A">
            <g id="Explore" transform="translate(157.000000, 21.000000)">
                <path d="M1.40964322,12.0596741 L4.45872751,14.8554182 L3.60546059,18.939301 L7.14345605,16.851352 L10.6814515,18.939301 L9.82818458,14.8554182 L12.8772689,12.0596741 L8.81223699,11.6225299 L7.14345605,8.01037218 L5.4746751,11.6225299 L1.40964322,12.0596741 Z" id="Shape-Copy-2"></path>
                <ellipse id="Oval-5" cx="2.76028554" cy="4.5345135" rx="2.76028554" ry="2.76013865"></ellipse>
                <ellipse id="Oval-5-Copy" cx="12.1452564" cy="3.64732607" rx="3.64752017" ry="3.64732607"></ellipse>
                <path d="M16.7202775,11.6032952 C17.5512896,10.8705342 18.8562361,10.9097675 19.6399553,11.695939 L21.7943637,13.857089 C22.5758451,14.6410158 22.3192632,15.276514 21.2052707,15.276514 L14.5586308,15.276514 C13.4518024,15.276514 13.2272793,14.6833137 14.0592212,13.9497329 L16.7202775,11.6032952 Z" id="Polygon" transform="translate(17.901215, 13.177729) rotate(-90.000000) translate(-17.901215, -13.177729) "></path>
            </g>
        </g>
    </g>
</svg>