<svg xmlns="http://www.w3.org/2000/svg" width="40" height="40" viewBox="0 0 40 40"><defs><mask id="xda4b" width="2" height="2" x="-1" y="-1"><path fill="#fff" d="M0 0h40v40H0z"/><path d="M0 0h40v40H0z"/></mask><filter id="xda4a" width="120" height="128" x="-40" y="-40" filterUnits="userSpaceOnUse"><feOffset dy="8" in="SourceGraphic" result="FeOffset1156Out"/><feGaussianBlur in="FeOffset1156Out" result="FeGaussianBlur1157Out" stdDeviation="12 12"/></filter></defs><g><g clip-path="url(#clip-36985A88-B206-43D7-8632-F80B9B999FBE)"><g filter="url(#xda4a)"><path fill="none" d="M0 0h40v40H0z" mask="url(&quot;#xda4b&quot;)"/><path fill-opacity=".1" d="M0 0h40v40H0z"/></g><path fill="#0075ff" d="M0 0h40v40H0z"/></g><g clip-path="url(#clip-36985A88-B206-43D7-8632-F80B9B999FBE)"><path fill="#fff" d="M23.579 20h-2.246v8.667H18V20h-2v-2.667h2v-1.606c.001-2.339.973-3.727 3.728-3.727H24v2.667h-1.525c-1.072 0-1.142.4-1.142 1.148v1.518H24L23.579 20z"/></g></g></svg>