<?xml version="1.0" encoding="UTF-8"?>
<svg width="22px" height="21px" viewBox="0 0 22 21" version="1.1" xmlns="http://www.w3.org/2000/svg" xmlns:xlink="http://www.w3.org/1999/xlink">
    <!-- Generator: Sketch 52.5 (67469) - http://www.bohemiancoding.com/sketch -->
    <title>Feeds</title>
    <desc>Created with Sketch.</desc>
    <g id="Symbols" stroke="none" stroke-width="1" fill="none" fill-rule="evenodd">
        <g id="Menu-Explore-Mobile" transform="translate(-85.000000, -21.000000)">
            <g id="Feeds" transform="translate(85.000000, 21.000000)">
                <rect id="Rectangle-2" stroke="#47536A" x="0.5" y="0.5" width="20.9130435" height="20" rx="3"></rect>
                <path d="M3.44983278,15.8980276 L3.44983278,16.0584941 C3.44983278,16.9953653 4.2177174,17.7608696 5.16220736,17.7608696 C6.11371095,17.7608696 6.87458194,17.0014176 6.87458194,16.0584941 L6.87458194,15.8980276 C6.87458194,14.9611564 6.10669731,14.1956522 5.16220736,14.1956522 C4.21070376,14.1956522 3.44983278,14.9551042 3.44983278,15.8980276 Z" id="Rectangle-Copy-6" stroke="#47536A"></path>
                <path d="M9.13043478,15.0652174 C9.13043478,14.8130874 9.33140546,14.6086957 9.59452739,14.6086957 L18.2884158,14.6086957 C18.544727,14.6086957 18.7525084,14.8204611 18.7525084,15.0652174 L18.7525084,15.0652174 C18.7525084,15.3173474 18.5515377,15.5217391 18.2884158,15.5217391 L9.59452739,15.5217391 C9.33821612,15.5217391 9.13043478,15.3099737 9.13043478,15.0652174 L9.13043478,15.0652174 Z" id="Rectangle-Copy-9" fill="#47536A"></path>
                <path d="M9.13043478,16.8913043 C9.13043478,16.6391744 9.33029948,16.4347826 9.58972791,16.4347826 L12.8149544,16.4347826 C13.068615,16.4347826 13.2742475,16.6465481 13.2742475,16.8913043 L13.2742475,16.8913043 C13.2742475,17.1434343 13.0743828,17.3478261 12.8149544,17.3478261 L9.58972791,17.3478261 C9.33606732,17.3478261 9.13043478,17.1360606 9.13043478,16.8913043 L9.13043478,16.8913043 Z" id="Rectangle-Copy-10" fill="#47536A"></path>
                <rect id="Rectangle-Copy-4" stroke="#47536A" x="3.02842809" y="3.23913043" width="15.8561873" height="8.13043478" rx="1"></rect>
            </g>
        </g>
    </g>
</svg>