<svg width="29" height="26" viewBox="0 0 29 26" fill="none" xmlns="http://www.w3.org/2000/svg">
<path fill-rule="evenodd" clip-rule="evenodd" d="M3.16651 2.50012H25.6665C25.9427 2.50012 26.1665 2.72398 26.1665 3.00012V23.0001C26.1665 23.2763 25.9427 23.5001 25.6665 23.5001H3.16651C2.89036 23.5001 2.6665 23.2763 2.6665 23.0001V3.00013C2.6665 2.72398 2.89036 2.50012 3.16651 2.50012ZM0.666504 3.00013C0.666504 1.61941 1.78579 0.500122 3.16651 0.500122H25.6665C27.0472 0.500122 28.1665 1.61941 28.1665 3.00012V23.0001C28.1665 24.3808 27.0472 25.5001 25.6665 25.5001H3.16651C1.7858 25.5001 0.666504 24.3809 0.666504 23.0001V3.00013ZM5.66699 7.16659C5.66699 6.70635 6.04009 6.33325 6.50033 6.33325H22.3337C22.7939 6.33325 23.167 6.70635 23.167 7.16659V13.8333C23.167 14.2935 22.7939 14.6666 22.3337 14.6666H6.50033C6.04009 14.6666 5.66699 14.2935 5.66699 13.8333V7.16659ZM7.75025 16.3331C6.59965 16.3331 5.66691 17.2659 5.66691 18.4165C5.66691 19.5671 6.59965 20.4998 7.75025 20.4998C8.90084 20.4998 9.83358 19.5671 9.83358 18.4165C9.83358 17.2659 8.90084 16.3331 7.75025 16.3331ZM12.7501 17.1666C12.0598 17.1666 11.5001 17.7262 11.5001 18.4166C11.5001 19.1069 12.0598 19.6666 12.7501 19.6666H21.9168C22.6072 19.6666 23.1668 19.1069 23.1668 18.4166C23.1668 17.7262 22.6072 17.1666 21.9168 17.1666H12.7501Z" fill="url(#paint0_linear_9808_5549)"/>
<defs>
<linearGradient id="paint0_linear_9808_5549" x1="41.9165" y1="14.6734" x2="20.6494" y2="-12.3359" gradientUnits="userSpaceOnUse">
<stop stop-color="#5C00D0"/>
<stop offset="1" stop-color="#00A6FF"/>
</linearGradient>
</defs>
</svg>
