<svg width="28" height="28" viewBox="0 0 28 28" fill="none" xmlns="http://www.w3.org/2000/svg">
<path fill-rule="evenodd" clip-rule="evenodd" d="M12.3678 8.25C12.124 7.80315 11.6499 7.5 11.105 7.5C10.5601 7.5 10.086 7.80315 9.84217 8.25H7.75C7.33579 8.25 7 8.58579 7 9C7 9.41421 7.33579 9.75 7.75 9.75H9.84217C10.086 10.1968 10.5601 10.5 11.105 10.5C11.6499 10.5 12.124 10.1968 12.3678 9.75H20.25C20.6642 9.75 21 9.41421 21 9C21 8.58579 20.6642 8.25 20.25 8.25H12.3678Z" fill="#0075FF"/>
<path fill-rule="evenodd" clip-rule="evenodd" d="M18.1169 13.25C17.8731 12.8032 17.399 12.5 16.8541 12.5C16.3092 12.5 15.8351 12.8032 15.5913 13.25H7.75C7.33579 13.25 7 13.5858 7 14C7 14.4142 7.33579 14.75 7.75 14.75H15.5913C15.8351 15.1968 16.3092 15.5 16.8541 15.5C17.399 15.5 17.8731 15.1968 18.1169 14.75H20.25C20.6642 14.75 21 14.4142 21 14C21 13.5858 20.6642 13.25 20.25 13.25H18.1169Z" fill="#0075FF"/>
<path fill-rule="evenodd" clip-rule="evenodd" d="M15.2414 18.25C14.9975 17.8032 14.5235 17.5 13.9786 17.5C13.4337 17.5 12.9596 17.8032 12.7158 18.25H7.75C7.33579 18.25 7 18.5858 7 19C7 19.4142 7.33579 19.75 7.75 19.75H12.7158C12.9596 20.1968 13.4337 20.5 13.9786 20.5C14.5235 20.5 14.9975 20.1968 15.2414 19.75H20.25C20.6642 19.75 21 19.4142 21 19C21 18.5858 20.6642 18.25 20.25 18.25H15.2414Z" fill="#0075FF"/>
<rect x="0.5" y="0.5" width="27" height="27" rx="7.5" stroke="#0075FF"/>
</svg>
