<svg width="17" height="16" viewBox="0 0 17 16" fill="none" xmlns="http://www.w3.org/2000/svg">
<path fill-rule="evenodd" clip-rule="evenodd" d="M8.03162 0.214737L5.92356 5.46634L0.305586 5.85809C0.171292 5.87085 0.0574743 5.96274 0.0161958 6.09175C-0.0250827 6.22075 0.0141156 6.36205 0.115861 6.45102L4.43738 10.0827L3.06714 15.5778C3.03324 15.712 3.084 15.8534 3.19536 15.9349C3.30671 16.0165 3.45626 16.0218 3.57308 15.9484L8.34783 12.9414L13.1226 15.9484C13.2394 16.0218 13.3889 16.0165 13.5003 15.9349C13.6117 15.8534 13.6624 15.712 13.6285 15.5778L12.2583 10.0827L16.5798 6.45102C16.6815 6.36205 16.7207 6.22075 16.6795 6.09175C16.6382 5.96274 16.5244 5.87085 16.3901 5.85809L10.7721 5.46634L8.66403 0.214737C8.60723 0.0697991 8.45938 -0.0175676 8.30567 0.00297897C8.18251 0.0175969 8.07727 0.0989154 8.03162 0.214737Z" fill="#47536A"/>
</svg>
