<svg width="33" height="24" viewBox="0 0 33 24" fill="none" xmlns="http://www.w3.org/2000/svg">
<path fill-rule="evenodd" clip-rule="evenodd" d="M30.4722 3.83346H16.8337L15.6151 0.500122H2.3618C1.15466 0.500122 0.166992 1.45467 0.166992 2.62134V18.5304C0.166992 19.6971 1.15466 20.6517 2.3618 20.6517H16.7125L17.8099 23.8335H30.4722C31.6794 23.8335 32.667 22.8789 32.667 21.7123V5.80316C32.667 4.63649 31.6794 3.83346 30.4722 3.83346ZM23.9169 10.6608C23.445 11.9866 22.8651 12.7305 21.8336 13.8335C21.6802 13.6662 21.2423 13.3934 20.7981 13.1167L20.7981 13.1167C20.2568 12.7795 19.7061 12.4364 19.6491 12.2711L19.0937 10.6608H23.9169ZM29.0003 21.3335C29.6038 21.3335 30.1669 20.6668 30.1669 20.0835V7.43373C30.1669 6.8504 29.6038 6.3335 29.0003 6.3335H17.6669L18.6218 8.8335H21.0002V7.92441H22.6669V8.8335H27.5176V10.6714H25.5836C25.0678 12.2941 24.3236 13.7577 23.0836 15.0835L26.8336 18.4168L25.3886 19.5911L20.5955 15.1471L21.0581 16.3032L22.1994 19.5911L20.1669 21.3335H29.0003Z" fill="url(#paint0_linear_9808_5536)"/>
<defs>
<linearGradient id="paint0_linear_9808_5536" x1="48.917" y1="13.7285" x2="30.6037" y2="-15.7215" gradientUnits="userSpaceOnUse">
<stop stop-color="#5C00D0"/>
<stop offset="1" stop-color="#00A6FF"/>
</linearGradient>
</defs>
</svg>
