<svg width="104" height="30" viewBox="0 0 104 30" fill="none" xmlns="http://www.w3.org/2000/svg">
    <g clip-path="url(#clip0_11797_129019)">
        <rect x="0.35" y="0.350061" width="103.246" height="29.3" rx="4.65" fill="black" stroke="#A6A6A6" stroke-width="0.7"/>
        <path fill-rule="evenodd" clip-rule="evenodd" d="M39.8229 21.0397C40.6037 20.2636 40.9941 19.2216 40.9941 17.9136C40.9941 17.6868 40.9721 17.4514 40.9283 17.2072H36.362V18.3321H39.7834C39.6869 19.2477 39.3272 19.9671 38.7044 20.4903C38.0815 21.0135 37.3007 21.2751 36.362 21.2751C35.3356 21.2751 34.4671 20.922 33.7565 20.2156C33.0547 19.5006 32.7038 18.6068 32.7038 17.5342C32.7038 16.4617 33.0547 15.5679 33.7565 14.8529C34.4671 14.1465 35.3356 13.7934 36.362 13.7934C36.8884 13.7934 37.3797 13.8937 37.8359 14.0942C38.3008 14.2861 38.678 14.5564 38.9676 14.9052L39.8361 14.0419C39.4413 13.5972 38.9368 13.2527 38.3227 13.0086C37.7087 12.7644 37.0551 12.6423 36.362 12.6423C34.9935 12.6423 33.8355 13.1132 32.888 14.055C31.9405 14.9967 31.4668 16.1565 31.4668 17.5342C31.4668 18.912 31.9405 20.0718 32.888 21.0135C33.8355 21.9553 34.9935 22.4262 36.362 22.4262C37.792 22.4262 38.9456 21.964 39.8229 21.0397ZM42.3757 16.8831C41.7528 17.5284 41.4414 18.3437 41.4414 19.329C41.4414 20.3144 41.7528 21.1297 42.3757 21.775C43.0073 22.4203 43.8013 22.7429 44.7575 22.7429C45.7137 22.7429 46.5033 22.4203 47.1262 21.775C47.7578 21.1384 48.0736 20.3231 48.0736 19.329C48.0736 18.3437 47.7578 17.5284 47.1262 16.8831C46.5033 16.2378 45.7137 15.9152 44.7575 15.9152C43.8013 15.9152 43.0073 16.2378 42.3757 16.8831ZM43.2574 21.0033C42.8538 20.576 42.652 20.0179 42.652 19.329C42.652 18.6489 42.8538 18.0952 43.2574 17.6679C43.6697 17.2319 44.1697 17.0139 44.7575 17.0139C45.3453 17.0139 45.8453 17.2319 46.2577 17.6679C46.6612 18.0952 46.863 18.6489 46.863 19.329C46.863 20.0179 46.6612 20.576 46.2577 21.0033C45.8541 21.4306 45.3541 21.6442 44.7575 21.6442C44.161 21.6442 43.6609 21.4306 43.2574 21.0033ZM48.5417 19.329C48.5417 18.3437 48.8531 17.5284 49.476 16.8831C50.1077 16.2378 50.9016 15.9152 51.8578 15.9152C52.8141 15.9152 53.6036 16.2378 54.2265 16.8831C54.8581 17.5284 55.174 18.3437 55.174 19.329C55.174 20.3231 54.8581 21.1384 54.2265 21.775C53.6036 22.4203 52.8141 22.7429 51.8578 22.7429C50.9016 22.7429 50.1077 22.4203 49.476 21.775C48.8531 21.1297 48.5417 20.3144 48.5417 19.329ZM49.7524 19.329C49.7524 20.0179 49.9541 20.576 50.3577 21.0033C50.7612 21.4306 51.2613 21.6442 51.8578 21.6442C52.4544 21.6442 52.9544 21.4306 53.358 21.0033C53.7615 20.576 53.9633 20.0179 53.9633 19.329C53.9633 18.6489 53.7615 18.0952 53.358 17.6679C52.9457 17.2319 52.4456 17.0139 51.8578 17.0139C51.2701 17.0139 50.77 17.2319 50.3577 17.6679C49.9541 18.0952 49.7524 18.6489 49.7524 19.329ZM60.3662 21.0033C59.989 21.4306 59.5021 21.6442 58.9055 21.6442C58.3265 21.6442 57.8396 21.4262 57.4448 20.9902C57.0501 20.5629 56.8527 20.0092 56.8527 19.329C56.8527 18.6576 57.0501 18.1039 57.4448 17.6679C57.8396 17.2319 58.3265 17.0139 58.9055 17.0139C59.4933 17.0139 59.9802 17.2319 60.3662 17.6679C60.761 18.1039 60.9584 18.6576 60.9584 19.329C60.9584 20.0179 60.761 20.576 60.3662 21.0033ZM57.8528 25.4243C58.1686 25.5202 58.5064 25.5682 58.866 25.5682C59.8486 25.5682 60.6381 25.2717 61.2347 24.6788C61.8225 24.0945 62.1164 23.2879 62.1164 22.259V16.1244H60.9584V17.0139H60.9057C60.6776 16.6738 60.3662 16.4078 59.9714 16.216C59.5854 16.0154 59.1643 15.9152 58.7081 15.9152C57.8659 15.9152 57.1422 16.2465 56.5369 16.9092C55.9403 17.572 55.642 18.3786 55.642 19.329C55.642 20.2795 55.9403 21.0905 56.5369 21.7619C57.1422 22.4159 57.8659 22.7429 58.7081 22.7429C59.1643 22.7429 59.5854 22.647 59.9714 22.4552C60.3662 22.2546 60.6776 21.9843 60.9057 21.6442H60.9584V22.259C60.9584 22.9478 60.7741 23.4885 60.4057 23.8809C60.0372 24.2733 59.524 24.4695 58.866 24.4695C58.4362 24.4695 58.0589 24.3561 57.7343 24.1294C57.4097 23.9027 57.1817 23.6018 57.0501 23.2269L55.9052 23.6978C56.0017 23.9768 56.1421 24.2297 56.3263 24.4564C56.5105 24.6831 56.7299 24.8793 56.9843 25.045C57.2475 25.2107 57.537 25.3371 57.8528 25.4243ZM64.5399 13.1684V22.5336H63.3293V13.1684H64.5399ZM66.2403 21.775C66.8544 22.4203 67.6352 22.7429 68.5827 22.7429C69.2319 22.7429 69.8109 22.5903 70.3197 22.2851C70.8373 21.9799 71.2409 21.557 71.5304 21.0164L70.4513 20.4932C70.0127 21.2605 69.4073 21.6442 68.6353 21.6442C68.0739 21.6442 67.5914 21.4524 67.1878 21.0687C66.8106 20.71 66.7864 20.6497 66.6734 20.3681L66.6483 20.3058L71.5304 18.3605C71.3747 17.6265 71.1706 17.3357 70.7803 16.8438C70.2188 16.2247 69.46 15.9152 68.5037 15.9152C67.5738 15.9152 66.8106 16.2422 66.214 16.8962C65.6175 17.5414 65.3192 18.3524 65.3192 19.329C65.3192 20.3144 65.6263 21.1297 66.2403 21.775ZM69.7933 17.4586C69.4687 17.1621 69.0301 17.0139 68.4774 17.0139C68.0212 17.0139 67.6265 17.1534 67.2931 17.4324C66.9685 17.7115 66.7101 18.0647 66.6048 18.5356L66.6002 18.5644C66.5637 18.7919 66.5389 18.9463 66.5389 19.3679L70.1974 17.9816C70.1045 17.7853 69.9698 17.611 69.7933 17.4586ZM76.0813 22.5548V18.7496H78.0812C78.9058 18.7496 79.5987 18.4828 80.1601 17.9492C80.739 17.4156 81.0285 16.7508 81.0285 15.9548C81.0285 15.1762 80.739 14.5158 80.1601 13.9734C79.5899 13.4311 78.897 13.1599 78.0812 13.1599H74.8708V22.5548H76.0813ZM76.0813 17.5949V14.3146H78.1075C78.59 14.3146 78.9891 14.4808 79.3049 14.8132C79.6294 15.1369 79.7917 15.5174 79.7917 15.9548C79.7917 16.4009 79.6294 16.7858 79.3049 17.1094C78.9891 17.4331 78.59 17.5949 78.1075 17.5949H76.0813ZM83.0986 22.5548V13.1599H81.8881V22.5548H83.0986ZM85.1277 20.5866C85.1277 20.9015 85.2592 21.1639 85.5224 21.3739C85.7943 21.5838 86.1101 21.6888 86.4697 21.6888C86.9785 21.6888 87.4302 21.5007 87.8249 21.1246C88.2284 20.7484 88.4302 20.3067 88.4302 19.7993C88.053 19.5019 87.5267 19.3532 86.8513 19.3532C86.3601 19.3532 85.9478 19.4713 85.6145 19.7075C85.2899 19.9436 85.1277 20.2367 85.1277 20.5866ZM86.6934 15.9154C87.5881 15.9154 88.2942 16.1559 88.8117 16.6371C89.3292 17.1094 89.588 17.7611 89.588 18.5921V22.5548H88.4302V21.6625H88.3775C87.8775 22.3973 87.2109 22.7647 86.3776 22.7647C85.6671 22.7647 85.0707 22.5548 84.5882 22.1349C84.1146 21.715 83.8777 21.1902 83.8777 20.5603C83.8777 19.8955 84.1277 19.3663 84.6277 18.9727C85.1364 18.579 85.8118 18.3822 86.6539 18.3822C87.3732 18.3822 87.9653 18.5134 88.4302 18.7758V18.5003C88.4302 18.0804 88.2635 17.7261 87.9302 17.4375C87.5969 17.14 87.2065 16.9913 86.7592 16.9913C86.0838 16.9913 85.5487 17.2756 85.154 17.8442L84.0882 17.175C84.6759 16.3353 85.5443 15.9154 86.6934 15.9154ZM92.2852 25.389L96.3245 16.1253H95.0088L93.1405 20.744H93.1141L91.1932 16.1253H89.8774L92.5352 22.148L91.0353 25.389H92.2852Z" fill="white"/>
        <path d="M39.8229 21.0397L39.7524 20.9687L39.7504 20.9708L39.8229 21.0397ZM40.9283 17.2072L41.0267 17.1896L41.0119 17.1072H40.9283V17.2072ZM36.362 17.2072V17.1072H36.262V17.2072H36.362ZM36.362 18.3321H36.262V18.4321H36.362V18.3321ZM39.7834 18.3321L39.8829 18.3426L39.8945 18.2321H39.7834V18.3321ZM38.7044 20.4903L38.64 20.4138H38.64L38.7044 20.4903ZM33.7565 20.2156L33.6851 20.2857L33.686 20.2866L33.7565 20.2156ZM33.7565 14.8529L33.686 14.7819L33.6851 14.7828L33.7565 14.8529ZM37.8359 14.0942L37.7956 14.1858L37.7977 14.1867L37.8359 14.0942ZM38.9676 14.9052L38.8906 14.969L38.9605 15.0532L39.038 14.9761L38.9676 14.9052ZM39.8361 14.0419L39.9066 14.1128L39.9736 14.0462L39.9108 13.9755L39.8361 14.0419ZM38.3227 13.0086L38.2858 13.1015L38.3227 13.0086ZM32.888 14.055L32.9585 14.1259L32.888 14.055ZM32.888 21.0135L32.8175 21.0844L32.888 21.0135ZM42.3757 16.8831L42.3042 16.8131L42.3037 16.8136L42.3757 16.8831ZM42.3757 21.775L42.3037 21.8445L42.3042 21.845L42.3757 21.775ZM47.1262 21.775L47.0552 21.7046L47.0542 21.7055L47.1262 21.775ZM47.1262 16.8831L47.0542 16.9525L47.0547 16.953L47.1262 16.8831ZM43.2574 21.0033L43.1847 21.0719L43.2574 21.0033ZM43.2574 17.6679L43.1847 17.5992L43.1847 17.5992L43.2574 17.6679ZM46.2577 17.6679L46.3304 17.5992L46.3303 17.5992L46.2577 17.6679ZM46.2577 21.0033L46.3304 21.0719V21.0719L46.2577 21.0033ZM49.476 16.8831L49.4045 16.8131L49.4041 16.8136L49.476 16.8831ZM54.2265 16.8831L54.1545 16.9525L54.155 16.953L54.2265 16.8831ZM54.2265 21.775L54.1555 21.7046L54.1545 21.7055L54.2265 21.775ZM49.476 21.775L49.4041 21.8445L49.4045 21.845L49.476 21.775ZM50.3577 21.0033L50.285 21.0719L50.3577 21.0033ZM53.358 21.0033L53.4307 21.0719V21.0719L53.358 21.0033ZM53.358 17.6679L53.4307 17.5992L53.4306 17.5992L53.358 17.6679ZM50.3577 17.6679L50.285 17.5992L50.285 17.5992L50.3577 17.6679ZM60.3662 21.0033L60.2927 20.9354L60.2912 20.9371L60.3662 21.0033ZM57.4448 20.9902L57.519 20.9231L57.5183 20.9223L57.4448 20.9902ZM57.4448 17.6679L57.519 17.735L57.519 17.735L57.4448 17.6679ZM60.3662 17.6679L60.2913 17.7342L60.2921 17.735L60.3662 17.6679ZM57.8528 25.4243L57.8818 25.3286L57.8794 25.3279L57.8528 25.4243ZM61.2347 24.6788L61.1642 24.6078L61.2347 24.6788ZM62.1164 16.1244H62.2164V16.0244H62.1164V16.1244ZM60.9584 16.1244V16.0244H60.8584V16.1244H60.9584ZM60.9584 17.0139V17.1139H61.0584V17.0139H60.9584ZM60.9057 17.0139L60.8227 17.0696L60.8524 17.1139H60.9057V17.0139ZM59.9714 16.216L59.9253 16.3048L59.9277 16.3059L59.9714 16.216ZM56.5369 16.9092L56.463 16.8418L56.4625 16.8423L56.5369 16.9092ZM56.5369 21.7619L56.4621 21.8284L56.4635 21.8298L56.5369 21.7619ZM59.9714 22.4552L60.0159 22.5447L60.0167 22.5443L59.9714 22.4552ZM60.9057 21.6442V21.5442H60.8524L60.8227 21.5885L60.9057 21.6442ZM60.9584 21.6442H61.0584V21.5442H60.9584V21.6442ZM60.4057 23.8809L60.4786 23.9493L60.4057 23.8809ZM57.7343 24.1294L57.7916 24.0474L57.7343 24.1294ZM57.0501 23.2269L57.1444 23.1938L57.1095 23.0943L57.012 23.1344L57.0501 23.2269ZM55.9052 23.6978L55.8672 23.6053L55.7798 23.6412L55.8107 23.7304L55.9052 23.6978ZM56.9843 25.045L56.9297 25.1288L56.931 25.1296L56.9843 25.045ZM64.5399 22.5336V22.6336H64.6399V22.5336H64.5399ZM64.5399 13.1684H64.6399V13.0684H64.5399V13.1684ZM63.3293 22.5336H63.2293V22.6336H63.3293V22.5336ZM63.3293 13.1684V13.0684H63.2293V13.1684H63.3293ZM66.2403 21.775L66.1679 21.8439V21.8439L66.2403 21.775ZM70.3197 22.2851L70.2689 22.199L70.2683 22.1994L70.3197 22.2851ZM71.5304 21.0164L71.6185 21.0636L71.6677 20.9718L71.574 20.9264L71.5304 21.0164ZM70.4513 20.4932L70.4949 20.4032L70.4109 20.3624L70.3645 20.4435L70.4513 20.4932ZM67.1878 21.0687L67.1189 21.1412L67.1878 21.0687ZM66.6734 20.3681L66.7662 20.3308L66.7661 20.3307L66.6734 20.3681ZM66.6483 20.3058L66.6113 20.2129L66.518 20.25L66.5555 20.3431L66.6483 20.3058ZM71.5304 18.3605L71.5674 18.4534L71.6457 18.4222L71.6282 18.3397L71.5304 18.3605ZM70.7803 16.8438L70.8588 16.7816L70.8544 16.7767L70.7803 16.8438ZM66.214 16.8962L66.2875 16.9641L66.2879 16.9636L66.214 16.8962ZM69.7933 17.4586L69.7259 17.5325L69.728 17.5343L69.7933 17.4586ZM67.2931 17.4324L67.2289 17.3558L67.2279 17.3566L67.2931 17.4324ZM66.6048 18.5356L66.507 18.5137L66.5061 18.5198L66.6048 18.5356ZM66.6002 18.5644L66.6989 18.5802L66.6989 18.5802L66.6002 18.5644ZM66.5389 19.3679H66.4389V19.5127L66.5743 19.4614L66.5389 19.3679ZM70.1974 17.9816L70.2328 18.0752L70.3341 18.0368L70.2878 17.9389L70.1974 17.9816ZM76.0813 18.7496V18.6496H75.9813V18.7496H76.0813ZM76.0813 22.5548V22.6548H76.1813V22.5548H76.0813ZM80.1601 17.9492L80.0923 17.8757L80.0912 17.8767L80.1601 17.9492ZM80.1601 13.9734L80.0912 14.0459L80.0917 14.0464L80.1601 13.9734ZM74.8708 13.1599V13.0599H74.7709V13.1599H74.8708ZM74.8708 22.5548H74.7709V22.6548H74.8708V22.5548ZM76.0813 14.3146V14.2146H75.9813V14.3146H76.0813ZM76.0813 17.5949H75.9813V17.6949H76.0813V17.5949ZM79.3049 14.8132L79.2323 14.8821L79.2342 14.884L79.3049 14.8132ZM79.3049 17.1094L79.2342 17.0386L79.2333 17.0396L79.3049 17.1094ZM83.0986 13.1599H83.1986V13.0599H83.0986V13.1599ZM83.0986 22.5548V22.6548H83.1986V22.5548H83.0986ZM81.8881 13.1599V13.0599H81.7881V13.1599H81.8881ZM81.8881 22.5548H81.7881V22.6548H81.8881V22.5548ZM85.5224 21.3739L85.46 21.452L85.4613 21.453L85.5224 21.3739ZM87.8249 21.1246L87.7567 21.0514L87.7559 21.0522L87.8249 21.1246ZM88.4302 19.7993H88.5302V19.7508L88.4921 19.7208L88.4302 19.7993ZM85.6145 19.7075L85.5567 19.6259L85.5557 19.6266L85.6145 19.7075ZM88.8117 16.6371L88.7436 16.7103L88.7443 16.7109L88.8117 16.6371ZM89.588 22.5548V22.6548H89.688V22.5548H89.588ZM88.4302 22.5548H88.3302V22.6548H88.4302V22.5548ZM88.4302 21.6625H88.5302V21.5625H88.4302V21.6625ZM88.3775 21.6625V21.5625H88.3246L88.2948 21.6063L88.3775 21.6625ZM84.5882 22.1349L84.5219 22.2097L84.5226 22.2103L84.5882 22.1349ZM84.6277 18.9727L84.5665 18.8936L84.5658 18.8941L84.6277 18.9727ZM88.4302 18.7758L88.381 18.8629L88.5302 18.9471V18.7758H88.4302ZM87.9302 17.4375L87.8636 17.5121L87.8647 17.5131L87.9302 17.4375ZM85.154 17.8442L85.1008 17.9289L85.1817 17.9797L85.2361 17.9013L85.154 17.8442ZM84.0882 17.175L84.0063 17.1177L83.946 17.2038L84.0351 17.2597L84.0882 17.175ZM96.3245 16.1253L96.4162 16.1653L96.4772 16.0253H96.3245V16.1253ZM92.2852 25.389V25.489H92.3507L92.3769 25.429L92.2852 25.389ZM95.0088 16.1253V16.0253H94.9414L94.9161 16.0878L95.0088 16.1253ZM93.1405 20.744V20.844H93.2079L93.2332 20.7815L93.1405 20.744ZM93.1141 20.744L93.0218 20.7824L93.0474 20.844H93.1141V20.744ZM91.1932 16.1253L91.2855 16.0869L91.2599 16.0253H91.1932V16.1253ZM89.8775 16.1253V16.0253H89.724L89.786 16.1657L89.8775 16.1253ZM92.5352 22.148L92.626 22.19L92.645 22.149L92.6267 22.1077L92.5352 22.148ZM91.0353 25.389L90.9445 25.347L90.8788 25.489H91.0353V25.389ZM40.8941 17.9136C40.8941 19.2003 40.5108 20.2149 39.7524 20.9688L39.8934 21.1106C40.6966 20.3123 41.0941 19.2428 41.0941 17.9136H40.8941ZM40.8299 17.2249C40.8728 17.4638 40.8941 17.6933 40.8941 17.9136H41.0941C41.0941 17.6804 41.0715 17.439 41.0267 17.1896L40.8299 17.2249ZM36.362 17.3072H40.9283V17.1072H36.362V17.3072ZM36.462 18.3321V17.2072H36.262V18.3321H36.462ZM39.7834 18.2321H36.362V18.4321H39.7834V18.2321ZM38.7687 20.5669C39.414 20.0248 39.784 19.2803 39.8829 18.3426L39.684 18.3216C39.5898 19.2152 39.2404 19.9094 38.64 20.4138L38.7687 20.5669ZM36.362 21.3751C37.3204 21.3751 38.1251 21.1075 38.7687 20.5669L38.64 20.4138C38.0379 20.9195 37.281 21.1751 36.362 21.1751V21.3751ZM33.686 20.2866C34.4158 21.012 35.3099 21.3751 36.362 21.3751V21.1751C35.3613 21.1751 34.5184 20.8319 33.827 20.1447L33.686 20.2866ZM32.6038 17.5342C32.6038 18.631 32.9636 19.5505 33.6851 20.2857L33.8279 20.1456C33.1458 19.4507 32.8038 18.5826 32.8038 17.5342H32.6038ZM33.6851 14.7828C32.9636 15.5179 32.6038 16.4375 32.6038 17.5342H32.8038C32.8038 16.4858 33.1458 15.6178 33.8279 14.9229L33.6851 14.7828ZM36.362 13.6934C35.3099 13.6934 34.4158 14.0565 33.686 14.7819L33.827 14.9238C34.5184 14.2366 35.3613 13.8934 36.362 13.8934V13.6934ZM37.8761 14.0027C37.4065 13.7962 36.9015 13.6934 36.362 13.6934V13.8934C36.8753 13.8934 37.3528 13.9911 37.7956 14.1858L37.8761 14.0027ZM39.0445 14.8413C38.7435 14.4786 38.3523 14.1991 37.874 14.0018L37.7977 14.1867C38.2493 14.373 38.6126 14.6341 38.8906 14.969L39.0445 14.8413ZM39.7656 13.971L38.8971 14.8342L39.038 14.9761L39.9066 14.1128L39.7656 13.971ZM38.2858 13.1015C38.887 13.3405 39.378 13.6765 39.7613 14.1083L39.9108 13.9755C39.5046 13.5179 38.9867 13.1649 38.3597 12.9156L38.2858 13.1015ZM36.362 12.7423C37.0431 12.7423 37.684 12.8622 38.2858 13.1015L38.3597 12.9156C37.7333 12.6666 37.0671 12.5423 36.362 12.5423V12.7423ZM32.9585 14.1259C33.8867 13.2033 35.0192 12.7423 36.362 12.7423V12.5423C34.9678 12.5423 33.7842 13.0232 32.8175 13.984L32.9585 14.1259ZM31.5668 17.5342C31.5668 16.1822 32.0306 15.0482 32.9585 14.1259L32.8175 13.984C31.8505 14.9452 31.3668 16.1308 31.3668 17.5342H31.5668ZM32.9585 20.9426C32.0306 20.0203 31.5668 18.8863 31.5668 17.5342H31.3668C31.3668 18.9377 31.8505 20.1233 32.8175 21.0844L32.9585 20.9426ZM36.362 22.3262C35.0192 22.3262 33.8867 21.8652 32.9585 20.9426L32.8175 21.0844C33.7842 22.0453 34.9678 22.5262 36.362 22.5262V22.3262ZM39.7504 20.9708C38.8944 21.8727 37.7683 22.3262 36.362 22.3262V22.5262C37.8157 22.5262 38.9969 22.0553 39.8954 21.1085L39.7504 20.9708ZM41.5414 19.329C41.5414 18.3668 41.8446 17.5773 42.4476 16.9525L42.3037 16.8136C41.661 17.4795 41.3414 18.3206 41.3414 19.329H41.5414ZM42.4476 21.7055C41.8446 21.0808 41.5414 20.2913 41.5414 19.329H41.3414C41.3414 20.3375 41.661 21.1786 42.3037 21.8444L42.4476 21.7055ZM44.7575 22.6429C43.8264 22.6429 43.0588 22.3299 42.4472 21.705L42.3042 21.845C42.9559 22.5107 43.7761 22.8429 44.7575 22.8429V22.6429ZM47.0542 21.7055C46.4515 22.3299 45.6886 22.6429 44.7575 22.6429V22.8429C45.7389 22.8429 46.5551 22.5106 47.1981 21.8444L47.0542 21.7055ZM47.9736 19.329C47.9736 20.2999 47.6661 21.0888 47.0552 21.7046L47.1971 21.8454C47.8495 21.188 48.1736 20.3464 48.1736 19.329H47.9736ZM47.0547 16.953C47.6663 17.5778 47.9736 18.3672 47.9736 19.329H48.1736C48.1736 18.3202 47.8493 17.4789 47.1976 16.8131L47.0547 16.953ZM44.7575 16.0152C45.6886 16.0152 46.4515 16.3282 47.0542 16.9525L47.1981 16.8136C46.5551 16.1474 45.7389 15.8152 44.7575 15.8152V16.0152ZM42.4472 16.953C43.0588 16.3282 43.8264 16.0152 44.7575 16.0152V15.8152C43.7761 15.8152 42.9559 16.1474 42.3042 16.8131L42.4472 16.953ZM42.552 19.329C42.552 20.0388 42.7606 20.6229 43.1847 21.0719L43.3301 20.9346C42.947 20.5291 42.752 19.9971 42.752 19.329H42.552ZM43.1847 17.5992C42.7608 18.048 42.552 18.6277 42.552 19.329H42.752C42.752 18.6701 42.9468 18.1424 43.3301 17.7365L43.1847 17.5992ZM44.7575 16.9139C44.1416 16.9139 43.6155 17.1437 43.1847 17.5992L43.33 17.7366C43.7239 17.3201 44.1979 17.1139 44.7575 17.1139V16.9139ZM46.3303 17.5992C45.8996 17.1437 45.3734 16.9139 44.7575 16.9139V17.1139C45.3172 17.1139 45.7911 17.3201 46.185 17.7366L46.3303 17.5992ZM46.963 19.329C46.963 18.6277 46.7542 18.048 46.3304 17.5992L46.185 17.7365C46.5682 18.1424 46.763 18.6701 46.763 19.329H46.963ZM46.3304 21.0719C46.7544 20.6229 46.963 20.0388 46.963 19.329H46.763C46.763 19.9971 46.568 20.5291 46.185 20.9346L46.3304 21.0719ZM44.7575 21.7442C45.3811 21.7442 45.9076 21.5196 46.3304 21.0719L46.185 20.9346C45.8006 21.3416 45.327 21.5442 44.7575 21.5442V21.7442ZM43.1847 21.0719C43.6074 21.5196 44.1339 21.7442 44.7575 21.7442V21.5442C44.188 21.5442 43.7144 21.3416 43.3301 20.9346L43.1847 21.0719ZM49.4041 16.8136C48.7613 17.4795 48.4417 18.3206 48.4417 19.329H48.6417C48.6417 18.3668 48.9449 17.5773 49.548 16.9525L49.4041 16.8136ZM51.8578 15.8152C50.8765 15.8152 50.0562 16.1474 49.4045 16.8131L49.5475 16.953C50.1591 16.3282 50.9267 16.0152 51.8578 16.0152V15.8152ZM54.2984 16.8136C53.6554 16.1474 52.8392 15.8152 51.8578 15.8152V16.0152C52.7889 16.0152 53.5519 16.3282 54.1545 16.9525L54.2984 16.8136ZM55.274 19.329C55.274 18.3202 54.9496 17.4789 54.298 16.8131L54.155 16.953C54.7666 17.5778 55.074 18.3672 55.074 19.329H55.274ZM54.2975 21.8454C54.9498 21.188 55.274 20.3464 55.274 19.329H55.074C55.074 20.2999 54.7665 21.0888 54.1555 21.7046L54.2975 21.8454ZM51.8578 22.8429C52.8392 22.8429 53.6554 22.5106 54.2984 21.8444L54.1545 21.7055C53.5519 22.3299 52.7889 22.6429 51.8578 22.6429V22.8429ZM49.4045 21.845C50.0562 22.5107 50.8765 22.8429 51.8578 22.8429V22.6429C50.9267 22.6429 50.1591 22.3299 49.5475 21.705L49.4045 21.845ZM48.4417 19.329C48.4417 20.3375 48.7613 21.1786 49.4041 21.8444L49.548 21.7055C48.9449 21.0808 48.6417 20.2913 48.6417 19.329H48.4417ZM50.4304 20.9346C50.0473 20.5291 49.8524 19.9971 49.8524 19.329H49.6524C49.6524 20.0388 49.8609 20.6229 50.285 21.0719L50.4304 20.9346ZM51.8578 21.5442C51.2883 21.5442 50.8147 21.3416 50.4304 20.9346L50.285 21.0719C50.7077 21.5196 51.2342 21.7442 51.8578 21.7442V21.5442ZM53.2853 20.9346C52.9009 21.3416 52.4273 21.5442 51.8578 21.5442V21.7442C52.4814 21.7442 53.0079 21.5196 53.4307 21.0719L53.2853 20.9346ZM53.8633 19.329C53.8633 19.9971 53.6683 20.5291 53.2853 20.9346L53.4307 21.0719C53.8547 20.6229 54.0633 20.0388 54.0633 19.329H53.8633ZM53.2853 17.7365C53.6685 18.1424 53.8633 18.6701 53.8633 19.329H54.0633C54.0633 18.6277 53.8545 18.048 53.4307 17.5992L53.2853 17.7365ZM51.8578 17.1139C52.4175 17.1139 52.8914 17.3201 53.2853 17.7366L53.4306 17.5992C52.9999 17.1437 52.4737 16.9139 51.8578 16.9139V17.1139ZM50.4303 17.7366C50.8242 17.3201 51.2982 17.1139 51.8578 17.1139V16.9139C51.2419 16.9139 50.7158 17.1437 50.285 17.5992L50.4303 17.7366ZM49.8524 19.329C49.8524 18.6701 50.0471 18.1424 50.4304 17.7365L50.285 17.5992C49.8611 18.048 49.6524 18.6277 49.6524 19.329H49.8524ZM58.9055 21.7442C59.5292 21.7442 60.044 21.5194 60.4412 21.0695L60.2912 20.9371C59.934 21.3418 59.4749 21.5442 58.9055 21.5442V21.7442ZM57.3707 21.0573C57.7841 21.5139 58.2978 21.7442 58.9055 21.7442V21.5442C58.3553 21.5442 57.8951 21.3385 57.519 20.9231L57.3707 21.0573ZM56.7527 19.329C56.7527 20.0298 56.9567 20.6092 57.3714 21.0581L57.5183 20.9223C57.1434 20.5166 56.9527 19.9886 56.9527 19.329H56.7527ZM57.3707 17.6008C56.9569 18.0578 56.7527 18.6366 56.7527 19.329H56.9527C56.9527 18.6787 57.1432 18.15 57.519 17.735L57.3707 17.6008ZM58.9055 16.9139C58.2978 16.9139 57.7841 17.1442 57.3707 17.6008L57.519 17.735C57.8951 17.3196 58.3553 17.1139 58.9055 17.1139V16.9139ZM60.4411 17.6016C60.0359 17.1439 59.5216 16.9139 58.9055 16.9139V17.1139C59.465 17.1139 59.9245 17.3198 60.2913 17.7342L60.4411 17.6016ZM61.0584 19.329C61.0584 18.6366 60.8541 18.0578 60.4403 17.6008L60.2921 17.735C60.6678 18.15 60.8584 18.6787 60.8584 19.329H61.0584ZM60.4396 21.0711C60.8546 20.6221 61.0584 20.0382 61.0584 19.329H60.8584C60.8584 19.9977 60.6674 20.5299 60.2927 20.9354L60.4396 21.0711ZM58.866 25.4682C58.5153 25.4682 58.1874 25.4214 57.8818 25.3286L57.8237 25.52C58.1498 25.619 58.4974 25.6682 58.866 25.6682V25.4682ZM61.1642 24.6078C60.5895 25.179 59.827 25.4682 58.866 25.4682V25.6682C59.8702 25.6682 60.6868 25.3644 61.3052 24.7497L61.1642 24.6078ZM62.0164 22.259C62.0164 23.2681 61.7288 24.0467 61.1642 24.6078L61.3052 24.7497C61.9162 24.1424 62.2164 23.3077 62.2164 22.259H62.0164ZM62.0164 16.1244V22.259H62.2164V16.1244H62.0164ZM60.9584 16.2244H62.1164V16.0244H60.9584V16.2244ZM61.0584 17.0139V16.1244H60.8584V17.0139H61.0584ZM60.9057 17.1139H60.9584V16.9139H60.9057V17.1139ZM59.9277 16.3059C60.3078 16.4906 60.6051 16.7453 60.8227 17.0696L60.9888 16.9582C60.7501 16.6024 60.4246 16.3251 60.0151 16.1261L59.9277 16.3059ZM58.7081 16.0152C59.1491 16.0152 59.5542 16.1119 59.9253 16.3047L60.0175 16.1273C59.6166 15.9189 59.1796 15.8152 58.7081 15.8152V16.0152ZM56.6107 16.9767C57.1985 16.3332 57.896 16.0152 58.7081 16.0152V15.8152C57.8358 15.8152 57.0859 16.1599 56.463 16.8418L56.6107 16.9767ZM55.742 19.329C55.742 18.4015 56.0323 17.6192 56.6112 16.9761L56.4625 16.8423C55.8483 17.5247 55.542 18.3556 55.542 19.329H55.742ZM56.6116 21.6955C56.0323 21.0435 55.742 20.2566 55.742 19.329H55.542C55.542 20.3024 55.8483 21.1375 56.4621 21.8283L56.6116 21.6955ZM58.7081 22.6429C57.8956 22.6429 57.1979 22.3289 56.6102 21.694L56.4635 21.8298C57.0865 22.503 57.8363 22.8429 58.7081 22.8429V22.6429ZM59.9269 22.3656C59.5555 22.5502 59.1498 22.6429 58.7081 22.6429V22.8429C59.1788 22.8429 59.6153 22.7438 60.0159 22.5447L59.9269 22.3656ZM60.8227 21.5885C60.6049 21.9132 60.3069 22.1725 59.9261 22.366L60.0167 22.5443C60.4254 22.3367 60.7504 22.0553 60.9888 21.6999L60.8227 21.5885ZM60.9584 21.5442H60.9057V21.7442H60.9584V21.5442ZM61.0584 22.259V21.6442H60.8584V22.259H61.0584ZM60.4786 23.9493C60.8689 23.5336 61.0584 22.9659 61.0584 22.259H60.8584C60.8584 22.9298 60.6793 23.4433 60.3328 23.8124L60.4786 23.9493ZM58.866 24.5695C59.545 24.5695 60.0871 24.3662 60.4786 23.9493L60.3328 23.8124C59.9873 24.1803 59.503 24.3695 58.866 24.3695V24.5695ZM57.6771 24.2114C58.0199 24.4508 58.4175 24.5695 58.866 24.5695V24.3695C58.4548 24.3695 58.098 24.2614 57.7916 24.0474L57.6771 24.2114ZM56.9557 23.26C57.0942 23.6546 57.3352 23.9726 57.6771 24.2114L57.7916 24.0474C57.4843 23.8327 57.2691 23.549 57.1444 23.1938L56.9557 23.26ZM55.9433 23.7902L57.0881 23.3194L57.012 23.1344L55.8672 23.6053L55.9433 23.7902ZM56.4039 24.3933C56.2271 24.1758 56.0924 23.9332 55.9997 23.6651L55.8107 23.7304C55.911 24.0204 56.057 24.2836 56.2487 24.5195L56.4039 24.3933ZM57.0388 24.9612C56.7928 24.801 56.5813 24.6117 56.4039 24.3933L56.2487 24.5195C56.4397 24.7546 56.6669 24.9577 56.9297 25.1288L57.0388 24.9612ZM57.8794 25.3279C57.5725 25.2432 57.292 25.1206 57.0375 24.9604L56.931 25.1296C57.2029 25.3008 57.5014 25.431 57.8262 25.5207L57.8794 25.3279ZM64.6399 22.5336V13.1684H64.4399V22.5336H64.6399ZM63.3293 22.6336H64.5399V22.4336H63.3293V22.6336ZM63.2293 13.1684V22.5336H63.4293V13.1684H63.2293ZM64.5399 13.0684H63.3293V13.2684H64.5399V13.0684ZM68.5827 22.6429C67.6607 22.6429 66.9067 22.3301 66.3128 21.7061L66.1679 21.8439C66.8022 22.5104 67.6098 22.8429 68.5827 22.8429V22.6429ZM70.2683 22.1994C69.7764 22.4944 69.2155 22.6429 68.5827 22.6429V22.8429C69.2482 22.8429 69.8453 22.6863 70.3711 22.3709L70.2683 22.1994ZM71.4422 20.9692C71.1612 21.494 70.7704 21.9033 70.2689 22.199L70.3705 22.3713C70.9042 22.0565 71.3205 21.62 71.6185 21.0636L71.4422 20.9692ZM70.4077 20.5831L71.4867 21.1063L71.574 20.9264L70.4949 20.4032L70.4077 20.5831ZM68.6353 21.7442C69.449 21.7442 70.0848 21.3359 70.5381 20.5428L70.3645 20.4435C69.9405 21.1852 69.3656 21.5442 68.6353 21.5442V21.7442ZM67.1189 21.1412C67.5412 21.5427 68.0485 21.7442 68.6353 21.7442V21.5442C68.0993 21.5442 67.6415 21.3621 67.2567 20.9962L67.1189 21.1412ZM66.5806 20.4053C66.6364 20.5446 66.6747 20.641 66.7499 20.7473C66.8236 20.8514 66.9307 20.9622 67.1189 21.1412L67.2567 20.9962C67.0677 20.8165 66.9741 20.7179 66.9131 20.6317C66.8537 20.5477 66.8233 20.4732 66.7662 20.3308L66.5806 20.4053ZM66.5555 20.3431L66.5806 20.4054L66.7661 20.3307L66.7411 20.2684L66.5555 20.3431ZM71.4933 18.2676L66.6113 20.2129L66.6853 20.3987L71.5674 18.4534L71.4933 18.2676ZM70.7019 16.906C70.8971 17.1519 71.0404 17.3412 71.1549 17.5581C71.2687 17.7738 71.3561 18.0207 71.4325 18.3812L71.6282 18.3397C71.549 17.9664 71.4564 17.7009 71.3317 17.4647C71.2077 17.2297 71.0538 17.0276 70.8586 16.7817L70.7019 16.906ZM68.5037 16.0152C69.4362 16.0152 70.1665 16.3159 70.7062 16.911L70.8544 16.7767C70.2711 16.1335 69.4837 15.8152 68.5037 15.8152V16.0152ZM66.2879 16.9636C66.8645 16.3315 67.6003 16.0152 68.5037 16.0152V15.8152C67.5473 15.8152 66.7567 16.1528 66.1402 16.8288L66.2879 16.9636ZM65.4192 19.329C65.4192 18.3745 65.7099 17.5887 66.2875 16.9641L66.1406 16.8283C65.525 17.4942 65.2192 18.3303 65.2192 19.329H65.4192ZM66.3128 21.7061C65.7183 21.0814 65.4192 20.2917 65.4192 19.329H65.2192C65.2192 20.3371 65.5342 21.178 66.1679 21.8439L66.3128 21.7061ZM68.4774 17.1139C69.0118 17.1139 69.4241 17.2568 69.7259 17.5324L69.8608 17.3848C69.5134 17.0674 69.0484 16.9139 68.4774 16.9139V17.1139ZM67.3573 17.5091C67.6717 17.2459 68.0434 17.1139 68.4774 17.1139V16.9139C67.999 16.9139 67.5812 17.0609 67.2289 17.3558L67.3573 17.5091ZM66.7024 18.5574C66.8019 18.1122 67.046 17.7768 67.3583 17.5083L67.2279 17.3566C66.891 17.6462 66.6182 18.0172 66.5072 18.5138L66.7024 18.5574ZM66.6989 18.5802L66.7035 18.5514L66.5061 18.5198L66.5014 18.5485L66.6989 18.5802ZM66.6389 19.3679C66.6389 18.9529 66.663 18.8039 66.6989 18.5802L66.5014 18.5485C66.4643 18.7799 66.4389 18.9397 66.4389 19.3679H66.6389ZM70.162 17.8881L66.5034 19.2744L66.5743 19.4614L70.2328 18.0752L70.162 17.8881ZM69.728 17.5343C69.8947 17.6782 70.0205 17.8416 70.107 18.0244L70.2878 17.9389C70.1885 17.729 70.0449 17.5437 69.8587 17.3829L69.728 17.5343ZM75.9813 18.7496V22.5548H76.1813V18.7496H75.9813ZM78.0812 18.6496H76.0813V18.8496H78.0812V18.6496ZM80.0912 17.8767C79.5497 18.3914 78.8819 18.6496 78.0812 18.6496V18.8496C78.9296 18.8496 79.6477 18.5742 80.229 18.0217L80.0912 17.8767ZM80.9285 15.9548C80.9285 16.7232 80.6504 17.3612 80.0923 17.8757L80.2279 18.0227C80.8276 17.47 81.1285 16.7784 81.1285 15.9548H80.9285ZM80.0917 14.0464C80.6509 14.5703 80.9285 15.2045 80.9285 15.9548H81.1285C81.1285 15.148 80.8271 14.4613 80.2284 13.9005L80.0917 14.0464ZM78.0812 13.2599C78.8724 13.2599 79.5403 13.5219 80.0912 14.0459L80.229 13.901C79.6395 13.3402 78.9216 13.0599 78.0812 13.0599V13.2599ZM74.8708 13.2599H78.0812V13.0599H74.8708V13.2599ZM74.9708 22.5548V13.1599H74.7709V22.5548H74.9708ZM76.0813 22.4548H74.8708V22.6548H76.0813V22.4548ZM75.9813 14.3146V17.5949H76.1813V14.3146H75.9813ZM78.1075 14.2146H76.0813V14.4146H78.1075V14.2146ZM79.3774 14.7443C79.0416 14.3909 78.6158 14.2146 78.1075 14.2146V14.4146C78.5642 14.4146 78.9365 14.5707 79.2323 14.8821L79.3774 14.7443ZM79.8917 15.9548C79.8917 15.4894 79.7178 15.0838 79.3755 14.7424L79.2342 14.884C79.541 15.1899 79.6917 15.5453 79.6917 15.9548H79.8917ZM79.3755 17.1802C79.7182 16.8384 79.8917 16.4283 79.8917 15.9548H79.6917C79.6917 16.3735 79.5406 16.7332 79.2342 17.0386L79.3755 17.1802ZM78.1075 17.6949C78.6149 17.6949 79.0405 17.5236 79.3764 17.1793L79.2333 17.0396C78.9377 17.3426 78.565 17.4949 78.1075 17.4949V17.6949ZM76.0813 17.6949H78.1075V17.4949H76.0813V17.6949ZM82.9986 13.1599V22.5548H83.1986V13.1599H82.9986ZM81.8881 13.2599H83.0986V13.0599H81.8881V13.2599ZM81.9881 22.5548V13.1599H81.7881V22.5548H81.9881ZM83.0986 22.4548H81.8881V22.6548H83.0986V22.4548ZM85.5848 21.2957C85.3435 21.1032 85.2277 20.8687 85.2277 20.5866H85.0277C85.0277 20.9343 85.175 21.2246 85.46 21.452L85.5848 21.2957ZM86.4697 21.5888C86.1311 21.5888 85.8371 21.4905 85.5835 21.2947L85.4613 21.453C85.7516 21.6771 86.0891 21.7888 86.4697 21.7888V21.5888ZM87.7559 21.0522C87.3783 21.412 86.9508 21.5888 86.4697 21.5888V21.7888C87.0061 21.7888 87.4821 21.5894 87.8939 21.197L87.7559 21.0522ZM88.3302 19.7993C88.3302 20.2763 88.1419 20.6923 87.7567 21.0514L87.8931 21.1977C88.3149 20.8045 88.5302 20.337 88.5302 19.7993H88.3302ZM86.8513 19.4532C87.5132 19.4532 88.0146 19.599 88.3682 19.8778L88.4921 19.7208C88.0913 19.4048 87.5402 19.2532 86.8513 19.2532V19.4532ZM85.6723 19.7891C85.9855 19.5671 86.3765 19.4532 86.8513 19.4532V19.2532C86.3436 19.2532 85.9101 19.3754 85.5567 19.6259L85.6723 19.7891ZM85.2277 20.5866C85.2277 20.2737 85.3703 20.0089 85.6733 19.7883L85.5557 19.6266C85.2096 19.8784 85.0277 20.1997 85.0277 20.5866H85.2277ZM88.8798 16.5638C88.3392 16.0613 87.6063 15.8154 86.6934 15.8154V16.0154C87.5698 16.0154 88.2492 16.2506 88.7436 16.7103L88.8798 16.5638ZM89.688 18.5921C89.688 17.7387 89.4213 17.0581 88.8791 16.5632L88.7443 16.7109C89.2372 17.1608 89.488 17.7835 89.488 18.5921H89.688ZM89.688 22.5548V18.5921H89.488V22.5548H89.688ZM88.4302 22.6548H89.588V22.4548H88.4302V22.6548ZM88.3302 21.6625V22.5548H88.5302V21.6625H88.3302ZM88.3775 21.7625H88.4302V21.5625H88.3775V21.7625ZM86.3776 22.8647C87.2465 22.8647 87.9431 22.4788 88.4602 21.7188L88.2948 21.6063C87.812 22.3159 87.1753 22.6647 86.3776 22.6647V22.8647ZM84.5226 22.2103C85.0253 22.6479 85.6459 22.8647 86.3776 22.8647V22.6647C85.6884 22.6647 85.1161 22.4617 84.6539 22.0595L84.5226 22.2103ZM83.7777 20.5603C83.7777 21.2189 84.0269 21.771 84.5219 22.2097L84.6546 22.0601C84.2022 21.6591 83.9777 21.1614 83.9777 20.5603H83.7777ZM84.5658 18.8941C84.0405 19.3077 83.7777 19.8665 83.7777 20.5603H83.9777C83.9777 19.9246 84.2149 19.4249 84.6895 19.0512L84.5658 18.8941ZM86.6539 18.2822C85.7966 18.2822 85.0975 18.4827 84.5665 18.8936L84.6889 19.0518C85.1754 18.6753 85.8271 18.4822 86.6539 18.4822V18.2822ZM88.4793 18.6888C87.9951 18.4154 87.3847 18.2822 86.6539 18.2822V18.4822C87.3617 18.4822 87.9354 18.6114 88.381 18.8629L88.4793 18.6888ZM88.3302 18.5003V18.7758H88.5302V18.5003H88.3302ZM87.8647 17.5131C88.1773 17.7838 88.3302 18.111 88.3302 18.5003H88.5302C88.5302 18.0498 88.3496 17.6685 87.9956 17.3619L87.8647 17.5131ZM86.7592 17.0913C87.182 17.0913 87.5486 17.231 87.8636 17.5121L87.9967 17.3629C87.6451 17.0491 87.231 16.8913 86.7592 16.8913V17.0913ZM85.2361 17.9013C85.6127 17.3588 86.1175 17.0913 86.7592 17.0913V16.8913C86.05 16.8913 85.4847 17.1925 85.0718 17.7872L85.2361 17.9013ZM84.0351 17.2597L85.1008 17.9289L85.2072 17.7595L84.1414 17.0904L84.0351 17.2597ZM86.6934 15.8154C85.5163 15.8154 84.6152 16.2476 84.0063 17.1177L84.1702 17.2324C84.7367 16.4229 85.5724 16.0154 86.6934 16.0154V15.8154ZM96.2328 16.0854L92.1936 25.349L92.3769 25.429L96.4162 16.1653L96.2328 16.0854ZM95.0088 16.2253H96.3245V16.0253H95.0088V16.2253ZM93.2332 20.7815L95.1015 16.1628L94.9161 16.0878L93.0478 20.7065L93.2332 20.7815ZM93.1141 20.844H93.1405V20.644H93.1141V20.844ZM91.1009 16.1637L93.0218 20.7824L93.2065 20.7056L91.2855 16.0869L91.1009 16.1637ZM89.8775 16.2253H91.1932V16.0253H89.8775V16.2253ZM92.6267 22.1077L89.9689 16.085L89.786 16.1657L92.4437 22.1884L92.6267 22.1077ZM91.126 25.431L92.626 22.19L92.4445 22.106L90.9445 25.347L91.126 25.431ZM92.2852 25.289H91.0353V25.489H92.2852V25.289Z" fill="white"/>
        <mask id="mask0_11797_129019" style="mask-type:alpha" maskUnits="userSpaceOnUse" x="7" y="5" width="19" height="20">
            <path d="M24.1608 13.2704C25.4887 14.0412 25.4887 15.959 24.1608 16.7298L10.4586 24.6835C9.12526 25.4575 7.45455 24.4955 7.45455 22.9538L7.45455 7.04647C7.45455 5.5048 9.12526 4.54281 10.4586 5.31676L24.1608 13.2704Z" fill="#D9D9D9"/>
        </mask>
        <g mask="url(#mask0_11797_129019)">
            <rect x="-1.39062" y="15.0276" width="12.1428" height="12.085" transform="rotate(-44.8832 -1.39062 15.0276)" fill="#4285F4"/>
            <rect x="7.15039" y="6.39795" width="12.1428" height="12.1712" transform="rotate(-44.8832 7.15039 6.39795)" fill="#34A853"/>
            <rect x="7.08203" y="23.6446" width="12.2194" height="6.815" transform="rotate(-44.8832 7.08203 23.6446)" fill="#EA4335"/>
            <rect x="15.7402" y="15.0218" width="12.2194" height="7.46175" transform="rotate(-44.8832 15.7402 15.0218)" fill="#FBBC04"/>
        </g>
        <path d="M36.4133 7.50383C36.4133 8.15383 36.2205 8.67167 35.8348 9.05733C35.4015 9.51667 34.8316 9.74633 34.1253 9.74633C33.4493 9.74633 32.8773 9.51233 32.4093 9.04433C31.9413 8.57633 31.7073 8 31.7073 7.31533C31.7073 6.63067 31.9413 6.05433 32.4093 5.58633C32.8773 5.11833 33.4493 4.88433 34.1253 4.88433C34.4676 4.88433 34.7905 4.945 35.0938 5.06633C35.3971 5.18767 35.6463 5.35883 35.8413 5.57983L35.4123 6.00883C35.2693 5.8355 35.083 5.70117 34.8533 5.60583C34.628 5.50617 34.3853 5.45633 34.1253 5.45633C33.6183 5.45633 33.1893 5.63183 32.8383 5.98283C32.4916 6.33817 32.3183 6.78233 32.3183 7.31533C32.3183 7.84833 32.4916 8.2925 32.8383 8.64783C33.1893 8.99883 33.6183 9.17433 34.1253 9.17433C34.589 9.17433 34.9746 9.04433 35.2823 8.78433C35.59 8.52433 35.7676 8.16683 35.8153 7.71183H34.1253V7.15283H36.3808C36.4025 7.27417 36.4133 7.39117 36.4133 7.50383ZM39.9219 4.98833V5.56033H37.8029V7.03583H39.7139V7.59483H37.8029V9.07033H39.9219V9.64233H37.2049V4.98833H39.9219ZM42.3788 5.56033V9.64233H41.7808V5.56033H40.4808V4.98833H43.6788V5.56033H42.3788ZM46.4593 9.64233H45.8613V4.98833H46.4593V9.64233ZM49.0484 5.56033V9.64233H48.4504V5.56033H47.1504V4.98833H50.3484V5.56033H49.0484ZM56.9605 7.31533C56.9605 8.00433 56.7308 8.58067 56.2715 9.04433C55.8078 9.51233 55.2401 9.74633 54.5685 9.74633C53.8925 9.74633 53.3248 9.51233 52.8655 9.04433C52.4061 8.58067 52.1765 8.00433 52.1765 7.31533C52.1765 6.62633 52.4061 6.05 52.8655 5.58633C53.3248 5.11833 53.8925 4.88433 54.5685 4.88433C55.2445 4.88433 55.8121 5.1205 56.2715 5.59283C56.7308 6.0565 56.9605 6.63067 56.9605 7.31533ZM52.7875 7.31533C52.7875 7.85267 52.9565 8.29683 53.2945 8.64783C53.6368 8.99883 54.0615 9.17433 54.5685 9.17433C55.0755 9.17433 55.498 8.99883 55.836 8.64783C56.1783 8.30117 56.3495 7.857 56.3495 7.31533C56.3495 6.77367 56.1783 6.3295 55.836 5.98283C55.498 5.63183 55.0755 5.45633 54.5685 5.45633C54.0615 5.45633 53.6368 5.63183 53.2945 5.98283C52.9565 6.33383 52.7875 6.778 52.7875 7.31533ZM58.3292 9.64233H57.7312V4.98833H58.4592L60.7212 8.60883H60.7472L60.7212 7.71183V4.98833H61.3192V9.64233H60.6952L58.3292 5.84633H58.3032L58.3292 6.74333V9.64233Z" fill="white"/>
    </g>
    <defs>
        <clipPath id="clip0_11797_129019">
            <rect width="104" height="30" fill="white"/>
        </clipPath>
    </defs>
</svg>
