<svg viewBox="0 0 95 40" fill="none" xmlns="http://www.w3.org/2000/svg">
<path fill-rule="evenodd" clip-rule="evenodd" d="M74.2873 27.1539C78.214 27.1539 81.3978 23.9511 81.3978 20C81.3978 16.049 78.214 12.8462 74.2873 12.8462C70.3601 12.8462 67.1768 16.049 67.1768 20C67.1768 23.9511 70.3601 27.1539 74.2873 27.1539Z" fill="#8AB4DC"/>
<path fill-rule="evenodd" clip-rule="evenodd" d="M74.2212 0.923096C65.9018 0.923096 58.8304 6.27716 56.2451 13.7353C56.3436 13.0035 56.3889 12.205 56.3889 11.3281C56.3889 8.56663 54.8073 5.56783 52.5446 3.94133C50.4292 2.41153 48.292 1.47889 45.7336 1.47889H29.2539V39.056H44.7C47.7508 39.056 50.365 37.9335 52.9717 36.0587C55.3828 34.332 56.9226 31.2599 56.9226 28.3504C56.9226 28.2143 56.9211 28.0797 56.9191 27.9461C59.9251 34.5145 66.5415 39.0769 74.2212 39.0769C84.7293 39.0769 93.2484 30.5357 93.2484 20C93.2484 9.46437 84.7293 0.923096 74.2212 0.923096ZM38.8782 9.62338H42.9068C44.8713 9.62338 46.9354 9.96832 46.9354 12.4806C47.0792 14.7476 45.7251 16.092 43.0109 16.092L38.8782 16.107V9.62338ZM46.3529 29.8323C45.515 30.5242 44.3824 30.4749 43.3474 30.4749H38.8638V23.576H42.9531C45.4294 23.576 47.5487 24.2196 47.6557 27.1157C47.6557 28.0548 47.0922 29.2885 46.3529 29.8323ZM55.4211 22.5896C54.6828 21.6116 53.6105 20.6869 52.0572 19.7912C53.8121 18.8829 54.9382 17.7699 55.6093 16.2839C55.3728 17.4882 55.2474 18.7324 55.2474 20.006C55.2474 20.8823 55.3076 21.7442 55.4211 22.5896ZM74.1336 29.925C68.6683 29.925 64.2375 25.4812 64.2375 20C64.2375 14.5184 68.6683 10.0745 74.1336 10.0745C79.599 10.0745 84.0293 14.5184 84.0293 20C84.0293 25.4812 79.599 29.925 74.1336 29.925Z" fill="#8AB4DC"/>
<path fill-rule="evenodd" clip-rule="evenodd" d="M17.277 15.448H9.55117V1.71796H0.0219727V39.0769H9.50467V24.495H17.2305V39.0769H26.8839V1.71796H17.277V15.448Z" fill="#8AB4DC"/>
<path fill-rule="evenodd" clip-rule="evenodd" d="M88.9031 37.4872C88.2386 37.4872 87.718 37.9729 87.718 38.6814C87.718 39.3893 88.2411 39.8718 88.9031 39.8718C89.5646 39.8718 90.0882 39.3866 90.0882 38.6814C90.0882 37.9729 89.5676 37.4872 88.9031 37.4872ZM88.9031 39.532C88.4292 39.532 88.0772 39.1703 88.0772 38.6814C88.0772 38.1919 88.4261 37.827 88.9031 37.827C89.3745 37.827 89.729 38.1978 89.729 38.6814C89.729 39.1617 89.3714 39.532 88.9031 39.532Z" fill="#8AB4DC"/>
<path fill-rule="evenodd" clip-rule="evenodd" d="M89.1933 39.1806C89.3591 39.17 89.4891 39.0587 89.4891 38.7618C89.4891 38.3788 89.2952 38.282 88.9722 38.282H88.5081V39.8718H88.8177V39.1952H88.8699L89.1519 39.8718H89.5081L89.1933 39.1806ZM88.9942 38.9248H88.8177V38.5557H88.9666C89.0582 38.5557 89.1631 38.5703 89.1631 38.724C89.1631 38.889 89.1022 38.9248 88.9942 38.9248Z" fill="#8AB4DC"/>
</svg>
