<svg width="28" height="27" viewBox="0 0 28 27" fill="none" xmlns="http://www.w3.org/2000/svg">
<path fill-rule="evenodd" clip-rule="evenodd" d="M21.224 5.16089C21.224 7.82429 19.0638 9.9834 16.399 9.9834C13.7343 9.9834 11.5741 7.82429 11.5741 5.16089C11.5741 2.49749 13.7343 0.338379 16.399 0.338379C19.0638 0.338379 21.224 2.49749 21.224 5.16089ZM3.98456 9.9834C6.00113 9.9834 7.63587 8.34948 7.63587 6.33394C7.63587 4.31839 6.00113 2.68447 3.98456 2.68447C1.968 2.68447 0.333252 4.31839 0.333252 6.33394C0.333252 8.34948 1.968 9.9834 3.98456 9.9834ZM7.13189 15.0885L9.43688 9.25838C9.4868 9.1298 9.60187 9.03953 9.73653 9.0233C9.9046 9.00049 10.0663 9.09748 10.1284 9.25838L12.4334 15.0885L18.5762 15.5234C18.723 15.5375 18.8475 15.6396 18.8926 15.7828C18.9377 15.926 18.8949 16.0829 18.7836 16.1816L14.0584 20.2133L15.5566 26.3138C15.5937 26.4627 15.5382 26.6197 15.4164 26.7103C15.2947 26.8008 15.1312 26.8067 15.0034 26.7252L9.78263 23.387L4.56182 26.7252C4.4341 26.8067 4.27058 26.8008 4.14882 26.7103C4.02706 26.6197 3.97156 26.4627 4.00863 26.3138L5.50687 20.2133L0.78164 16.1816C0.67039 16.0829 0.627529 15.926 0.672664 15.7828C0.717799 15.6396 0.842249 15.5375 0.989089 15.5234L7.13189 15.0885ZM22.1663 15.2238C21.6794 15.6027 21.3947 16.1851 21.3947 16.8021V18.7723C21.3947 19.3892 21.6794 19.9717 22.1663 20.3506L23.1493 21.1156C25.1197 22.6491 27.9918 21.245 27.9918 18.7481V16.8262C27.9918 14.3294 25.1197 12.9252 23.1493 14.4587L22.1663 15.2238Z" fill="url(#paint0_linear_992_263)"/>
<defs>
<linearGradient id="paint0_linear_992_263" x1="15.9064" y1="-6.94576" x2="-7.43564" y2="17.2122" gradientUnits="userSpaceOnUse">
<stop stop-color="#17F2FF"/>
<stop offset="0.529852" stop-color="#2D6FD3"/>
<stop offset="1" stop-color="#9844B2"/>
</linearGradient>
</defs>
</svg>
