<svg width="24" height="37" viewBox="0 0 24 37" fill="none" xmlns="http://www.w3.org/2000/svg">
<path fill-rule="evenodd" clip-rule="evenodd" d="M2.07194 4.56028C2.07194 4.56028 3.73284 2.76918 5.69784 1.91582C7.66284 1.06246 12 0.5 12 0.5C12 0.5 15.1974 0.642453 18.1295 1.91582C21.0616 3.18919 21.9281 4.56028 21.9281 4.56028C21.9281 4.56028 24 11.2596 24 14.2566V18.4878C23.7977 19.8733 22.6187 22.3663 22.6187 22.3663L21.5827 30.7229L15.7122 36.5H8.46043L2.93525 30.7229L1.55396 22.3663C1.55396 22.3663 0.227003 19.731 0 18.5084V14.2566C0 11.0833 2.07194 4.56028 2.07194 4.56028Z" fill="#677897" fill-opacity="0.8"/>
<path fill-rule="evenodd" clip-rule="evenodd" d="M6.0957 31.4337L6.43016 33.5082L8.1037 34.4197L9.44154 32.8568C9.44154 32.8568 10.9454 32.4267 11.9488 32.4267C12.9521 32.4267 14.5648 32.8568 14.5648 32.8568L15.9027 34.4197L17.5762 33.5082L17.9107 31.4337L16.4044 32.5042L15.401 30.6258C15.401 30.6258 13.7883 30.2295 11.9488 30.2295C10.1092 30.2295 8.60539 30.6258 8.60539 30.6258L7.60201 32.5042L6.0957 31.4337Z" fill="white"/>
<path fill-rule="evenodd" clip-rule="evenodd" d="M6.0957 31.4335L6.43004 33.5072L8.10294 34.4184L9.44027 32.8561L8.60444 30.626L7.60144 32.5036L6.0957 31.4335Z" fill="#677897" fill-opacity="0.5"/>
<path fill-rule="evenodd" clip-rule="evenodd" d="M17.9043 31.4335L17.57 33.5072L15.8971 34.4184L14.5597 32.8561L15.3956 30.626L16.3986 32.5036L17.9043 31.4335Z" fill="#677897" fill-opacity="0.5"/>
<path fill-rule="evenodd" clip-rule="evenodd" d="M20.8979 15.2743L22.3498 19.3892C22.4506 19.6749 22.4164 19.9909 22.2569 20.2485L18.7246 25.9516L17.6391 28.8468L18.0365 30.7057L16.659 31.4339L15.7989 29.895C15.7989 29.895 13.941 29.3261 11.9622 29.3261C9.98341 29.3261 8.35093 29.895 8.35093 29.895L7.49079 31.4339L6.11331 30.7057L6.45736 28.8468L5.42521 25.9516L1.87813 20.2246C1.72712 19.9808 1.68806 19.6839 1.77088 19.4093L3.01811 15.2743L2.32873 7.54704C2.32873 7.54704 3.21879 6.60558 4.04899 5.9519C4.51366 5.58604 5.21302 5.23838 5.7388 5.00315C6.15746 4.81586 6.63932 4.96902 6.86157 5.37021C7.13555 5.86481 7.50651 6.61367 7.83485 7.54704C8.08946 8.27084 8.34031 8.93808 8.54669 9.47109C8.83793 10.2233 9.56544 10.7074 10.372 10.7074H13.1921C14.0069 10.7074 14.7407 10.2137 15.0349 9.45395C15.2583 8.87702 15.5217 8.18119 15.7455 7.54704C16.0304 6.73961 16.4345 5.94004 16.7311 5.3988C16.9518 4.9961 17.428 4.82217 17.8534 4.99528C18.3811 5.21008 19.1033 5.54137 19.7034 5.9519C20.7929 6.69729 21.5957 7.54704 21.5957 7.54704L20.8979 15.2743Z" fill="white"/>
<path fill-rule="evenodd" clip-rule="evenodd" d="M2.38981 17.2399L2.98267 15.2743L2.29492 7.55762L4.70528 17.5008L3.49665 18.5586L2.38981 17.2399Z" fill="#677897" fill-opacity="0.5"/>
<path fill-rule="evenodd" clip-rule="evenodd" d="M21.5625 17.2399L20.8678 15.2743L21.5625 7.55762L19.1452 17.5008L20.3539 18.5586L21.5625 17.2399Z" fill="#677897" fill-opacity="0.5"/>
<path fill-rule="evenodd" clip-rule="evenodd" d="M8.35093 29.8947L7.49079 31.4336L6.11331 30.7054L6.45737 28.8465L5.42521 25.9513L1.64062 19.8408C1.64062 19.8408 4.56137 22.9427 5.70762 24.6601C6.85388 26.3775 8.35093 29.8947 8.35093 29.8947Z" fill="#677897" fill-opacity="0.5"/>
<path fill-rule="evenodd" clip-rule="evenodd" d="M15.7897 29.8947L16.6498 31.4336L18.0273 30.7054L17.6299 28.8465L18.7154 25.9513L22.5 19.8408C22.5 19.8408 19.5793 22.9427 18.433 24.6601C17.2867 26.3775 15.7897 29.8947 15.7897 29.8947Z" fill="#677897" fill-opacity="0.5"/>
<path fill-rule="evenodd" clip-rule="evenodd" d="M14.5342 18.6696L19.1595 17.4918L20.3822 18.5653L19.2007 19.9023L15.0727 19.9759L14.2 19.2474L14.5342 18.6696Z" fill="#677897" fill-opacity="0.8"/>
<path fill-rule="evenodd" clip-rule="evenodd" d="M9.37401 18.6696L4.74872 17.4918L3.526 18.5653L4.70751 19.9023L8.83552 19.9759L9.70824 19.2474L9.37401 18.6696Z" fill="#677897" fill-opacity="0.8"/>
</svg>
