<svg xmlns="http://www.w3.org/2000/svg" width="20" height="20" viewBox="0 0 20 20"><g><g><g><path fill="#b4c0d5" d="M9.995 4.667h-.001zm0 0c1.446 0 1.627.006 2.196.032.567.026.954.116 1.294.247.35.136.647.318.944.615.296.296.478.593.615.944.13.339.22.726.247 1.293.026.568.032.75.032 2.197s-.006 1.628-.032 2.197c-.026.567-.116.954-.247 1.293-.137.35-.319.648-.615.944a2.607 2.607 0 0 1-.944.615c-.339.131-.726.221-1.294.247-.568.026-.749.032-2.196.032s-1.629-.006-2.197-.032c-.567-.026-.954-.116-1.293-.247a2.61 2.61 0 0 1-.944-.615 2.61 2.61 0 0 1-.615-.944c-.131-.339-.221-.726-.247-1.293-.026-.569-.032-.75-.032-2.197s.006-1.629.032-2.197c.025-.567.115-.954.247-1.293.137-.35.319-.648.615-.944a2.61 2.61 0 0 1 .944-.615c.339-.131.726-.221 1.293-.247.569-.026.75-.032 2.197-.032zM10 20c5.523 0 10-4.477 10-10S15.523 0 10 0 0 4.477 0 10s4.477 10 10 10z"/></g><g><path fill="#b4c0d5" d="M10.002 7.265a2.739 2.739 0 1 1 0 5.477 2.739 2.739 0 0 1 0-5.477zm2.847-.748a.64.64 0 1 1 0 1.28.64.64 0 0 1 0-1.28zM9.524 5.63c-.994.001-1.185.008-1.677.03-.52.024-.802.11-.99.184a1.655 1.655 0 0 0-.614.399 1.652 1.652 0 0 0-.399.613c-.073.188-.16.47-.183.99-.026.563-.031.73-.031 2.155 0 1.424.005 1.593.03 2.155.024.52.111.803.184.99.097.25.213.427.4.613.186.187.364.303.613.4.188.072.47.16.99.183.562.026.731.031 2.155.031s1.593-.005 2.155-.03c.52-.025.803-.111.99-.185a1.65 1.65 0 0 0 .614-.398c.186-.187.302-.364.399-.613.073-.188.16-.47.183-.99.026-.562.031-.731.031-2.155 0-1.423-.005-1.592-.03-2.154-.024-.52-.111-.802-.184-.99a1.655 1.655 0 0 0-.4-.613 1.65 1.65 0 0 0-.612-.4c-.188-.072-.47-.16-.99-.183-.563-.026-.732-.03-2.156-.03h-.478z"/></g><g><path fill="#b4c0d5" d="M9.998 8.22a1.778 1.778 0 1 1 0 3.556 1.778 1.778 0 0 1 0-3.556z"/></g></g></g></svg>