<svg xmlns="http://www.w3.org/2000/svg" width="19" height="22" viewBox="0 0 19 22"><g><g><g><path fill="#858585" d="M14.667 14.333a.911.911 0 0 0-.917.907c0 .501.41.907.917.907a.911.911 0 0 0 .916-.907.911.911 0 0 0-.916-.907zm-3.662 0a.914.914 0 0 0-.922.907c0 .501.413.907.922.907.51 0 .922-.406.922-.907a.914.914 0 0 0-.922-.907zm-3.672 0a.911.911 0 0 0-.916.907c0 .501.41.907.916.907a.911.911 0 0 0 .917-.907.911.911 0 0 0-.917-.907zm-3.666 0a.911.911 0 0 0-.917.907c0 .501.41.907.917.907a.911.911 0 0 0 .916-.907.911.911 0 0 0-.916-.907zm-2.292-4.96h15.583c.258 0 .459.197.459.45v10.824c0 .254-.2.451-.459.451H1.375a.449.449 0 0 1-.458-.451V9.823c0-.253.2-.45.458-.45zM9.167.901c2.79 0 5.041 2.214 5.041 4.96V8.47H4.125V5.863c0-2.747 2.25-4.961 5.042-4.961zm0-.902C5.88 0 3.208 2.63 3.208 5.863V8.47H1.375C.621 8.47 0 9.082 0 9.823v10.824C0 21.389.621 22 1.375 22h15.583c.754 0 1.375-.611 1.375-1.353V9.823c0-.741-.62-1.353-1.375-1.353h-1.833V5.863C15.125 2.63 12.452 0 9.167 0z"/></g></g></g></svg>