<?xml version="1.0" encoding="UTF-8"?>
<svg width="41px" height="45px" viewBox="0 0 41 45" version="1.1" xmlns="http://www.w3.org/2000/svg" xmlns:xlink="http://www.w3.org/1999/xlink">
    <title>1024</title>
    <defs>
        <linearGradient x1="100%" y1="19.4805383%" x2="11.6834243%" y2="99.3645464%" id="linearGradient-1">
            <stop stop-color="#17F2FF" offset="0%"></stop>
            <stop stop-color="#2D6FD3" offset="52.985196%"></stop>
            <stop stop-color="#9844B2" offset="100%"></stop>
        </linearGradient>
    </defs>
    <g id="Page-1" stroke="none" stroke-width="1" fill="none" fill-rule="evenodd">
        <g id="1024" transform="translate(0.000000, 4.000000)" fill="url(#linearGradient-1)">
            <g id="Icon" transform="translate(0.000000, -3.500000)">
                <g id="Group-2" transform="translate(6.333294, 9.838381)">
                    <path d="M9.40327578,8.68491961 C9.5713455,8.66210976 9.73301338,8.75910037 9.79512417,8.92000412 L9.79512417,8.92000412 L12.1001147,14.7500999 L18.2429144,15.1850063 C18.3897542,15.1991656 18.5142043,15.3011842 18.559339,15.4443967 C18.6044737,15.5876091 18.5616135,15.7444758 18.4503636,15.8432429 L18.4503636,15.8432429 L13.725133,19.8749422 L15.2233768,25.9753853 C15.2604472,26.1243481 15.2049412,26.2813295 15.083184,26.3718769 C14.9614269,26.4624243 14.7979075,26.4683261 14.6701791,26.3867831 L14.6701791,26.3867831 L9.44937559,23.0485831 L4.22857206,26.3867831 C4.10084373,26.4683261 3.9373243,26.4624243 3.81556715,26.3718769 C3.69381,26.2813295 3.638304,26.1243481 3.67537434,25.9753853 L3.67537434,25.9753853 L5.17361818,19.8749422 L0.448387612,15.8432429 C0.337137648,15.7444758 0.294277485,15.5876091 0.339412179,15.4443967 C0.384546873,15.3011842 0.508997025,15.1991656 0.655836758,15.1850063 L0.655836758,15.1850063 L6.79863649,14.7500999 L9.10362701,8.92000412 C9.15354705,8.79142397 9.26861692,8.7011478 9.40327578,8.68491961 Z M27.6585804,13.3445249 L27.6585804,21.5530698 C27.6585804,23.2060134 26.5986325,23.7210727 25.2954881,22.7068861 L22.6416047,20.6414718 C21.820229,20.0022271 21.1452243,18.6878015 21.0686541,17.6032372 L21.063,17.448 L21.0686399,17.2957115 C21.1450626,16.2175291 21.8188541,14.8964376 22.6416047,14.2561228 L25.2954881,12.1907085 C26.600588,11.1750001 27.6585804,11.6869788 27.6585804,13.3445249 Z M3.65131032,2.34608727 C5.66787332,2.34608727 7.30262064,3.98001023 7.30262064,5.99555635 C7.30262064,8.01110247 5.66787332,9.64502543 3.65131032,9.64502543 C1.63474731,9.64502543 7.10542736e-15,8.01110247 7.10542736e-15,5.99555635 C7.10542736e-15,3.98001023 1.63474731,2.34608727 3.65131032,2.34608727 Z M16.0657654,0 C18.7305094,0 20.8907112,2.15911249 20.8907112,4.82251272 C20.8907112,7.48591294 18.7305094,9.64502543 16.0657654,9.64502543 C13.4010214,9.64502543 11.2408196,7.48591294 11.2408196,4.82251272 C11.2408196,2.15911249 13.4010214,0 16.0657654,0 Z" id="Combined-Shape"></path>
                </g>
            </g>
        </g>
    </g>
</svg>
