<svg xmlns="http://www.w3.org/2000/svg" width="19" height="14" viewBox="0 0 19 14"><defs><clipPath id="6e0oa"><path fill="#fff" d="M0 2a2 2 0 0 1 2-2h14.667a2 2 0 0 1 2 2v10a2 2 0 0 1-2 2H2a2 2 0 0 1-2-2z"/></clipPath></defs><g><g><g><path fill="none" stroke="#858585" stroke-miterlimit="20" d="M.39 2.33v0l8.373 5.825a1 1 0 0 0 1.143 0l8.373-5.825v0"/></g><g><path fill="none" stroke="#858585" stroke-miterlimit="20" stroke-width="2" d="M0 2a2 2 0 0 1 2-2h14.667a2 2 0 0 1 2 2v10a2 2 0 0 1-2 2H2a2 2 0 0 1-2-2z" clip-path="url(&quot;#6e0oa&quot;)"/></g></g></g></svg>