<svg xmlns="http://www.w3.org/2000/svg" width="20" height="20" viewBox="0 0 20 20"><g><g><g><path fill="#b4c0d5" d="M15.258 7.4l-3.211 5.156L9.8 8.951l2.012-3.23a.119.119 0 0 1 .1-.054h.003c.017 0 .033.004.047.011l3.264 1.613c.04.02.055.07.031.108zm-3.39 5.432l-3.13-1.543V7.815zm3.434-4.931v6.32c0 .174-.128.253-.285.175l-2.875-1.42zm-6.868-.526v6.85c0 .127-.07.203-.17.203a.263.263 0 0 1-.115-.03L5.19 12.936a.373.373 0 0 1-.19-.304v-6.79c0-.043.011-.077.031-.1a.104.104 0 0 1 .082-.037c.024 0 .05.007.077.02l3.202 1.582a.076.076 0 0 1 .042.068zM10 20c5.523 0 10-4.477 10-10S15.523 0 10 0 0 4.477 0 10s4.477 10 10 10z"/></g></g></g></svg>