<svg width="82" height="58" viewBox="0 0 82 58" fill="none" xmlns="http://www.w3.org/2000/svg">
    <g filter="url(#filter0_b_14024_195289)">
        <circle cx="42.0525" cy="27.2856" r="16.1384" transform="rotate(46.9084 42.0525 27.2856)" fill="url(#paint0_linear_14024_195289)"/>
        <circle cx="42.0525" cy="27.2856" r="15.8884" transform="rotate(46.9084 42.0525 27.2856)" stroke="#007DFF" stroke-width="0.5"/>
    </g>
    <path d="M50.3655 40.8408C63.5494 36.9754 66.5337 58.7927 81.6619 51.2683" stroke="#007DFF" stroke-width="0.5"/>
    <g filter="url(#filter1_b_14024_195289)">
        <path fill-rule="evenodd" clip-rule="evenodd" d="M37.4409 52.4656C32.2252 51.5147 27.2585 48.9411 23.3583 44.7721C13.6998 34.4477 14.2396 18.2484 24.5639 8.58988C34.8883 -1.06865 51.0876 -0.528893 60.7461 9.79546C70.4047 20.1198 69.8649 36.3192 59.5405 45.9777C54.5903 50.6086 48.2895 52.8951 42.0067 52.8827C40.3397 52.8472 39.3306 52.7442 37.4409 52.4656ZM35.4612 41.9534C32.9567 44.2965 29.0269 44.1655 26.6839 41.661C24.3408 39.1564 24.4718 35.2267 26.9763 32.8836C29.4809 30.5406 33.4106 30.6715 35.7537 33.1761C38.0967 35.6806 37.9658 39.6104 35.4612 41.9534ZM38.2731 30.8192C40.2257 32.9064 43.5005 33.0155 45.5876 31.0629C47.6747 29.1104 47.7839 25.8356 45.8313 23.7485C43.8788 21.6613 40.604 21.5522 38.5168 23.5048C36.4297 25.4573 36.3206 28.7321 38.2731 30.8192ZM57.128 21.684C54.6234 24.027 50.6936 23.8961 48.3506 21.3915C46.0076 18.887 46.1385 14.9572 48.6431 12.6142C51.1476 10.2711 55.0774 10.4021 57.4204 12.9066C59.7635 15.4112 59.6325 19.341 57.128 21.684ZM27.3827 20.6929C29.7257 23.1975 33.6555 23.3284 36.1601 20.9854C38.6646 18.6423 38.7956 14.7126 36.4525 12.208C34.1095 9.70343 30.1797 9.57249 27.6752 11.9155C25.1706 14.2586 25.0397 18.1883 27.3827 20.6929ZM56.4295 42.6521C53.9249 44.9951 49.9952 44.8642 47.6521 42.3596C45.3091 39.8551 45.44 35.9253 47.9446 33.5823C50.4491 31.2392 54.3789 31.3702 56.7219 33.8747C59.065 36.3793 58.934 40.3091 56.4295 42.6521Z" fill="white"/>
        <path d="M45.5876 31.0629C43.5005 33.0155 40.2257 32.9064 38.2731 30.8192C36.3206 28.7321 36.4297 25.4573 38.5168 23.5048C40.604 21.5522 43.8788 21.6613 45.8313 23.7485C47.7839 25.8356 47.6747 29.1104 45.5876 31.0629Z" fill="white"/>
        <path fill-rule="evenodd" clip-rule="evenodd" d="M37.4409 52.4656C32.2252 51.5147 27.2585 48.9411 23.3583 44.7721C13.6998 34.4477 14.2396 18.2484 24.5639 8.58988C34.8883 -1.06865 51.0876 -0.528893 60.7461 9.79546C70.4047 20.1198 69.8649 36.3192 59.5405 45.9777C54.5903 50.6086 48.2895 52.8951 42.0067 52.8827C40.3397 52.8472 39.3306 52.7442 37.4409 52.4656ZM35.4612 41.9534C32.9567 44.2965 29.0269 44.1655 26.6839 41.661C24.3408 39.1564 24.4718 35.2267 26.9763 32.8836C29.4809 30.5406 33.4106 30.6715 35.7537 33.1761C38.0967 35.6806 37.9658 39.6104 35.4612 41.9534ZM38.2731 30.8192C40.2257 32.9064 43.5005 33.0155 45.5876 31.0629C47.6747 29.1104 47.7839 25.8356 45.8313 23.7485C43.8788 21.6613 40.604 21.5522 38.5168 23.5048C36.4297 25.4573 36.3206 28.7321 38.2731 30.8192ZM57.128 21.684C54.6234 24.027 50.6936 23.8961 48.3506 21.3915C46.0076 18.887 46.1385 14.9572 48.6431 12.6142C51.1476 10.2711 55.0774 10.4021 57.4204 12.9066C59.7635 15.4112 59.6325 19.341 57.128 21.684ZM27.3827 20.6929C29.7257 23.1975 33.6555 23.3284 36.1601 20.9854C38.6646 18.6423 38.7956 14.7126 36.4525 12.208C34.1095 9.70343 30.1797 9.57249 27.6752 11.9155C25.1706 14.2586 25.0397 18.1883 27.3827 20.6929ZM56.4295 42.6521C53.9249 44.9951 49.9952 44.8642 47.6521 42.3596C45.3091 39.8551 45.44 35.9253 47.9446 33.5823C50.4491 31.2392 54.3789 31.3702 56.7219 33.8747C59.065 36.3793 58.934 40.3091 56.4295 42.6521Z" stroke="#007DFF" stroke-width="0.5"/>
        <path d="M45.5876 31.0629C43.5005 33.0155 40.2257 32.9064 38.2731 30.8192C36.3206 28.7321 36.4297 25.4573 38.5168 23.5048C40.604 21.5522 43.8788 21.6613 45.8313 23.7485C47.7839 25.8356 47.6747 29.1104 45.5876 31.0629Z" stroke="#007DFF" stroke-width="0.5"/>
    </g>
    <g filter="url(#filter2_b_14024_195289)">
        <path d="M47.6183 54.6024L47.6191 54.6024C49.3144 54.5144 50.1826 54.465 51.505 54.3767L51.5057 54.3766C53.9467 54.2071 55.9217 54.0079 57.2895 53.7871C57.9715 53.6771 58.5132 53.56 58.889 53.435C59.0751 53.3731 59.2355 53.3045 59.3543 53.2249C59.4612 53.1533 59.6031 53.0261 59.6031 52.8315C59.6031 52.6507 59.486 52.5224 59.38 52.442C59.269 52.3575 59.1189 52.2852 58.945 52.2205C58.5944 52.0901 58.0851 51.9683 57.4305 51.8543C56.1174 51.6255 54.1725 51.4197 51.6311 51.2491L51.6227 51.2485H51.6144H9.05152H9.0423L9.0331 51.2492C6.77132 51.4163 4.82502 51.6303 3.44101 51.8636C2.75067 51.98 2.19092 52.1027 1.79952 52.2298C1.60559 52.2928 1.43901 52.3613 1.31608 52.4381C1.25458 52.4765 1.19313 52.5237 1.14484 52.5826C1.0955 52.6428 1.05078 52.7272 1.05078 52.8315C1.05078 53.0338 1.20354 53.1635 1.31555 53.2354C1.44192 53.3166 1.61361 53.3872 1.81457 53.4512C2.22007 53.5804 2.80567 53.7016 3.5437 53.8154C5.02335 54.0436 7.1573 54.2481 9.78607 54.4195C15.0457 54.7626 22.3079 54.9745 30.3269 54.9745C36.8034 54.9745 42.7859 54.8363 47.6183 54.6024Z" fill="#F5FAFF" stroke="#007DFF" stroke-width="0.5"/>
        <g filter="url(#filter3_b_14024_195289)">
            <path d="M42.7211 46.5452C39.2795 46.625 35.0175 46.6722 30.4027 46.6722C18.9745 46.6722 9.38672 46.3827 9.38672 46.0256C9.38672 45.6684 18.9745 45.3789 30.4027 45.3789C41.831 45.3789 51.0954 45.6684 51.0954 46.0256C51.0954 46.1968 48.9656 46.3525 45.4886 46.4682C44.5471 46.4983 43.9291 46.5151 42.7211 46.5452Z" fill="url(#paint1_linear_14024_195289)"/>
            <path d="M9.38672 52.1687C9.38672 52.5258 17.6812 53.1387 29.1094 53.1387C41.719 53.1387 51.0954 53.1387 51.0954 52.492V46.0256C51.0954 46.1968 48.9656 46.3525 45.4886 46.4682C44.5471 46.4983 43.9291 46.5151 42.7211 46.5452C39.2795 46.625 35.0175 46.6722 30.4027 46.6722C18.9745 46.6722 9.38672 46.3827 9.38672 46.0256V52.1687Z" fill="url(#paint2_linear_14024_195289)"/>
            <path d="M51.3454 52.492V46.0256C51.3454 45.8724 51.2271 45.7964 51.1997 45.7795C51.1549 45.7519 51.1045 45.7336 51.0621 45.7205C50.9735 45.6932 50.8537 45.6696 50.7127 45.6481C50.4272 45.6045 50.0129 45.5633 49.4877 45.5245C48.4353 45.4468 46.9159 45.377 45.0424 45.3184C41.2945 45.2013 36.1186 45.1289 30.4027 45.1289C24.6868 45.1289 19.4302 45.2013 15.6015 45.3184C13.6876 45.377 12.128 45.4468 11.0455 45.5245C10.5052 45.5633 10.0785 45.6044 9.78442 45.6479C9.6391 45.6694 9.51634 45.6929 9.42585 45.7198C9.38247 45.7327 9.33159 45.7507 9.28656 45.7775C9.2613 45.7926 9.13672 45.8683 9.13672 46.0256V52.1687C9.13672 52.306 9.23268 52.3825 9.2641 52.4053C9.3064 52.436 9.35419 52.4571 9.39398 52.4722C9.47662 52.5035 9.58701 52.5316 9.71536 52.5578C9.97558 52.611 10.353 52.6653 10.8333 52.7193C11.7961 52.8278 13.1952 52.9382 14.9484 53.0372C18.4558 53.2353 23.3912 53.3887 29.1094 53.3887H29.1125C35.4149 53.3887 40.9133 53.3887 44.8362 53.3078C46.7971 53.2673 48.3699 53.2066 49.4544 53.115C49.9949 53.0693 50.4239 53.0152 50.7216 52.9496C50.8683 52.9173 50.9987 52.879 51.0979 52.8299C51.1473 52.8055 51.2028 52.7717 51.2488 52.7235C51.2971 52.673 51.3454 52.5947 51.3454 52.492Z" stroke="#007DFF" stroke-width="0.5"/>
        </g>
        <line x1="17.5508" y1="53.4595" x2="17.5508" y2="46.6221" stroke="#007DFF" stroke-width="0.5"/>
        <line x1="25.8359" y1="53.7905" x2="25.8359" y2="46.6155" stroke="#007DFF" stroke-width="0.5"/>
        <line x1="34.3164" y1="53.7889" x2="34.3635" y2="46.6203" stroke="#007DFF" stroke-width="0.5"/>
        <line x1="43.4453" y1="53.7905" x2="43.4453" y2="46.6157" stroke="#007DFF" stroke-width="0.5"/>
        <g filter="url(#filter4_b_14024_195289)">
            <path fill-rule="evenodd" clip-rule="evenodd" d="M47.8914 46.5683C43.0206 46.8574 36.9888 47.0285 30.4576 47.0285C14.2835 47.0285 1.17187 45.9796 1.17187 44.6856C1.17188 43.3917 14.2835 42.3428 30.4576 42.3428C46.6316 42.3428 59.7433 43.3917 59.7433 44.6856C59.7433 45.306 56.7291 45.8701 51.8083 46.2892C50.4757 46.3984 49.6011 46.4594 47.8914 46.5683ZM37.5619 46.0434C37.5619 46.3572 34.3812 46.6117 30.4575 46.6117C26.5339 46.6117 23.3532 46.3572 23.3532 46.0434C23.3532 45.7295 26.5339 45.475 30.4575 45.475C34.3812 45.475 37.5619 45.7295 37.5619 46.0434ZM30.4576 45.1593C33.7273 45.1593 36.3779 44.9472 36.3779 44.6856C36.3779 44.4241 33.7273 44.212 30.4576 44.212C27.188 44.212 24.5374 44.4241 24.5374 44.6856C24.5374 44.9472 27.188 45.1593 30.4576 45.1593ZM37.5619 43.3279C37.5619 43.6418 34.3812 43.8963 30.4575 43.8963C26.5339 43.8963 23.3532 43.6418 23.3532 43.3279C23.3532 43.014 26.5339 42.7596 30.4575 42.7596C34.3812 42.7596 37.5619 43.014 37.5619 43.3279ZM13.4862 45.254C17.4098 45.254 20.5906 44.9995 20.5906 44.6856C20.5906 44.3717 17.4098 44.1173 13.4862 44.1173C9.56259 44.1173 6.38187 44.3717 6.38187 44.6856C6.38187 44.9995 9.56259 45.254 13.4862 45.254ZM54.5335 44.6856C54.5335 44.9995 51.3528 45.254 47.4292 45.254C43.5055 45.254 40.3248 44.9995 40.3248 44.6856C40.3248 44.3717 43.5055 44.1173 47.4292 44.1173C51.3528 44.1173 54.5335 44.3717 54.5335 44.6856Z" fill="#F5FAFF"/>
            <path d="M36.3779 44.6856C36.3779 44.9472 33.7273 45.1593 30.4576 45.1593C27.188 45.1593 24.5374 44.9472 24.5374 44.6856C24.5374 44.4241 27.188 44.212 30.4576 44.212C33.7273 44.212 36.3779 44.4241 36.3779 44.6856Z" fill="#F5FAFF"/>
            <path d="M47.9062 46.8179L47.9073 46.8178C49.6178 46.7089 50.4941 46.6478 51.8287 46.5384L51.8295 46.5383C54.2929 46.3285 56.2874 46.0818 57.6696 45.8081C58.3588 45.6717 58.908 45.5263 59.2899 45.3705C59.4796 45.293 59.6429 45.2072 59.7629 45.1086C59.8797 45.0126 59.9933 44.8722 59.9933 44.6856C59.9933 44.4912 59.8703 44.347 59.7468 44.2497C59.6188 44.1489 59.444 44.0606 59.2394 43.9806C58.8274 43.8196 58.2339 43.6691 57.4883 43.528C55.9933 43.2453 53.8385 42.992 51.1857 42.7798C45.8775 42.3551 38.5491 42.0928 30.4576 42.0928C22.3661 42.0928 15.0377 42.3551 9.72953 42.7798C7.0767 42.992 4.92189 43.2453 3.42683 43.528C2.68126 43.6691 2.0878 43.8196 1.67583 43.9806C1.47117 44.0606 1.29636 44.1489 1.16837 44.2497C1.04485 44.347 0.921875 44.4912 0.921875 44.6856C0.921875 44.88 1.04485 45.0243 1.16837 45.1216C1.29636 45.2224 1.47117 45.3106 1.67583 45.3906C2.0878 45.5517 2.68126 45.7022 3.42683 45.8432C4.92189 46.126 7.0767 46.3793 9.72953 46.5915C15.0377 47.0161 22.3661 47.2785 30.4576 47.2785C36.9927 47.2785 43.0296 47.1074 47.9062 46.8179ZM24.096 46.0434C24.4343 45.9872 24.8944 45.9354 25.4539 45.8907C26.7311 45.7885 28.5002 45.725 30.4575 45.725C32.4149 45.725 34.184 45.7885 35.4611 45.8907C36.0207 45.9354 36.4807 45.9872 36.8191 46.0434C36.4807 46.0995 36.0207 46.1513 35.4611 46.196C34.184 46.2982 32.4149 46.3617 30.4575 46.3617C28.5002 46.3617 26.7311 46.2982 25.4539 46.196C24.8944 46.1513 24.4343 46.0995 24.096 46.0434ZM35.4611 43.1752C36.0207 43.22 36.4807 43.2718 36.8191 43.3279C36.4807 43.384 36.0207 43.4358 35.4611 43.4806C34.184 43.5828 32.4149 43.6463 30.4575 43.6463C28.5002 43.6463 26.7311 43.5828 25.4539 43.4806C24.8944 43.4358 24.4343 43.384 24.096 43.3279C24.4343 43.2718 24.8944 43.22 25.4539 43.1752C26.7311 43.0731 28.5002 43.0096 30.4575 43.0096C32.4149 43.0096 34.184 43.0731 35.4611 43.1752ZM18.4898 44.5329C19.0493 44.5777 19.5094 44.6295 19.8477 44.6856C19.5094 44.7417 19.0493 44.7935 18.4898 44.8383C17.2127 44.9405 15.4436 45.004 13.4862 45.004C11.5289 45.004 9.75975 44.9405 8.48262 44.8383C7.9231 44.7935 7.46302 44.7417 7.1247 44.6856C7.46302 44.6295 7.9231 44.5777 8.48262 44.5329C9.75975 44.4308 11.5289 44.3673 13.4862 44.3673C15.4436 44.3673 17.2127 44.4308 18.4898 44.5329ZM52.4328 44.5329C52.9923 44.5777 53.4524 44.6295 53.7907 44.6856C53.4524 44.7417 52.9923 44.7935 52.4328 44.8383C51.1556 44.9405 49.3865 45.004 47.4291 45.004C45.4718 45.004 43.7027 44.9405 42.4256 44.8383C41.866 44.7935 41.406 44.7417 41.0676 44.6856C41.406 44.6295 41.866 44.5777 42.4256 44.5329C43.7027 44.4308 45.4718 44.3673 47.4291 44.3673C49.3865 44.3673 51.1556 44.4308 52.4328 44.5329Z" stroke="#007DFF" stroke-width="0.5"/>
        </g>
    </g>
    <defs>
        <filter id="filter0_b_14024_195289" x="-73.8837" y="-88.6508" width="231.873" height="231.873" filterUnits="userSpaceOnUse" color-interpolation-filters="sRGB">
            <feFlood flood-opacity="0" result="BackgroundImageFix"/>
            <feGaussianBlur in="BackgroundImageFix" stdDeviation="49.8989"/>
            <feComposite in2="SourceAlpha" operator="in" result="effect1_backgroundBlur_14024_195289"/>
            <feBlend mode="normal" in="SourceGraphic" in2="effect1_backgroundBlur_14024_195289" result="shape"/>
        </filter>
        <filter id="filter1_b_14024_195289" x="-82.9423" y="-97.7109" width="249.989" height="249.989" filterUnits="userSpaceOnUse" color-interpolation-filters="sRGB">
            <feFlood flood-opacity="0" result="BackgroundImageFix"/>
            <feGaussianBlur in="BackgroundImageFix" stdDeviation="49.5727"/>
            <feComposite in2="SourceAlpha" operator="in" result="effect1_backgroundBlur_14024_195289"/>
            <feBlend mode="normal" in="SourceGraphic" in2="effect1_backgroundBlur_14024_195289" result="shape"/>
        </filter>
        <filter id="filter2_b_14024_195289" x="-11.7596" y="29.4113" width="84.4343" height="38.2449" filterUnits="userSpaceOnUse" color-interpolation-filters="sRGB">
            <feFlood flood-opacity="0" result="BackgroundImageFix"/>
            <feGaussianBlur in="BackgroundImageFix" stdDeviation="6.21576"/>
            <feComposite in2="SourceAlpha" operator="in" result="effect1_backgroundBlur_14024_195289"/>
            <feBlend mode="normal" in="SourceGraphic" in2="effect1_backgroundBlur_14024_195289" result="shape"/>
        </filter>
        <filter id="filter3_b_14024_195289" x="-31.5542" y="4.438" width="123.591" height="89.6416" filterUnits="userSpaceOnUse" color-interpolation-filters="sRGB">
            <feFlood flood-opacity="0" result="BackgroundImageFix"/>
            <feGaussianBlur in="BackgroundImageFix" stdDeviation="20.2205"/>
            <feComposite in2="SourceAlpha" operator="in" result="effect1_backgroundBlur_14024_195289"/>
            <feBlend mode="normal" in="SourceGraphic" in2="effect1_backgroundBlur_14024_195289" result="shape"/>
        </filter>
        <filter id="filter4_b_14024_195289" x="-1.93722" y="39.2337" width="64.7895" height="10.9037" filterUnits="userSpaceOnUse" color-interpolation-filters="sRGB">
            <feFlood flood-opacity="0" result="BackgroundImageFix"/>
            <feGaussianBlur in="BackgroundImageFix" stdDeviation="1.30455"/>
            <feComposite in2="SourceAlpha" operator="in" result="effect1_backgroundBlur_14024_195289"/>
            <feBlend mode="normal" in="SourceGraphic" in2="effect1_backgroundBlur_14024_195289" result="shape"/>
        </filter>
        <linearGradient id="paint0_linear_14024_195289" x1="42.7087" y1="2.07637" x2="31.2146" y2="42.6554" gradientUnits="userSpaceOnUse">
            <stop stop-color="#00C2FF"/>
            <stop offset="1" stop-color="#006BFF"/>
        </linearGradient>
        <linearGradient id="paint1_linear_14024_195289" x1="43.9301" y1="42.3428" x2="15.8158" y2="63.4285" gradientUnits="userSpaceOnUse">
            <stop stop-color="#00C2FF"/>
            <stop offset="1" stop-color="#006BFF"/>
        </linearGradient>
        <linearGradient id="paint2_linear_14024_195289" x1="43.9301" y1="42.3428" x2="15.8158" y2="63.4285" gradientUnits="userSpaceOnUse">
            <stop stop-color="#00C2FF"/>
            <stop offset="1" stop-color="#006BFF"/>
        </linearGradient>
    </defs>
</svg>
