<svg viewBox="0 0 104 29" fill="none" xmlns="http://www.w3.org/2000/svg">
<path fill-rule="evenodd" clip-rule="evenodd" d="M14.7625 0.487183C13.3405 0.487183 11.8186 0.487183 10.3963 0.487183C10.3879 6.42171 10.3795 10.2653 10.3711 16.1999C8.49482 10.4086 6.61687 6.57457 4.73412 0.487183C3.13755 0.487183 2.13831 0.487183 0.541504 0.487183C0.541504 9.76069 0.541504 19.0342 0.541504 28.3077C1.95681 28.1064 3.47223 27.9134 4.88898 27.7286C4.89306 21.9139 4.89714 18.3395 4.90122 12.5245C6.85096 18.248 8.0497 21.624 9.99368 27.0632C11.5175 26.8892 13.1919 26.6752 14.7174 26.5204C14.7325 17.8427 14.7474 9.16483 14.7625 0.487183Z" fill="#91B7DC"/>
<path fill-rule="evenodd" clip-rule="evenodd" d="M30.5369 0.487183C26.5952 0.487183 22.7021 0.487183 18.7603 0.487183C18.7444 8.96574 18.7288 17.4445 18.7129 25.9231C22.6521 25.5585 26.5959 25.2605 30.5426 25.0291C30.5447 23.7894 30.547 22.0075 30.5491 20.768C27.9827 20.9285 25.5277 21.0957 22.9704 21.2707C22.9749 18.9913 22.9793 17.1061 22.9835 14.8264C24.8526 14.7936 26.8266 14.8224 28.7359 14.7893C28.738 13.5432 28.7403 11.7548 28.7427 10.5089C26.8507 10.5429 24.8526 10.547 22.991 10.5829C22.9954 8.30319 22.9999 7.05276 23.0043 4.77307C24.1754 4.7588 25.3231 4.7569 26.4687 4.7569C26.67 4.7569 26.871 4.7569 27.0723 4.75714C27.2724 4.75714 27.4725 4.75714 27.6728 4.75714C28.6284 4.75714 29.5879 4.75595 30.5636 4.74739C30.5659 3.50766 30.5348 1.72667 30.5369 0.487183Z" fill="#91B7DC"/>
<path fill-rule="evenodd" clip-rule="evenodd" d="M47.1546 0.487183C42.7294 0.487183 38.1551 0.487425 33.7299 0.487667C33.7277 1.74323 33.7258 3.5518 33.7236 4.80712C33.9163 4.80591 34.1089 4.80542 34.3013 4.80542C34.8845 4.80542 35.4677 4.811 36.0511 4.81682C36.6338 4.82264 37.2165 4.82845 37.7995 4.82845C37.949 4.82845 38.0983 4.82797 38.2479 4.82724C38.2388 11.7955 38.2297 18.1599 38.2209 25.1282C39.6414 25.0746 41.1612 25.0295 42.582 24.9929C42.5884 18.0629 42.5949 11.7364 42.6011 4.80663C44.1018 4.80082 45.6522 4.79645 47.1529 4.7933C47.1534 3.55907 47.1541 1.72142 47.1546 0.487183Z" fill="#91B7DC"/>
<path fill-rule="evenodd" clip-rule="evenodd" d="M61.372 0.487183C57.4241 0.487183 53.4761 0.487183 49.5284 0.487183C49.5272 8.43337 49.5261 16.3791 49.5249 24.325C49.9826 24.3232 50.4457 24.3224 50.9106 24.3224C51.8577 24.3224 52.8119 24.326 53.7446 24.3333C53.7435 20.9613 53.7425 17.8838 53.7416 14.5116C53.9741 14.5123 54.2089 14.5128 54.4454 14.5128C54.996 14.5128 55.5556 14.5106 56.1174 14.5083C56.6793 14.5059 57.2435 14.5035 57.8029 14.5035C58.3793 14.5035 58.9503 14.5059 59.5086 14.5137C59.5077 13.3049 59.5065 11.5066 59.5054 10.2978C58.9781 10.2924 58.4394 10.2905 57.8953 10.2905C57.3124 10.2905 56.7236 10.2926 56.1371 10.2947C55.5513 10.2969 54.9677 10.299 54.3943 10.299C54.175 10.299 53.9568 10.2987 53.7404 10.298C53.7397 8.13006 53.7393 6.9066 53.7386 4.73862C54.2016 4.73933 54.6636 4.73956 55.1238 4.73956C55.5911 4.73956 56.057 4.73933 56.5227 4.73909C56.9923 4.73885 57.4617 4.73862 57.9314 4.73862C59.0755 4.73862 60.2206 4.7398 61.3757 4.74501C61.3746 3.53339 61.3732 1.6988 61.372 0.487183Z" fill="#91B7DC"/>
<path fill-rule="evenodd" clip-rule="evenodd" d="M64.556 0.487183C64.5665 8.51348 64.5274 16.5398 64.538 24.5663C68.4234 24.7089 72.5063 24.8636 76.387 25.1282C76.3846 23.8935 76.3822 22.1181 76.3798 20.8834C73.9237 20.7408 71.3667 20.57 68.9087 20.4693C68.8976 13.5955 68.9361 7.36101 68.925 0.48742C67.5017 0.487183 65.9791 0.487183 64.556 0.487183Z" fill="#91B7DC"/>
<path fill-rule="evenodd" clip-rule="evenodd" d="M80.3369 0.487183C80.3521 8.84833 80.3668 17.2095 80.3818 25.5709C81.6665 25.6802 82.9956 25.7973 84.2792 25.9231C84.2838 17.4503 84.2944 8.96597 84.2796 0.487421C82.9954 0.487183 81.6212 0.487183 80.3369 0.487183Z" fill="#91B7DC"/>
<path fill-rule="evenodd" clip-rule="evenodd" d="M87.8853 0.487183C89.6103 4.74193 91.1882 9.00869 92.9399 13.5271C91.1194 17.8671 89.2664 22.1786 87.4478 26.3418C88.9543 26.4924 90.5127 26.7126 92.0178 26.8824C93.0977 24.2011 94.08 22.137 95.1608 19.3835C96.24 22.3167 97.2209 24.583 98.2972 27.6108C99.7999 27.8082 101.748 28.0913 103.249 28.3077C101.43 23.3832 99.4396 18.2555 97.6103 13.6013C99.4321 9.23059 101.291 5.05821 103.183 0.488624C101.63 0.488624 100.027 0.488383 98.4732 0.488143C97.3053 3.31256 96.502 5.12738 95.3826 7.81587C94.3397 5.01859 93.6401 3.20833 92.5956 0.487663C91.0419 0.487423 89.4388 0.487423 87.8853 0.487183Z" fill="#91B7DC"/>
</svg>
