<svg width="55" height="56" viewBox="0 0 55 56" fill="none" xmlns="http://www.w3.org/2000/svg">
<path fill-rule="evenodd" clip-rule="evenodd" d="M19.0692 0.659668H35.6266C41.1176 0.659668 43.8624 0.659668 46.8182 1.59405C50.0453 2.76865 52.5868 5.31018 53.7614 8.53723C54.6958 11.4926 54.6958 14.2384 54.6958 19.7289V36.2862C54.6958 41.7772 54.6958 44.5221 53.7614 47.4779C52.5868 50.705 50.0453 53.2465 46.8182 54.4206C43.8624 55.3555 41.1176 55.3555 35.6266 55.3555H19.0692C13.5782 55.3555 10.833 55.3555 7.87756 54.4206C4.65051 53.2465 2.10898 50.705 0.934387 47.4779C0 44.5221 0 41.7772 0 36.2862V19.7289C0 14.2384 0 11.4926 0.934387 8.53723C2.10898 5.31018 4.65051 2.76865 7.87756 1.59405C10.833 0.659668 13.5782 0.659668 19.0692 0.659668Z" fill="white"/>
<path fill-rule="evenodd" clip-rule="evenodd" d="M37.5572 15.9749C37.5572 20.0026 34.2921 23.2677 30.2644 23.2677C26.2367 23.2677 22.9716 20.0026 22.9716 15.9749C22.9716 11.9472 26.2367 8.68213 30.2644 8.68213C34.2921 8.68213 37.5572 11.9472 37.5572 15.9749ZM12.7618 23.2677C15.3798 23.2677 17.5021 21.1454 17.5021 18.5274C17.5021 15.9094 15.3798 13.7871 12.7618 13.7871C10.1438 13.7871 8.02148 15.9094 8.02148 18.5274C8.02148 21.1454 10.1438 23.2677 12.7618 23.2677ZM17.0776 30.5296L20.3004 22.1517C20.3702 21.967 20.5311 21.8372 20.7194 21.8139C20.9544 21.7811 21.1804 21.9205 21.2673 22.1517L24.4901 30.5296L33.079 31.1546C33.2843 31.1749 33.4583 31.3215 33.5214 31.5273C33.5845 31.7331 33.5246 31.9585 33.3691 32.1004L26.7622 37.894L28.8571 46.6603C28.9089 46.8744 28.8313 47.1 28.6611 47.2301C28.4908 47.3602 28.2622 47.3687 28.0836 47.2515L20.7838 42.4545L13.4841 47.2515C13.3055 47.3687 13.0769 47.3602 12.9066 47.2301C12.7364 47.1 12.6588 46.8744 12.7106 46.6603L14.8055 37.894L8.19861 32.1004C8.04306 31.9585 7.98314 31.7331 8.04624 31.5273C8.10935 31.3215 8.28336 31.1749 8.48867 31.1546L17.0776 30.5296ZM38.0374 29.9956C37.5042 30.411 37.1924 31.0491 37.1924 31.7251V35.2302C37.1924 35.9062 37.5042 36.5443 38.0374 36.9597L44.3131 41.849C45.273 42.5968 46.673 41.9128 46.673 40.696V26.2593C46.673 25.0425 45.273 24.3585 44.3131 25.1063L38.0374 29.9956Z" fill="url(#paint0_linear_11434_169446)"/>
<defs>
<linearGradient id="paint0_linear_11434_169446" x1="29.6468" y1="-1.05512" x2="-2.95031" y2="32.3947" gradientUnits="userSpaceOnUse">
<stop stop-color="#17F2FF"/>
<stop offset="0.529852" stop-color="#2D6FD3"/>
<stop offset="1" stop-color="#9844B2"/>
</linearGradient>
</defs>
</svg>
