<svg width="120" height="41" viewBox="0 0 120 41" fill="none" xmlns="http://www.w3.org/2000/svg">
<mask id="mask0" mask-type="alpha" maskUnits="userSpaceOnUse" x="0" y="0" width="40" height="41">
<path fill-rule="evenodd" clip-rule="evenodd" d="M13.9456 0H26.0542C30.0698 0 32.0771 0 34.2388 0.683878C36.5988 1.54356 38.4574 3.40371 39.3164 5.76559C39.9998 7.92865 39.9998 9.93825 39.9998 13.9568V26.0751C39.9998 30.094 39.9998 32.1029 39.3164 34.2663C38.4574 36.6282 36.5988 38.4883 34.2388 39.3477C32.0771 40.0319 30.0698 40.0319 26.0542 40.0319H13.9456C9.92994 40.0319 7.92228 40.0319 5.76096 39.3477C3.40098 38.4883 1.54232 36.6282 0.683329 34.2663C0 32.1029 0 30.094 0 26.0751V13.9568C0 9.93825 0 7.92865 0.683329 5.76559C1.54232 3.40371 3.40098 1.54356 5.76096 0.683878C7.92228 0 9.92994 0 13.9456 0Z" fill="white"/>
</mask>
<g mask="url(#mask0)">
<path fill-rule="evenodd" clip-rule="evenodd" d="M27.224 11.1609C27.224 13.8243 25.0638 15.9834 22.3991 15.9834C19.7343 15.9834 17.5741 13.8243 17.5741 11.1609C17.5741 8.49749 19.7343 6.33838 22.3991 6.33838C25.0638 6.33838 27.224 8.49749 27.224 11.1609ZM9.98462 15.9834C12.0012 15.9834 13.6359 14.3495 13.6359 12.3339C13.6359 10.3184 12.0012 8.68447 9.98462 8.68447C7.96806 8.68447 6.33331 10.3184 6.33331 12.3339C6.33331 14.3495 7.96806 15.9834 9.98462 15.9834ZM13.1319 21.0885L15.4369 15.2584C15.4869 15.1298 15.6019 15.0395 15.7366 15.0233C15.9047 15.0005 16.0663 15.0975 16.1284 15.2584L18.4334 21.0885L24.5762 21.5234C24.7231 21.5375 24.8475 21.6396 24.8927 21.7828C24.9378 21.926 24.8949 22.0829 24.7837 22.1816L20.0584 26.2133L21.5567 32.3138C21.5938 32.4627 21.5383 32.6197 21.4165 32.7103C21.2947 32.8008 21.1312 32.8067 21.0035 32.7252L15.7827 29.387L10.5619 32.7252C10.4342 32.8067 10.2706 32.8008 10.1489 32.7103C10.0271 32.6197 9.97162 32.4627 10.0087 32.3138L11.5069 26.2133L6.7817 22.1816C6.67045 22.0829 6.62759 21.926 6.67273 21.7828C6.71786 21.6396 6.84231 21.5375 6.98915 21.5234L13.1319 21.0885ZM28.1664 21.2238C27.6795 21.6027 27.3947 22.1851 27.3947 22.8021V24.7723C27.3947 25.3892 27.6795 25.9717 28.1664 26.3506L29.1494 27.1156C31.1198 28.6491 33.9919 27.245 33.9919 24.7481V22.8262C33.9919 20.3294 31.1198 18.9252 29.1494 20.4587L28.1664 21.2238Z" fill="url(#paint0_linear)"/>
</g>
<path fill-rule="evenodd" clip-rule="evenodd" d="M65 27H61.0602L59.797 24.1441H58.4887V27H55V16H60.0977C62.9549 16 64.594 17.428 64.594 19.9387C64.594 21.5392 64.0075 22.7318 62.9248 23.4223L65 27ZM58.5 19V22H60.2258C61.0323 22 61.5 21.4431 61.5 20.4731C61.5 19.5389 61.0323 19 60.2258 19H58.5ZM74.381 27L73.8681 25.4465H70.0147L69.4872 27H66L70.337 16H73.8242L78 27H74.381ZM71 23H73L72.0137 20L71 23ZM78 16H87V18.8716H84.1474V27H80.8384V18.8716H78V16ZM89 16H97.8654V18.7618H92.4684V20.1113H97.3721V22.873H92.4684V24.2382H98V27H89V16ZM110 27H106.06L104.797 24.1441H103.489V27H100V16H105.098C107.955 16 109.594 17.428 109.594 19.9387C109.594 21.5392 109.008 22.7318 107.925 23.4223L110 27ZM103.5 19V22H105.226C106.032 22 106.5 21.4431 106.5 20.4731C106.5 19.5389 106.032 19 105.226 19H103.5ZM118.71 19.968C117.619 19.3705 115.945 18.7117 115.008 18.7117C114.608 18.7117 114.347 18.8343 114.347 19.156C114.347 20.5042 119.923 19.6616 119.923 23.5529C119.923 25.9429 117.819 27 115.392 27C113.518 27 111.429 26.3719 110 25.2841L111.321 22.6184C112.427 23.5376 114.332 24.2883 115.422 24.2883C115.945 24.2883 116.283 24.1198 116.283 23.7368C116.283 22.3426 110.707 23.2618 110.707 19.493C110.707 17.3482 112.519 16 115.315 16C117.02 16 118.786 16.5056 120 17.2716L118.71 19.968Z" fill="#677897"/>
<defs>
<linearGradient id="paint0_linear" x1="21.9065" y1="-0.945758" x2="-1.43558" y2="23.2122" gradientUnits="userSpaceOnUse">
<stop stop-color="#17F2FF"/>
<stop offset="0.529852" stop-color="#2D6FD3"/>
<stop offset="1" stop-color="#9844B2"/>
</linearGradient>
</defs>
</svg>
