<svg width="12" height="12" viewBox="0 0 12 12" fill="none" xmlns="http://www.w3.org/2000/svg">
<path fill-rule="evenodd" clip-rule="evenodd" d="M5.8106 1.13421L4.18182 4.18182L1.18303 4.66131C1.1026 4.66928 1.03442 4.72671 1.0097 4.80734C0.984976 4.88797 1.00845 4.97628 1.0694 5.03189L3.27273 7.36364L2.83709 10.7361C2.81678 10.82 2.84719 10.9084 2.91389 10.9593C2.98058 11.0103 3.07016 11.0136 3.14012 10.9677L5.97475 9.18182L8.85988 10.9677C8.92985 11.0136 9.01942 11.0103 9.08611 10.9593C9.15281 10.9084 9.18322 10.82 9.16291 10.7361L8.72727 7.36364L10.9306 5.03189C10.9915 4.97628 11.015 4.88797 10.9903 4.80734C10.9656 4.72671 10.8974 4.66928 10.817 4.66131L7.81818 4.18182L6.1894 1.13421C6.15537 1.04362 6.06681 0.98902 5.97475 1.00186C5.90098 1.011 5.83795 1.06182 5.8106 1.13421Z" stroke="#47536A" stroke-width="1.5"/>
</svg>
