<?xml version="1.0" encoding="UTF-8"?>
<svg width="18px" height="19px" viewBox="0 0 18 19" version="1.1" xmlns="http://www.w3.org/2000/svg" xmlns:xlink="http://www.w3.org/1999/xlink">
    <title>Notification</title>
    <g id="Page-1" stroke="none" stroke-width="1" fill="none" fill-rule="evenodd">
        <g id="Notification" transform="translate(10.361216, 8.910254) rotate(-330.000000) translate(-10.361216, -8.910254) translate(1.861216, -1.089746)" stroke="#47536A">
            <path d="M8.69565217,2.60869565 C6.95652174,2.60869565 5.88129288,2.83537845 4.7826087,4.34782609 C3.68392451,5.86027372 3.65217391,7.67153355 3.47826087,9.13951788 C3.30434783,10.6075022 3.04347826,10.80817 2.60869565,11.3043478 C2.17391304,11.8005256 1.29657261,12.1717215 0.869565217,13.4782609 C0.434782609,14.8085905 0.869565217,15.6521739 1.73913043,16.0869565 C2.60869565,16.5217391 4.9658307,17.3913043 8.69565217,17.3913043 C12.4254737,17.3913043 14.7826087,16.5217391 15.6521739,16.0869565 C16.5217391,15.6521739 16.9565217,14.7826087 16.5217391,13.4782609 C16.0850771,12.1682748 15.2173913,11.8005256 14.7826087,11.3043478 C14.3478261,10.80817 14.0869565,10.6086957 13.9130435,9.13043478 C13.7391304,7.65217391 13.8656778,5.86027372 12.6086957,4.34782609 C11.3517135,2.83537845 10.4347826,2.60869565 8.69565217,2.60869565 Z" id="notifications" fill="#47536A"></path>
            <circle id="Oval" cx="8.69565217" cy="1.73913043" r="1"></circle>
            <path d="M10.804078,17.3571561 C9.86863194,17.4234791 9.16581701,17.4563882 8.69579418,17.4565217 C8.18186563,17.4566677 7.47899865,17.4246216 6.58695652,17.3913043 C6.58695652,17.9736046 6.82298032,18.5007785 7.20457918,18.8823773 C7.58617804,19.2639762 8.11335195,19.5 8.69565217,19.5 C9.2779524,19.5 9.80512631,19.2639762 10.1867252,18.8823773 C10.568324,18.5007785 10.8043478,17.9736046 10.804078,17.3571561 Z" id="Oval-Copy"></path>
        </g>
    </g>
</svg>
