<svg width="20" height="14" viewBox="0 0 20 14" fill="none" xmlns="http://www.w3.org/2000/svg">
    <path d="M6.92383 1.4778C11.502 -0.0001221 17.002 1.99994 19.0022 7.09368C18.0022 9.49993 16.5722 10.6253 16.5722 10.6253" stroke="#677897" stroke-linecap="round"/>
    <path d="M13.0801 12.7128C8.50195 14.1907 3.00195 12.1906 1.00173 7.09687C2.00173 4.69062 3.43167 3.56523 3.43167 3.56523" stroke="#677897" stroke-linecap="round"/>
    <path d="M13.361 7.95415C13.9088 6.10143 12.776 4.17096 10.9368 3.65726C10.9368 3.65726 10.0135 3.36805 8.80102 3.70298" stroke="#677897" stroke-linecap="round"/>
    <path d="M6.66312 5.95371C6.04212 7.78318 7.09724 9.75716 8.91456 10.3436C8.91456 10.3436 9.82568 10.6693 11.0505 10.3828" stroke="#677897" stroke-linecap="round"/>
    <line x1="3.35898" y1="0.639714" x2="16.9745" y2="13.2934" stroke="#677897" stroke-linecap="round"/>
</svg>
