<svg width="11" height="12" viewBox="0 0 11 12" fill="none" xmlns="http://www.w3.org/2000/svg">
<path d="M6.92578 5.49227C6.89104 5.47 6.86723 5.45244 6.85136 5.43953C6.85808 5.2954 6.88825 5.22409 6.90773 5.18724C6.93504 5.13557 6.97756 5.0826 7.08534 4.98024C7.10156 4.96484 7.12084 4.94737 7.14254 4.92771C7.36724 4.72412 7.85 4.28672 7.85 3.5C7.85 2.1049 6.74828 1.15 5.5 1.15C4.2542 1.15 3.14667 2.10252 3.14667 3.5C3.14667 4.28773 3.6315 4.72544 3.8567 4.92875C3.87845 4.94839 3.89778 4.96585 3.91402 4.98121C4.02226 5.08367 4.06493 5.13667 4.0923 5.18828C4.11174 5.22493 4.14189 5.29589 4.14863 5.43954C4.13276 5.45245 4.10896 5.47 4.07422 5.49227C3.89061 5.60999 3.62957 5.71163 3.24472 5.86147C3.22903 5.86758 3.21312 5.87377 3.19702 5.88005C2.84022 6.01904 2.36027 6.20744 1.97524 6.48999C1.55795 6.7962 1.1611 7.28249 1.1611 8C1.1611 8.11647 1.15844 8.22029 1.15563 8.32969C1.15437 8.37872 1.15309 8.42886 1.152 8.48177C1.14878 8.63845 1.14736 8.81982 1.16413 8.99901C1.19992 9.3815 1.32779 9.83883 1.75841 10.1949C2.13541 10.5066 2.6413 10.6495 3.19348 10.7309C3.7653 10.8151 4.51834 10.85 5.5 10.85C6.48166 10.85 7.2347 10.8151 7.80652 10.7309C8.3587 10.6495 8.86459 10.5066 9.24159 10.1949C9.67221 9.83883 9.80008 9.3815 9.83587 8.99901C9.85264 8.81982 9.85122 8.63845 9.848 8.48177C9.84691 8.42886 9.84563 8.3787 9.84437 8.32967C9.84156 8.22027 9.8389 8.11646 9.8389 8C9.8389 7.28249 9.44205 6.7962 9.02476 6.48999C8.63973 6.20744 8.15978 6.01904 7.80298 5.88005C7.78688 5.87377 7.77098 5.86758 7.75528 5.86147C7.37043 5.71163 7.1094 5.60999 6.92578 5.49227ZM4.17686 5.41242C4.17724 5.41241 4.17567 5.41477 4.17105 5.41952C4.17417 5.41481 4.17648 5.41243 4.17686 5.41242ZM6.82895 5.41952C6.82433 5.41477 6.82276 5.41241 6.82314 5.41242C6.82351 5.41243 6.82583 5.41481 6.82895 5.41952Z" stroke="#47536A" stroke-width="1.7" stroke-linecap="round" stroke-linejoin="round"/>
</svg>
