<svg width="40" height="34" viewBox="0 0 40 34" fill="none" xmlns="http://www.w3.org/2000/svg">
<path fill-rule="evenodd" clip-rule="evenodd" d="M28.3335 5.33338H3.3335V17.0269V19.5001C1.66683 19.448 0.833496 18.6146 0.833496 17.0269V5.33338C0.833496 3.66671 1.66683 2.83337 3.3335 2.83337H25.8335C27.5002 2.83337 28.3335 3.66671 28.3335 5.33338ZM34.1667 11.1667H9.16667V22.8602V25.3333C7.5 25.2813 6.66667 24.4479 6.66667 22.8602V11.1667C6.66667 9.5 7.5 8.66667 9.16667 8.66667H31.6667C33.3334 8.66667 34.1667 9.5 34.1667 11.1667ZM37.4999 14.5H14.9999C13.3332 14.5 12.4999 15.3333 12.4999 17.1042V28.6146C12.4999 30.3333 13.3332 31.1667 14.9999 31.1667H37.4999C39.1666 31.1667 39.9999 30.3333 39.9999 28.6146V17.1042C39.9999 15.3333 39.1666 14.5 37.4999 14.5ZM15.0002 28.6667H37.5003V17H15.0002V28.6667Z" fill="url(#paint0_linear_9804_1665)"/>
<defs>
<linearGradient id="paint0_linear_9804_1665" x1="59.5831" y1="18.8964" x2="37.2715" y2="-16.7126" gradientUnits="userSpaceOnUse">
<stop stop-color="#5C00D0"/>
<stop offset="1" stop-color="#00A6FF"/>
</linearGradient>
</defs>
</svg>
