<svg width="20" height="20" viewBox="0 0 20 20" fill="none" xmlns="http://www.w3.org/2000/svg">
<circle cx="10" cy="10" r="10" fill="#0075FF"/>
<path fill="white" d="M10.4713 5C10.4713 4.72386 10.2475 4.5 9.97134 4.5C9.6952 4.5 9.47134 4.72386 9.47134 5V9.4675H5C4.72386 9.4675 4.5 9.69136 4.5 9.9675C4.5 10.2436 4.72386 10.4675 5 10.4675H9.47134V14.675C9.47134 14.9512 9.6952 15.175 9.97134 15.175C10.2475 15.175 10.4713 14.9512 10.4713 14.675V10.4675H14.7134C14.9895 10.4675 15.2134 10.2436 15.2134 9.9675C15.2134 9.69136 14.9895 9.4675 14.7134 9.4675H10.4713V5Z"/>
</svg>
