<svg width="31px" height="35px" viewBox="0 0 221 213" fill="none" xmlns="http://www.w3.org/2000/svg">
<path fill-rule="evenodd" clip-rule="evenodd" d="M128.37 77.8839C149.662 77.8839 166.922 60.6383 166.922 39.3648C166.922 18.0913 149.662 0.845703 128.37 0.845703C107.078 0.845703 89.8171 18.0913 89.8171 39.3648C89.8171 60.6383 107.078 77.8839 128.37 77.8839ZM58.35 48.7342C58.35 64.8331 45.2879 77.8838 29.175 77.8838C13.0621 77.8838 0 64.8331 0 48.7342C0 32.6353 13.0621 19.5846 29.175 19.5846C45.2879 19.5846 58.35 32.6353 58.35 48.7342ZM72.7402 72.0926L54.3226 118.66L5.23995 122.133C4.06666 122.247 3.07227 123.061 2.71163 124.205C2.35099 125.349 2.69346 126.602 3.58237 127.391L41.3383 159.594L29.3669 208.32C29.0707 209.51 29.5142 210.764 30.4871 211.487C31.46 212.21 32.7665 212.257 33.7871 211.606L75.5028 184.943L117.218 211.606C118.239 212.257 119.546 212.21 120.519 211.487C121.491 210.764 121.935 209.51 121.639 208.32L109.667 159.594L147.423 127.391C148.312 126.602 148.655 125.349 148.294 124.205C147.933 123.061 146.939 122.247 145.766 122.133L96.683 118.66L78.2654 72.0926C77.7691 70.8074 76.4774 70.0327 75.1344 70.2149C74.0585 70.3446 73.139 71.0656 72.7402 72.0926Z" fill="url(#paint0_linear_2732_466)"/>
<path fill-rule="evenodd" clip-rule="evenodd" d="M168.287 128.449C168.287 125.981 169.427 123.65 171.375 122.135L213.689 89.2157C216.664 86.9008 221 89.0212 221 92.7912V187.639C221 191.409 216.664 193.529 213.689 191.214L171.375 158.295C169.427 156.78 168.287 154.45 168.287 151.981L168.287 128.449Z" fill="url(#paint1_linear_2732_466)"/>
<path fill-rule="evenodd" clip-rule="evenodd" d="M168.287 128.449C168.287 125.981 169.427 123.65 171.375 122.135L213.689 89.2157C216.664 86.9008 221 89.0213 221 92.7912V140.215L168.287 140.215V128.449Z" fill="#1673FF"/>
<defs>
<linearGradient id="paint0_linear_2732_466" x1="93.9857" y1="-57.3352" x2="-87.0636" y2="84.2443" gradientUnits="userSpaceOnUse">
<stop stop-color="#17F2FF"/>
<stop offset="0.529852" stop-color="#2D6FD3"/>
<stop offset="1" stop-color="#9844B2"/>
</linearGradient>
<linearGradient id="paint1_linear_2732_466" x1="207" y1="124" x2="215.616" y2="233.666" gradientUnits="userSpaceOnUse">
<stop offset="0.529852" stop-color="#FFD601"/>
</linearGradient>
</defs>
</svg>
