<svg xmlns="http://www.w3.org/2000/svg" width="16" height="16" viewBox="0 0 16 16"><g><g><g><path fill="#0075ff" d="M8 16A8 8 0 1 0 8 0a8 8 0 0 0 0 16z"/></g><g><path fill="#fff" d="M7.81 3.13L6.549 6.326l-3.365.238a.203.203 0 0 0-.173.142.209.209 0 0 0 .06.219l2.588 2.209-.82 3.343c-.021.081.01.167.076.217.067.05.156.053.226.008L8 10.871l2.86 1.83c.07.045.16.041.226-.008a.208.208 0 0 0 .077-.217l-.82-3.343 2.588-2.209a.209.209 0 0 0 .06-.219.203.203 0 0 0-.174-.142l-3.365-.238-1.263-3.194a.203.203 0 1 0-.379 0z"/></g></g></g></svg>