<svg xmlns="http://www.w3.org/2000/svg" width="184" height="176" viewBox="0 0 46 44"><defs><linearGradient id="t9kma" x1="45.39" x2="5.59" y1="7.29" y2="45.1" gradientUnits="userSpaceOnUse"><stop offset="0" stop-color="#17f2ff"/><stop offset=".53" stop-color="#2d6fd3"/><stop offset="1" stop-color="#9844b2"/></linearGradient></defs><g><g><path fill="url(#t9kma)" d="M15.644 14.312a.6.6 0 0 1 .638.384l3.757 9.537 10.01.712c.24.023.442.19.516.424a.625.625 0 0 1-.178.652l-7.7 6.595 2.441 9.98c.06.243-.03.5-.228.648a.59.59 0 0 1-.673.024l-8.508-5.46-8.508 5.46a.59.59 0 0 1-.673-.024.623.623 0 0 1-.228-.649l2.441-9.979-7.7-6.595a.625.625 0 0 1-.178-.652.604.604 0 0 1 .516-.424l10.01-.712 3.757-9.537a.603.603 0 0 1 .488-.384zM.32 9.91c0-3.298 2.664-5.972 5.95-5.972 3.287 0 5.95 2.674 5.95 5.972 0 3.298-2.663 5.972-5.95 5.972-3.286 0-5.95-2.674-5.95-5.972zm18.318-1.92C18.638 3.633 22.156.1 26.496.1s7.858 3.533 7.858 7.891c0 4.359-3.518 7.892-7.858 7.892s-7.858-3.533-7.858-7.892zm16.004 18.43a2 2 0 0 1 .77-1.577l5.135-4.01a3 3 0 0 1 4.846 2.364v10.914a3 3 0 0 1-4.846 2.364l-5.136-4.01a2 2 0 0 1-.769-1.577z"/></g></g></svg>