<svg width="107" height="18" viewBox="0 0 107 18" fill="none" xmlns="http://www.w3.org/2000/svg">
    <path d="M7.51388 13.1203H5.98217V17.2878H0.333984V0.712244H8.3994C9.94707 0.712244 11.2953 0.964825 12.4441 1.46999C13.5929 1.97515 14.4784 2.70132 15.1006 3.64849C15.7229 4.59567 16.034 5.70071 16.034 6.96361C16.034 8.14758 15.7628 9.18159 15.2203 10.0656C14.6778 10.9496 13.896 11.6521 12.8749 12.1731L16.393 17.2878H10.3619L7.51388 13.1203ZM10.338 6.96361C10.338 6.34795 10.1465 5.87436 9.76358 5.54285C9.38065 5.19555 8.80626 5.0219 8.0404 5.0219H5.98217V8.90532H8.0404C8.80626 8.90532 9.38065 8.73957 9.76358 8.40806C10.1465 8.06076 10.338 7.57928 10.338 6.96361Z" fill="#677897"/>
    <path d="M30.9327 14.399H24.5665L23.4417 17.2878H17.6978L25.0213 0.712244H30.5737L37.8972 17.2878H32.0576L30.9327 14.399ZM29.3771 10.3734L27.7496 6.20587L26.1222 10.3734H29.3771Z" fill="#677897"/>
    <path d="M42.9449 5.04558H38.0386V0.712244H53.4993V5.04558H48.593V17.2878H42.9449V5.04558Z" fill="#677897"/>
    <path d="M70.2451 13.0729V17.2878H56.3161V0.712244H69.934V4.92718H61.8686V6.86889H68.9528V10.8944H61.8686V13.0729H70.2451Z" fill="#677897"/>
    <path d="M80.9492 13.1203H79.4175V17.2878H73.7693V0.712244H81.8347C83.3824 0.712244 84.7306 0.964825 85.8794 1.46999C87.0282 1.97515 87.9137 2.70132 88.5359 3.64849C89.1582 4.59567 89.4693 5.70071 89.4693 6.96361C89.4693 8.14758 89.1981 9.18159 88.6556 10.0656C88.1131 10.9496 87.3313 11.6521 86.3102 12.1731L89.8283 17.2878H83.7972L80.9492 13.1203ZM83.7733 6.96361C83.7733 6.34795 83.5818 5.87436 83.1989 5.54285C82.816 5.19555 82.2416 5.0219 81.4757 5.0219H79.4175V8.90532H81.4757C82.2416 8.90532 82.816 8.73957 83.1989 8.40806C83.5818 8.06076 83.7733 7.57928 83.7733 6.96361Z" fill="#677897"/>
    <path d="M99.1985 17.6667C97.8104 17.6667 96.4542 17.5167 95.1299 17.2168C93.8216 16.9011 92.7446 16.4827 91.8989 15.9618L93.7179 11.8889C94.5156 12.3467 95.4091 12.7177 96.3983 13.0019C97.3876 13.2702 98.3369 13.4044 99.2464 13.4044C100.028 13.4044 100.587 13.3334 100.922 13.1913C101.257 13.0334 101.424 12.8045 101.424 12.5046C101.424 12.1573 101.201 11.8968 100.754 11.7232C100.323 11.5495 99.6054 11.3601 98.6002 11.1549C97.3078 10.8865 96.2308 10.6023 95.3692 10.3024C94.5076 9.98668 93.7577 9.48152 93.1195 8.78693C92.4813 8.07654 92.1622 7.12147 92.1622 5.92172C92.1622 4.87982 92.4574 3.93265 93.0477 3.08019C93.6381 2.22773 94.5156 1.55681 95.6804 1.06744C96.8611 0.578061 98.2891 0.333374 99.9644 0.333374C101.113 0.333374 102.238 0.459664 103.339 0.712244C104.456 0.949038 105.437 1.30423 106.283 1.77782L104.583 5.827C102.94 5.00611 101.384 4.59567 99.9165 4.59567C98.4646 4.59567 97.7386 4.94297 97.7386 5.63756C97.7386 5.96908 97.954 6.22166 98.3848 6.39531C98.8156 6.55317 99.5256 6.72682 100.515 6.91625C101.791 7.15305 102.868 7.42931 103.746 7.74503C104.623 8.04497 105.381 8.54224 106.019 9.23684C106.674 9.93143 107.001 10.8786 107.001 12.0784C107.001 13.1203 106.705 14.0674 106.115 14.9199C105.525 15.7566 104.639 16.4275 103.459 16.9326C102.294 17.422 100.874 17.6667 99.1985 17.6667Z" fill="#677897"/>
</svg>
