<?xml version="1.0" encoding="UTF-8"?>
<svg width="13px" height="12px" viewBox="0 0 13 12" version="1.1" xmlns="http://www.w3.org/2000/svg" xmlns:xlink="http://www.w3.org/1999/xlink">
    <!-- Generator: Sketch 52.5 (67469) - http://www.bohemiancoding.com/sketch -->
    <title>star</title>
    <desc>Created with Sketch.</desc>
    <g id="Web" stroke="none" stroke-width="1" fill="none" fill-rule="evenodd">
        <g id="Feed-Rated" transform="translate(-908.000000, -577.000000)" fill="#2B2B2B">
            <g id="Feed" transform="translate(442.000000, 78.000000)">
                <g id="feed3" transform="translate(16.000000, 22.000000)">
                    <g id="User-review" transform="translate(0.000000, 434.000000)">
                        <g id="Stars" transform="translate(450.000000, 43.000000)">
                            <path d="M5.92990951,0.161052874 L4.37348681,4.09975521 L0.225620321,4.3935697 C0.126468202,4.40313549 0.0424344325,4.47205728 0.0119576641,4.56880892 C-0.0185191042,4.66556057 0.0104218091,4.77153673 0.0855422778,4.8382619 L3.27620881,7.56200162 L2.26453405,11.6833454 C2.23950267,11.7839818 2.27698256,11.8900355 2.3591979,11.9512076 C2.44141325,12.0123798 2.55182817,12.0163669 2.6380755,11.961278 L6.16337291,9.70605329 L9.68867032,11.961278 C9.77491765,12.0163669 9.88533258,12.0123798 9.96754792,11.9512076 C10.0497633,11.8900355 10.0872432,11.7839818 10.0622118,11.6833454 L9.05053702,7.56200162 L12.2412035,4.8382619 C12.316324,4.77153673 12.3452649,4.66556057 12.3147882,4.56880892 C12.2843114,4.47205728 12.2002776,4.40313549 12.1011255,4.3935697 L7.95325901,4.09975521 L6.39683632,0.161052874 C6.3548966,0.0523493457 6.24573192,-0.0131756743 6.13224446,0.00223423108 C6.04131735,0.0131976853 5.96361753,0.0741865566 5.92990951,0.161052874 Z" id="star"></path>
                        </g>
                    </g>
                </g>
            </g>
        </g>
    </g>
</svg>