<?xml version="1.0" encoding="UTF-8"?>
<svg width="14px" height="14px" viewBox="0 0 14 14" version="1.1" xmlns="http://www.w3.org/2000/svg" xmlns:xlink="http://www.w3.org/1999/xlink">
    <title>tomatometer</title>
    <g id="Page-1" stroke="none" stroke-width="1" fill="none" fill-rule="evenodd">
        <g id="tomatometer">
            <path d="M13.8229854,7.54827287 C13.6845196,5.39254918 12.5555229,3.77969062 10.856755,2.87800104 C10.8664071,2.93053451 10.8182658,2.99620135 10.7634514,2.97294314 C9.65232897,2.50095189 7.767371,4.02847248 6.45015853,3.22855203 C6.46004893,3.51563472 6.40231514,4.91604514 4.37078839,4.99727531 C4.32282584,4.99918456 4.29643153,4.95162672 4.32675817,4.91795439 C4.59844664,4.61704406 4.87275668,3.85519302 4.47833174,3.44904218 C3.63365464,4.18404792 3.14312586,4.46065863 1.5235408,4.09564358 C0.486596446,5.14851153 -0.100989467,6.58953703 0.0143589744,8.38464275 C0.24970316,12.0491416 3.78445367,14.143827 7.34398978,13.9281389 C10.9032876,13.7126244 14.0583892,11.2127717 13.8229854,7.54827287" id="Fill-1" fill="#FA320A"></path>
            <path d="M7.33594637,1.99823901 C8.06736036,1.82895163 10.1711586,1.98174998 10.8451963,2.84999864 C10.8856517,2.90206926 10.8286924,3.00059845 10.7634514,2.97294316 C9.65232897,2.50095191 7.767371,4.02847251 6.45015853,3.22855205 C6.46004893,3.51563475 6.40231514,4.91604516 4.37078839,4.99727533 C4.32282584,4.99918459 4.29643153,4.95162675 4.32675817,4.91795442 C4.59844664,4.6170441 4.87269709,3.85519305 4.47833174,3.44904221 C3.55822534,4.24971479 3.05941483,4.50700152 1.06238536,3.98282393 C0.997025215,3.96569847 1.01930844,3.86369792 1.08883924,3.8379519 C1.46628365,3.69788192 2.32138738,3.08437429 3.13037557,2.8139542 C3.28439196,2.76252 3.4379317,2.7225992 3.58777742,2.69939883 C2.69704436,2.6221029 2.29552931,2.50181976 1.72897542,2.58478562 C1.66689222,2.59386905 1.62470901,2.52368941 1.66319821,2.47555303 C2.42654751,1.52075141 3.8327737,1.23239588 4.7003894,1.73962158 C4.16559209,1.09614442 3.74667943,0.582959528 3.74667943,0.582959528 L4.73929567,0.0354658783 C4.73929567,0.0354658783 5.14939036,0.925179219 5.44777104,1.57270632 C6.18615597,0.513300608 7.55997021,0.415523554 8.14040642,1.16719189 C8.17484414,1.21185692 8.13885732,1.27538307 8.08136185,1.27405238 C7.60894563,1.26288612 7.34881583,1.68014536 7.32909459,1.99748687 L7.33594637,1.99823901" id="Fill-4" fill="#00912D"></path>
        </g>
    </g>
</svg>
