<svg width="20" height="20" viewBox="0 0 20 20" fill="none" xmlns="http://www.w3.org/2000/svg">
<circle cx="10" cy="10" r="10" fill="#FBFBFB"/>
<path fill-rule="evenodd" clip-rule="evenodd" d="M13.7126 6.8515C13.9078 6.65624 13.9078 6.33966 13.7126 6.14439C13.5173 5.94913 13.2007 5.94913 13.0055 6.14439L9.84646 9.3034L6.68475 6.14168C6.48948 5.94642 6.1729 5.94642 5.97764 6.14168C5.78238 6.33695 5.78238 6.65353 5.97764 6.84879L9.13935 10.0105L6.16417 12.9857C5.96891 13.1809 5.96891 13.4975 6.16417 13.6928C6.35943 13.8881 6.67602 13.8881 6.87128 13.6928L9.84646 10.7176L12.846 13.7172C13.0413 13.9124 13.3579 13.9124 13.5531 13.7172C13.7484 13.5219 13.7484 13.2053 13.5531 13.0101L10.5536 10.0105L13.7126 6.8515Z" fill="#47536A"/>
<path d="M13.7126 6.8515L13.359 6.49795L13.7126 6.8515ZM13.0055 6.14439L12.6519 5.79084L13.0055 6.14439ZM9.84646 9.3034L9.49291 9.65695C9.58668 9.75072 9.71385 9.8034 9.84646 9.8034C9.97907 9.8034 10.1062 9.75072 10.2 9.65695L9.84646 9.3034ZM6.68475 6.14168L6.33119 6.49524L6.68475 6.14168ZM5.97764 6.84879L5.62409 7.20234L5.97764 6.84879ZM9.13935 10.0105L9.49291 10.3641C9.58668 10.2703 9.63935 10.1431 9.63935 10.0105C9.63935 9.8779 9.58668 9.75072 9.49291 9.65695L9.13935 10.0105ZM6.16417 12.9857L5.81062 12.6321L6.16417 12.9857ZM6.87128 13.6928L6.51772 13.3392L6.87128 13.6928ZM9.84646 10.7176L10.2 10.3641C10.0048 10.1688 9.68817 10.1688 9.49291 10.3641L9.84646 10.7176ZM12.846 13.7172L12.4925 14.0707L12.846 13.7172ZM13.5531 13.0101L13.1996 13.3636L13.5531 13.0101ZM10.5536 10.0105L10.2 9.65695C10.0048 9.85221 10.0048 10.1688 10.2 10.3641L10.5536 10.0105ZM13.359 6.49795L14.0661 7.20505C14.4566 6.81453 14.4566 6.18136 14.0661 5.79084L13.359 6.49795ZM13.359 6.49795L14.0661 5.79084C13.6756 5.40032 13.0424 5.40032 12.6519 5.79084L13.359 6.49795ZM10.2 9.65695L13.359 6.49795L12.6519 5.79084L9.49291 8.94984L10.2 9.65695ZM6.33119 6.49524L9.49291 9.65695L10.2 8.94984L7.0383 5.78813L6.33119 6.49524ZM6.33119 6.49524L7.0383 5.78813C6.64778 5.39761 6.01461 5.39761 5.62409 5.78813L6.33119 6.49524ZM6.33119 6.49524L5.62409 5.78813C5.23356 6.17865 5.23356 6.81182 5.62409 7.20234L6.33119 6.49524ZM9.49291 9.65695L6.33119 6.49524L5.62409 7.20234L8.7858 10.3641L9.49291 9.65695ZM6.51772 13.3392L9.49291 10.3641L8.7858 9.65695L5.81062 12.6321L6.51772 13.3392ZM6.51772 13.3392L5.81062 12.6321C5.42009 13.0227 5.42009 13.6558 5.81062 14.0463L6.51772 13.3392ZM6.51772 13.3392L5.81062 14.0463C6.20114 14.4369 6.83431 14.4369 7.22483 14.0463L6.51772 13.3392ZM9.49291 10.3641L6.51772 13.3392L7.22483 14.0463L10.2 11.0712L9.49291 10.3641ZM13.1996 13.3636L10.2 10.3641L9.49291 11.0712L12.4925 14.0707L13.1996 13.3636ZM13.1996 13.3636L12.4925 14.0707C12.883 14.4613 13.5162 14.4613 13.9067 14.0707L13.1996 13.3636ZM13.1996 13.3636L13.9067 14.0707C14.2972 13.6802 14.2972 13.0471 13.9067 12.6565L13.1996 13.3636ZM10.2 10.3641L13.1996 13.3636L13.9067 12.6565L10.9071 9.65695L10.2 10.3641ZM13.359 6.49795L10.2 9.65695L10.9071 10.3641L14.0661 7.20505L13.359 6.49795Z" fill="#47536A"/>
</svg>
