<?xml version="1.0" encoding="UTF-8"?>
<svg width="19px" height="19px" viewBox="0 0 19 19" version="1.1" xmlns="http://www.w3.org/2000/svg" xmlns:xlink="http://www.w3.org/1999/xlink">
    <title>search</title>
    <g id="Page-1" stroke="none" stroke-width="1" fill="none" fill-rule="evenodd">
        <g id="search" transform="translate(10.800676, 11.234540) scale(-1, 1) rotate(-320.000000) translate(-10.800676, -11.234540) translate(3.320676, 0.234540)" stroke="#47536A">
            <path d="M7.40089101,0.0242381314 C3.51280637,0.025208447 0.36089101,3.18385515 0.36089101,7.06576498 L0.36089101,6.90268478 C0.36089101,10.7906424 3.52071784,14.0134348 7.40089101,14.1005963 L7.40089101,14.1005963 C11.2889756,14.1879355 14.440891,11.0992511 14.440891,7.22402342 L14.440891,7.05719568 C14.440891,3.17203017 11.2810642,0.0232697901 7.40089101,0.0242381314 L7.40089101,0.0242381314 Z" id="Path-2"></path>
            <path d="M5.9287933,13.8155037 L5.91727754,20.7114256 C5.91676066,21.0209475 6.1766099,21.2714215 6.47742522,21.2709095 L6.47742522,21.2709095 C6.78730312,21.270382 7.03892309,21.021868 7.0394447,20.7095155 L7.05096046,13.8135936 L5.9287933,13.8155037 Z" id="Path-10" stroke-width="0.5" fill="#47536A" transform="translate(6.484139, 17.542274) scale(-1, 1) rotate(-5.000000) translate(-6.484139, -17.542274) "></path>
        </g>
    </g>
</svg>
