<svg width="37" height="39" viewBox="0 0 37 39" fill="none" xmlns="http://www.w3.org/2000/svg">
<path fill-rule="evenodd" clip-rule="evenodd" d="M7.0672 22.2016C3.36945 17.7948 3.94862 11.2231 8.35539 7.52727C12.7606 3.83275 19.33 4.40493 23.0264 8.81016C26.2443 12.645 26.2294 18.1332 23.2414 21.9339L28.9499 28.5277C29.5806 29.2561 29.519 30.3536 28.8109 31.0069C28.0704 31.69 26.9115 31.625 26.2521 30.8633L20.5898 24.3231C16.264 27.0506 10.4614 26.2467 7.0672 22.2016ZM9.96189 9.44278C6.61225 12.252 6.17303 17.2467 8.98232 20.5947C11.8358 23.9953 16.9315 24.3819 20.2682 21.4519C23.5006 18.6135 23.8756 13.7114 21.1113 10.4171C18.303 7.07036 13.3103 6.63454 9.96189 9.44278Z" fill="url(#paint0_linear_9808_5509)"/>
<defs>
<linearGradient id="paint0_linear_9808_5509" x1="19.421" y1="36.9243" x2="-0.767262" y2="16.351" gradientUnits="userSpaceOnUse">
<stop stop-color="#5C00D0"/>
<stop offset="1" stop-color="#00A6FF"/>
</linearGradient>
</defs>
</svg>
