<?xml version="1.0" encoding="UTF-8"?>
<svg width="16px" height="16px" viewBox="0 0 16 16" version="1.1" xmlns="http://www.w3.org/2000/svg" xmlns:xlink="http://www.w3.org/1999/xlink">
    <title>search</title>
    <g id="Page-1" stroke="none" stroke-width="1" fill="none" fill-rule="evenodd">
        <g id="search" transform="translate(8.702749, 9.134148) scale(-1, 1) rotate(-320.000000) translate(-8.702749, -9.134148) translate(2.702749, -0.365852)" stroke="#47536A">
            <path d="M6.06245806,0.968835985 C2.99912615,0.957860012 0.527428988,3.43393991 0.541718212,6.4886855 L0.541117918,6.36035472 C0.555429403,9.41985941 3.05477262,11.9628662 6.10221636,12.0397807 L6.36788311,12.0464858 C9.42488149,12.1236415 11.9275199,9.70142639 11.9575106,6.65377353 L11.9588017,6.52257271 C11.9888693,3.4671043 9.53262607,0.981269659 6.46659089,0.970284 L6.06245806,0.968835985 Z" id="Path-2"></path>
            <path d="M4.78095241,12.3100874 L4.76068658,17.9108013 C4.75968901,18.1864907 4.98527798,18.4091268 5.2494736,18.4081296 L5.16547203,18.4084467 C5.43641921,18.4074241 5.6569036,18.1749207 5.65787156,17.9074152 L5.67813739,12.3067014 L4.78095241,12.3100874 Z" id="Path-10" stroke-width="0.5" fill="#47536A" transform="translate(5.219410, 15.357574) scale(-1, 1) rotate(-5.000000) translate(-5.219410, -15.357574) "></path>
        </g>
    </g>
</svg>
