<?xml version="1.0" encoding="UTF-8"?>
<svg width="18px" height="18px" viewBox="0 0 18 18" version="1.1" xmlns="http://www.w3.org/2000/svg" xmlns:xlink="http://www.w3.org/1999/xlink">
    <title>Settings</title>
    <g id="Page-1" stroke="none" stroke-width="1" fill="none" fill-rule="evenodd">
        <g id="Settings" transform="translate(1.000000, 1.000000)" stroke="#47536A">
            <path d="M6.52571429,0.308571429 L6.13714286,1.56571429 C5.65774153,1.70338315 5.19515867,1.8787373 4.76571429,2.11428571 L3.59669346,1.51669346 L3.12812204,1.55097918 L1.57383632,3.10526489 L1.53955061,3.57383632 L2.11428571,4.75428571 C1.87643498,5.18466304 1.6950588,5.64380087 1.55428571,6.12571429 L0.308571429,6.52571429 L-3.94430453e-31,6.89142857 L4.75809868e-16,9.08571429 L0.297142857,9.44 L1.54285714,9.86285714 C1.68303598,10.3447292 1.87550914,10.8031631 2.11428571,11.2342857 L1.51669346,12.4033065 L1.55097918,12.871878 L3.10526489,14.4261637 L3.57383632,14.4604494 L4.74285714,13.8742857 C5.17611593,14.1136055 5.64153198,14.2941751 6.12571429,14.4342857 L6.52571429,15.6914286 L6.88,16 L9.07428571,16 L9.44,15.7028571 L9.86285714,14.4457143 C10.343898,14.3046235 10.7927274,14.101922 11.2228571,13.8628571 L12.4261637,14.4604494 L12.8947351,14.4261637 L14.4490208,12.871878 L14.4833065,12.391878 L13.8628571,11.2228571 C14.0967607,10.7970834 14.2850838,10.3379811 14.4228571,9.86285714 L15.7028571,9.44 L16,9.08571429 L16,6.89142857 L15.6914286,6.52571429 L14.4342857,6.13714286 C14.2955158,5.65808603 14.098583,5.20628334 13.8628571,4.77714286 L14.4604494,3.57383632 L14.4261637,3.10526489 L12.871878,1.55097918 L12.391878,1.51669346 L11.2342857,2.12571429 C10.8044943,1.88688541 10.3446872,1.70630338 9.86285714,1.56571429 L9.44,0.297142857 L9.07428571,0 L6.88,0 L6.52571429,0.308571429 Z" id="Shape" transform="translate(8.000000, 8.000000) rotate(-180.000000) translate(-8.000000, -8.000000) "></path>
            <circle id="Oval" cx="8" cy="8" r="3.42857143"></circle>
        </g>
    </g>
</svg>
