<svg width="20" height="22" viewBox="0 0 20 22" fill="none" xmlns="http://www.w3.org/2000/svg">
<path fill-rule="evenodd" clip-rule="evenodd" d="M14.1378 3.6873C14.1378 2.69319 14.9437 1.8873 15.9378 1.8873C16.932 1.8873 17.7379 2.69319 17.7379 3.6873C17.7379 4.68142 16.932 5.4873 15.9378 5.4873C14.9437 5.4873 14.1378 4.68142 14.1378 3.6873ZM15.9378 0.487305C14.1705 0.487305 12.7379 1.91999 12.7379 3.6873C12.7379 4.03056 12.7919 4.36118 12.8919 4.67114L6.29743 8.6688C6.29064 8.67292 6.28395 8.67713 6.27735 8.68144C5.69678 8.09069 4.88863 7.72432 3.99492 7.72432C2.22761 7.72432 0.794922 9.15701 0.794922 10.9243C0.794922 12.6916 2.22761 14.1243 3.99492 14.1243C4.88936 14.1243 5.69808 13.7574 6.27875 13.1658L12.4841 16.9275C12.3649 17.2628 12.3 17.6238 12.3 18C12.3 19.7673 13.7327 21.2 15.5 21.2C17.2673 21.2 18.7 19.7673 18.7 18C18.7 16.2327 17.2673 14.8 15.5 14.8C14.6133 14.8 13.8108 15.1607 13.2312 15.7433L7.01785 11.9767C7.13258 11.6471 7.19492 11.293 7.19492 10.9243C7.19492 10.5548 7.13227 10.1998 7.01701 9.86955L7.02917 9.86235L13.604 5.87663C14.1878 6.49871 15.0174 6.8873 15.9378 6.8873C17.7052 6.8873 19.1378 5.45462 19.1378 3.6873C19.1378 1.91999 17.7052 0.487305 15.9378 0.487305ZM3.99492 9.12432C3.00081 9.12432 2.19492 9.93021 2.19492 10.9243C2.19492 11.9184 3.00081 12.7243 3.99492 12.7243C4.98903 12.7243 5.79492 11.9184 5.79492 10.9243C5.79492 9.93021 4.98903 9.12432 3.99492 9.12432ZM15.5 16.2C14.5059 16.2 13.7 17.0059 13.7 18C13.7 18.9941 14.5059 19.8 15.5 19.8C16.4941 19.8 17.3 18.9941 17.3 18C17.3 17.0059 16.4941 16.2 15.5 16.2Z" fill="white"/>
</svg>
