<?xml version="1.0" encoding="UTF-8"?>
<svg width="21px" height="17px" viewBox="0 0 21 17" version="1.1" xmlns="http://www.w3.org/2000/svg" xmlns:xlink="http://www.w3.org/1999/xlink">
    <title>Path</title>
    <g id="Page-1" stroke="none" stroke-width="1" fill="none" fill-rule="evenodd" stroke-linecap="round" stroke-linejoin="round">
        <path d="M8.18677284,4.08091246 L8.18677284,2 C8.18677284,1.44771525 7.73905759,1 7.18677284,1 C6.91012888,1 6.64584517,1.11460227 6.45677347,1.31655218 L1.27000063,6.85661073 C0.909999791,7.24113224 0.909999791,7.83898485 1.27000063,8.22350636 L6.45677347,13.7635649 C6.83423127,14.1667324 7.46705313,14.1875743 7.87022065,13.8101165 C8.07217057,13.6210448 8.18677284,13.356761 8.18677284,13.0801171 L8.18677284,10.8838998 L8.18677284,10.8838998 C13.5614882,10.8838998 16.5614882,11.4825006 20.0614882,16.2239565 C20.0614882,9.57773865 16.5614882,4.08091246 8.18677284,4.08091246 Z" id="Path" stroke="#47536A" transform="translate(10.530744, 8.611978) scale(-1, 1) translate(-10.530744, -8.611978) "></path>
    </g>
</svg>
