<svg width="40" height="41" viewBox="0 0 40 41" fill="none" xmlns="http://www.w3.org/2000/svg">
<mask id="mask0_992_261" style="mask-type:alpha" maskUnits="userSpaceOnUse" x="0" y="0" width="40" height="41">
<path fill-rule="evenodd" clip-rule="evenodd" d="M13.9456 0H26.0542C30.0698 0 32.0771 0 34.2388 0.683878C36.5988 1.54356 38.4574 3.40371 39.3164 5.76559C39.9998 7.92865 39.9998 9.93825 39.9998 13.9568V26.0751C39.9998 30.094 39.9998 32.1029 39.3164 34.2663C38.4574 36.6282 36.5988 38.4883 34.2388 39.3477C32.0771 40.0319 30.0698 40.0319 26.0542 40.0319H13.9456C9.92994 40.0319 7.92228 40.0319 5.76096 39.3477C3.40098 38.4883 1.54232 36.6282 0.683329 34.2663C0 32.1029 0 30.094 0 26.0751V13.9568C0 9.93825 0 7.92865 0.683329 5.76559C1.54232 3.40371 3.40098 1.54356 5.76096 0.683878C7.92228 0 9.92994 0 13.9456 0Z" fill="white"/>
</mask>
<g mask="url(#mask0_992_261)">
<path fill-rule="evenodd" clip-rule="evenodd" d="M27.224 11.1609C27.224 13.8243 25.0638 15.9834 22.399 15.9834C19.7343 15.9834 17.5741 13.8243 17.5741 11.1609C17.5741 8.49749 19.7343 6.33838 22.399 6.33838C25.0638 6.33838 27.224 8.49749 27.224 11.1609ZM9.98456 15.9834C12.0011 15.9834 13.6359 14.3495 13.6359 12.3339C13.6359 10.3184 12.0011 8.68447 9.98456 8.68447C7.968 8.68447 6.33325 10.3184 6.33325 12.3339C6.33325 14.3495 7.968 15.9834 9.98456 15.9834ZM13.1319 21.0885L15.4369 15.2584C15.4868 15.1298 15.6019 15.0395 15.7365 15.0233C15.9046 15.0005 16.0663 15.0975 16.1284 15.2584L18.4334 21.0885L24.5762 21.5234C24.723 21.5375 24.8475 21.6396 24.8926 21.7828C24.9377 21.926 24.8949 22.0829 24.7836 22.1816L20.0584 26.2133L21.5566 32.3138C21.5937 32.4627 21.5382 32.6197 21.4164 32.7103C21.2947 32.8008 21.1312 32.8067 21.0034 32.7252L15.7826 29.387L10.5618 32.7252C10.4341 32.8067 10.2706 32.8008 10.1488 32.7103C10.0271 32.6197 9.97156 32.4627 10.0086 32.3138L11.5069 26.2133L6.78164 22.1816C6.67039 22.0829 6.62753 21.926 6.67266 21.7828C6.7178 21.6396 6.84225 21.5375 6.98909 21.5234L13.1319 21.0885ZM28.1663 21.2238C27.6794 21.6027 27.3947 22.1851 27.3947 22.8021V24.7723C27.3947 25.3892 27.6794 25.9717 28.1663 26.3506L29.1493 27.1156C31.1197 28.6491 33.9918 27.245 33.9918 24.7481V22.8262C33.9918 20.3294 31.1197 18.9252 29.1493 20.4587L28.1663 21.2238Z" fill="url(#paint0_linear_992_261)"/>
</g>
<defs>
<linearGradient id="paint0_linear_992_261" x1="21.9064" y1="-0.945758" x2="-1.43564" y2="23.2122" gradientUnits="userSpaceOnUse">
<stop stop-color="#17F2FF"/>
<stop offset="0.529852" stop-color="#2D6FD3"/>
<stop offset="1" stop-color="#9844B2"/>
</linearGradient>
</defs>
</svg>
