<svg width="28" height="28" viewBox="0 0 28 28" fill="none" xmlns="http://www.w3.org/2000/svg">
<path d="M9.62189 20.9379C9.49867 20.885 9.36248 20.7575 9.23256 20.6326L7.2095 18.3437C6.93017 18.0276 6.93017 17.5152 7.2095 17.1992C7.48882 16.8832 7.9417 16.8832 8.22103 17.1992L9.24817 18.3613V7.77549C9.24817 7.3472 9.58368 7 9.99756 7C10.4114 7 10.747 7.3472 10.747 7.77549V18.3613L11.779 17.266C12.0583 16.95 12.5112 16.95 12.7905 17.266C13.0698 17.582 13.0698 18.0944 12.7905 18.4105L10.8411 20.6326C10.7137 20.7377 10.4824 20.9122 10.3885 20.9379C10.2946 20.9636 10.0717 20.9999 10.0045 20.9999C9.93737 20.9999 9.74511 20.9908 9.62189 20.9379Z" fill="#0075FF"/>
<path d="M18.3781 7.06209C18.5013 7.11498 18.6375 7.24249 18.7674 7.36735L20.7905 9.65632C21.0698 9.97236 21.0698 10.4848 20.7905 10.8008C20.5112 11.1168 20.0583 11.1168 19.779 10.8008L18.7518 9.63866V20.2245C18.7518 20.6528 18.4163 21 18.0024 21C17.5886 21 17.253 20.6528 17.253 20.2245V9.63866L16.221 10.734C15.9417 11.05 15.4888 11.05 15.2095 10.734C14.9302 10.418 14.9302 9.90556 15.2095 9.58952L17.1589 7.36735C17.2863 7.26231 17.5176 7.08782 17.6115 7.06209C17.7054 7.03635 17.9283 7.00007 17.9955 7.00007C18.0626 7.00007 18.2549 7.0092 18.3781 7.06209Z" fill="#0075FF"/>
<rect x="0.5" y="0.5" width="27" height="27" rx="7.5" stroke="#0075FF"/>
</svg>
