<svg width="10" height="11" viewBox="0 0 10 11" fill="none" xmlns="http://www.w3.org/2000/svg">
<path fill-rule="evenodd" clip-rule="evenodd" d="M4.97475 0.0018626C4.90098 0.0110024 4.83795 0.0618466 4.8106 0.134264L3.54797 3.41781L0.183033 3.66276C0.102597 3.67073 0.0344247 3.72819 0.00970059 3.80885C-0.0150235 3.88951 0.00845463 3.97785 0.0693957 4.03348L2.65781 6.30416L1.83709 9.73997C1.81678 9.82387 1.84719 9.91228 1.91389 9.96328C1.98058 10.0143 2.07016 10.0176 2.14012 9.97168L5 8.09158L7.85988 9.97168C7.92984 10.0176 8.01942 10.0143 8.08611 9.96328C8.15281 9.91228 8.18322 9.82387 8.16291 9.73997L7.3422 6.30416L9.9306 4.03348C9.99155 3.97785 10.015 3.88951 9.9903 3.80885C9.96558 3.72819 9.8974 3.67073 9.81697 3.66276L6.45203 3.41781L5.1894 0.134264C5.15537 0.0436417 5.06681 -0.0109841 4.97475 0.0018626Z" fill="#47536A"/>
</svg>
