<svg xmlns="http://www.w3.org/2000/svg" width="16" height="16" viewBox="0 0 16 16"><defs><linearGradient id="rfwua" x1="15.76" x2="3.98" y1="4.35" y2="12.51" gradientUnits="userSpaceOnUse"><stop offset="0" stop-color="#00eaf8"/><stop offset="1" stop-color="#6d42ef"/></linearGradient></defs><g><g><path fill="url(#rfwua)" d="M7.58.206L5.59 5.24l-5.302.375a.32.32 0 0 0-.273.224.33.33 0 0 0 .094.345l4.08 3.482-1.294 5.268a.328.328 0 0 0 .12.343.313.313 0 0 0 .357.012l4.507-2.882 4.506 2.883c.11.07.252.065.357-.013a.328.328 0 0 0 .12-.343L11.57 9.667l4.078-3.482a.33.33 0 0 0 .094-.345.32.32 0 0 0-.273-.224l-5.302-.375L8.177.206a.32.32 0 1 0-.597 0z"/></g></g></svg>