<svg width="161" height="14" viewBox="0 0 161 14" fill="none" xmlns="http://www.w3.org/2000/svg">
<path fill-rule="evenodd" clip-rule="evenodd" d="M70.1949 0.528301L68.569 4.75508L64.2357 5.07039C64.1321 5.08065 64.0443 5.15461 64.0125 5.25844C63.9807 5.36227 64.0109 5.476 64.0894 5.5476L67.4226 8.47056L66.3657 12.8933C66.3396 13.0013 66.3788 13.1151 66.4646 13.1808C66.5505 13.2464 66.6659 13.2507 66.756 13.1916L70.4388 10.7714L74.1217 13.1916C74.2118 13.2507 74.3272 13.2464 74.413 13.1808C74.4989 13.1151 74.5381 13.0013 74.5119 12.8933L73.455 8.47056L76.7883 5.5476C76.8668 5.476 76.897 5.36227 76.8652 5.25844C76.8334 5.15461 76.7456 5.08065 76.642 5.07039L72.3087 4.75508L70.6827 0.528301C70.6389 0.411647 70.5249 0.341329 70.4063 0.357866C70.3113 0.369632 70.2302 0.435081 70.1949 0.528301Z" fill="#D14EFF"/>
<path fill-rule="evenodd" clip-rule="evenodd" d="M91.2833 0.357866C91.1883 0.369632 91.1071 0.435081 91.0719 0.528301L89.4459 4.75508L85.1127 5.07039C85.0091 5.08065 84.9213 5.15461 84.8894 5.25844C84.8576 5.36227 84.8878 5.476 84.9663 5.5476L88.2996 8.47056L87.2427 12.8933C87.2165 13.0013 87.2557 13.1151 87.3416 13.1808C87.4275 13.2464 87.5428 13.2507 87.6329 13.1916L91.3158 10.7714L94.9987 13.1916C95.0888 13.2507 95.2041 13.2464 95.29 13.1808C95.3759 13.1151 95.415 13.0013 95.3889 12.8933L94.332 8.47056L97.6653 5.5476C97.7437 5.476 97.774 5.36227 97.7421 5.25844C97.7103 5.15461 97.6225 5.08065 97.5189 5.07039L93.1857 4.75508L91.5597 0.528301C91.5159 0.411647 91.4018 0.341329 91.2833 0.357866Z" fill="#D14EFF"/>
<path fill-rule="evenodd" clip-rule="evenodd" d="M112.162 0.357866C112.067 0.369632 111.986 0.435081 111.951 0.528301L110.325 4.75508L105.992 5.07039C105.888 5.08065 105.8 5.15461 105.768 5.25844C105.737 5.36227 105.767 5.476 105.845 5.5476L109.178 8.47056L108.122 12.8933C108.095 13.0013 108.135 13.1151 108.221 13.1808C108.306 13.2464 108.422 13.2507 108.512 13.1916L112.195 10.7714L115.878 13.1916C115.968 13.2507 116.083 13.2464 116.169 13.1808C116.255 13.1151 116.294 13.0013 116.268 12.8933L115.211 8.47056L118.544 5.5476C118.623 5.476 118.653 5.36227 118.621 5.25844C118.589 5.15461 118.501 5.08065 118.398 5.07039L114.065 4.75508L112.439 0.528301C112.395 0.411647 112.281 0.341329 112.162 0.357866Z" fill="#D14EFF"/>
<path fill-rule="evenodd" clip-rule="evenodd" d="M133.039 0.357866C132.944 0.369632 132.863 0.435081 132.828 0.528301L131.202 4.75508L126.869 5.07039C126.765 5.08065 126.677 5.15461 126.645 5.25844C126.613 5.36227 126.644 5.476 126.722 5.5476L130.055 8.47056L128.999 12.8933C128.972 13.0013 129.012 13.1151 129.097 13.1808C129.183 13.2464 129.299 13.2507 129.389 13.1916L133.072 10.7714L136.755 13.1916C136.845 13.2507 136.96 13.2464 137.046 13.1808C137.132 13.1151 137.171 13.0013 137.145 12.8933L136.088 8.47056L139.421 5.5476C139.5 5.476 139.53 5.36227 139.498 5.25844C139.466 5.15461 139.378 5.08065 139.275 5.07039L134.942 4.75508L133.316 0.528301C133.272 0.411647 133.158 0.341329 133.039 0.357866Z" fill="#D14EFF"/>
<path opacity="0.26" fill-rule="evenodd" clip-rule="evenodd" d="M153.918 0.357866C153.823 0.369632 153.742 0.435081 153.707 0.528301L152.081 4.75508L147.747 5.07039C147.644 5.08065 147.556 5.15461 147.524 5.25844C147.492 5.36227 147.523 5.476 147.601 5.5476L150.934 8.47056L149.877 12.8933C149.851 13.0013 149.89 13.1151 149.976 13.1808C150.062 13.2464 150.178 13.2507 150.268 13.1916L153.951 10.7714L157.633 13.1916C157.724 13.2507 157.839 13.2464 157.925 13.1808C158.011 13.1151 158.05 13.0013 158.024 12.8933L156.967 8.47056L160.3 5.5476C160.379 5.476 160.409 5.36227 160.377 5.25844C160.345 5.15461 160.257 5.08065 160.154 5.07039L155.82 4.75508L154.194 0.528301C154.151 0.411647 154.037 0.341329 153.918 0.357866Z" fill="#D14EFF"/>
<path d="M153.918 0.357866C153.823 0.369632 153.742 0.435081 153.707 0.528301L152.081 4.75508L147.747 5.07039C147.644 5.08065 147.556 5.15461 147.524 5.25844C147.492 5.36227 147.523 5.476 147.601 5.5476L150.934 8.47056L149.877 12.8933C149.851 13.0013 149.89 13.1151 149.976 13.1808C150.062 13.2464 150.178 13.2507 150.268 13.1916L153.951 10.7714L155 11.4561V2.63184L154.194 0.528301C154.151 0.411647 154.037 0.341329 153.918 0.357866Z" fill="#D14EFF"/>
</svg>
