<svg width="16" height="16" viewBox="0 0 16 16" fill="none" xmlns="http://www.w3.org/2000/svg">
<path fill-rule="evenodd" clip-rule="evenodd" d="M7.69697 0.214737L5.67674 5.46634L0.292853 5.85809C0.164155 5.87085 0.0550795 5.96274 0.0155209 6.09175C-0.0240376 6.22075 0.0135274 6.36205 0.111033 6.45102L4.25249 10.0827L2.93934 15.5778C2.90685 15.712 2.9555 15.8534 3.06222 15.9349C3.16893 16.0165 3.31225 16.0218 3.4242 15.9484L8 12.9414L12.5758 15.9484C12.6878 16.0218 12.8311 16.0165 12.9378 15.9349C13.0445 15.8534 13.0931 15.712 13.0607 15.5778L11.7475 10.0827L15.889 6.45102C15.9865 6.36205 16.024 6.22075 15.9845 6.09175C15.9449 5.96274 15.8358 5.87085 15.7071 5.85809L10.3233 5.46634L8.30303 0.214737C8.2486 0.0697991 8.1069 -0.0175676 7.9596 0.00297897C7.84157 0.0175969 7.74072 0.0989154 7.69697 0.214737Z" fill="url(#paint0_linear)"/>
<defs>
<linearGradient id="paint0_linear" x1="11.7413" y1="-1.44742" x2="-0.222951" y2="7.06993" gradientUnits="userSpaceOnUse">
<stop stop-color="#00EAF8"/>
<stop offset="1" stop-color="#6D42EF"/>
</linearGradient>
</defs>
</svg>
