<svg xmlns="http://www.w3.org/2000/svg" width="40" height="40" viewBox="0 0 40 40"><defs><mask id="npfjb" width="2" height="2" x="-1" y="-1"><path fill="#fff" d="M0 0h40v40H0z"/><path d="M0 0h40v40H0z"/></mask><filter id="npfja" width="120" height="128" x="-40" y="-40" filterUnits="userSpaceOnUse"><feOffset dy="8" in="SourceGraphic" result="FeOffset1181Out"/><feGaussianBlur in="FeOffset1181Out" result="FeGaussianBlur1182Out" stdDeviation="12 12"/></filter></defs><g><g clip-path="url(#clip-4DA7464B-3F98-4767-B8AA-E2CD94C710EE)"><g filter="url(#npfja)"><path fill="none" d="M0 0h40v40H0z" mask="url(&quot;#npfjb&quot;)"/><path fill-opacity=".1" d="M0 0h40v40H0z"/></g><path fill="#50c3f7" d="M0 0h40v40H0z"/></g><g><path fill="#fff" d="M28.507 19.113c1.236-.107 2.074-.7 2.397-1.505-.446.29-1.83.604-2.594.304a10.44 10.44 0 0 0-.12-.532c-.582-2.257-2.576-4.075-4.665-3.856.169-.072.34-.138.512-.199.23-.087 1.579-.319 1.366-.821-.179-.442-1.827.334-2.137.435.41-.162 1.087-.442 1.16-.939a3.2 3.2 0 0 0-1.72.86c.172-.196.302-.434.33-.69-1.674 1.13-2.652 3.405-3.443 5.613-.622-.636-1.173-1.136-1.667-1.414-1.386-.785-3.043-1.604-5.644-2.623-.08.908.425 2.117 1.882 2.92-.315-.045-.893.055-1.354.172.188 1.04.802 1.898 2.464 2.313-.76.053-1.152.235-1.508.628.346.724 1.19 1.576 2.708 1.401-1.688.769-.688 2.191.686 1.979a5.617 5.617 0 0 1-8.16.23c5.54 7.969 17.58 4.713 19.375-2.962 1.344.012 2.135-.492 2.625-1.047-.775.139-1.897-.005-2.493-.267z"/></g></g></svg>