<?xml version="1.0" encoding="UTF-8"?>
<svg width="22px" height="16px" viewBox="0 0 22 16" version="1.1" xmlns="http://www.w3.org/2000/svg" xmlns:xlink="http://www.w3.org/1999/xlink">
    <title>twitter</title>
    <g id="Page-1" stroke="none" stroke-width="1" fill="none" fill-rule="evenodd">
        <g id="twitter" fill="#50C3F7">
            <path d="M19.5074,7.11337969 C20.7430667,7.00576934 21.5810222,6.41275114 21.9036889,5.60812506 C21.4578222,5.89715047 20.0742667,6.21223977 19.3101333,5.91211785 C19.2746617,5.73361795 19.2345577,5.55617905 19.1898667,5.38000144 C18.6076,3.12302271 16.6141556,1.30474325 14.5253778,1.52435095 C14.6938379,1.45235892 14.8643797,1.38591973 15.0367556,1.32512986 C15.2665333,1.23816418 16.6156222,1.00642774 16.4032,0.503729989 C16.2240222,0.0616759567 14.5759778,0.837915612 14.2657778,0.939332562 C14.6752222,0.776755772 15.3528222,0.497020471 15.4251778,0 C14.7976889,0.0908365554 14.1816889,0.404119448 13.7057556,0.859592517 C13.8776,0.664242311 14.0078889,0.42631247 14.0355111,0.170060483 C12.3615556,1.29906597 11.3837778,3.57514102 10.5925111,5.7828306 C9.97113333,5.14723277 9.4204,4.64659948 8.92637778,4.36867059 C7.54037778,3.583915 5.88328889,2.76535377 3.28191111,1.74576505 C3.20197778,2.65438866 3.70748889,3.86261807 5.16413333,4.66595386 C4.84855556,4.62130976 4.27142222,4.7209203 3.80991111,4.83756269 C3.99788889,5.87857026 4.61168889,6.73609831 6.27366667,7.15079816 C5.51417778,7.20370013 5.1216,7.38614741 4.76593333,7.77942841 C5.11182222,8.50328221 5.95588889,9.35539103 7.47437778,9.18042744 C5.78624444,9.94866729 6.78602222,11.3713432 8.1598,11.1589612 C5.81631111,13.7142554 2.12153333,13.5266469 0,11.3894073 C5.53935556,19.3579925 17.5806889,16.1020697 19.3751556,8.42663887 C20.7193556,8.43876761 21.5098889,7.93503762 22,7.37969595 C21.2253556,7.51853137 20.1028667,7.3750509 19.5074,7.11337969 L19.5074,7.11337969 Z" id="Twitter__x28_alt_x29_"></path>
        </g>
    </g>
</svg>
