<svg width="14" height="16" viewBox="0 0 14 16" fill="none" xmlns="http://www.w3.org/2000/svg">
<path fill-rule="evenodd" clip-rule="evenodd" d="M10.5117 2.11935C10.5117 1.49999 11.0122 1 11.6271 1C12.242 1 12.7425 1.49999 12.7425 2.11935C12.7425 2.73871 12.242 3.2387 11.6271 3.2387C11.0122 3.2387 10.5117 2.73871 10.5117 2.11935ZM11.6271 0C10.4577 0 9.51172 0.950022 9.51172 2.11935C9.51172 2.36376 9.55304 2.59858 9.6291 2.81716L3.65207 6.46993C3.26929 6.08544 2.73988 5.84736 2.15445 5.84736C0.984997 5.84736 0.0390625 6.79739 0.0390625 7.96671C0.0390625 9.13604 0.984997 10.0861 2.15445 10.0861C2.73982 10.0861 3.26919 9.84803 3.65195 9.46362L9.61787 13.1096C9.56527 13.2945 9.53711 13.4898 9.53711 13.6915C9.53711 14.8608 10.483 15.8109 11.6525 15.8109C12.8219 15.8109 13.7679 14.8608 13.7679 13.6915C13.7679 12.5222 12.8219 11.5722 11.6525 11.5722C11.0447 11.5722 10.4973 11.8288 10.1117 12.2394L4.17096 8.60884C4.23519 8.40625 4.26983 8.1905 4.26983 7.96671C4.26983 7.74299 4.2352 7.52729 4.17101 7.32474L10.1718 3.65746C10.5508 4.01761 11.0629 4.2387 11.6271 4.2387C12.7966 4.2387 13.7425 3.28868 13.7425 2.11935C13.7425 0.950022 12.7966 0 11.6271 0ZM2.15445 6.84736C1.53959 6.84736 1.03906 7.34736 1.03906 7.96671C1.03906 8.58607 1.53959 9.08606 2.15445 9.08606C2.7693 9.08606 3.26983 8.58607 3.26983 7.96671C3.26983 7.34736 2.7693 6.84736 2.15445 6.84736ZM11.6525 12.5722C11.0376 12.5722 10.5371 13.0722 10.5371 13.6915C10.5371 14.3109 11.0376 14.8109 11.6525 14.8109C12.2673 14.8109 12.7679 14.3109 12.7679 13.6915C12.7679 13.0722 12.2673 12.5722 11.6525 12.5722Z" fill="#0075FF"/>
</svg>
