<svg width="20" height="20" viewBox="0 0 17 17" fill="none" xmlns="http://www.w3.org/2000/svg">
<path d="M15.4511 11.4662L8.49996 11.4662L1.54885 11.4662M15.4511 5.53381L8.49996 5.53381L1.54885 5.53381M0.944431 8.49999C0.94443 4.32717 4.32717 0.944432 8.49999 0.944432C12.6728 0.944432 16.0555 4.32717 16.0555 8.49999C16.0555 12.6728 12.6728 16.0555 8.49999 16.0555C4.32717 16.0555 0.944431 12.6728 0.944431 8.49999ZM8.50002 1.24668C10.6372 2.87498 11.8245 5.6875 11.8245 8.35199C11.8245 11.0165 10.8746 13.681 8.50003 15.7533C6.12542 13.681 5.1755 11.0165 5.1755 8.35199C5.1755 5.6875 6.36288 2.87498 8.50002 1.24668Z" stroke="#47536A"/>
</svg>
