<svg viewBox="0 0 99 43" fill="none" xmlns="http://www.w3.org/2000/svg">
<path fill-rule="evenodd" clip-rule="evenodd" d="M98.2948 9.25022C98.2948 9.25022 97.7235 5.20031 95.9705 3.41693C93.7478 1.0763 91.2553 1.06471 90.1126 0.927858C81.9316 0.333313 69.6597 0.333313 69.6597 0.333313H69.634C69.634 0.333313 57.3618 0.333313 49.1808 0.927858C48.0377 1.06471 45.5464 1.0763 43.3229 3.41693C41.57 5.20031 40.9994 9.25022 40.9994 9.25022C40.9994 9.25022 40.4146 14.0056 40.4146 18.7614V23.2201C40.4146 27.9755 40.9994 32.7311 40.9994 32.7311C40.9994 32.7311 41.57 36.7807 43.3229 38.5641C45.5464 40.9053 48.4682 40.8307 49.7694 41.0759C54.4464 41.5273 69.6467 41.6666 69.6467 41.6666C69.6467 41.6666 81.9316 41.648 90.1126 41.054C91.2553 40.9169 93.7478 40.9053 95.9705 38.5641C97.7235 36.7807 98.2948 32.7311 98.2948 32.7311C98.2948 32.7311 98.8786 27.9755 98.8786 23.2201V18.7614C98.8786 14.0056 98.2948 9.25022 98.2948 9.25022ZM87.4134 18.7655C87.4134 16.8855 87.8917 16.3728 89.0201 16.3728C90.1402 16.3728 90.5858 16.9314 90.5858 18.7906V20.9866L87.4134 20.9902V18.7655ZM94.1383 24.0041L94.1376 19.8916C94.1376 17.743 93.745 16.1715 93.0384 15.1547C92.0915 13.7793 90.7464 13.0513 89.0515 13.0513C87.3266 13.0513 85.9812 13.7793 85.0041 15.1547C84.2863 16.1715 83.8676 17.8323 83.8676 19.9808V27.0215C83.8676 29.1574 84.3279 30.6528 85.0457 31.6586C86.0224 33.0322 87.3678 33.7179 89.1352 33.7179C90.9005 33.7179 92.2869 32.9983 93.2216 31.5389C93.6323 30.8944 93.8975 30.164 94.0117 29.3567C94.042 28.992 94.1316 28.1616 94.1316 26.9879V26.4178H90.586C90.586 27.879 90.592 28.7476 90.5608 28.9461C90.3679 29.9196 89.8832 30.4074 89.0515 30.4074C87.8917 30.4074 87.4018 29.4726 87.4134 27.6164V24.0041H94.1383ZM77.0937 27.6673C77.0937 29.6649 76.6453 30.4304 75.6521 30.4304C75.0855 30.4304 74.432 30.1238 73.8563 29.5192L73.8602 17.4044C74.4361 16.8075 75.0855 16.4934 75.6521 16.4934C76.6453 16.4934 77.0937 17.0799 77.0937 19.0776V27.6673ZM77.4945 13.1637C76.2278 13.1637 74.9686 13.9819 73.8563 15.4193L73.8602 6.69229H70.4366V33.4602H73.8602L73.8651 31.4491C75.0156 32.9442 76.27 33.7179 77.4945 33.7179C78.8655 33.7179 79.8674 32.9468 80.3269 31.4626C80.557 30.6166 80.7074 29.3137 80.7074 27.4674V19.4771C80.7074 17.5862 80.4768 16.2935 80.2469 15.4906C79.7872 13.9957 78.8655 13.1637 77.4945 13.1637ZM67.2764 33.4384H63.5944V31.2834C62.1985 32.9009 61.0154 33.7179 59.7255 33.7179C58.5938 33.7179 57.8079 33.1782 57.4143 32.203C57.1752 31.6101 57.0057 30.6842 57.0057 29.3241V13.8461H60.6875V28.3445C60.6875 29.1758 60.6875 29.52 60.6875 29.716C60.7735 30.2658 61.0045 30.4669 61.4727 30.4669C62.1773 30.4669 62.8152 29.8477 63.5944 28.7364V13.8461H67.2764V33.4384ZM53.3814 33.7179H49.3684V10.5244H45.1549V6.6964L57.7958 6.69229V10.5244H53.3814V33.7179Z" fill="#8CB4DC"/>
<path fill-rule="evenodd" clip-rule="evenodd" d="M38.0442 33.4301H34.3622V31.2107C32.9664 32.8765 31.7833 33.7179 30.4934 33.7179C29.3617 33.7179 28.5758 33.1621 28.1823 32.1578C27.9432 31.5472 27.7734 30.5936 27.7734 29.193V13.0513H31.4554V28.1841C31.4554 29.0402 31.4554 29.3947 31.4554 29.5966C31.5414 30.1628 31.7721 30.3698 32.2405 30.3698C32.9451 30.3698 33.583 29.7322 34.3622 28.5877V13.0513H38.0442V33.4301Z" fill="#91B7DC"/>
<mask id="mask0_0_36582" style="mask-type:alpha" maskUnits="userSpaceOnUse" x="0" y="7" width="25" height="28">
<path fill-rule="evenodd" clip-rule="evenodd" d="M0.926758 7.69147H24.3959V34.2845H0.926758V7.69147Z" fill="white"/>
</mask>
<g mask="url(#mask0_0_36582)">
<path fill-rule="evenodd" clip-rule="evenodd" d="M20.6772 28.1122C20.873 30.0571 20.266 31.0223 19.1114 31.0223C17.9567 31.0223 17.3502 30.0571 17.5461 28.1122V20.333C17.3502 18.3879 17.957 17.4765 19.1116 17.4765C20.2663 17.4765 20.8748 18.3879 20.6792 20.333L20.6772 28.1122ZM24.3956 20.7218C24.3956 18.6227 23.9712 17.0463 23.2215 16.0543C22.2307 14.7107 20.6772 14.1608 19.1116 14.1608C17.3395 14.1608 15.991 14.7107 15.002 16.0543C14.24 17.0463 13.8314 18.6398 13.8314 20.7389L13.8276 27.7234C13.8276 29.8106 14.1911 31.2529 14.9531 32.2357C15.9421 33.5751 17.5461 34.2845 19.1116 34.2845C20.6772 34.2845 22.3091 33.5751 23.2998 32.2357C24.0495 31.2529 24.3956 29.8106 24.3956 27.7234V20.7218Z" fill="#8FB6DC"/>
<path fill-rule="evenodd" clip-rule="evenodd" d="M9.71816 23.2503V33.9468H5.80414V23.2503C5.80414 23.2503 1.74841 10.1357 0.911621 7.69147H5.02124L7.76789 17.9359L10.5011 7.69147H14.6107L9.71816 23.2503Z" fill="#8FB6DC"/>
</g>
</svg>
