<svg viewBox="0 0 27 26" fill="none" xmlns="http://www.w3.org/2000/svg">
    <path fill-rule="evenodd" clip-rule="evenodd" d="M0.5 13C0.5 5.8203 6.3203 0 13.5 0C20.6797 0 26.5 5.8203 26.5 13C26.5 20.1797 20.6797 26 13.5 26C6.3203 26 0.5 20.1797 0.5 13ZM20.1254 9.02492C19.9639 8.33046 19.4979 7.78665 18.9006 7.60091C18.0982 7.24078 10.3266 7.06433 8.07218 7.61123C7.47484 7.79903 7.00709 8.34078 6.84733 9.03524C6.4852 10.8823 6.45768 14.8758 6.8562 16.7641C7.01774 17.4586 7.48372 18.0024 8.08106 18.1881C9.66982 18.6133 17.2231 18.6731 18.9095 18.1881C19.5068 18.0003 19.9746 17.4586 20.1343 16.7641C20.5204 14.7519 20.5479 11.0062 20.1254 9.02492ZM11.7659 10.7299L16.0992 12.8966L11.7659 15.0632V10.7299Z" fill="#677897"/>
</svg>
