<svg viewBox="0 0 27 26" fill="none" xmlns="http://www.w3.org/2000/svg">
    <path fill-rule="evenodd" clip-rule="evenodd" d="M13.5 0C6.3203 0 0.5 5.8203 0.5 13C0.5 20.1797 6.3203 26 13.5 26C20.6797 26 26.5 20.1797 26.5 13C26.5 5.8203 20.6797 0 13.5 0ZM15.6957 6.93352C16.8246 7.12997 17.9043 7.47497 18.9141 7.94969C20.6798 10.599 21.5571 13.587 21.2331 17.0333C19.8822 18.0482 18.5718 18.6639 17.2834 19.0669C16.9644 18.6274 16.6822 18.159 16.4381 17.6679C16.9031 17.4904 17.3497 17.2713 17.7718 17.0157C17.6614 16.9326 17.5522 16.8457 17.4454 16.7563C14.9092 17.9626 12.1203 17.9626 9.5534 16.7563C9.44789 16.8457 9.33868 16.9326 9.22703 17.0157C9.64788 17.27 10.0933 17.4891 10.5583 17.6667C10.3141 18.159 10.0307 18.6262 9.71291 19.0656C8.4258 18.6627 7.1166 18.0469 5.76568 17.0333C5.48961 14.0604 6.04175 11.0447 8.07856 7.9522C9.08838 7.47624 10.1694 7.12997 11.2994 6.93352C11.4393 7.18536 11.6049 7.52409 11.7166 7.79355C12.8945 7.61222 14.0835 7.61222 15.2834 7.79355C15.3951 7.52409 15.5571 7.18536 15.6957 6.93352ZM9.50554 13.6021C9.50554 14.4822 10.1375 15.205 10.908 15.205C11.6921 15.205 12.3117 14.4822 12.3105 13.6021C12.3239 12.7207 11.6921 11.9979 10.908 11.9979C10.124 11.9979 9.50554 12.7219 9.50554 13.6021ZM14.6884 13.6021C14.6884 14.4822 15.3203 15.205 16.0908 15.205C16.8749 15.205 17.4933 14.4822 17.4933 13.6021C17.5068 12.7207 16.8749 11.9979 16.0908 11.9979C15.3068 11.9979 14.6884 12.7219 14.6884 13.6021Z" fill="#677897"/>
</svg>
