<svg viewBox="0 0 27 26" fill="none" xmlns="http://www.w3.org/2000/svg">
    <path fill-rule="evenodd" clip-rule="evenodd" d="M13.5 0C6.3203 0 0.5 5.8203 0.5 13C0.5 20.1797 6.3203 26 13.5 26C20.6797 26 26.5 20.1797 26.5 13C26.5 5.8203 20.6797 0 13.5 0ZM10.6416 6.10837C11.3812 6.07471 11.6175 6.06648 13.5005 6.06648H13.4983C15.3819 6.06648 15.6173 6.07471 16.3569 6.10837C17.095 6.14217 17.5991 6.25903 18.0411 6.43048C18.4976 6.60743 18.8832 6.84432 19.2689 7.22999C19.6546 7.61537 19.8915 8.0022 20.0691 8.45821C20.2396 8.89906 20.3566 9.40289 20.3913 10.141C20.4245 10.8806 20.4331 11.1169 20.4331 12.9999C20.4331 14.8829 20.4245 15.1186 20.3913 15.8582C20.3566 16.596 20.2396 17.1 20.0691 17.541C19.8915 17.9968 19.6546 18.3837 19.2689 18.7691C18.8837 19.1547 18.4974 19.3922 18.0416 19.5693C17.6004 19.7407 17.096 19.8576 16.3579 19.8914C15.6183 19.9251 15.3827 19.9333 13.4996 19.9333C11.6167 19.9333 11.3806 19.9251 10.641 19.8914C9.90304 19.8576 9.39906 19.7407 8.95793 19.5693C8.5022 19.3922 8.11537 19.1547 7.73014 18.7691C7.34461 18.3837 7.10772 17.9968 6.93048 17.5408C6.75917 17.1 6.64231 16.5962 6.60837 15.858C6.57486 15.1185 6.56648 14.8829 6.56648 12.9999C6.56648 11.1169 6.57515 10.8804 6.60822 10.1409C6.64145 9.40304 6.75845 8.89906 6.93034 8.45807C7.10801 8.0022 7.3449 7.61537 7.73057 7.22999C8.11595 6.84446 8.50278 6.60757 8.95879 6.43048C9.39964 6.25903 9.90347 6.14217 10.6416 6.10837Z" fill="#677897"/>
    <path fill-rule="evenodd" clip-rule="evenodd" d="M12.8793 7.31619C13.0001 7.316 13.13 7.31606 13.2702 7.31612L13.5013 7.31619C15.3525 7.31619 15.572 7.32283 16.303 7.35605C16.979 7.38696 17.3459 7.49992 17.5903 7.59482C17.9139 7.72049 18.1445 7.87071 18.3871 8.11338C18.6297 8.35605 18.78 8.58717 18.9059 8.91073C19.0008 9.15484 19.1139 9.52173 19.1447 10.1977C19.1779 10.9286 19.1851 11.1482 19.1851 12.9985C19.1851 14.8489 19.1779 15.0685 19.1447 15.7994C19.1138 16.4754 19.0008 16.8423 18.9059 17.0864C18.7803 17.4099 18.6297 17.6403 18.3871 17.8828C18.1444 18.1255 17.914 18.2757 17.5903 18.4014C17.3462 18.4967 16.979 18.6094 16.303 18.6403C15.5721 18.6735 15.3525 18.6808 13.5013 18.6808C11.65 18.6808 11.4306 18.6735 10.6997 18.6403C10.0236 18.6091 9.65676 18.4962 9.41221 18.4013C9.08865 18.2756 8.85754 18.1254 8.61487 17.8827C8.3722 17.64 8.22198 17.4095 8.09602 17.0858C8.00112 16.8417 7.88802 16.4748 7.85725 15.7988C7.82403 15.0679 7.81738 14.8483 7.81738 12.9968C7.81738 11.1453 7.82403 10.9269 7.85725 10.196C7.88816 9.52 8.00112 9.15311 8.09602 8.9087C8.22169 8.58514 8.3722 8.35403 8.61487 8.11136C8.85754 7.86869 9.08865 7.71847 9.41221 7.59251C9.65661 7.49718 10.0236 7.38451 10.6997 7.35345C11.3393 7.32456 11.5871 7.3159 12.8793 7.31445V7.31619ZM17.2021 8.46712C16.7428 8.46712 16.3701 8.83936 16.3701 9.29884C16.3701 9.75818 16.7428 10.1309 17.2021 10.1309C17.6614 10.1309 18.0341 9.75818 18.0341 9.29884C18.0341 8.8395 17.6614 8.46683 17.2021 8.46683V8.46712ZM9.93967 12.9993C9.93967 11.033 11.5338 9.43881 13.5001 9.43873C15.4665 9.43873 17.0603 11.033 17.0603 12.9993C17.0603 14.9657 15.4666 16.5592 13.5003 16.5592C11.5339 16.5592 9.93967 14.9657 9.93967 12.9993Z" fill="#677897"/>
    <path fill-rule="evenodd" clip-rule="evenodd" d="M13.5006 10.689C14.7769 10.689 15.8117 11.7236 15.8117 13.0001C15.8117 14.2764 14.7769 15.3112 13.5006 15.3112C12.2241 15.3112 11.1895 14.2764 11.1895 13.0001C11.1895 11.7236 12.2241 10.689 13.5006 10.689V10.689Z" fill="#677897"/>
</svg>
