<svg viewBox="0 0 27 26" fill="none" xmlns="http://www.w3.org/2000/svg">
    <path fill-rule="evenodd" clip-rule="evenodd" d="M13.5 0C6.3203 0 0.5 5.8203 0.5 13C0.5 20.1797 6.3203 26 13.5 26C20.6797 26 26.5 20.1797 26.5 13C26.5 5.8203 20.6797 0 13.5 0ZM9.14045 18.4286C12.2556 18.4286 14.7809 15.8702 14.7809 12.7143C14.7809 9.55838 12.2556 7 9.14045 7C6.02531 7 3.5 9.55838 3.5 12.7143C3.5 15.8702 6.02531 18.4286 9.14045 18.4286ZM20.9705 12.7144C20.9705 15.6852 19.7079 18.0934 18.1503 18.0934C16.5928 18.0934 15.3301 15.6852 15.3301 12.7144C15.3301 9.74369 16.5928 7.33545 18.1503 7.33545C19.7079 7.33545 20.9705 9.74369 20.9705 12.7144ZM22.5085 17.5332C23.0563 17.5332 23.5004 15.3755 23.5004 12.7139C23.5004 10.0522 23.0563 7.89453 22.5085 7.89453C21.9606 7.89453 21.5166 10.0522 21.5166 12.7139C21.5166 15.3755 21.9606 17.5332 22.5085 17.5332Z" fill="#677897"/>
</svg>
