<svg viewBox="0 0 27 26" fill="none" xmlns="http://www.w3.org/2000/svg">
    <path fill-rule="evenodd" clip-rule="evenodd" d="M13.5 0C6.3203 0 0.5 5.8203 0.5 13C0.5 20.1797 6.3203 26 13.5 26C20.6797 26 26.5 20.1797 26.5 13C26.5 5.8203 20.6797 0 13.5 0ZM19.8004 10.5943C19.8004 10.4519 19.8004 10.3109 19.7915 10.1698C20.3828 9.70512 20.894 9.1299 21.2998 8.46955C20.7485 8.73538 20.1632 8.90957 19.564 8.98626C20.1949 8.57614 20.6671 7.93073 20.8928 7.17093C20.299 7.5531 19.6502 7.82284 18.9732 7.96778C17.8288 6.64641 15.9141 6.58271 14.6966 7.82544C13.9113 8.62683 13.5785 9.82146 13.8221 10.9615C11.3914 10.8295 9.12708 9.58292 7.5924 7.5323C6.79034 9.03241 7.19975 10.9511 8.52793 11.915C8.0467 11.8994 7.57623 11.7583 7.15605 11.5042V11.5458C7.15605 13.1083 8.1706 14.4537 9.58078 14.7631C9.13606 14.895 8.66919 14.9145 8.21609 14.8196C8.61233 16.1566 9.74658 17.0724 11.04 17.0991C9.96924 18.0122 8.64704 18.5082 7.28594 18.5069C7.04532 18.5062 6.8053 18.4906 6.56648 18.4594C7.94913 19.4227 9.55744 19.9335 11.1999 19.9309V19.9335C16.7598 19.9335 19.8004 14.9314 19.8004 10.5943Z" fill="#677897"/>
</svg>
