<svg viewBox="0 0 27 26" fill="none" xmlns="http://www.w3.org/2000/svg">
    <path fill-rule="evenodd" clip-rule="evenodd" d="M0.5 13C0.5 5.8203 6.3203 0 13.5 0C20.6797 0 26.5 5.8203 26.5 13C26.5 20.1797 20.6797 26 13.5 26C6.3203 26 0.5 20.1797 0.5 13ZM5.79931 13.0571C9.5894 11.3425 12.1125 10.2032 13.3795 9.65049C16.9855 8.08257 17.7435 7.81184 18.2308 7.80056C18.3391 7.80056 18.5773 7.82312 18.7398 7.95848C18.8697 8.07129 18.9022 8.21793 18.9238 8.33073C18.9455 8.44353 18.9672 8.68041 18.9455 8.86089C18.7506 11.0041 17.9059 16.2042 17.4728 18.5955C17.2887 19.6107 16.9313 19.9492 16.5848 19.983C15.8268 20.0507 15.2529 19.4641 14.5273 18.9678C13.3795 18.1895 12.7406 17.7044 11.6252 16.9374C10.3366 16.0575 11.1704 15.5725 11.9068 14.7829C12.1017 14.5799 15.4261 11.4215 15.4911 11.1395C15.5019 11.1056 15.5019 10.9703 15.4261 10.9026C15.3503 10.8349 15.242 10.8575 15.1554 10.88C15.0363 10.9026 13.2171 12.1659 9.67603 14.6588C9.15625 15.0311 8.69061 15.2115 8.26828 15.2003C7.80265 15.189 6.91468 14.9295 6.2433 14.7039C5.43113 14.4332 4.7814 14.2866 4.83555 13.8128C4.86803 13.5647 5.1929 13.3165 5.79931 13.0571Z" fill="#677897"/>
</svg>
