<svg viewBox="0 0 27 26" fill="none" xmlns="http://www.w3.org/2000/svg">
    <path fill-rule="evenodd" clip-rule="evenodd" d="M13.5 0C6.3203 0 0.5 5.8203 0.5 13C0.5 20.1797 6.3203 26 13.5 26C20.6797 26 26.5 20.1797 26.5 13C26.5 5.8203 20.6797 0 13.5 0ZM17.7803 8.18156C17.8694 8.24263 17.9614 8.29897 18.0559 8.35037C18.6707 8.67295 19.2711 8.77117 19.5669 8.73741V11.2493C19.5669 11.2493 18.7229 11.2125 18.0964 11.0375C17.2233 10.7917 16.6636 10.4142 16.6636 10.4142C16.6636 10.4142 16.2751 10.1438 16.246 10.1253V15.3161C16.246 15.6046 16.1734 16.3265 15.9558 16.9284C15.7651 17.4431 15.4925 17.9198 15.1497 18.3382C15.1497 18.3382 14.6131 19.0383 13.6705 19.5082C12.8849 19.9 12.186 19.9215 11.9084 19.93C11.8857 19.9307 11.8658 19.9313 11.849 19.932C11.849 19.932 10.5585 19.9867 9.39453 19.1543L9.38869 19.1481V19.1543C8.99518 18.8653 8.64427 18.5169 8.34726 18.1202C7.97892 17.6258 7.7529 17.0392 7.69457 16.8673V16.8612C7.60183 16.5693 7.40731 15.8631 7.43647 15.1814C7.48284 13.9804 7.86576 13.2404 7.96725 13.0562C8.23395 12.5512 8.58233 12.0991 8.99673 11.7201C9.46967 11.3029 10.0196 10.9933 10.6119 10.811C11.2042 10.6286 11.826 10.5774 12.4381 10.6606L12.4351 13.237C12.2335 13.1678 12.0228 13.1327 11.8107 13.1329C10.6906 13.1329 9.7827 14.0942 9.7827 15.2814C9.7827 16.4686 10.6906 17.4299 11.8107 17.4299C12.1595 17.4304 12.5024 17.3352 12.8055 17.1537C13.0964 16.9798 13.3422 16.7333 13.5213 16.436C13.7004 16.1386 13.8073 15.7995 13.8327 15.4484V15.4429C13.8341 15.4355 13.8341 15.4282 13.8341 15.4211C13.8344 15.4155 13.8348 15.4102 13.8351 15.4049C13.8358 15.3942 13.8365 15.384 13.8365 15.3732C13.8417 15.2449 13.8417 15.1151 13.8417 14.9837V5.19944H16.246C16.2422 5.19944 16.2171 5.44191 16.2778 5.81667H16.2748C16.3475 6.26816 16.5446 6.91302 17.0725 7.54867C17.2834 7.78874 17.5211 8.00122 17.7803 8.18156Z" fill="#677897"/>
</svg>
