<svg width="26" height="20" viewBox="0 0 26 20" fill="none" xmlns="http://www.w3.org/2000/svg">
    <path d="M22.0102 1.65717C20.353 0.889834 18.576 0.324464 16.718 0.000626323C16.6841 -0.00562596 16.6503 0.0100047 16.6329 0.0412149C16.4043 0.451457 16.1512 0.986591 15.9739 1.40724C13.9755 1.10528 11.9873 1.10528 10.0299 1.40724C9.85258 0.977263 9.59024 0.451457 9.36066 0.0412149C9.34324 0.0110297 9.30942 -0.00460099 9.2756 0.000626323C7.41863 0.323388 5.64159 0.888758 3.98338 1.65717C3.969 1.66343 3.95671 1.67383 3.94854 1.68736C0.577879 6.76939 -0.345529 11.7265 0.107441 16.6222C0.109472 16.6461 0.122827 16.669 0.141261 16.6836C2.36513 18.3318 4.51937 19.3324 6.63355 19.9956C6.66737 20.006 6.70322 19.9936 6.72475 19.9654C7.22485 19.2762 7.67066 18.5495 8.05289 17.7852C8.07543 17.7404 8.0539 17.6873 8.00779 17.6696C7.30066 17.3989 6.62735 17.0688 5.97964 16.6941C5.9284 16.6639 5.92429 16.5899 5.97146 16.5545C6.10776 16.4515 6.24411 16.3442 6.37426 16.2359C6.39782 16.2161 6.43063 16.212 6.4583 16.2244C10.7134 18.185 15.32 18.185 19.5248 16.2244C19.5525 16.2109 19.5853 16.2151 19.6099 16.2348C19.7401 16.3431 19.8764 16.4514 20.0137 16.5545C20.0608 16.5899 20.0577 16.6638 20.0066 16.694C19.3588 17.0761 18.6855 17.3989 17.9774 17.6685C17.9313 17.6862 17.9108 17.7404 17.9334 17.7851C18.3238 18.5483 18.7696 19.2751 19.2605 19.9644C19.281 19.9935 19.3179 20.006 19.3517 19.9956C21.4761 19.3324 23.6304 18.3317 25.8542 16.6836C25.8737 16.669 25.886 16.6471 25.888 16.6232C26.4302 10.9633 24.98 6.04679 22.0439 1.68838C22.0368 1.67383 22.0245 1.66343 22.0102 1.65717ZM8.68842 13.6412C7.40735 13.6412 6.35176 12.4543 6.35176 10.9966C6.35176 9.53894 7.38684 8.35198 8.68842 8.35198C10.0001 8.35198 11.0455 9.54935 11.025 10.9966C11.025 12.4543 9.98989 13.6412 8.68842 13.6412ZM17.3277 13.6412C16.0467 13.6412 14.9911 12.4543 14.9911 10.9966C14.9911 9.53894 16.0262 8.35198 17.3277 8.35198C18.6395 8.35198 19.6848 9.54935 19.6643 10.9966C19.6643 12.4543 18.6395 13.6412 17.3277 13.6412Z" fill="white"/>
</svg>
