<svg width="20" height="20" viewBox="0 0 20 20" fill="none" xmlns="http://www.w3.org/2000/svg">
    <path d="M15.8137 3.69995C15.546 3.69995 15.3281 3.9178 15.3281 4.1855C15.3281 4.45319 15.546 4.67104 15.8137 4.67104C16.0814 4.67104 16.2992 4.45323 16.2992 4.1855C16.2992 3.91776 16.0814 3.69995 15.8137 3.69995Z" fill="white"/>
    <path d="M9.99984 5.69482C7.62633 5.69482 5.69531 7.62584 5.69531 9.99936C5.69531 12.3729 7.62633 14.3039 9.99984 14.3039C12.3734 14.3039 14.3044 12.3729 14.3044 9.99939C14.3044 7.62588 12.3734 5.69482 9.99984 5.69482Z" fill="white"/>
    <path d="M14.5173 -0.000732422H5.4827C2.45953 -0.000732422 0 2.4588 0 5.482V14.5166C0 17.5398 2.45953 19.9993 5.4827 19.9993H14.5173C17.5405 19.9993 20 17.5397 20 14.5166V5.482C20 2.4588 17.5405 -0.000732422 14.5173 -0.000732422ZM10 15.4849C6.9752 15.4849 4.51441 13.0241 4.51441 9.99927C4.51441 6.97446 6.97523 4.51372 10 4.51372C13.0248 4.51372 15.4856 6.9745 15.4856 9.99927C15.4856 13.024 13.0248 15.4849 10 15.4849ZM15.8137 5.85224C14.8947 5.85224 14.1471 5.10458 14.1471 4.1856C14.1471 3.26661 14.8947 2.51892 15.8137 2.51892C16.7327 2.51892 17.4804 3.26657 17.4804 4.18556C17.4804 5.10454 16.7327 5.85224 15.8137 5.85224Z" fill="white"/>
</svg>
