<svg width="28" height="16" viewBox="0 0 28 16" fill="none" xmlns="http://www.w3.org/2000/svg">
    <path d="M15.7933 7.99927C15.7933 12.4175 12.2578 15.9993 7.89663 15.9993C3.53543 15.9993 0 12.4175 0 7.99927C0 3.581 3.53543 -0.000732422 7.89663 -0.000732422C12.2578 -0.000732422 15.7933 3.581 15.7933 7.99927Z" fill="white"/>
    <path d="M24.4582 7.99958C24.4582 12.1586 22.6904 15.5302 20.5098 15.5302C18.3293 15.5302 16.5615 12.1586 16.5615 7.99958C16.5615 3.84053 18.3293 0.468994 20.5098 0.468994C22.6905 0.468994 24.4582 3.84053 24.4582 7.99958Z" fill="white"/>
    <path d="M27.9999 7.99879C27.9999 11.7251 27.3782 14.7459 26.6113 14.7459C25.8443 14.7459 25.2227 11.7251 25.2227 7.99879C25.2227 4.27246 25.8443 1.25171 26.6113 1.25171C27.3782 1.25171 27.9999 4.27246 27.9999 7.99879Z" fill="white"/>
</svg>
