<svg width="20" height="20" viewBox="0 0 20 20" fill="none" xmlns="http://www.w3.org/2000/svg">
    <path d="M18.7616 5.0144C17.6202 5.0144 16.5671 4.63628 15.7214 3.99839C14.7515 3.26714 14.0546 2.19448 13.8085 0.958154C13.7476 0.652685 13.7147 0.337451 13.7116 0.0144043H10.4511V8.92378L10.4472 13.8039C10.4472 15.1085 9.59755 16.2148 8.41982 16.6039C8.07802 16.7167 7.70888 16.7703 7.3245 16.7492C6.83388 16.7222 6.37411 16.5742 5.9745 16.3351C5.12411 15.8265 4.54755 14.9039 4.53193 13.8484C4.50732 12.1988 5.84091 10.8539 7.48935 10.8539C7.81474 10.8539 8.12724 10.907 8.41982 11.0035V8.56831V7.69292C8.11122 7.64722 7.79716 7.62339 7.47958 7.62339C5.67529 7.62339 3.98779 8.37339 2.78154 9.72456C1.86982 10.7457 1.32294 12.0484 1.23857 13.4144C1.12802 15.2089 1.78466 16.9148 3.0581 18.1734C3.24521 18.3582 3.44169 18.5296 3.64716 18.6878C4.73896 19.5281 6.07372 19.9835 7.47958 19.9835C7.79716 19.9835 8.11122 19.9601 8.41982 19.9144C9.7331 19.7199 10.9448 19.1187 11.9011 18.1734C13.0761 17.0121 13.7253 15.4703 13.7323 13.8292L13.7155 6.54175C14.2761 6.97417 14.889 7.33198 15.5468 7.60972C16.5698 8.04136 17.6546 8.26011 18.771 8.25972V5.89214V5.01362C18.7718 5.0144 18.7624 5.0144 18.7616 5.0144Z" fill="white"/>
</svg>
