<svg width="24" height="20" viewBox="0 0 24 20" fill="none" xmlns="http://www.w3.org/2000/svg">
    <path d="M24 2.36696C23.1075 2.7685 22.1565 3.03465 21.165 3.16388C22.185 2.53927 22.9635 1.55773 23.3295 0.374652C22.3785 0.956191 21.3285 1.36696 20.2095 1.59619C19.3065 0.610037 18.0195 -0.000732422 16.6155 -0.000732422C13.8915 -0.000732422 11.6985 2.26696 11.6985 5.04696C11.6985 5.44696 11.7315 5.83157 11.8125 6.19773C7.722 5.99311 4.1025 3.98234 1.671 0.919268C1.2465 1.67465 0.9975 2.53927 0.9975 3.47004C0.9975 5.21773 1.875 6.76696 3.183 7.66388C2.3925 7.6485 1.617 7.41311 0.96 7.04234C0.96 7.05773 0.96 7.07773 0.96 7.09773C0.96 9.55004 2.6655 11.587 4.902 12.0562C4.5015 12.1685 4.065 12.2223 3.612 12.2223C3.297 12.2223 2.979 12.2039 2.6805 12.1362C3.318 14.1347 5.127 15.6039 7.278 15.6516C5.604 16.9947 3.4785 17.8039 1.1775 17.8039C0.774 17.8039 0.387 17.7854 0 17.7347C2.1795 19.1762 4.7625 19.9993 7.548 19.9993C16.602 19.9993 21.552 12.307 21.552 5.63927C21.552 5.41619 21.5445 5.20081 21.534 4.98696C22.5105 4.27619 23.331 3.3885 24 2.36696Z" fill="white"/>
</svg>
