<svg width="87" height="78" viewBox="0 0 87 78" fill="none" xmlns="http://www.w3.org/2000/svg">
<g id="Feeds solid">
<rect id="Rectangle 2" x="3.24951" y="2.75037" width="80.0001" height="72.5001" rx="1.25" stroke="url(#paint0_linear_9808_5547)" stroke-width="2.5"/>
<path id="Combined Shape" fill-rule="evenodd" clip-rule="evenodd" d="M19.5012 18.9998C18.1205 18.9998 17.0012 20.119 17.0012 21.4998V41.4998C17.0012 42.8805 18.1205 43.9998 19.5012 43.9998H67.0013C68.382 43.9998 69.5013 42.8805 69.5013 41.4998V21.4998C69.5013 20.119 68.382 18.9998 67.0012 18.9998H19.5012ZM17.001 55.2494C17.001 51.7976 19.7992 48.9994 23.251 48.9994C26.7028 48.9994 29.501 51.7976 29.501 55.2494C29.501 58.7012 26.7028 61.4994 23.251 61.4994C19.7992 61.4994 17.001 58.7012 17.001 55.2494ZM34.5006 55.2498C34.5006 53.1787 36.1795 51.4998 38.2506 51.4998H65.7506C67.8217 51.4998 69.5006 53.1787 69.5006 55.2498C69.5006 57.3208 67.8217 58.9998 65.7506 58.9998H38.2506C36.1795 58.9998 34.5006 57.3208 34.5006 55.2498Z" fill="url(#paint1_linear_9808_5547)"/>
</g>
<defs>
<linearGradient id="paint0_linear_9808_5547" x1="129.749" y1="47.0209" x2="65.9474" y2="-34.0069" gradientUnits="userSpaceOnUse">
<stop stop-color="#5C00D0"/>
<stop offset="1" stop-color="#00A6FF"/>
</linearGradient>
<linearGradient id="paint1_linear_9808_5547" x1="95.751" y1="43.0943" x2="60.786" y2="-6.77305" gradientUnits="userSpaceOnUse">
<stop stop-color="#5C00D0"/>
<stop offset="1" stop-color="#00A6FF"/>
</linearGradient>
</defs>
</svg>
